<svg width="167" height="92" viewBox="0 0 167 92" fill="none" xmlns="http://www.w3.org/2000/svg">
<path d="M54.9609 55.668L47.707 37.8438H49.9219L54.9609 50.9688L59.9766 37.8438H62.1797L54.9609 55.668ZM73.3083 41.6758L70.5778 47.9922H76.0387L73.3083 41.6758ZM73.3083 37.1641L81.113 55H78.8981L76.6716 49.7383H69.9684L67.7419 55H65.527L73.3083 37.1641ZM91.6791 55.668L84.4252 37.8438H86.64L91.6791 50.9688L96.6947 37.8438H98.8978L91.6791 55.668ZM105.046 55V37.8438H107.085V55H105.046ZM115.553 55V37.8438H117.592V53.0547H124.073V55H115.553ZM138.33 53.5352C139.268 53.5352 140.159 53.3594 141.002 53.0078C141.854 52.6484 142.62 52.1289 143.299 51.4492C143.971 50.7773 144.483 50.0156 144.834 49.1641C145.186 48.3125 145.362 47.4102 145.362 46.457C145.362 45.4961 145.182 44.582 144.823 43.7148C144.471 42.8477 143.963 42.082 143.299 41.418C142.627 40.7461 141.866 40.2344 141.014 39.8828C140.17 39.5312 139.276 39.3555 138.33 39.3555C137.377 39.3555 136.475 39.5312 135.623 39.8828C134.772 40.2344 134.018 40.7461 133.362 41.418C132.69 42.0977 132.178 42.8672 131.827 43.7266C131.475 44.5859 131.299 45.4961 131.299 46.457C131.299 47.4102 131.471 48.3086 131.815 49.1523C132.166 49.9961 132.682 50.7617 133.362 51.4492C134.049 52.1367 134.811 52.6562 135.647 53.0078C136.491 53.3594 137.385 53.5352 138.33 53.5352ZM147.495 46.457C147.495 47.6836 147.268 48.8398 146.815 49.9258C146.362 51.0117 145.702 51.9766 144.834 52.8203C143.967 53.6641 142.967 54.3164 141.834 54.7773C140.709 55.2305 139.541 55.457 138.33 55.457C137.12 55.457 135.952 55.2305 134.827 54.7773C133.709 54.3164 132.717 53.6641 131.85 52.8203C130.975 51.9688 130.307 51 129.846 49.9141C129.393 48.8281 129.166 47.6758 129.166 46.457C129.166 45.2305 129.393 44.0742 129.846 42.9883C130.307 41.8945 130.975 40.9219 131.85 40.0703C132.709 39.2344 133.702 38.5898 134.827 38.1367C135.952 37.6836 137.12 37.457 138.33 37.457C139.549 37.457 140.721 37.6836 141.846 38.1367C142.979 38.5898 143.975 39.2344 144.834 40.0703C145.702 40.9141 146.362 41.8828 146.815 42.9766C147.268 44.0625 147.495 45.2227 147.495 46.457ZM159.631 55.668L152.377 37.8438H154.592L159.631 50.9688L164.647 37.8438H166.85L159.631 55.668Z" fill="white"/>
<path d="M1 65L32 47M1 65V29M1 65L11 47M32 47L1 29M32 47H11M1 29L11 47" stroke="white" stroke-width="2"/>
</svg>
