<svg width="88" height="88" viewBox="0 0 88 88" fill="none" xmlns="http://www.w3.org/2000/svg">
<path d="M44 0L88 44L44 88L0 44L44 0Z" fill="#FFE81B"/>
<path d="M59.5912 38.0663C57.4464 34.2711 57.1164 31.8313 57.1164 31.8313L57.0064 30.747L56.0165 31.2892C56.0165 31.2892 55.4665 31.5602 54.0367 31.5602C53.3767 31.5602 51.3419 30.9639 49.527 30.4217C47.1622 29.7169 44.6874 29.012 43.4225 29.012C41.5527 29.012 39.0779 30.747 37.3731 32.2651C36.6031 32.4277 34.8983 32.5361 33.3034 32.2108C32.9734 32.1566 32.2585 31.994 31.9835 31.9398L31.3236 31.7229L31.0486 32.3735C31.0486 32.4277 29.8937 35.4096 28.3538 38.4458C27.0889 40.994 24.4491 44.247 24.3941 44.247L23.8442 44.8976L24.5591 45.3313C25.3291 45.8193 25.879 46.5783 26.099 46.8494L25.659 47.0663L25.604 47.1205C24.4491 47.9337 24.1742 49.6687 24.9991 51.0241C25.494 51.7831 26.264 52.2711 27.1439 52.2711C27.3639 52.2711 27.6389 52.2169 27.8588 52.1626C27.7489 52.8675 27.8588 53.5723 28.2438 54.1687C28.7388 54.9819 29.6187 55.4699 30.6086 55.4699C30.8836 55.4699 31.1586 55.4157 31.4335 55.3614C31.4335 55.9036 31.5435 56.4458 31.8735 56.8795C32.3685 57.6928 33.2484 58.2349 34.2383 58.2349C34.7883 58.2349 35.3932 58.0723 35.8882 57.747L36.5481 57.3133C36.6031 57.6928 36.7681 58.0723 36.9881 58.4518C37.483 59.3735 38.363 59.9157 39.2429 59.9157C39.7379 59.9157 40.1778 59.753 40.6178 59.4819L41.2227 59.1566C41.7177 59.4277 42.9276 60.1325 43.8075 60.6205C44.3025 60.8916 44.8524 61 45.4024 61C46.3373 61 47.2172 60.6205 47.7122 60.1325C48.3171 59.5361 48.5371 58.9398 48.5921 58.3976C48.9221 58.6145 49.1971 58.7229 49.3621 58.8313C50.022 59.2108 50.6819 59.3735 51.2869 59.3735C52.1668 59.3735 52.9918 58.9398 53.5967 58.1265C54.0367 57.5843 54.1467 56.9337 54.2016 56.3916C54.6416 56.5542 55.0816 56.6084 55.4665 56.6084C56.4015 56.6084 57.2264 56.2289 57.7214 55.5241C58.3263 54.7108 58.5463 54.0602 58.4913 53.4096C58.6013 53.4096 58.6563 53.4096 58.7663 53.4096C59.9212 53.4096 60.9661 52.8675 61.626 51.8373C61.956 51.2952 61.846 50.8072 61.846 50.3735C61.901 49.1265 61.1861 48.1506 60.0312 47.3374C59.9212 47.2289 61.0211 45.4398 63.4959 44.5181L64.6508 43.9217L63.5509 43.2169C63.5509 43.2169 61.901 42.0241 59.5912 38.0663ZM27.9138 50.4819L27.8588 50.5361C27.6389 50.6988 27.4189 50.753 27.1439 50.753C26.8689 50.753 26.539 50.6446 26.264 50.2108C25.879 49.5602 25.934 48.6928 26.429 48.3675L28.2438 47.3374L28.2988 47.2831C28.4638 47.1747 28.6838 47.0663 28.8488 47.0663C29.2887 47.0663 29.6737 47.5542 29.8937 47.8253C30.4436 48.6386 30.2786 49.0181 29.7287 49.3976L27.9138 50.4819ZM31.4335 53.7349C30.8286 54.1687 29.9487 54.006 29.5637 53.4096C29.1237 52.759 29.3987 51.7831 30.0587 51.2952L32.3135 49.7229C32.5335 49.5602 32.8084 49.4518 33.0834 49.4518C33.5234 49.4518 33.9083 49.6687 34.1283 50.0482C34.5683 50.753 34.3483 51.6747 33.6334 52.1626L31.4335 53.7349ZM37.2081 54.9277L35.0082 56.4458C34.4033 56.8795 33.5784 56.7169 33.1934 56.0663C32.7534 55.4157 32.9734 54.4398 33.6334 54.006L35.8332 52.488C36.0532 52.3253 36.3281 52.2711 36.6031 52.2711C37.0431 52.2711 37.428 52.488 37.703 52.8675C38.088 53.5181 37.868 54.494 37.2081 54.9277ZM41.7177 57.0964L39.8478 58.1265L39.7929 58.1807C39.2979 58.5602 38.6379 58.3434 38.308 57.6928C37.868 56.9337 37.923 56.3374 38.418 56.012L40.2328 55.0361L40.2878 54.9819C40.5078 54.8193 40.7278 54.7651 40.9478 54.7651C41.1127 54.7651 41.3327 54.8193 41.5527 54.9277L41.7727 55.253C42.1577 55.9036 42.1577 56.7711 41.7177 57.0964ZM60.1412 51.0241C59.5912 51.8916 58.8213 52.1084 57.7214 51.6747C56.3465 51.1325 51.2869 48.0422 51.2319 48.0422L50.462 49.2892C50.6819 49.3976 55.0816 52.1084 56.8414 52.9217C57.0614 53.3012 57.1164 53.7892 56.5115 54.6566C56.0165 55.3072 54.8066 55.253 53.7067 54.494C52.1118 53.4096 47.7672 51.0783 47.6022 50.9699L46.8873 52.2711C46.9423 52.2711 51.0669 54.494 52.7168 55.5783C52.7168 55.6325 52.9368 56.5542 52.4968 57.2048C52.2768 57.5301 51.6719 58.2892 50.187 57.4759C49.3621 56.988 45.0174 54.5482 45.0174 54.5482L44.2475 55.8494C44.2475 55.8494 45.7324 56.6627 47.1072 57.4759H47.0522C47.0522 57.4759 47.4372 58.3434 46.7223 59.0482C46.3373 59.4277 45.4024 59.6988 44.5775 59.2651C44.0275 58.9398 43.3126 58.5602 42.7626 58.2349C43.4775 57.6928 43.9175 56.8795 43.6975 55.8494L42.9276 54.3855C42.4326 53.6265 41.8827 53.4096 40.9478 53.4096C40.5628 53.4096 39.9028 53.5723 39.4079 53.7349C39.4079 53.1928 39.2979 52.5964 38.9679 52.1084C38.473 51.2952 37.593 50.753 36.6031 50.753C36.3831 50.753 36.1082 50.8072 35.8882 50.8614C35.8882 50.3193 35.7782 49.7771 35.4482 49.2892C34.9533 48.4759 34.0733 47.988 33.0834 47.988C32.5885 47.988 32.0935 48.0964 31.7085 48.3675C31.5985 47.988 31.4335 47.6084 31.2136 47.2289C30.3886 46.0361 29.5087 45.8193 28.9038 45.8193C28.4088 45.8193 27.9688 45.9277 27.5289 46.1988H27.4739C27.3089 45.9819 26.8139 45.2229 26.044 44.5723C26.8689 43.488 28.6288 41.1024 29.6737 39.0964C30.8286 36.8193 31.7635 34.5422 32.2035 33.4578C32.4785 33.512 32.7534 33.6205 32.9734 33.6205C33.9633 33.8373 34.8433 33.8373 35.6132 33.8373C35.3932 34.0542 35.2282 34.2169 35.1732 34.2711C34.7333 34.759 34.2933 35.1386 33.9083 35.5181C32.8084 36.494 31.6535 37.5241 32.7534 39.0422C33.3584 39.8554 34.3483 40.2892 35.5032 40.2892C36.6031 40.3434 37.923 39.9639 38.7479 39.259C38.9129 39.0964 39.1329 38.988 39.2979 38.8253C40.2878 38.012 41.6627 36.9277 42.4876 36.9277C43.6425 36.9277 44.9074 37.1446 46.6123 38.5542C48.4821 40.1265 56.6214 46.6325 58.7663 48.1506C61.0761 49.7771 60.4711 50.4277 60.1412 51.0241ZM58.7663 46.253C55.7965 44.0301 49.2521 38.8253 47.6572 37.4699C45.6224 35.7349 43.9175 35.4639 42.5426 35.4639C41.1127 35.4639 39.6279 36.7108 38.363 37.6867C38.198 37.8494 37.978 38.012 37.813 38.1205C37.3181 38.5 36.4381 38.8253 35.5582 38.8253C34.8983 38.8253 34.2933 38.5542 33.9633 38.1747C33.6884 37.7952 33.6334 37.741 34.8983 36.6024C35.2832 36.2229 35.7782 35.7892 36.2731 35.3012C38.528 32.9157 41.8277 30.4759 43.4225 30.4759C44.4675 30.4759 46.9423 31.1807 49.0871 31.8313C51.2319 32.4819 53.1017 33.0241 54.0367 33.0241C54.8066 33.0241 55.3566 32.9699 55.7965 32.8614C56.0715 33.9458 56.7314 36.0602 58.2713 38.7711C59.7562 41.3735 61.0211 42.8916 61.846 43.6506C60.8561 44.247 59.3712 45.2229 58.7663 46.253ZM29.8937 30.6928L29.9487 30.259L21.7544 25.1627L14 42.6747L21.6444 45.1145L21.9743 44.8976C22.0843 44.8434 24.0642 43.3795 27.0889 37.741C29.6737 32.8614 29.8937 30.9096 29.8937 30.6928ZM19.4995 41.9699C18.5646 41.9699 17.8497 41.2651 17.8497 40.3434C17.8497 39.4217 18.5646 38.7169 19.4995 38.7169C20.4345 38.7169 21.1494 39.4217 21.1494 40.3434C21.1494 41.2108 20.3795 41.9699 19.4995 41.9699ZM65.7507 25L58.1063 29.3916L58.1613 29.8795C58.1613 30.0422 58.4363 33.7289 61.2411 38.3916C63.4409 42.0241 66.2456 43.759 66.3556 43.8675L66.6856 44.0843L74 41.8072L65.7507 25ZM68.5005 42.0241C67.5655 42.0241 66.7956 41.2651 66.7956 40.3434C66.7956 39.4217 67.5655 38.6627 68.5005 38.6627C69.4354 38.6627 70.2053 39.4217 70.2053 40.3434C70.2053 41.2651 69.4354 42.0241 68.5005 42.0241Z" fill="#232323"/>
</svg>
