<svg width="88" height="88" viewBox="0 0 88 88" fill="none" xmlns="http://www.w3.org/2000/svg">
<path d="M44 0L88 44L44 88L0 44L44 0Z" fill="#FFE81B"/>
<path d="M43.4999 20C30.0063 20 19 31.0063 19 44.5C19 57.9937 30.0063 69 43.4999 69C56.9935 69 67.9997 57.9937 67.9997 44.5C68.0619 31.0063 57.0556 20 43.4999 20ZM30.4416 63.1548C24.5342 59.0508 20.7411 52.2107 20.7411 44.5C20.7411 31.9391 31.0012 21.6789 43.5621 21.6789C48.5988 21.6789 53.2625 23.2957 56.9935 26.0939L55.4389 28.2703C52.081 25.8452 47.977 24.3528 43.5621 24.3528C32.4314 24.415 23.415 33.4315 23.415 44.5C23.415 51.2779 26.835 57.3096 31.9961 60.9784L30.4416 63.1548ZM43.4999 62.9061C33.3641 62.9061 25.1561 54.698 25.1561 44.5C25.1561 34.3642 33.4263 26.0939 43.5621 26.0939C53.6978 26.1561 61.9059 34.3642 61.9059 44.5C61.9059 54.698 53.6978 62.9061 43.4999 62.9061ZM42.6915 58.3046V60.2322H44.4326V58.3046C44.1217 58.3046 43.873 58.3046 43.5621 58.3046C43.3133 58.3046 43.0024 58.3046 42.6915 58.3046ZM27.7677 43.6294V45.3706H29.9441C29.9441 45.1218 29.9441 44.9353 29.9441 44.6865C29.9441 44.3134 29.9441 44.0025 30.0063 43.6294H27.7677ZM57.2422 43.6294C57.2422 44.0025 57.3044 44.3134 57.3044 44.6865C57.3044 44.9353 57.3044 45.1218 57.3044 45.3706H59.3564V43.6294H57.2422ZM44.4326 31.0063V28.7056H42.6915V31.0063C43.0024 31.0063 43.3133 30.9442 43.5621 30.9442C43.873 31.0063 44.1839 31.0063 44.4326 31.0063ZM54.5683 34.9239L47.2308 40.769C46.2359 39.8985 44.9922 39.2766 43.5621 39.2766C41.6344 39.2766 39.9555 40.3338 39.0849 41.8883L35.8514 40.5203L35.1674 42.0749L38.4631 43.5051C38.4009 43.816 38.3387 44.1269 38.3387 44.5C38.3387 47.3604 40.6395 49.6612 43.4999 49.6612C46.3603 49.6612 48.661 47.3604 48.661 44.5C48.661 43.6916 48.4745 42.8832 48.1014 42.1992L55.5011 36.2919L54.5683 34.9239ZM43.5621 47.9822C41.6344 47.9822 40.0798 46.4277 40.0798 44.5C40.0798 42.5723 41.6344 41.0178 43.5621 41.0178C45.4897 41.0178 47.0443 42.5723 47.0443 44.5C47.0443 46.4277 45.4897 47.9822 43.5621 47.9822ZM43.4999 42.3858C42.3184 42.3858 41.3857 43.3185 41.3857 44.5C41.3857 45.6815 42.3184 46.6142 43.4999 46.6142C44.6813 46.6142 45.6141 45.6815 45.6141 44.5C45.6141 43.3807 44.6813 42.3858 43.4999 42.3858Z" fill="#232323"/>
</svg>
