<?xml version="1.0" encoding="utf-8"?>
<!-- Generator: Adobe Illustrator 23.0.6, SVG Export Plug-In . SVG Version: 6.00 Build 0)  -->
<svg version="1.1" id="Слой_1" xmlns="http://www.w3.org/2000/svg" xmlns:xlink="http://www.w3.org/1999/xlink" x="0px" y="0px"
	 width="21px" height="21px" viewBox="0 0 21 21" style="enable-background:new 0 0 21 21;" xml:space="preserve">
<style type="text/css">
	.st0{fill:#555665;}
</style>
<path class="st0" d="M10.5,0C4.8-0.1,0.1,4.4,0,10.1c0,2.9,1.3,5.6,3.5,7.5v3c0,0.2,0.2,0.4,0.4,0.4c0.1,0,0.2,0,0.2-0.1l2.4-1.5
	c1.2,0.5,2.6,0.7,3.9,0.7c5.7,0.1,10.4-4.4,10.5-10.1C20.9,4.4,16.2-0.1,10.5,0z M17.4,7.7L12.1,13c-0.2,0.2-0.4,0.2-0.6,0l-2.8-2.4
	l-4.5,2.5C4,13.2,3.8,13.1,3.6,13c-0.2-0.2-0.2-0.4,0-0.6l5.2-5.2C9,7,9.3,7,9.5,7.1l2.8,2.4l4.5-2.5C17,7,17.3,7,17.4,7.2
	C17.5,7.3,17.5,7.6,17.4,7.7z"/>
</svg>
