<svg width="24" height="17" fill="none" xmlns="http://www.w3.org/2000/svg"><path d="M21.89 0H2.11c-.325 0-.63.074-.904.197l10.747 9.994 2.409-2.153L22.795.196A2.215 2.215 0 0 0 21.89 0zm1.899 1.121L15.854 8.5l7.935 7.379c.131-.256.211-.539.211-.84V1.96c0-.301-.08-.584-.211-.84zm-23.578 0a1.828 1.828 0 0 0-.211.84v13.077c0 .302.08.585.211.84L8.146 8.5.211 1.12z" fill="#C7C7D5"/><path d="M14.86 9.425l-2.41 2.153a.729.729 0 0 1-.497.191.729.729 0 0 1-.497-.191L9.141 9.425l-7.936 7.378c.275.123.58.197.904.197h19.782c.324 0 .628-.074.903-.197L14.86 9.425z" fill="#C7C7D5"/></svg>