<svg width="21" height="21" fill="none" xmlns="http://www.w3.org/2000/svg"><path d="M15.733 0H5.25C2.367 0 0 2.367 0 5.267V15.75C0 18.633 2.367 21 5.25 21h10.483c2.9 0 5.267-2.367 5.267-5.267V5.267C21 2.367 18.633 0 15.733 0zm-5.8 4.317c.034-.517.517-.334.767-.367 3.133.1 5.833 2.917 5.8 5.95 0 .3.1.733-.35.733-.433 0-.317-.45-.367-.75-.416-3.216-1.916-4.733-5.183-5.233-.267-.033-.683.017-.667-.333zm4.684 5.716c-.5.067-.4-.366-.45-.65-.334-1.966-1.034-2.683-3.05-3.116-.3-.067-.767-.017-.684-.467.067-.433.484-.283.8-.25 2.017.233 3.667 1.95 3.65 3.833-.033.2.1.584-.266.65zM13.367 9c0 .267-.034.517-.334.55-.216.033-.35-.15-.383-.367-.083-.8-.517-1.283-1.35-1.416-.25-.034-.483-.117-.367-.45.084-.217.284-.25.5-.25.9-.017 1.934 1.033 1.934 1.933zm3.166 6.15c-.35.95-1.533 1.917-2.55 1.9-.15-.033-.433-.083-.683-.183-4.467-1.884-7.717-4.984-9.55-9.417-.617-1.483.033-2.75 1.583-3.25.284-.1.55-.1.834 0 .666.233 2.35 2.517 2.383 3.183.033.517-.333.8-.683 1.034-.684.45-.684 1.016-.384 1.666.65 1.434 1.767 2.434 3.217 3.067.517.233 1.033.217 1.383-.317.634-.95 1.417-.9 2.267-.316.433.3.867.583 1.267.9.55.45 1.25.816.916 1.733z" fill="#555665"/></svg>