<svg width="21" height="21" fill="none" xmlns="http://www.w3.org/2000/svg"><path d="M10.503 0h-.006C4.707 0 0 4.71 0 10.5c0 2.297.74 4.426 1.999 6.154L.69 20.555l4.036-1.29A10.41 10.41 0 0 0 10.503 21C16.293 21 21 16.29 21 10.5S16.292 0 10.503 0zm6.11 14.827c-.254.716-1.26 1.309-2.061 1.482-.549.117-1.266.21-3.678-.79-3.086-1.278-5.073-4.414-5.228-4.617-.148-.204-1.247-1.66-1.247-3.167s.766-2.24 1.074-2.556c.253-.258.672-.377 1.074-.377.13 0 .247.007.352.012.308.013.463.032.666.519.254.61.87 2.117.944 2.272.075.154.15.364.045.568-.099.21-.186.303-.34.482-.155.178-.302.315-.457.506-.142.167-.302.345-.123.654.178.302.795 1.308 1.703 2.117 1.172 1.043 2.122 1.377 2.462 1.518.254.106.556.08.74-.116.236-.254.526-.674.82-1.087.21-.297.476-.333.754-.228.284.098 1.784.84 2.092.993.309.155.512.229.587.358.074.13.074.74-.18 1.457z" fill="#555665"/></svg>