<svg width="32" height="32" viewBox="0 0 32 32" fill="none" xmlns="http://www.w3.org/2000/svg">
<g clip-path="url(#clip0)">
<path d="M14.6667 2.66675V5.33341H2.66675V8.00008H4.00008V21.3334C4.00008 22.7908 5.20933 24.0001 6.66675 24.0001H8.64852L6.64852 28.0001H9.63289L11.6329 24.0001H16.0001C16.0001 28.4001 19.6001 32.0001 24.0001 32.0001C28.4001 32.0001 32.0001 28.4001 32.0001 24.0001C32.0001 21.0568 30.3838 18.4779 28.0001 17.0886V8.00008H29.3334V5.33341H17.3334V2.66675H14.6667ZM6.66675 8.00008H25.3334V16.1225C24.8986 16.0486 24.4551 16.0001 24.0001 16.0001C20.5352 16.0001 17.5742 18.2359 16.4688 21.3334H6.66675V8.00008ZM20.3907 9.72404L17.0704 13.0444L14.4037 11.711L9.72404 16.3907L11.6095 18.2761L14.9298 14.9558L17.5964 16.2891L22.2761 11.6095L20.3907 9.72404ZM24.0001 18.6667C26.9334 18.6667 29.3334 21.0667 29.3334 24.0001C29.3334 26.9334 26.9334 29.3334 24.0001 29.3334C21.0667 29.3334 18.6667 26.9334 18.6667 24.0001C18.6667 21.0667 21.0667 18.6667 24.0001 18.6667ZM25.2006 20.2657L22.9324 24.1329L25.8673 27.0678L27.0678 25.7345L25.0678 23.8673L26.6667 21.0678L25.2006 20.2657Z" fill="#232323"/>
</g>
<defs>
<clipPath id="clip0">
<rect width="32" height="32" fill="white"/>
</clipPath>
</defs>
</svg>
