<svg width="32" height="32" viewBox="0 0 32 32" fill="none" xmlns="http://www.w3.org/2000/svg">
<path d="M3.99996 4C3.26396 4 2.66663 4.59733 2.66663 5.33333V18.6667C2.66663 19.4027 3.26396 20 3.99996 20H28C28.736 20 29.3333 19.4027 29.3333 18.6667V5.33333C29.3333 4.59733 28.736 4 28 4H3.99996ZM6.54944 6.66667H25.4505C25.55 6.94708 25.7108 7.20175 25.9212 7.41214C26.1315 7.62253 26.3862 7.78333 26.6666 7.88281V16.1172C26.3862 16.2167 26.1315 16.3775 25.9212 16.5879C25.7108 16.7982 25.55 17.0529 25.4505 17.3333H6.54944C6.44995 17.0529 6.28916 16.7982 6.07877 16.5879C5.86838 16.3775 5.6137 16.2167 5.33329 16.1172V7.88281C5.6137 7.78333 5.86838 7.62253 6.07877 7.41214C6.28916 7.20175 6.44995 6.94708 6.54944 6.66667ZM16 8C14.9391 8 13.9217 8.42143 13.1715 9.17157C12.4214 9.92172 12 10.9391 12 12C12 13.0609 12.4214 14.0783 13.1715 14.8284C13.9217 15.5786 14.9391 16 16 16C17.0608 16 18.0782 15.5786 18.8284 14.8284C19.5785 14.0783 20 13.0609 20 12C20 10.9391 19.5785 9.92172 18.8284 9.17157C18.0782 8.42143 17.0608 8 16 8ZM9.33329 10.6667C8.59729 10.6667 7.99996 11.2627 7.99996 12C7.99996 12.7373 8.59729 13.3333 9.33329 13.3333C10.0693 13.3333 10.6666 12.7373 10.6666 12C10.6666 11.2627 10.0693 10.6667 9.33329 10.6667ZM22.6666 10.6667C21.9306 10.6667 21.3333 11.2627 21.3333 12C21.3333 12.7373 21.9306 13.3333 22.6666 13.3333C23.4026 13.3333 24 12.7373 24 12C24 11.2627 23.4026 10.6667 22.6666 10.6667ZM2.66663 21.3333V24H29.3333V21.3333H2.66663ZM2.66663 25.3333V28H29.3333V25.3333H2.66663Z" fill="#232323"/>
</svg>
