<svg width="32" height="32" viewBox="0 0 32 32" fill="none" xmlns="http://www.w3.org/2000/svg">
<path d="M17.3333 2.66675L19.7239 5.05737L17.3333 7.448L13.3333 3.448L8.06506 8.71623L9.95048 10.6016L13.3333 7.21883L17.3333 11.2188L21.6093 6.94279L24 9.33342V2.66675H17.3333ZM3.99996 13.3334C3.26396 13.3334 2.66663 13.9307 2.66663 14.6667V28.0001C2.66663 28.7361 3.26396 29.3334 3.99996 29.3334H28C28.736 29.3334 29.3333 28.7361 29.3333 28.0001V14.6667C29.3333 13.9307 28.736 13.3334 28 13.3334H3.99996ZM6.54944 16.0001H25.4505C25.55 16.2805 25.7108 16.5352 25.9212 16.7456C26.1315 16.9559 26.3862 17.1167 26.6666 17.2162V25.4506C26.3862 25.5501 26.1315 25.7109 25.9212 25.9213C25.7108 26.1317 25.55 26.3863 25.4505 26.6667H6.54944C6.44995 26.3863 6.28916 26.1317 6.07877 25.9213C5.86838 25.7109 5.6137 25.5501 5.33329 25.4506V17.2162C5.6137 17.1167 5.86838 16.9559 6.07877 16.7456C6.28916 16.5352 6.44995 16.2805 6.54944 16.0001ZM16 17.3334C14.9391 17.3334 13.9217 17.7548 13.1715 18.505C12.4214 19.2551 12 20.2725 12 21.3334C12 22.3943 12.4214 23.4117 13.1715 24.1618C13.9217 24.912 14.9391 25.3334 16 25.3334C17.0608 25.3334 18.0782 24.912 18.8284 24.1618C19.5785 23.4117 20 22.3943 20 21.3334C20 20.2725 19.5785 19.2551 18.8284 18.505C18.0782 17.7548 17.0608 17.3334 16 17.3334ZM9.33329 20.0001C8.59729 20.0001 7.99996 20.5961 7.99996 21.3334C7.99996 22.0707 8.59729 22.6667 9.33329 22.6667C10.0693 22.6667 10.6666 22.0707 10.6666 21.3334C10.6666 20.5961 10.0693 20.0001 9.33329 20.0001ZM22.6666 20.0001C21.9306 20.0001 21.3333 20.5961 21.3333 21.3334C21.3333 22.0707 21.9306 22.6667 22.6666 22.6667C23.4026 22.6667 24 22.0707 24 21.3334C24 20.5961 23.4026 20.0001 22.6666 20.0001Z" fill="#232323"/>
</svg>
