<svg width="141" height="41" viewBox="0 0 141 41" fill="none" xmlns="http://www.w3.org/2000/svg">
    <path d="M34.8435 20.5001L0.453369 0.571533V40.4287L34.8435 20.5001Z" fill="#CBCBCB"/>
    <path d="M11.9164 20.5L0.453369 40.4286L34.8435 20.5H11.9164Z" fill="#63636A"/>
    <path d="M11.9164 20.5001L0.453369 0.571533L34.8435 20.5001H11.9164Z" fill="#F1F1F1"/>
    <path d="M75.1333 14.9297L81.5416 26.0714L87.9511 14.9297H81.5416H75.1333Z" fill="#CBCBCB"/>
    <path d="M95.7132 14.9297H91.4727V26.0714H95.7132V14.9297Z" fill="#CBCBCB"/>
    <path d="M104.087 14.9297H99.8469V26.0714H104.087H110.321V22.9563H104.087V14.9297Z" fill="#CBCBCB"/>
    <path d="M58.7632 14.9297H52.3538L58.7632 26.0714L65.1716 14.9297H58.7632Z" fill="#CBCBCB"/>
    <path d="M63.743 26.0714H70.1525H76.562L70.1525 14.9297L63.743 26.0714Z" fill="#CBCBCB"/>
    <path d="M134.025 14.9297H127.615L134.025 26.0714L140.433 14.9297H134.025Z" fill="#CBCBCB"/>
    <path d="M119.346 14.4589C118.154 14.4589 116.989 14.8136 115.998 15.4783C115.007 16.143 114.235 17.0877 113.779 18.1929C113.323 19.2982 113.204 20.5142 113.437 21.6873C113.67 22.8605 114.244 23.9379 115.088 24.7833C115.931 25.6287 117.005 26.2042 118.174 26.4368C119.343 26.6695 120.554 26.5489 121.655 26.0904C122.756 25.6319 123.696 24.856 124.357 23.8608C125.019 22.8657 125.371 21.6961 125.37 20.4999C125.368 18.8973 124.733 17.3609 123.603 16.2282C122.474 15.0955 120.942 14.4592 119.346 14.4589Z" fill="#CBCBCB"/>
    <path d="M119.346 14.4589V26.5523C120.943 26.5523 122.476 25.9153 123.606 24.7813C124.735 23.6473 125.37 22.1093 125.37 20.5056C125.37 18.9019 124.735 17.3639 123.606 16.2299C122.476 15.0959 120.943 14.4589 119.346 14.4589Z" fill="#63636A"/>
    <path d="M58.7634 26.0714V14.9297H65.1717L58.7634 26.0714Z" fill="#63636A"/>
    <path d="M81.5417 26.0714V14.9297H87.9512L81.5417 26.0714Z" fill="#63636A"/>
    <path d="M134.025 26.0714V14.9297H140.433L134.025 26.0714Z" fill="#63636A"/>
    <path d="M70.1525 14.9297V26.0714H76.5619L70.1525 14.9297Z" fill="#63636A"/>
    <path d="M95.7132 14.9297L91.4727 26.0714H95.7132V14.9297Z" fill="#63636A"/>
    <path d="M104.087 22.9564L99.8469 26.0715H110.321V22.9564H104.087Z" fill="#63636A"/>
</svg>
