<svg width="88" height="88" viewBox="0 0 88 88" fill="none" xmlns="http://www.w3.org/2000/svg">
<path d="M44 0L88 44L44 88L0 44L44 0Z" fill="#FFE81B"/>
<path d="M43.9684 31.9727C37.3913 31.9727 32.0158 37.3182 32.0158 44C32.0158 50.6182 37.3281 56.0273 43.9684 56.0273C50.6087 56.0273 55.9209 50.6182 55.9209 44C55.9209 37.3182 50.5455 31.9727 43.9684 31.9727ZM44.664 50.6182V52.9091H42.7036V50.7455C41.3123 50.6818 40.1107 50.3 39.3518 49.8545L39.9842 47.3727C40.8696 47.8818 42.0711 48.3273 43.336 48.3273C44.5375 48.3273 45.2964 47.8182 45.2964 46.9909C45.2964 46.1636 44.664 45.6545 43.1462 45.1455C40.996 44.3818 39.4783 43.3 39.4783 41.2636C39.4783 39.3545 40.4901 37.9545 42.6403 37.5091V35.4727H44.7273V37.3182C46.0553 37.3818 47.1937 37.7 47.8893 38.0182L47.2569 40.4364C46.751 40.1818 45.8024 39.4818 44.3478 39.4818C43.0198 39.4818 42.5771 40.3091 42.5771 40.8818C42.5771 41.5818 43.2727 42.0273 45.0435 42.6636C47.4466 43.5545 48.3953 44.7 48.3953 46.6091C48.4585 48.5818 47.004 50.1727 44.664 50.6182ZM66.2925 29.3636C59.4624 29.3636 53.7708 24.2091 53.0119 17.4L52.9486 16.7636L52.3162 16.6364C49.7866 16.1273 46.9407 16 43.8419 16C40.6166 16 37.6443 16.1909 34.9881 16.7636L34.3557 16.8909L34.2925 17.5273C33.5336 23.9545 27.6522 29.1727 20.8221 29.3636H20C20 29.3636 20.0632 33.4364 20.0632 33.9455C20.0632 63.5364 43.5257 71.7455 43.7154 71.8727L44.0316 72L44.2846 71.8727C44.5375 71.8091 68 62.9636 68 33.9455C68 33.4364 68 32.4818 68 32.3545C68 31.7818 68 29.3 68 29.3C68 29.3 66.419 29.3636 66.2925 29.3636ZM66.2925 32.3545C66.2925 32.8636 66.2925 33.3091 66.2925 33.9455C66.2925 59.9727 46.6245 69.0091 44.0316 70.0909C41.3755 69.0727 21.7708 60.5455 21.7708 33.9455C21.7708 33.2455 21.7708 31.3364 21.7708 31.0182C28.7905 30.4455 34.8617 25.0364 36 18.2909C38.4032 17.8455 40.996 17.7182 43.9051 17.7182C46.6245 17.7182 49.1542 17.7818 51.4308 18.2273C52.5692 25.6091 58.8933 31.0818 66.3557 31.0818C66.2925 31.5909 66.2925 31.9727 66.2925 32.3545Z" fill="#232323"/>
</svg>
