<svg width="88" height="88" viewBox="0 0 88 88" fill="none" xmlns="http://www.w3.org/2000/svg">
<path d="M44 0L88 44L44 88L0 44L44 0Z" fill="#FFE81B"/>
<path d="M68 57.132V56.797C68 56.7411 67.9446 55.0102 67.7232 52.7766C67.7232 52.5533 67.6678 52.3299 67.6678 52.1066C67.5017 50.2081 67.2803 48.4213 65.0657 46.802C62.7405 45.1827 59.0865 44.066 58.9758 44.066L58.699 44.0102L58.4221 44.1777C58.3668 44.1777 56.1522 46.2995 52.6644 46.2995H52.3875C51.5571 46.2995 50.8374 46.2995 50.2284 46.1878C50.6159 45.6294 50.9481 45.0711 51.2803 44.4569C51.6678 44.5127 52.1107 44.5685 52.4983 44.5685C56.9273 44.5685 60.5813 39.8782 60.6367 33.9594C61.7439 31.5584 61.5779 28.7107 60.1384 26.3655C58.5882 23.797 55.8201 22.2893 52.8304 22.2893C50.3391 22.2893 48.8443 23.4061 48.1799 24.0203C47.4602 23.9645 46.1315 24.132 44.8028 25.8071C44.5813 26.1421 44.4152 26.5888 44.2491 27.203C44.2491 27.2589 44.2491 27.2589 44.1938 27.3147C43.8062 27.3147 43.4187 27.3706 43.0311 27.4822C42.9758 25.4721 42.4221 23.6853 41.1488 22.401C39.8201 20.7817 37.7716 20 35.2803 20C32.7889 20 31.2388 21.0609 30.6298 21.6193C29.91 21.6193 28.6367 21.8985 27.3633 23.5178C25.7024 25.6954 25.7024 28.7107 26.6436 30.6091C26.6436 31.5025 26.699 32.3401 26.8651 33.1777C26.8651 33.2335 26.8651 33.2335 26.8651 33.2893C27.0311 34.1827 27.2526 35.132 27.6401 36.0254C29.1349 39.934 31.9031 42.2233 34.9481 42.2233C35.5017 42.2233 36.1107 42.1117 36.609 42C36.7197 42.3909 36.8305 42.7817 36.9965 43.1726C37.0519 43.2843 37.1073 43.4518 37.1626 43.5634C36.5536 43.8426 35.8339 44.066 35.1142 44.066C31.6817 44.066 28.9135 41.9442 28.9135 41.9442L28.6367 41.7208L28.3045 41.7766C28.1938 41.7766 25.3149 42.335 22.9896 43.9543C20.7197 45.5736 20.5536 47.3604 20.3875 49.2589C20.3875 49.4822 20.3322 49.7056 20.3322 49.9289C20 52.2183 20 53.9492 20 54.0051V54.2284L20.1661 54.4518C20.3875 54.7868 21.8824 56.3503 29.6886 56.797C29.6886 56.9645 29.6332 57.132 29.6332 57.3553C29.4118 59.5888 29.4118 61.3198 29.4118 61.3756V61.6548L29.5779 61.8782C29.8547 62.2132 32.0138 64 44.526 64C57.0381 64 59.2526 62.269 59.5848 61.8782L59.8062 61.6548V61.3198C59.8062 61.264 59.8062 60.3706 59.6955 59.0305C66.1176 58.5279 67.6125 57.5228 67.8339 57.3553L68 57.132ZM38.3806 42.6142C37.9377 41.3858 37.6055 40.269 37.4394 39.0964C37.4948 37.7563 37.9931 36.1371 38.7682 35.0761C39.2664 34.4061 39.8754 34.0152 40.5952 33.9036C41.8685 33.736 42.2561 34.0711 43.0311 34.797C43.6955 35.4112 44.526 36.2487 46.1315 36.8629C47.7924 37.4772 50.0623 38.2589 50.9481 38.5939L51.0035 38.7056C51.0035 43.731 47.8477 48.0305 44.2491 48.0305C41.9239 47.9746 39.654 45.9086 38.3806 42.6142ZM37.9931 31.6142C38.8235 30.5533 39.3772 30.3858 39.7647 30.3858C39.9308 30.3858 40.0415 30.4416 40.0415 30.3858L40.5398 30.5533L40.872 30.1624C40.9273 30.1066 42.09 28.7107 44.5813 28.7107C47.0173 28.7107 49.1211 29.8832 50.3391 31.67C51.391 33.1777 51.6678 35.0203 51.2803 37.0305C50.3391 36.6954 48.1799 35.9137 46.6298 35.3553C45.301 34.8528 44.6367 34.1827 44.0277 33.6244C43.1972 32.7868 42.3668 32.0051 40.3183 32.3401C39.2111 32.5076 38.2145 33.1218 37.4948 34.1269C37.2734 34.4061 37.1073 34.6853 36.9965 35.0203C36.9412 33.8477 37.2734 32.6193 37.9931 31.6142ZM52.4983 42.9492C52.2768 42.9492 52.1107 42.9492 51.8893 42.8934C52.3322 41.6091 52.5536 40.2132 52.5536 38.7614C53.5502 35.9137 53.1626 33.0102 51.6678 30.8325C51.1142 30.0508 50.4498 29.3807 49.6747 28.8223C50.4498 28.6548 51.3356 29.2132 52.8858 30.3858C53.4948 30.8325 54.1592 31.335 54.8789 31.8376C56.7059 33.0102 58.2561 33.401 59.0865 33.5685V33.736C59.0865 38.7056 56.0415 42.9492 52.4983 42.9492ZM48.1799 25.4721L48.6782 25.6396L49.0104 25.1929C49.0104 25.1929 50.2284 23.6853 52.7751 23.6853C55.2111 23.6853 57.481 24.9695 58.7543 27.0355C59.6955 28.599 59.9723 30.3299 59.5294 32.0051C59.0865 31.9492 57.481 31.6701 55.5986 30.4416C54.8789 29.9949 54.2699 29.5482 53.6609 29.0457C51.8339 27.6497 50.0623 26.3096 47.9585 27.8173C47.2388 27.4822 46.519 27.2589 45.6886 27.1472C45.7439 26.9239 45.8547 26.5888 45.91 26.533C47.1834 25.1929 48.1799 25.4721 48.1799 25.4721ZM28.526 24.5228C29.6886 23.0152 30.6298 23.1827 30.6851 23.1827L31.1834 23.2944L31.5156 22.9036C31.5709 22.8477 32.7889 21.5076 35.2803 21.5076C37.3287 21.5076 39.045 22.1218 40.1523 23.3503C41.2042 24.467 41.5917 26.0305 41.5917 27.8731C40.872 28.2081 40.3737 28.6548 40.0415 28.8782C39.9308 28.8782 39.8754 28.8782 39.7647 28.8782C39.7093 28.8782 39.5986 28.8782 39.5433 28.8782V28.7107L39.3772 28.6548C38.7128 28.5431 38.0484 28.4315 37.2734 28.1523C35.9446 27.6497 35.2803 26.9797 34.6713 26.4213C33.8408 25.5838 33.0104 24.802 30.9619 25.1371C29.8547 25.3046 28.8581 25.9188 28.1384 26.9239C27.8616 27.2589 27.6955 27.6497 27.5294 28.0406C27.474 26.868 27.7509 25.5279 28.526 24.5228ZM34.8927 40.7157C32.5121 40.7157 30.2976 38.7614 29.0242 35.467C28.4706 34.0152 28.1384 32.6193 28.083 31.1675C28.2491 29.9949 28.7474 28.7107 29.3564 27.8173C29.8547 27.1472 30.4637 26.7563 31.1834 26.6447C32.4567 26.4772 32.8443 26.8122 33.6194 27.5381C34.2837 28.1523 35.1142 28.9898 36.7197 29.6041C36.9965 29.7157 37.218 29.7716 37.4948 29.8274C37.2734 30.0508 36.9965 30.2741 36.7751 30.6091C35.1142 32.7868 35.1142 35.802 36.0554 37.7005C36.0554 38.0355 36.0554 38.3706 36.1107 38.7056C36.1107 39.3198 36.1107 39.8782 36.2215 40.3807H36.2768V40.4365C35.8339 40.6599 35.391 40.7157 34.8927 40.7157ZM59.474 57.5228C59.474 57.467 59.474 57.4112 59.474 57.2995C59.474 57.0761 59.4187 56.8528 59.4187 56.6294C59.2526 54.731 59.0311 52.9442 56.8166 51.3249C54.5467 49.7056 52.3875 49.1472 52.2768 49.1472L51.7232 49.0355L51.391 49.4264C51.391 49.4822 48.8443 52.2741 44.5813 52.2741C40.3737 52.2741 37.8824 49.5381 37.8824 49.4822L37.5502 49.0914L37.1626 49.203C37.0519 49.203 34.6159 49.7056 32.2907 51.3249C30.5744 52.5533 30.0761 53.8376 29.8547 55.2335C24.0969 54.8985 22.1038 54.0051 21.5502 53.6142C21.5502 53 21.6055 51.6599 21.7716 50.0964C21.7716 49.8731 21.827 49.6497 21.827 49.4264C21.9931 47.6396 22.1038 46.4112 23.8201 45.2386C25.4256 44.066 27.474 43.5635 28.2491 43.3959C29.1349 44.0102 31.7924 45.6294 35.1142 45.6294C36.1661 45.6294 37.0519 45.2944 37.827 44.9594C39.3772 47.8071 41.7578 49.4822 44.3045 49.4822C46.1315 49.4822 47.7924 48.7005 49.1765 47.3604C50.1176 47.7513 51.2249 47.7513 52.4429 47.7513H52.7197C56.0415 47.7513 58.1453 46.0203 58.9758 45.5736C59.7509 45.7411 62.519 46.802 64.2353 47.9746C65.8962 49.1472 66.0623 50.3756 66.2284 52.1624C66.2284 52.3858 66.2837 52.6091 66.2837 52.8325C66.4498 54.3401 66.5052 55.6244 66.5606 56.2386C65.7855 56.5736 63.9585 57.1878 59.474 57.5228Z" fill="#232323"/>
</svg>
