<svg width="17" height="24" viewBox="0 0 17 24" fill="none" xmlns="http://www.w3.org/2000/svg">
<path d="M8.5 0C3.81313 0 0 3.74238 0 8.34229C0 14.1239 8.50836 24 8.50836 24C8.50836 24 17 13.8396 17 8.34229C17 3.74238 13.187 0 8.5 0ZM11.0646 10.7849C10.3575 11.4788 9.42881 11.8258 8.5 11.8258C7.57134 11.8258 6.64239 11.4788 5.93552 10.7849C4.52134 9.39712 4.52134 7.13892 5.93552 5.75098C6.6203 5.07861 7.53119 4.7083 8.5 4.7083C9.46881 4.7083 10.3796 5.07876 11.0646 5.75098C12.4788 7.13892 12.4788 9.39712 11.0646 10.7849Z" fill="#C7C7D5"/>
</svg>
