<svg width="32" height="32" viewBox="0 0 32 32" fill="none" xmlns="http://www.w3.org/2000/svg">
<path d="M8.88889 0C6.53141 0 4.27049 0.936505 2.6035 2.6035C0.936505 4.27049 0 6.53141 0 8.88889V23.1111C0 25.4686 0.936505 27.7295 2.6035 29.3965C4.27049 31.0635 6.53141 32 8.88889 32H23.1111C25.4686 32 27.7295 31.0635 29.3965 29.3965C31.0635 27.7295 32 25.4686 32 23.1111V8.88889C32 6.53141 31.0635 4.27049 29.3965 2.6035C27.7295 0.936505 25.4686 0 23.1111 0H8.88889ZM26.6667 3.55556C27.6444 3.55556 28.4444 4.35556 28.4444 5.33333C28.4444 6.31111 27.6444 7.11111 26.6667 7.11111C25.6889 7.11111 24.8889 6.31111 24.8889 5.33333C24.8889 4.35556 25.6889 3.55556 26.6667 3.55556ZM16 7.11111C18.3575 7.11111 20.6184 8.04762 22.2854 9.71461C23.9524 11.3816 24.8889 13.6425 24.8889 16C24.8889 18.3575 23.9524 20.6184 22.2854 22.2854C20.6184 23.9524 18.3575 24.8889 16 24.8889C13.6425 24.8889 11.3816 23.9524 9.71461 22.2854C8.04762 20.6184 7.11111 18.3575 7.11111 16C7.11111 13.6425 8.04762 11.3816 9.71461 9.71461C11.3816 8.04762 13.6425 7.11111 16 7.11111V7.11111ZM16 10.6667C15.2994 10.6669 14.6057 10.8051 13.9585 11.0735C13.3113 11.3418 12.7233 11.735 12.228 12.2305C11.7328 12.7261 11.34 13.3144 11.0721 13.9618C10.8042 14.6091 10.6664 15.3029 10.6667 16.0036C10.6669 16.7042 10.8051 17.3979 11.0735 18.0451C11.3418 18.6923 11.735 19.2803 12.2305 19.7755C12.7261 20.2708 13.3144 20.6636 13.9618 20.9315C14.6091 21.1994 15.3029 21.3371 16.0036 21.3369C17.4185 21.3364 18.7753 20.7739 19.7755 19.773C20.7757 18.7722 21.3374 17.415 21.3369 16C21.3364 14.585 20.7739 13.2282 19.773 12.228C18.7722 11.2278 17.415 10.6662 16 10.6667V10.6667Z" fill="#555665"/>
</svg>
