<svg width="24" height="17" viewBox="0 0 24 17" fill="none" xmlns="http://www.w3.org/2000/svg">
<path d="M21.8905 0H2.10927C1.78457 0 1.48058 0.0742327 1.20557 0.196588L11.953 10.1907L14.3619 8.03796C14.3619 8.03796 14.3621 8.03774 14.3621 8.03766C14.3622 8.03757 14.3623 8.03748 14.3623 8.03748L22.7946 0.196762C22.5195 0.0743198 22.2153 0 21.8905 0Z" fill="#C7C7D5"/>
<path d="M23.7889 1.12134L15.8538 8.49988L23.7886 15.8785C23.9202 15.6228 24 15.3401 24 15.0382V1.96139C24 1.65962 23.9204 1.37699 23.7889 1.12134Z" fill="#C7C7D5"/>
<path d="M0.211406 1.12109C0.0798281 1.37683 0 1.65951 0 1.96145V15.0383C0 15.34 0.0797344 15.6227 0.211219 15.8784L8.14636 8.49985L0.211406 1.12109Z" fill="#C7C7D5"/>
<path d="M14.8594 9.42465L12.4503 11.5777C12.3129 11.7054 12.133 11.7692 11.9532 11.7692C11.7733 11.7692 11.5933 11.7054 11.456 11.5777L9.1406 9.42456L1.20532 16.8031C1.48038 16.9256 1.78456 16.9999 2.10935 16.9999H21.8906C22.2153 16.9999 22.5193 16.9257 22.7943 16.8033L14.8594 9.42465Z" fill="#C7C7D5"/>
</svg>
