<svg width="28" height="22" viewBox="0 0 28 22" fill="none" xmlns="http://www.w3.org/2000/svg">
<path d="M25.5391 0H2.46094C1.10469 0 0 1.13949 0 2.53846V19.4615C0 20.8549 1.09922 22 2.46094 22H25.5391C26.8898 22 28 20.8662 28 19.4615V2.53846C28 1.14513 26.9008 0 25.5391 0ZM25.2 1.69231L14.0547 13.1887L2.81094 1.69231H25.2ZM1.64062 19.1118V2.88256L9.54297 10.9605L1.64062 19.1118ZM2.8 20.3077L10.7078 12.1508L13.4805 14.9826C13.8031 15.3097 14.3172 15.3097 14.6398 14.9826L17.3414 12.1959L25.2 20.3077H2.8ZM26.3594 19.1118L18.4953 11L26.3594 2.88821V19.1118Z" fill="#9D9EBF"/>
</svg>
