<svg width="27" height="27" viewBox="0 0 27 27" fill="none" xmlns="http://www.w3.org/2000/svg">
<path d="M21.1227 26.5C20.1227 26.5 18.9227 26.3 17.6227 25.9C15.7227 25.3 11.2227 22.6 7.62274 19C4.02274 15.4 1.22274 10.9 0.622739 9C-0.777261 4.4 0.522739 2.8 1.22274 2.4C2.42274 1.7 3.82274 1 4.62274 0.6L5.02274 0.3C5.42274 0.1 5.72274 0 6.02274 0C6.82274 0 7.32274 0.7 7.62274 1.1C7.72274 1.3 8.02274 1.7 8.32274 2.2C9.32274 3.6 10.0227 4.9 10.2227 5.4C10.5227 6 11.1227 7.4 9.52274 8.2C9.02274 8.4 8.52274 8.8 8.02274 9.2C7.72274 9.4 7.42274 9.6 7.12274 9.8C7.12274 10 7.22274 10.7 7.52274 11.5C7.92274 12.3 8.82274 14.1 10.7227 15.9C12.6227 17.8 14.3227 18.6 15.1227 19C15.6227 19.3 16.3227 19.5 16.7227 19.5H16.8227C16.9227 19.2 17.2227 19 17.4227 18.6C17.7227 18.1 18.1227 17.5 18.4227 17.1C18.8227 16.2 19.4227 16.1 19.9227 16.1C20.4227 16.1 20.8227 16.3 21.2227 16.5C21.7227 16.7 23.0227 17.5 24.4227 18.4C24.9227 18.7 25.2227 19 25.5227 19.1C26.1227 19.5 27.1227 20.2 26.3227 21.6L26.1227 22C25.7227 22.8 24.8227 24.1 24.1227 25.3C23.8227 25.7 23.0227 26.5 21.1227 26.5ZM5.92274 1.5C5.92274 1.5 5.82274 1.5 5.72274 1.6L5.32274 1.8C4.52274 2.3 3.12274 2.9 2.02274 3.6C1.62274 3.9 1.12274 5.4 2.02274 8.5C2.52274 10 5.12274 14.4 8.62274 17.9C12.1227 21.4 16.5227 23.9 18.0227 24.4C19.2227 24.8 20.2227 25 21.1227 25C22.1227 25 22.6227 24.7 22.8227 24.5C23.5227 23.4 24.4227 22.1 24.8227 21.3L25.0227 20.9C25.1227 20.7 25.1227 20.7 25.1227 20.7C25.1227 20.7 25.0227 20.6 24.7227 20.4C24.5227 20.2 24.1227 20 23.6227 19.6C22.7227 19 21.1227 18 20.7227 17.8C20.5227 17.7 20.2227 17.6 20.0227 17.6C20.0227 17.6 19.9227 17.6 19.9227 17.8C19.6227 18.4 19.2227 19 18.8227 19.5C18.6227 19.8 18.4227 20.1 18.2227 20.3C18.0227 20.5 17.6227 21 16.7227 21C15.9227 21 15.0227 20.7 14.5227 20.4C13.6227 20 11.7227 19 9.72274 17C7.62274 15 6.72274 13 6.32274 12.2C5.82274 11.2 5.22274 9.2 6.42274 8.6C6.62274 8.5 6.92274 8.3 7.22274 8.1C7.72274 7.7 8.42274 7.3 9.02274 7C9.22274 6.9 9.22274 6.9 9.22274 6.9C9.22274 6.8 9.02274 6.3 9.02274 6.2C8.62274 5.6 7.72274 4 7.02274 3.1C6.72274 2.6 6.42274 2.2 6.32274 2C6.12274 1.6 6.02274 1.5 5.92274 1.5Z" fill="#9D9EBF"/>
</svg>
