<svg width="27" height="27" viewBox="0 0 27 27" fill="none" xmlns="http://www.w3.org/2000/svg">
<path d="M23.0102 3.92088C20.4713 1.39396 17.0939 0.00144196 13.4994 0C9.91288 0 6.5301 1.39128 3.97455 3.91759C1.41448 6.44822 0.00329907 9.81127 0 13.375V13.3816C0.000412384 15.5385 0.567646 17.7144 1.64438 19.7006L0.0369084 27L7.42744 25.3205C9.29925 26.263 11.3878 26.7598 13.4942 26.7606H13.4996C17.0855 26.7606 20.4683 25.3691 23.0242 22.8426C25.5866 20.3099 26.9984 16.9512 27 13.3853C27.001 9.84444 25.5843 6.48324 23.0102 3.92088ZM13.4994 24.6533H13.4946C11.6032 24.6525 9.72916 24.1781 8.0753 23.281L7.7258 23.0915L2.81143 24.2082L3.87888 19.3615L3.6731 19.007C2.64998 17.2443 2.10934 15.2985 2.10934 13.3793C2.11326 7.16714 7.22228 2.10732 13.499 2.10732C16.5312 2.10855 19.3804 3.28292 21.5215 5.41372C23.695 7.57748 24.8915 10.4082 24.8905 13.3846C24.888 19.5982 19.7779 24.6533 13.4994 24.6533Z" fill="#9D9EBF"/>
<path d="M10.0155 7.71429H9.4699C9.27999 7.71429 8.97164 7.7912 8.71081 8.09825C8.4498 8.4055 7.71429 9.14813 7.71429 10.6585C7.71429 12.1688 8.73458 13.6282 8.87677 13.8332C9.01916 14.0381 10.8463 17.2364 13.74 18.4669C16.145 19.4894 16.6346 19.286 17.1564 19.2348C17.6784 19.1838 18.8409 18.4924 19.0782 17.7757C19.3154 17.059 19.3154 16.4445 19.2443 16.3161C19.173 16.1882 18.9831 16.1115 18.6985 15.9581C18.4137 15.8044 17.0184 15.0493 16.7574 14.9466C16.4963 14.8444 16.3066 14.7932 16.1167 15.1007C15.9268 15.4075 15.3677 16.1175 15.2015 16.3223C15.0356 16.5273 14.8694 16.553 14.5847 16.3994C14.2999 16.2454 13.3923 15.9155 12.3047 14.8699C11.4582 14.0562 10.8708 13.0184 10.7046 12.7112C10.5387 12.4041 10.6869 12.2379 10.8297 12.0847C10.9577 11.9473 11.1305 11.7594 11.2729 11.5802C11.415 11.4009 11.4555 11.273 11.5506 11.0682C11.6455 10.8633 11.5979 10.684 11.5268 10.5306C11.4555 10.3769 10.9092 8.85898 10.656 8.25188C10.4427 7.74061 10.2183 7.72333 10.0155 7.71429Z" fill="#9D9EBF"/>
</svg>
