<svg width="110" height="67" viewBox="0 0 110 67" fill="none" xmlns="http://www.w3.org/2000/svg">
<path d="M82.9 24.1C79 17.1 78.4 12.6 78.4 12.6L78.2 10.6L76.4 11.6C76.4 11.6 75.4 12.1 72.8 12.1C71.6 12.1 67.9 11 64.6 10C60.3 8.7 55.8 7.4 53.5 7.4C50.1 7.4 45.6 10.6 42.5 13.4C41.1 13.7 38 13.9 35.1 13.3C34.5 13.2 33.2 12.9 32.7 12.8L31.5 12.4L31 13.6C31 13.7 28.9 19.2 26.1 24.8C23.8 29.5 19 35.5 18.9 35.5L17.9 36.7L19.2 37.5C20.6 38.4 21.6 39.8 22 40.3L21.2 40.7L21.1 40.8C19 42.3 18.5 45.5 20 48C20.9 49.4 22.3 50.3 23.9 50.3C24.3 50.3 24.8 50.2 25.2 50.1C25 51.4 25.2 52.7 25.9 53.8C26.8 55.3 28.4 56.2 30.2 56.2C30.7 56.2 31.2 56.1 31.7 56C31.7 57 31.9 58 32.5 58.8C33.4 60.3 35 61.3 36.8 61.3C37.8 61.3 38.9 61 39.8 60.4L41 59.6C41.1 60.3 41.4 61 41.8 61.7C42.7 63.4 44.3 64.4 45.9 64.4C46.8 64.4 47.6 64.1 48.4 63.6L49.5 63C50.4 63.5 52.6 64.8 54.2 65.7C55.1 66.2 56.1 66.4 57.1 66.4C58.8 66.4 60.4 65.7 61.3 64.8C62.4 63.7 62.8 62.6 62.9 61.6C63.5 62 64 62.2 64.3 62.4C65.5 63.1 66.7 63.4 67.8 63.4C69.4 63.4 70.9 62.6 72 61.1C72.8 60.1 73 58.9 73.1 57.9C73.9 58.2 74.7 58.3 75.4 58.3C77.1 58.3 78.6 57.6 79.5 56.3C80.6 54.8 81 53.6 80.9 52.4C81.1 52.4 81.2 52.4 81.4 52.4C83.5 52.4 85.4 51.4 86.6 49.5C87.2 48.5 87 47.6 87 46.8C87.1 44.5 85.8 42.7 83.7 41.2C83.5 41 85.5 37.7 90 36L92.1 34.9L90.1 33.6C90.1 33.6 87.1 31.4 82.9 24.1ZM25.3 47L25.2 47.1C24.8 47.4 24.4 47.5 23.9 47.5C23.4 47.5 22.8 47.3 22.3 46.5C21.6 45.3 21.7 43.7 22.6 43.1L25.9 41.2L26 41.1C26.3 40.9 26.7 40.7 27 40.7C27.8 40.7 28.5 41.6 28.9 42.1C29.9 43.6 29.6 44.3 28.6 45L25.3 47ZM31.7 53C30.6 53.8 29 53.5 28.3 52.4C27.5 51.2 28 49.4 29.2 48.5L33.3 45.6C33.7 45.3 34.2 45.1 34.7 45.1C35.5 45.1 36.2 45.5 36.6 46.2C37.4 47.5 37 49.2 35.7 50.1L31.7 53ZM42.2 55.2L38.2 58C37.1 58.8 35.6 58.5 34.9 57.3C34.1 56.1 34.5 54.3 35.7 53.5L39.7 50.7C40.1 50.4 40.6 50.3 41.1 50.3C41.9 50.3 42.6 50.7 43.1 51.4C43.8 52.6 43.4 54.4 42.2 55.2ZM50.4 59.2L47 61.1L46.9 61.2C46 61.9 44.8 61.5 44.2 60.3C43.4 58.9 43.5 57.8 44.4 57.2L47.7 55.4L47.8 55.3C48.2 55 48.6 54.9 49 54.9C49.3 54.9 49.7 55 50.1 55.2L50.5 55.8C51.2 57 51.2 58.6 50.4 59.2ZM83.9 48C82.9 49.6 81.5 50 79.5 49.2C77 48.2 67.8 42.5 67.7 42.5L66.3 44.8C66.7 45 74.7 50 77.9 51.5C78.3 52.2 78.4 53.1 77.3 54.7C76.4 55.9 74.2 55.8 72.2 54.4C69.3 52.4 61.4 48.1 61.1 47.9L59.8 50.3C59.9 50.3 67.4 54.4 70.4 56.4C70.4 56.5 70.8 58.2 70 59.4C69.6 60 68.5 61.4 65.8 59.9C64.3 59 56.4 54.5 56.4 54.5L55 56.9C55 56.9 57.7 58.4 60.2 59.9H60.1C60.1 59.9 60.8 61.5 59.5 62.8C58.8 63.5 57.1 64 55.6 63.2C54.6 62.6 53.3 61.9 52.3 61.3C53.6 60.3 54.4 58.8 54 56.9L52.6 54.2C51.7 52.8 50.7 52.4 49 52.4C48.3 52.4 47.1 52.7 46.2 53C46.2 52 46 50.9 45.4 50C44.5 48.5 42.9 47.5 41.1 47.5C40.7 47.5 40.2 47.6 39.8 47.7C39.8 46.7 39.6 45.7 39 44.8C38.1 43.3 36.5 42.4 34.7 42.4C33.8 42.4 32.9 42.6 32.2 43.1C32 42.4 31.7 41.7 31.3 41C29.8 38.8 28.2 38.4 27.1 38.4C26.2 38.4 25.4 38.6 24.6 39.1H24.5C24.2 38.7 23.3 37.3 21.9 36.1C23.4 34.1 26.6 29.7 28.5 26C30.6 21.8 32.3 17.6 33.1 15.6C33.6 15.7 34.1 15.9 34.5 15.9C36.3 16.3 37.9 16.3 39.3 16.3C38.9 16.7 38.6 17 38.5 17.1C37.7 18 36.9 18.7 36.2 19.4C34.2 21.2 32.1 23.1 34.1 25.9C35.2 27.4 37 28.2 39.1 28.2C41.1 28.3 43.5 27.6 45 26.3C45.3 26 45.7 25.8 46 25.5C47.8 24 50.3 22 51.8 22C53.9 22 56.2 22.4 59.3 25C62.7 27.9 77.5 39.9 81.4 42.7C85.6 45.7 84.5 46.9 83.9 48ZM81.4 39.2C76 35.1 64.1 25.5 61.2 23C57.5 19.8 54.4 19.3 51.9 19.3C49.3 19.3 46.6 21.6 44.3 23.4C44 23.7 43.6 24 43.3 24.2C42.4 24.9 40.8 25.5 39.2 25.5C38 25.5 36.9 25 36.3 24.3C35.8 23.6 35.7 23.5 38 21.4C38.7 20.7 39.6 19.9 40.5 19C44.6 14.6 50.6 10.1 53.5 10.1C55.4 10.1 59.9 11.4 63.8 12.6C67.7 13.8 71.1 14.8 72.8 14.8C74.2 14.8 75.2 14.7 76 14.5C76.5 16.5 77.7 20.4 80.5 25.4C83.2 30.2 85.5 33 87 34.4C85.2 35.5 82.5 37.3 81.4 39.2ZM28.9 10.5L29 9.7L14.1 0.3L0 32.6L13.9 37.1L14.5 36.7C14.7 36.6 18.3 33.9 23.8 23.5C28.5 14.5 28.9 10.9 28.9 10.5ZM10 31.3C8.3 31.3 7 30 7 28.3C7 26.6 8.3 25.3 10 25.3C11.7 25.3 13 26.6 13 28.3C13 29.9 11.6 31.3 10 31.3ZM94.1 0L80.2 8.1L80.3 9C80.3 9.3 80.8 16.1 85.9 24.7C89.9 31.4 95 34.6 95.2 34.8L95.8 35.2L109.1 31L94.1 0ZM99.1 31.4C97.4 31.4 96 30 96 28.3C96 26.6 97.4 25.2 99.1 25.2C100.8 25.2 102.2 26.6 102.2 28.3C102.2 30 100.8 31.4 99.1 31.4Z" fill="#F2641A"/>
</svg>
