<svg width="89" height="89" viewBox="0 0 89 89" fill="none" xmlns="http://www.w3.org/2000/svg">
<path d="M66.7 33.4C66.7 15 51.8 0 33.4 0C15 0 0 15 0 33.4C0 51.8 15 66.8 33.4 66.8C51.8 66.7 66.7 51.8 66.7 33.4ZM33.4 64C16.5 64 2.8 50.3 2.8 33.4C2.8 16.5 16.5 2.8 33.4 2.8C50.3 2.8 64 16.5 64 33.4C64 50.3 50.3 64 33.4 64ZM86.8 77.5L64.1 54.7L54.8 64L77.5 86.7C78.9 88.1 80.5 88.8 82.2 88.8C83.9 88.8 85.6 88.1 87 86.7C88.2 85.5 88.9 83.8 88.9 82.1C88.9 80.4 88.1 78.8 86.8 77.5ZM9 45.7H17.9V36H9V45.7ZM11.7 38.8H15.1V43H11.7V38.8ZM21.9 45.7H30.8V23H21.9V45.7ZM24.7 25.8H28V43H24.6V25.8H24.7ZM35 45.7H43.9V16.9H35V45.7ZM37.8 19.6H41.2V43H37.8V19.6ZM48 29V45.8H56.9V29H48ZM54.1 43.1H50.7V31.7H54.1V43.1Z" fill="#FFB800"/>
</svg>
