<svg width="58" height="62" viewBox="0 0 58 62" fill="none" xmlns="http://www.w3.org/2000/svg">
<path d="M18.9949 19.3276C19.443 18.5697 18.3975 15.6137 15.8584 11.3692C13.2446 7.20049 11.8257 5.00244 11.0042 4.62347C10.3321 4.32029 9.65996 4.69927 8.31573 5.45721C8.16637 5.53301 7.94233 5.6846 7.79297 5.83619L16.4558 21.6773C18.3975 20.9193 18.6215 20.0098 18.9949 19.3276ZM43.7886 47.4474C40.3533 43.8851 37.7395 42.1418 36.9181 42.445C36.1713 42.6724 35.2751 42.6724 34.0802 44.4156L47.2239 56.7702C47.3732 56.6186 47.5226 56.467 47.6719 56.3154C48.7174 55.1785 49.2402 54.5721 49.0908 53.8142C48.8668 52.9804 47.1492 51.0856 43.7886 47.4474ZM30.9437 47.8264H30.869C29.8982 47.8264 25.044 45.5526 18.9949 37.8973C12.8712 29.7873 11.975 24.3301 12.3484 23.7237C12.6472 23.1932 13.3193 22.7384 14.4395 22.2078L6.07534 6.9731C3.76027 8.94376 1.0718 11.5966 0.698401 12.5061C0.399682 13.1883 -0.123076 14.9315 0.0262837 17.6601C0.250323 22.8142 2.64007 31.6064 11.975 43.7335C24.6706 60.1051 34.3789 62 37.8889 62C38.337 62 38.6357 62 38.9344 61.9242C39.9052 61.7726 43.1165 59.802 45.5062 57.9829L32.8853 46.1589C32.1386 47.1443 31.5411 47.6748 30.9437 47.8264ZM42.2203 57.7555C40.5027 58.8924 39.0091 59.7262 38.561 59.8778C38.4116 59.8778 38.1876 59.8778 37.8889 59.8778C35.3498 59.8778 26.1642 58.5892 13.618 42.3692C4.58174 30.7726 2.34135 22.511 2.04264 17.8117C1.89328 15.1589 2.49071 13.643 2.64007 13.3399C2.86411 12.8851 3.98431 11.6724 5.55258 10.2323L11.6763 21.3741C11.2282 21.7531 10.8548 22.2078 10.5561 22.6626C9.43593 24.7848 11.6763 31.5306 17.4267 39.11C23.5504 46.9927 28.9273 49.9487 30.869 49.9487C31.093 49.9487 31.3171 49.9487 31.4664 49.8729C31.9892 49.7213 32.4373 49.4939 32.96 49.1149L42.2203 57.7555ZM28.7033 0L28.1058 1.97066C43.7139 6.66993 54.6171 20.9951 55.1399 37.5941L57.1562 37.5183C56.6335 20.0856 45.2075 5.00244 28.7033 0ZM46.9998 36.533L49.0162 36.3814C48.0453 23.4963 39.6065 12.5061 27.6578 8.26161L26.9857 10.2323C38.1876 14.1736 46.029 24.4817 46.9998 36.533ZM38.7104 35.3961L40.7267 35.0929C39.4572 26.9829 34.0055 19.934 26.5376 16.6748L25.7161 18.5697C32.5866 21.5257 37.5155 27.9682 38.7104 35.3961Z" fill="white"/>
</svg>
