<svg width="79" height="79" viewBox="0 0 79 79" fill="none" xmlns="http://www.w3.org/2000/svg">
<path d="M39.4 0C17.7 0 0 17.7 0 39.4C0 61.1 17.7 78.8 39.4 78.8C61.1 78.8 78.8 61.1 78.8 39.4C78.9 17.7 61.2 0 39.4 0ZM18.4 69.4C8.9 62.8 2.8 51.8 2.8 39.4C2.8 19.2 19.3 2.7 39.5 2.7C47.6 2.7 55.1 5.3 61.1 9.8L58.6 13.3C53.2 9.4 46.6 7 39.5 7C21.6 7.1 7.1 21.6 7.1 39.4C7.1 50.3 12.6 60 20.9 65.9L18.4 69.4ZM39.4 69C23.1 69 9.9 55.8 9.9 39.4C9.9 23.1 23.2 9.8 39.5 9.8C55.8 9.9 69 23.1 69 39.4C69 55.8 55.8 69 39.4 69ZM38.1 61.6V64.7H40.9V61.6C40.4 61.6 40 61.6 39.5 61.6C39.1 61.6 38.6 61.6 38.1 61.6ZM14.1 38V40.8H17.6C17.6 40.4 17.6 40.1 17.6 39.7C17.6 39.1 17.6 38.6 17.7 38H14.1ZM61.5 38C61.5 38.6 61.6 39.1 61.6 39.7C61.6 40.1 61.6 40.4 61.6 40.8H64.9V38H61.5ZM40.9 17.7V14H38.1V17.7C38.6 17.7 39.1 17.6 39.5 17.6C40 17.7 40.5 17.7 40.9 17.7ZM57.2 24L45.4 33.4C43.8 32 41.8 31 39.5 31C36.4 31 33.7 32.7 32.3 35.2L27.1 33L26 35.5L31.3 37.8C31.2 38.3 31.1 38.8 31.1 39.4C31.1 44 34.8 47.7 39.4 47.7C44 47.7 47.7 44 47.7 39.4C47.7 38.1 47.4 36.8 46.8 35.7L58.7 26.2L57.2 24ZM39.5 45C36.4 45 33.9 42.5 33.9 39.4C33.9 36.3 36.4 33.8 39.5 33.8C42.6 33.8 45.1 36.3 45.1 39.4C45.1 42.5 42.6 45 39.5 45ZM39.4 36C37.5 36 36 37.5 36 39.4C36 41.3 37.5 42.8 39.4 42.8C41.3 42.8 42.8 41.3 42.8 39.4C42.8 37.6 41.3 36 39.4 36Z" fill="#F2641A"/>
</svg>
