<svg width="80" height="84" viewBox="0 0 80 84" fill="none" xmlns="http://www.w3.org/2000/svg">
<path d="M42.7 68.7L44.7 63.3C46.3 63 47.9 62.4 49.4 61.8L54.1 64.9L58.6 61.6L57.1 56.1C58.2 54.9 59.2 53.5 60 52.1L65.7 51.8L67.4 46.5L62.9 42.9C63 42.1 63 41.4 63 40.6C63 39.8 63 38.9 62.9 38.1L67.4 34.5L65.7 29.2L59.8 28.9C59 27.6 58.1 26.3 57 25.1L58.6 19.4L54.1 16.1L49.1 19.4C47.8 18.8 46.4 18.4 44.9 18L42.5 12.1H37L34.6 18C33.3 18.3 31.9 18.7 30.7 19.3L25.5 16.2L21.1 19.4L22.5 25.3C21.6 26.3 20.7 27.5 20 28.7L14 29.2L12.3 34.4L16.8 38.3C16.7 39.1 16.7 39.8 16.7 40.6C16.7 41.3 16.7 41.9 16.8 42.6L12.3 46.5L14 51.7L19.9 52.2C20.6 53.5 21.5 54.7 22.5 55.8L21.2 61.5L25.6 64.7L30.6 61.7C32 62.3 33.5 62.8 35.1 63.1L37.1 68.5H42.7V68.7ZM32 56.4L30.3 58.8L25.7 61.5L24.2 60.4L25.4 55L25 54.6C23.8 53.3 22.8 51.9 22 50.4L21.7 49.8L16.2 49.3L15.6 47.5L19.8 43.8L19.7 43.1C19.6 42.2 19.5 41.4 19.5 40.7C19.5 39.9 19.6 39 19.7 38.1L19.8 37.4L15.5 33.7L16.1 31.9L21.8 31.4L22.2 30.8C23 29.4 24 28 25.1 26.8L25.6 26.3L24.3 20.7L25.8 19.6L30.7 22.6L31.4 22.3C32.9 21.6 34.5 21.1 36.1 20.8L36.8 20.7L39 15.1H40.9L43.1 20.7L43.8 20.8C45.5 21.1 47.2 21.7 48.7 22.4L49.4 22.7L54.1 19.6L55.6 20.7L54.2 25.7L52.6 27.9C55.9 31.1 58.1 35.6 58.1 40.6C58.1 50.3 49.9 58 40 58C37.2 58 34.5 57.7 32 56.4ZM53.8 39.9C53.8 32.3 47.6 26.1 40 26.1C32.4 26.1 26.2 32.3 26.2 39.9C26.2 47.5 32.4 53.7 40 53.7C47.6 53.8 53.8 47.6 53.8 39.9ZM39.9 51.1C33.8 51.1 28.8 46.1 28.8 40C28.8 33.9 33.8 28.9 39.9 28.9C46 28.9 51 33.9 51 40C51.1 46.1 46.1 51.1 39.9 51.1ZM40 2.8C52 2.8 63.1 8.7 70 18.3L67 19.9L75.6 25.1L75.7 15.2L72.4 17C65 6.5 53 0 40 0C28.9 0 18.2 4.9 10.7 13.1L12.7 15C19.7 7.3 29.7 2.8 40 2.8ZM2.8 40C2.8 34.1 4.3 28.4 7 23.3L9.8 25L9.9 15L1.2 19.7L4.6 21.8C1.6 27.4 0 33.6 0 40C0 60 14.2 76.5 33.5 79.4L33.9 76.7C16 74 2.8 58.6 2.8 40ZM77.7 27L75.1 27.9C76.4 31.8 77.1 35.9 77.1 40C77.1 58.4 63.4 73.9 45.7 76.6V73.9L37 78.5L45.6 83.8L45.7 79.5C64.9 76.7 79.9 59.9 79.9 40C79.9 35.6 79.1 31.2 77.7 27Z" fill="#F2641A"/>
</svg>
