<svg width="76" height="88" viewBox="0 0 76 88" fill="none" xmlns="http://www.w3.org/2000/svg">
<path d="M37.9 25.1C27.5 25.1 19 33.5 19 44C19 54.4 27.4 62.9 37.9 62.9C48.4 62.9 56.8 54.4 56.8 44C56.8 33.5 48.3 25.1 37.9 25.1ZM39 54.4V58H35.9V54.6C33.7 54.5 31.8 53.9 30.6 53.2L31.6 49.3C33 50.1 34.9 50.8 36.9 50.8C38.8 50.8 40 50 40 48.7C40 47.4 39 46.6 36.6 45.8C33.2 44.6 30.8 42.9 30.8 39.7C30.8 36.7 32.4 34.5 35.8 33.8V30.6H39.1V33.5C41.2 33.6 43 34.1 44.1 34.6L43.1 38.4C42.3 38 40.8 36.9 38.5 36.9C36.4 36.9 35.7 38.2 35.7 39.1C35.7 40.2 36.8 40.9 39.6 41.9C43.4 43.3 44.9 45.1 44.9 48.1C45 51.2 42.7 53.7 39 54.4ZM73.2 21C62.4 21 53.4 12.9 52.2 2.2L52.1 1.2L51.1 1C47.1 0.2 42.6 0 37.7 0C32.6 0 27.9 0.3 23.7 1.2L22.7 1.4L22.6 2.4C21.4 12.5 12.1 20.7 1.3 21H0C0 21 0.1 27.4 0.1 28.2C0.1 74.7 37.2 87.6 37.5 87.8L38 88L38.4 87.8C38.8 87.7 75.9 73.8 75.9 28.2C75.9 27.4 75.9 25.9 75.9 25.7C75.9 24.8 75.9 20.9 75.9 20.9C75.9 20.9 73.4 21 73.2 21ZM73.2 25.7C73.2 26.5 73.2 27.2 73.2 28.2C73.2 69.1 42.1 83.3 38 85C33.8 83.4 2.8 70 2.8 28.2C2.8 27.1 2.8 24.1 2.8 23.6C13.9 22.7 23.5 14.2 25.3 3.6C29.1 2.9 33.2 2.7 37.8 2.7C42.1 2.7 46.1 2.8 49.7 3.5C51.5 15.1 61.5 23.7 73.3 23.7C73.2 24.5 73.2 25.1 73.2 25.7Z" fill="#F2641A"/>
</svg>
