<svg width="72" height="83" viewBox="0 0 72 83" fill="none" xmlns="http://www.w3.org/2000/svg">
<path d="M62.1 22.7L65 19.8L67.4 22.2L69.3 20.3L62.6 13.6L60.7 15.5L63.1 17.9L60.2 20.8C54.7 15.7 47.6 12.3 39.7 11.4V8.8H45.6V3.2C45.5 1.4 44 0 42.3 0H28.9C27.1 0 25.7 1.4 25.7 3.2V8.8H31.8V11.3C23.8 12.2 16.5 15.7 11 21L7.8 17.8L10.2 15.4L8.3 13.5L1.6 20.2L3.5 22.1L5.9 19.7L9.2 23C3.5 29.4 0 37.8 0 46.9C0 66.6 16 82.7 35.8 82.7C55.5 82.7 71.6 66.7 71.6 46.9C71.6 37.6 68 29.1 62.1 22.7ZM28.5 6.1V3.3C28.5 3 28.7 2.8 28.9 2.8H42.3C42.5 2.8 42.7 3 42.7 3.3V6.1H28.5ZM36.9 8.8V11.1C36.5 11.1 36.2 11.1 35.8 11.1C35.4 11.1 35 11.1 34.6 11.1V8.8H36.9ZM16.2 73.5C8 67.5 2.7 57.8 2.7 46.9C2.7 28.7 17.5 13.9 35.7 13.9C42.7 13.9 49.2 16.1 54.6 19.9L52.7 22.5C47.8 19.1 41.9 17.1 35.6 17.1C19.1 17.1 5.7 30.5 5.7 47C5.7 56.9 10.5 65.7 18 71.1L16.2 73.5ZM35.7 74.1C20.7 74.1 8.5 61.9 8.5 47C8.5 32 20.7 19.9 35.7 19.9C50.7 19.9 62.9 32.1 62.9 47C62.9 61.9 50.7 74.1 35.7 74.1ZM50.2 31.1L40.6 39.7C39.2 38.8 37.5 38.2 35.7 38.2C30.9 38.2 26.9 42.1 26.9 47C26.9 51.8 30.8 55.8 35.7 55.8C40.5 55.8 44.5 51.9 44.5 47C44.5 45 43.8 43.1 42.6 41.6L52 33.2L50.2 31.1ZM35.8 53C32.5 53 29.8 50.3 29.8 47C29.8 43.7 32.5 41 35.8 41C39.1 41 41.8 43.7 41.8 47C41.8 50.3 39.1 53 35.8 53ZM35.8 44.1C34.2 44.1 32.9 45.4 32.9 47C32.9 48.6 34.2 49.9 35.8 49.9C37.4 49.9 38.7 48.6 38.7 47C38.7 45.4 37.4 44.1 35.8 44.1Z" fill="#F2641A"/>
</svg>
