<svg width="188" height="44" viewBox="0 0 188 44" fill="none" xmlns="http://www.w3.org/2000/svg">
<path fill-rule="evenodd" clip-rule="evenodd" d="M165 31.9999V26.3199C165 26.3199 169.71 27.4799 169.71 22.9699V8.40991H187.04V31.9299H180.76V13.9299H176.1V22.9299C176.1 22.9299 177.36 34.6399 165.05 31.9299L165 31.9999Z" fill="#1D1D1B"/>
<path fill-rule="evenodd" clip-rule="evenodd" d="M146.33 3.20001L150 1.76001C150 1.76001 150.12 3.76001 152.69 3.76001C155.26 3.76001 155.44 1.76001 155.44 1.76001L159.16 3.21001C159.16 3.21001 158.16 7.07001 152.69 7.07001C147.22 7.07001 146.33 3.21001 146.33 3.21001V3.20001ZM142.07 31.89H148.39L157.07 17.78V31.89H163.16V8.37001H156.8L148.17 22.6V8.37001H142.1V31.9L142.07 31.89Z" fill="#1D1D1B"/>
<path fill-rule="evenodd" clip-rule="evenodd" d="M95.74 31.89V8.37H102.06V18.3L108.61 8.37H116.11L107.68 19.73L116.6 31.89H108.63L102.06 21.88V31.89H95.74Z" fill="#1D1D1B"/>
<path fill-rule="evenodd" clip-rule="evenodd" d="M77.21 31.89L80.5 25.32L72.13 8.37H79.61L83.76 18.26L87.29 8.37H94.3L84.01 31.89H77.21Z" fill="#1D1D1B"/>
<path fill-rule="evenodd" clip-rule="evenodd" d="M48.58 31.91V26.27C48.58 26.27 53.29 27.43 53.29 22.92V8.37H70.62V31.89H64.34V13.89H59.63V22.89C59.63 22.89 60.89 34.6 48.58 31.89V31.91Z" fill="#1D1D1B"/>
<path fill-rule="evenodd" clip-rule="evenodd" d="M131.56 8.37009C127.49 4.09009 127.14 1.59009 127.14 1.59009C127.14 1.59009 126.63 4.59009 122.95 8.37009C119.27 12.1501 113.95 16.7201 113.95 21.3001C113.95 25.8801 117.38 33.6101 127.14 33.6101C136.9 33.6101 140.34 25.7601 140.34 21.3001C140.34 16.8401 135.63 12.6501 131.56 8.37009ZM121.29 14.0001C120.732 15.3589 120.336 16.7787 120.11 18.2301C119.94 19.9201 120.01 22.4901 120.01 22.8801C120.01 23.2701 119.95 23.5201 119.53 23.2501C118.84 22.7876 118.305 22.1284 117.995 21.358C117.685 20.5875 117.613 19.7416 117.79 18.9301C118.192 16.8168 119.364 14.928 121.08 13.6301C121.08 13.6301 121.23 13.4901 121.33 13.5401C121.43 13.5901 121.39 13.7101 121.28 13.9901L121.29 14.0001Z" fill="#1D1D1B"/>
<path fill-rule="evenodd" clip-rule="evenodd" d="M0 0V43.19H43.67V0H0ZM13.65 7.11C13.6708 6.46092 13.9433 5.8454 14.4099 5.39373C14.8765 4.94205 15.5006 4.68967 16.15 4.69C16.7975 4.68981 17.4193 4.94284 17.8827 5.39504C18.3462 5.84723 18.6143 6.46272 18.63 7.11V24C18.6375 24.2142 18.6882 24.4247 18.779 24.6188C18.8699 24.8129 18.9991 24.9866 19.1588 25.1295C19.3186 25.2725 19.5055 25.3816 19.7085 25.4504C19.9115 25.5192 20.1263 25.5463 20.34 25.53C20.5499 25.554 20.7625 25.5315 20.9628 25.4641C21.163 25.3967 21.3459 25.2861 21.4986 25.14C21.6513 24.994 21.77 24.8162 21.8463 24.6192C21.9226 24.4222 21.9546 24.2108 21.94 24V7.11C21.9892 6.46395 22.2761 5.85905 22.7452 5.41211C23.2143 4.96518 23.8323 4.70791 24.48 4.69C25.1284 4.69917 25.7492 4.95409 26.217 5.40329C26.6848 5.85248 26.9646 6.46246 27 7.11V24C26.9661 25.7385 26.2535 27.3949 25.0147 28.615C23.7758 29.8352 22.1089 30.5225 20.37 30.53C13.78 30.3 13.63 24 13.63 24V7.14L13.65 7.11ZM10.31 37C10.31 37 5.31 37 5.31 32.06V7.06C5.31382 6.74051 5.38139 6.42501 5.50875 6.13198C5.63611 5.83895 5.8207 5.57431 6.05169 5.35356C6.28268 5.13281 6.55542 4.96041 6.85392 4.84647C7.15242 4.73252 7.47067 4.67933 7.79 4.69C8.11589 4.67349 8.44169 4.72418 8.74717 4.8389C9.05264 4.95363 9.33126 5.12995 9.56572 5.3569C9.80018 5.58385 9.98546 5.85659 10.1101 6.15818C10.2347 6.45976 10.2959 6.78375 10.29 7.11V30.49C10.29 30.49 10.1 32.06 12 32.06H34.47L29.06 18.84C29.06 18.84 28.19 16.55 29.06 14.98C29.93 13.41 33.6 7.11 33.6 7.11C33.6 7.11 34.6 4.69 36.51 4.69C36.921 4.68766 37.3258 4.7896 37.6867 4.98628C38.0476 5.18295 38.3527 5.46794 38.5734 5.81459C38.7942 6.16124 38.9235 6.55822 38.9491 6.9684C38.9747 7.37858 38.8959 7.78856 38.72 8.16C37.94 9.59 34.38 15.68 34.38 15.68C34.1044 16.1318 33.9585 16.6508 33.9585 17.18C33.9585 17.7092 34.1044 18.2282 34.38 18.68C35.88 22.21 41.91 37 41.91 37H10.31Z" fill="#E30613"/>
<path fill-rule="evenodd" clip-rule="evenodd" d="M49.39 38.0501H53.78V34.5701H54.73V43.1301H53.78V38.9501H49.39V43.1301H48.44V34.5701H49.39V38.0501Z" fill="#1D1D1B"/>
<path fill-rule="evenodd" clip-rule="evenodd" d="M61.9 35.4701H58.4V38.0101H61.8V38.9101H58.4V42.2401H61.9V43.1301H57.45V34.5701H61.9V35.4701Z" fill="#1D1D1B"/>
<path fill-rule="evenodd" clip-rule="evenodd" d="M67.86 41.93H67.63C64.45 41.93 63.7 39.93 63.7 38.59C63.7 37.25 64.44 35.25 67.63 35.25H67.86V34.25H68.86V35.25H69C72.18 35.25 72.93 37.25 72.93 38.59C72.93 39.93 72.19 41.93 69 41.93H68.77V43.14H67.77V41.93H67.86ZM67.86 36.15H67.6C65.26 36.15 64.67 37.5 64.67 38.59C64.67 39.68 65.26 41 67.6 41H67.86V36.15ZM68.86 41.03H69.12C71.4 41 72 39.68 72 38.59C72 37.5 71.41 36.15 69.07 36.15H68.81V41L68.86 41.03Z" fill="#1D1D1B"/>
<path fill-rule="evenodd" clip-rule="evenodd" d="M77.33 35.4701V43.1301H76.38V35.4701H74.3V34.5701H79.41V35.4701H77.33Z" fill="#1D1D1B"/>
<path fill-rule="evenodd" clip-rule="evenodd" d="M83 39.33C82.4788 39.289 81.9797 39.1018 81.56 38.79C81.3051 38.5709 81.106 38.2943 80.9791 37.983C80.8522 37.6718 80.8011 37.3349 80.83 37C80.8023 36.3758 81.0133 35.7644 81.42 35.29C81.6989 35.0162 82.0335 34.8056 82.401 34.6728C82.7686 34.5399 83.1605 34.4878 83.55 34.52H85.55V43.08H84.55V39.39H84.04L81.6 43.14H80.49L83 39.33ZM83.67 35.46C83.143 35.4109 82.6179 35.5727 82.21 35.91C81.9413 36.2089 81.7949 36.5981 81.8 37C81.7854 37.2182 81.8221 37.4368 81.9072 37.6382C81.9923 37.8396 82.1234 38.0183 82.29 38.16C82.6777 38.4152 83.1363 38.5412 83.6 38.52H84.6V35.47L83.67 35.46Z" fill="#1D1D1B"/>
<path fill-rule="evenodd" clip-rule="evenodd" d="M89.23 38.0501H93.62V34.5701H94.57V43.1301H93.62V38.9501H89.23V43.1301H88.28V34.5701H89.23V38.0501Z" fill="#1D1D1B"/>
<path fill-rule="evenodd" clip-rule="evenodd" d="M102 40.72H98.37L97.37 43.13H96.29L100.23 34.13L104.07 43.13H103L102 40.72ZM101.63 39.82L100.19 36.39L98.73 39.82H101.63Z" fill="#1D1D1B"/>
<path fill-rule="evenodd" clip-rule="evenodd" d="M107.59 39.33C107.069 39.289 106.57 39.1019 106.15 38.79C105.899 38.576 105.701 38.3064 105.573 38.0026C105.445 37.6988 105.389 37.3692 105.41 37.04C105.382 36.4158 105.593 35.8044 106 35.33C106.279 35.0562 106.613 34.8457 106.981 34.7128C107.349 34.5799 107.74 34.5278 108.13 34.56H110.13V43.12H109.13V39.39H108.62L106.18 43.14H105.02L107.54 39.34L107.59 39.33ZM108.26 35.46C107.733 35.4109 107.208 35.5727 106.8 35.91C106.529 36.2115 106.382 36.6047 106.39 37.01C106.375 37.2282 106.412 37.4468 106.497 37.6482C106.582 37.8497 106.713 38.0284 106.88 38.17C107.268 38.4252 107.726 38.5512 108.19 38.53H109.19V35.47L108.26 35.46Z" fill="#1D1D1B"/>
<path fill-rule="evenodd" clip-rule="evenodd" d="M117.31 38.2401L120.96 34.5701H122.24L118.24 38.5601L122.37 43.1301H121.06L117.56 39.2001L117.31 39.4501V43.1301H116.36V34.5701H117.31V38.2401Z" fill="#1D1D1B"/>
<path fill-rule="evenodd" clip-rule="evenodd" d="M123.71 38.86C123.704 37.9766 123.961 37.1114 124.447 36.374C124.933 35.6367 125.628 35.0603 126.442 34.7182C127.257 34.376 128.154 34.2834 129.022 34.4521C129.889 34.6208 130.686 35.0431 131.313 35.6657C131.94 36.2882 132.367 37.0828 132.542 37.9488C132.717 38.8148 132.63 39.7131 132.293 40.5298C131.957 41.3465 131.385 42.0448 130.651 42.5362C129.917 43.0276 129.053 43.29 128.17 43.29C127.583 43.3021 127.001 43.1961 126.456 42.9781C125.911 42.7602 125.416 42.4348 125 42.0214C124.584 41.608 124.255 41.115 124.033 40.5719C123.812 40.0288 123.702 39.4466 123.71 38.86ZM124.71 38.86C124.72 39.5461 124.932 40.2139 125.321 40.7796C125.709 41.3452 126.256 41.7835 126.893 42.0392C127.529 42.295 128.227 42.3568 128.899 42.2169C129.571 42.0771 130.186 41.7417 130.668 41.2531C131.15 40.7645 131.476 40.1444 131.606 39.4707C131.737 38.7971 131.665 38.0999 131.4 37.467C131.135 36.834 130.689 36.2934 130.118 35.9132C129.547 35.533 128.876 35.3301 128.19 35.33C127.729 35.3313 127.273 35.4238 126.848 35.6023C126.423 35.7808 126.038 36.0417 125.714 36.3698C125.391 36.698 125.136 37.0871 124.963 37.5145C124.791 37.9419 124.705 38.3992 124.71 38.86Z" fill="#1D1D1B"/>
<path fill-rule="evenodd" clip-rule="evenodd" d="M134.59 43.1301L136.01 34.0901L139.3 41.3201L142.65 34.0801L143.99 43.1301H143.01L142.2 37.1801L139.29 43.4901L136.41 37.1801L135.56 43.1301H134.59Z" fill="#1D1D1B"/>
<path fill-rule="evenodd" clip-rule="evenodd" d="M152.77 34.5701V43.1301H151.82V35.4701H147.43V43.1301H146.48V34.5701H152.77Z" fill="#1D1D1B"/>
<path fill-rule="evenodd" clip-rule="evenodd" d="M160.22 40.72H156.57L155.57 43.13H154.52L158.46 34.13L162.3 43.13H161.25L160.25 40.72H160.22ZM159.85 39.82L158.41 36.39L156.95 39.82H159.85Z" fill="#1D1D1B"/>
<path fill-rule="evenodd" clip-rule="evenodd" d="M164.95 38.0501H169.34V34.5701H170.29V43.1301H169.34V38.9501H164.95V43.1301H164V34.5701H164.95V38.0501Z" fill="#1D1D1B"/>
<path fill-rule="evenodd" clip-rule="evenodd" d="M178.97 36.6L173.01 43.52V34.57H173.97V41.13L179.92 34.21V43.13H178.97V36.6Z" fill="#1D1D1B"/>
<path fill-rule="evenodd" clip-rule="evenodd" d="M184.44 39.33C183.919 39.2885 183.42 39.1014 183 38.79C182.749 38.576 182.551 38.3064 182.423 38.0026C182.295 37.6988 182.239 37.3692 182.26 37.04C182.232 36.4158 182.443 35.8044 182.85 35.33C183.129 35.0562 183.463 34.8457 183.831 34.7128C184.199 34.5799 184.59 34.5278 184.98 34.56H186.98V43.12H185.98V39.39H185.47L183.03 43.14H181.87L184.39 39.34L184.44 39.33ZM185.11 35.46C184.583 35.4109 184.058 35.5727 183.65 35.91C183.379 36.2115 183.232 36.6047 183.24 37.01C183.225 37.2282 183.262 37.4468 183.347 37.6482C183.432 37.8497 183.563 38.0284 183.73 38.17C184.118 38.4252 184.576 38.5512 185.04 38.53H186.04V35.47L185.11 35.46Z" fill="#1D1D1B"/>
</svg>
