<svg width="112" height="86" viewBox="0 0 112 86" fill="none" xmlns="http://www.w3.org/2000/svg">
<path d="M39.6541 0.325719C38.2575 1.36251 37.5206 2.99054 37.7605 4.52431C37.8119 4.85848 37.889 5.15836 37.9319 5.19264C38.0347 5.29546 38.9601 4.32716 39.397 3.64168C39.8426 2.96476 40.1425 2.24502 40.2453 1.55954C40.3396 1.02829 40.2881 0.111472 40.1682 0.0343551C40.1425 0.00864937 39.9111 0.14578 39.6541 0.325719ZM39.9797 0.78837C40.0482 1.06256 39.8769 1.96229 39.6627 2.49354C39.4742 2.95625 38.9515 3.82165 38.9001 3.76167C38.8829 3.74453 38.9943 3.39324 39.1314 2.96481C39.2771 2.53639 39.4056 2.0651 39.4056 1.91943C39.397 1.68808 39.3628 1.7395 39.1143 2.34786C38.8144 3.06762 38.6173 3.39319 38.3346 3.64168C38.1803 3.77878 38.1718 3.77878 38.1204 3.64168C38.0604 3.47031 38.2746 2.62202 38.4974 2.14218C38.6602 1.81658 39.7483 0.599845 39.8769 0.599845C39.9111 0.608414 39.954 0.685548 39.9797 0.78837Z" fill="#CD9934"/>
<path d="M42.7215 0.179955C41.5134 0.60837 40.7251 1.39662 40.4338 2.50193C40.3053 2.99032 40.2967 3.31592 40.4252 3.31592C40.4681 3.31592 40.768 3.17886 41.0678 3.00749C42.1303 2.41628 42.9957 1.42237 43.1928 0.582681C43.2356 0.359906 43.2699 0.137063 43.2528 0.0856533C43.2271 0.0342433 43.0557 0.0599987 42.7215 0.179955ZM42.8415 0.754047C42.653 1.28528 42.1217 1.96213 41.6077 2.33056C41.3592 2.50193 41.3763 2.47624 41.8133 1.9193C42.0875 1.568 42.3788 1.07101 42.3017 1.07101C42.276 1.07101 42.0446 1.30235 41.7876 1.58511C41.2821 2.11634 40.8793 2.40773 40.8793 2.21066C40.8793 2.03072 41.3078 1.43946 41.6419 1.131C41.9332 0.865385 42.8758 0.342769 42.9357 0.411315C42.9443 0.419884 42.91 0.582681 42.8415 0.754047Z" fill="#CD9934"/>
<path d="M68.0065 0.325665C68.1008 0.90831 68.4778 1.59376 68.9919 2.10785C69.446 2.55341 70.3371 3.16172 70.7398 3.27311C70.894 3.31595 70.9112 3.29881 70.9112 3.0589C70.9112 2.67333 70.697 2.00503 70.4313 1.59376C70.0029 0.925429 69.2318 0.377042 68.3664 0.119993L67.9465 3.00271e-06L68.0065 0.325665ZM69.0004 0.694085C69.1804 0.788337 69.4288 0.933947 69.5488 1.0282C69.8316 1.23384 70.3714 1.98791 70.3714 2.16785C70.3714 2.29637 70.3542 2.29632 70.1486 2.20207C70.0286 2.13353 69.7202 1.85082 69.4546 1.56807C69.1975 1.28531 68.9833 1.10536 68.9833 1.16534C68.9833 1.2853 69.3517 1.83369 69.6602 2.16785C69.7716 2.28781 69.8401 2.39916 69.8144 2.43343C69.7801 2.45914 69.5402 2.25348 69.2661 1.98786C68.7948 1.52518 68.4949 1.06247 68.3664 0.599784C68.3064 0.402713 68.315 0.402747 68.4863 0.462725C68.5892 0.496998 68.8119 0.599834 69.0004 0.694085Z" fill="#CD9934"/>
<path d="M71.194 0.342654C71.1083 0.56543 71.1511 1.79071 71.254 2.20199C71.3911 2.72466 71.6824 3.35873 72.0337 3.88996C72.3336 4.33551 73.3532 5.4751 73.4646 5.4751C73.5845 5.4751 73.7216 4.44692 73.6702 3.86427C73.6017 2.83608 73.1733 1.9107 72.4193 1.12242C72.0423 0.728278 71.4168 0.222748 71.2968 0.222748C71.2625 0.222748 71.2111 0.274107 71.194 0.342654ZM71.9651 1.16526C72.5735 1.7479 72.9162 2.23631 73.1219 2.85323C73.3104 3.41017 73.3618 3.92427 73.2418 3.92427C73.079 3.92427 72.6078 3.24731 72.385 2.69894C71.9994 1.75642 72.008 1.77358 72.008 1.98778C71.9994 2.2277 72.1879 2.93035 72.4193 3.5387L72.6163 4.04418L72.385 3.76997C72.0937 3.42724 71.7252 2.69042 71.5796 2.15061C71.4682 1.73934 71.4168 0.762534 71.511 0.762534C71.5281 0.762534 71.7338 0.942485 71.9651 1.16526Z" fill="#CD9934"/>
<path d="M35.8155 3.01594C34.6074 4.60114 34.3504 6.58909 35.1386 8.17429C35.2586 8.40564 35.3871 8.60274 35.43 8.61987C35.5671 8.66272 36.4496 6.81189 36.621 6.13497C36.8009 5.44947 36.8266 4.09564 36.6895 3.58152C36.5695 3.17023 36.3039 2.53613 36.2439 2.53613C36.2097 2.53613 36.0212 2.75888 35.8155 3.01594ZM36.3211 3.52153C36.5695 4.34412 36.4582 5.84361 36.0897 6.67477L35.9526 6.98321L35.9869 5.74938C36.0212 4.48978 35.9269 4.22417 35.8241 5.29525C35.7384 6.29779 35.3528 7.25741 35.1558 6.94037C34.8987 6.53764 35.0273 5.26093 35.3957 4.47261C35.6699 3.88138 36.0726 3.23878 36.1668 3.23878C36.1925 3.23878 36.2611 3.36729 36.3211 3.52153Z" fill="#CD9934"/>
<path d="M74.9469 3.13589C74.3043 4.66116 74.6299 6.72622 75.7952 8.62852C75.9751 8.91129 76.0351 8.90277 76.2322 8.5086C76.9776 7.02619 76.8834 5.28667 75.958 3.76141C75.6667 3.26441 75.264 2.78452 75.1611 2.78452C75.1354 2.77595 75.0326 2.93024 74.9469 3.13589ZM75.9409 4.50692C76.3693 5.38951 76.5235 6.40066 76.3093 7.00905C76.2236 7.24041 76.215 7.24893 76.0779 7.12896C75.8295 6.91474 75.5467 5.75794 75.5467 4.98674C75.5467 4.78966 75.5124 4.71255 75.461 4.74683C75.3925 4.78967 75.3839 5.13244 75.4096 5.96363L75.4525 7.12896L75.2982 6.79482C75.0926 6.33211 74.9298 5.51799 74.9298 4.92674C74.9298 4.48116 75.084 3.64143 75.204 3.44434C75.2811 3.34151 75.5981 3.80427 75.9409 4.50692Z" fill="#CD9934"/>
<path d="M39.1658 4.43854C38.8487 4.78978 38.5746 5.11526 38.566 5.1581C38.5232 5.26946 39.26 5.39795 39.8598 5.39795C40.1683 5.39795 40.5967 5.338 40.8794 5.24376C41.3764 5.08956 41.9504 4.70406 41.9504 4.51559C41.9504 4.29285 40.3567 3.74461 39.8255 3.77888C39.7827 3.78745 39.4828 4.07873 39.1658 4.43854ZM40.8023 4.24144C41.0765 4.31854 41.3592 4.43852 41.4449 4.50706C41.5906 4.61842 41.5734 4.62699 41.1108 4.84973C40.5367 5.12386 40.014 5.20951 39.4228 5.13241C39.0115 5.08958 39.003 5.08103 39.1401 4.93539C39.2429 4.82403 39.38 4.78978 39.7056 4.78121C39.9455 4.78121 40.3139 4.74689 40.5281 4.72976L40.9137 4.67839L40.3739 4.53274C39.7056 4.35284 39.6884 4.33572 39.7998 4.20722C39.9198 4.04445 40.2197 4.05297 40.8023 4.24144Z" fill="#CD9934"/>
<path d="M70.7056 4.11282C70.2515 4.23278 69.446 4.60128 69.446 4.7041C69.446 4.97831 70.4999 5.52675 71.1854 5.5953C71.6909 5.64671 72.7277 5.51811 72.8134 5.39815C72.8391 5.3553 72.5906 5.02969 72.265 4.66979C71.6052 3.93287 71.5453 3.91573 70.7056 4.11282ZM71.6309 4.3785C71.7509 4.50704 71.7338 4.52416 71.2111 4.66126C70.9112 4.74695 70.6542 4.83262 70.6285 4.85833C70.6113 4.88403 70.9541 4.92688 71.3739 4.94401C71.948 4.97829 72.1879 5.0126 72.2736 5.10686C72.3935 5.22682 72.3935 5.23536 72.265 5.28677C72.1964 5.31248 71.8194 5.32106 71.4253 5.30392C70.8427 5.26965 70.637 5.23539 70.3114 5.06401C70.0972 4.94405 69.8916 4.82407 69.8745 4.78979C69.8059 4.6784 70.8769 4.30138 71.4167 4.24997C71.4681 4.2414 71.5624 4.30138 71.6309 4.3785Z" fill="#CD9934"/>
<path d="M44.8036 6.44336V7.64307H45.5405H46.2773V6.44336V5.24365H45.5405H44.8036V6.44336Z" fill="#CD9934"/>
<path d="M48.051 6.44336V7.64307H50.8357H53.6204V6.44336V5.24365H50.8357H48.051V6.44336Z" fill="#CD9934"/>
<path d="M57.7847 6.44336V7.64307H60.5693H63.354V6.44336V5.24365H60.5693H57.7847V6.44336Z" fill="#CD9934"/>
<path d="M65.119 6.44336V7.64307H65.8902H66.6614V6.44336V5.24365H65.8902H65.119V6.44336Z" fill="#CD9934"/>
<path d="M32.5596 6.46052C31.4629 8.15704 31.2144 10.4962 31.9513 12.1071C32.1826 12.6126 32.7567 13.5122 32.8424 13.5122C32.9281 13.5122 33.3393 12.5697 33.5621 11.85C33.8534 10.8989 33.9477 10.162 33.9134 9.05669C33.8706 7.99422 33.6735 7.21449 33.2622 6.51189C32.9195 5.94638 32.8852 5.94642 32.5596 6.46052ZM33.425 8.10564C33.605 8.77397 33.605 9.97352 33.425 10.7447C33.3565 11.0788 33.2622 11.3444 33.2279 11.3444C33.1937 11.3444 33.1423 10.9075 33.1166 10.3591C33.0737 9.43371 32.9538 8.59402 32.8424 8.47406C32.8167 8.43979 32.7995 8.92815 32.7995 9.55364C32.7995 10.4533 32.7653 10.7704 32.6624 11.0874C32.5853 11.3102 32.4825 11.5158 32.4397 11.5415C32.294 11.6357 32.1483 11.3701 32.0284 10.8389C31.7799 9.68216 31.9256 8.70538 32.5511 7.36872L32.8681 6.68326L33.0823 7.13744C33.1937 7.39449 33.3565 7.82289 33.425 8.10564Z" fill="#CD9934"/>
<path d="M78.3827 6.38364C78.1856 6.60641 77.8086 7.42044 77.663 7.95166C77.5516 8.33723 77.5259 8.72277 77.5259 9.64813C77.5344 10.6849 77.5602 10.9419 77.7315 11.5845C77.92 12.2956 78.477 13.7437 78.5541 13.7437C78.6312 13.7437 79.2481 12.7669 79.4366 12.3556C79.7965 11.5502 79.8908 11.019 79.8565 9.92232C79.8222 9.04838 79.7879 8.81704 79.5652 8.16587C79.3252 7.44615 78.7083 6.24658 78.5712 6.24658C78.5369 6.24658 78.4513 6.30653 78.3827 6.38364ZM78.7854 7.38612C79.2567 8.32861 79.4281 8.94553 79.4623 9.80234C79.5137 10.9419 79.2653 11.9615 78.9739 11.7216C78.734 11.5246 78.6055 10.7962 78.6141 9.6995C78.6141 9.1083 78.5884 8.65418 78.5627 8.69702C78.4598 8.79984 78.3313 9.75953 78.2799 10.6934C78.2542 11.1904 78.2028 11.5502 78.1599 11.516C77.8943 11.2503 77.7829 9.2026 77.9886 8.33723C78.0914 7.90026 78.4598 6.94918 78.5284 6.94918C78.5455 6.94061 78.6655 7.14621 78.7854 7.38612Z" fill="#CD9934"/>
<path d="M37.2121 6.66629C37.0151 6.7177 36.8351 6.78624 36.818 6.79481C36.7323 6.89763 36.0811 8.67122 36.124 8.71406C36.1925 8.79117 37.3835 8.50844 37.8119 8.3028C38.326 8.07145 39.0201 7.42881 39.2343 7.0004C39.3885 6.70051 39.3885 6.67485 39.26 6.62344C39.0372 6.53776 37.6063 6.56347 37.2121 6.66629ZM38.9172 6.91472C38.9601 7.06038 38.2318 7.76296 37.8119 7.9686C37.4092 8.16567 36.6124 8.43136 36.561 8.37995C36.5438 8.35424 36.5524 8.27711 36.5781 8.19143C36.6209 8.08004 36.878 7.92579 37.4006 7.70302C37.8291 7.52308 38.1889 7.35175 38.2146 7.30891C38.2575 7.24893 37.692 7.2746 37.1522 7.36028C36.9294 7.40313 36.878 7.30034 37.0065 7.0947C37.1522 6.85479 38.8401 6.69194 38.9172 6.91472Z" fill="#CD9934"/>
<path d="M72.325 6.76888C71.9823 6.81172 71.9908 6.96597 72.3678 7.49725C72.6934 7.95141 73.1819 8.32846 73.7388 8.58553C74.0901 8.7312 75.2383 8.97969 75.3068 8.91114C75.3497 8.86829 74.6899 7.16307 74.5785 7.0431C74.39 6.82031 73.139 6.66605 72.325 6.76888ZM73.9873 7.11164C74.3557 7.19733 74.4671 7.28307 74.4671 7.46302C74.4671 7.54871 74.33 7.56587 73.7988 7.52302L73.1219 7.48018L73.6274 7.71147C74.5699 8.13992 74.827 8.29417 74.8441 8.43984C74.9213 8.84258 73.3704 8.16568 72.822 7.54871C72.6249 7.33448 72.4707 7.12023 72.4707 7.08595C72.4621 6.99169 73.5674 7.00881 73.9873 7.11164Z" fill="#CD9934"/>
<path d="M44.8036 9.03101V10.1875H45.5405H46.2773V9.03101V7.87451H45.5405H44.8036V9.03101Z" fill="#CD9934"/>
<path d="M48.051 9.03101V10.1875H49.3619H50.6729V9.03101V7.87451H49.3619H48.051V9.03101Z" fill="#CD9934"/>
<path d="M51.067 9.03101V10.1875H52.3437H53.6204V9.03101V7.87451H52.3437H51.067V9.03101Z" fill="#CD9934"/>
<path d="M57.7847 9.03101V10.1875H59.0956H60.4065V9.03101V7.87451H59.0956H57.7847V9.03101Z" fill="#CD9934"/>
<path d="M60.7921 9.03101V10.1875H62.0688H63.3455V9.03101V7.87451H62.0688H60.7921V9.03101Z" fill="#CD9934"/>
<path d="M65.119 9.03101V10.1875H65.8902H66.6614V9.03101V7.87451H65.8902H65.119V9.03101Z" fill="#CD9934"/>
<path d="M44.8036 11.4644V12.4326H45.9261H47.0486V11.4644V10.4961H45.9261H44.8036V11.4644Z" fill="#CD9934"/>
<path d="M47.2799 11.4644V12.4326H50.1417H53.0035V11.4644V10.4961H50.1417H47.2799V11.4644Z" fill="#CD9934"/>
<path d="M53.2263 11.4644V12.4326H55.7368H58.2473V11.4644V10.4961H55.7368H53.2263V11.4644Z" fill="#CD9934"/>
<path d="M58.4786 11.4644V12.4326H61.2976H64.1166V11.4644V10.4961H61.2976H58.4786V11.4644Z" fill="#CD9934"/>
<path d="M64.425 11.4644V12.4326H65.5475H66.6699V11.4644V10.4961H65.5475H64.425V11.4644Z" fill="#CD9934"/>
<path d="M35.4128 10.6935C35.1558 10.7449 34.7616 10.8733 34.5474 10.9676L34.1619 11.1389L33.9134 12.1841C33.7763 12.7581 33.6906 13.2379 33.7163 13.2636C33.7935 13.3407 34.8131 12.9895 35.2672 12.7067C36.0297 12.2613 36.6381 11.4902 36.8094 10.7877L36.8608 10.582L36.3725 10.5906C36.1068 10.5821 35.6784 10.6335 35.4128 10.6935ZM36.2525 11.276C36.1325 11.4902 35.8669 11.8243 35.6527 12.0214C35.2672 12.3726 34.1876 12.9466 34.0933 12.8523C33.9562 12.7238 34.2818 12.3983 34.9587 11.9871C36.004 11.3702 36.004 11.3446 34.9159 11.6187C34.3332 11.7558 34.3247 11.7557 34.3589 11.5416C34.4104 11.2589 35.3786 10.899 36.1411 10.8819L36.4753 10.8733L36.2525 11.276Z" fill="#CD9934"/>
<path d="M74.6556 11.1301C74.9469 12.1154 76.0608 13.0578 77.3118 13.3834C77.6716 13.4862 77.7145 13.4862 77.7145 13.3663C77.7059 13.1178 77.2775 11.4128 77.2004 11.3357C76.9862 11.1215 76.0265 10.8559 75.3068 10.8216L74.5527 10.7788L74.6556 11.1301ZM76.2407 11.2671C76.8234 11.4385 76.9776 11.5413 77.0547 11.7983C77.0976 11.9354 77.089 11.9783 77.0033 11.944C76.8062 11.8669 75.7009 11.6356 75.6666 11.6613C75.6495 11.6784 76.0179 11.9269 76.4635 12.2011C77.0376 12.5523 77.2946 12.7666 77.3118 12.878C77.346 13.0922 77.2261 13.0835 76.652 12.8093C75.9494 12.4838 75.1954 11.7384 74.9812 11.1644C74.9383 11.0444 74.964 11.0358 75.3325 11.0701C75.5552 11.1043 75.9665 11.19 76.2407 11.2671Z" fill="#CD9934"/>
<path d="M29.6463 11.67C29.3721 12.4497 29.295 12.7325 29.2093 13.6065C29.0122 15.3631 29.4835 17.0168 30.5631 18.3192C31.0001 18.8505 31.497 19.2788 31.5827 19.1931C31.6855 19.0989 31.9083 17.6937 31.9597 16.8711C32.0454 15.4316 31.7798 14.0178 31.2143 12.8524C30.9144 12.2269 30.3146 11.413 30.0061 11.2159C29.8434 11.1131 29.8262 11.1302 29.6463 11.67ZM30.3831 12.3298C30.7601 12.8525 31.1029 13.5636 31.2828 14.2234C31.4799 14.9089 31.5998 16.1342 31.5227 16.6055L31.4713 16.9568L31.3514 16.5284C31.2828 16.297 31.1371 15.7829 31.0258 15.3973C30.8201 14.6347 30.4346 13.735 30.3917 13.8721C30.366 13.915 30.4431 14.3091 30.5545 14.7633C30.803 15.7744 30.8715 16.5455 30.7516 16.9825C30.6316 17.4195 30.4688 17.3937 30.1861 16.8796C29.8348 16.2113 29.5863 15.2088 29.5863 14.4291C29.5863 13.5808 29.8948 11.9699 30.0576 11.9699C30.0918 11.9613 30.2375 12.1241 30.3831 12.3298Z" fill="#CD9934"/>
<path d="M81.1161 11.6956C79.6338 13.3064 79.1111 15.9026 79.6852 18.8073C79.7537 19.1586 79.8308 19.4585 79.8651 19.4585C79.9851 19.4585 80.6705 18.7901 80.9961 18.3532C81.4674 17.7277 81.8358 16.9822 82.0586 16.2368C82.3156 15.3371 82.2985 13.692 82.0243 12.6639C81.8015 11.8242 81.613 11.3528 81.5188 11.3528C81.4759 11.3443 81.296 11.4985 81.1161 11.6956ZM81.6987 13.2636C81.8872 14.1633 81.8701 15.1915 81.6559 15.9455C81.4759 16.5967 81.0561 17.4621 80.9019 17.5049C80.5677 17.6163 80.5249 16.3653 80.8247 15.0972C80.9361 14.6259 81.039 14.189 81.0732 14.1118C81.1075 14.0433 81.0989 13.9833 81.0475 13.9833C80.9276 13.9833 80.5163 15.1229 80.2335 16.1597C80.1136 16.6652 79.9679 17.0679 79.9251 17.0679C79.8051 17.0679 79.9165 15.1658 80.0622 14.6003C80.2507 13.9062 80.6534 13.0323 81.039 12.5182L81.356 12.0898L81.4588 12.381C81.5273 12.5438 81.6302 12.938 81.6987 13.2636Z" fill="#CD9934"/>
<path d="M44.9579 12.8095C44.9579 12.8524 45.155 13.2209 45.3863 13.6236L45.8147 14.3691H48.171H50.5273L50.3817 14.1464C50.3046 14.0264 50.0732 13.6579 49.859 13.3408L49.4734 12.7496H47.2199C45.8576 12.7325 44.9579 12.7667 44.9579 12.8095Z" fill="#CD9934"/>
<path d="M49.8247 12.7752C49.8247 12.8009 50.0561 13.1608 50.3388 13.5892L50.8443 14.3604H55.694H60.5436L61.0149 13.6663C61.272 13.2807 61.5033 12.9208 61.5204 12.8523C61.5633 12.7495 60.8521 12.7324 55.6854 12.7324C52.4723 12.7324 49.8247 12.7495 49.8247 12.7752Z" fill="#CD9934"/>
<path d="M61.4175 13.5209L60.8691 14.3176L63.174 14.3433C64.4422 14.3519 65.5132 14.3433 65.5646 14.3262C65.6246 14.3005 66.1558 13.4438 66.4986 12.7927C66.5157 12.7584 65.5046 12.7412 64.2537 12.7412H61.9745L61.4175 13.5209Z" fill="#CD9934"/>
<path d="M45.8918 15.2087V15.7485H48.2823H50.6729V15.2087V14.6689H48.2823H45.8918V15.2087Z" fill="#CD9934"/>
<path d="M50.9128 15.2087V15.7485H53.2263H55.5397V15.2087V14.6689H53.2263H50.9128V15.2087Z" fill="#CD9934"/>
<path d="M55.8481 15.2087V15.7485H58.1616H60.475V15.2087V14.6689H58.1616H55.8481V15.2087Z" fill="#CD9934"/>
<path d="M60.715 15.2087V15.7485H63.1055H65.4961V15.2087V14.6689H63.1055H60.715V15.2087Z" fill="#CD9934"/>
<path d="M34.3846 14.8661C33.8962 14.9946 32.8337 15.5344 32.6281 15.7572C32.5167 15.8771 32.491 16.0999 32.4567 17.0596C32.431 17.6936 32.4481 18.2163 32.4824 18.2163C32.5167 18.2163 32.7823 18.0878 33.0822 17.9336C34.1961 17.3424 35.0957 16.1685 35.1986 15.1831L35.2414 14.7461L35.0186 14.7547C34.9072 14.7547 34.6159 14.8061 34.3846 14.8661ZM34.8901 15.2602C34.7016 16.04 34.0418 16.9139 33.2193 17.4708L32.7909 17.7536L32.7566 17.548C32.7309 17.3595 32.8423 17.2309 33.5277 16.5797C33.9647 16.1599 34.3075 15.8257 34.2818 15.8257C34.2475 15.8257 33.9133 15.9628 33.5192 16.1428C33.1336 16.3141 32.7909 16.4341 32.7737 16.417C32.748 16.3998 32.7652 16.2884 32.808 16.1599C32.9023 15.8943 33.5106 15.5087 34.2732 15.2431C34.933 15.0032 34.9501 15.0032 34.8901 15.2602Z" fill="#CD9934"/>
<path d="M76.1893 15.3201C76.3007 16.3569 77.2347 17.5652 78.3914 18.1736C78.7084 18.3449 78.9741 18.4563 78.9826 18.4478C78.9912 18.4392 78.9826 17.8822 78.9569 17.231L78.9141 16.0313L78.4857 15.7485C78.023 15.44 77.029 15.0458 76.4892 14.9602L76.1465 14.9087L76.1893 15.3201ZM77.406 15.5514C77.6631 15.6542 78.0401 15.8427 78.2457 15.9798C78.5713 16.1769 78.6399 16.2626 78.6399 16.4511V16.6653L78.2886 16.5197C78.0915 16.4341 77.783 16.2969 77.586 16.2112C76.9776 15.937 77.0119 16.0056 78.2543 17.1281C78.5285 17.368 78.6228 17.5223 78.6485 17.7194C78.6656 17.8822 78.6485 17.9593 78.597 17.9336C78.1515 17.6594 77.5945 17.2309 77.3289 16.9396C77.029 16.5968 76.6263 15.8685 76.5064 15.4486C76.4549 15.2772 76.4635 15.26 76.7034 15.3115C76.8405 15.3372 77.1576 15.44 77.406 15.5514Z" fill="#CD9934"/>
<path d="M46.5088 16.6741V17.291H49.0193C50.6815 17.291 51.5298 17.2653 51.5298 17.2139C51.5298 17.171 51.367 16.8883 51.1699 16.5969L50.8015 16.0657L48.6594 16.0571H46.5088V16.6741Z" fill="#CD9934"/>
<path d="M51.1442 16.1C51.1442 16.1257 51.3241 16.3999 51.5383 16.7169L51.941 17.291L55.7282 17.2739L59.5154 17.2482L59.9352 16.6484L60.3637 16.0571H55.7625C53.2091 16.0571 51.1442 16.0829 51.1442 16.1Z" fill="#CD9934"/>
<path d="M60.3037 16.5539C59.7125 17.3764 59.5069 17.2993 62.3772 17.2993H64.8963V16.6824V16.0655H62.7799H60.6636L60.3037 16.5539Z" fill="#CD9934"/>
<path d="M28.3353 17.7023C27.7355 20.0841 28.1811 22.4832 29.5006 24.0682C29.9462 24.5909 30.8716 25.3962 31.0344 25.4048C31.2401 25.4048 31.3086 22.8858 31.1372 21.7377C30.8973 20.1869 30.2718 18.8418 29.3207 17.8565C28.978 17.5052 28.6523 17.2139 28.5752 17.2139C28.4895 17.2139 28.4124 17.351 28.3353 17.7023ZM29.2179 18.3962C30.1347 19.5015 30.666 20.8553 30.7859 22.4318C30.8288 22.9973 30.8288 23.0315 30.7174 22.903C30.6574 22.8259 30.5117 22.4746 30.3918 22.1319C30.0662 21.1552 29.4064 19.7757 29.3036 19.8699C29.2864 19.8956 29.415 20.3155 29.5778 20.8296C30.0405 22.209 30.169 23.2371 29.9119 23.4942C29.6977 23.7083 28.858 22.2261 28.6266 21.2408C28.4467 20.4868 28.481 19.1502 28.6952 18.1735C28.7552 17.9422 28.8837 17.9935 29.2179 18.3962Z" fill="#CD9934"/>
<path d="M82.4699 17.6591C81.6131 18.3617 80.8162 19.7155 80.4392 21.1293C80.2421 21.8491 80.2335 21.9948 80.225 23.6313C80.225 24.7367 80.2592 25.4221 80.3107 25.5078C80.3792 25.6363 80.4392 25.6106 80.9533 25.2079C82.0158 24.3853 82.7698 23.2286 83.1297 21.8919C83.3868 20.9751 83.3868 19.0986 83.1297 18.0875C83.0355 17.7019 82.9326 17.3764 82.8898 17.3764C82.8555 17.3678 82.667 17.5049 82.4699 17.6591ZM82.8041 18.8929C82.9241 19.6898 82.9155 20.9665 82.7698 21.5063C82.5128 22.4831 81.7416 23.8199 81.5103 23.6742C81.2446 23.5114 81.3732 22.4489 81.8102 21.1122C81.9815 20.5809 82.1015 20.1268 82.0844 20.1011C81.9815 20.0069 81.3046 21.4464 80.9533 22.4746C80.6791 23.2972 80.6191 23.2972 80.6705 22.4746C80.7391 21.1122 81.2875 19.6984 82.1615 18.653C82.6584 18.0532 82.667 18.0532 82.8041 18.8929Z" fill="#CD9934"/>
<path d="M47.2028 18.6875V19.7671H47.8454H48.4794L48.6851 19.3901C48.8136 19.1502 48.9764 18.9702 49.1221 18.9103C49.362 18.7989 49.362 18.7903 49.362 18.2076V17.6079H48.2824H47.2028V18.6875Z" fill="#CD9934"/>
<path d="M49.6704 18.2162C49.6704 18.6704 49.6961 18.8332 49.7732 18.8332C49.9103 18.8332 50.3473 19.296 50.4416 19.5445C50.5187 19.7502 50.5358 19.7588 51.1442 19.7588H51.7611V18.6789V17.5991H50.7158H49.6704V18.2162Z" fill="#CD9934"/>
<path d="M51.9924 18.6875V19.7671H53.0635H54.1345L54.1773 19.57C54.263 19.2359 54.8628 18.6961 55.2312 18.6447L55.5397 18.5932V18.1049V17.6079H53.7661H51.9924V18.6875Z" fill="#CD9934"/>
<path d="M55.8481 18.0962V18.5847L56.1395 18.6275C56.4908 18.6875 56.962 19.0646 57.1591 19.4588L57.3134 19.7588H58.3587H59.4041V18.6789V17.5991H57.6304H55.8567V18.0962H55.8481Z" fill="#CD9934"/>
<path d="M59.7124 18.6875V19.7671H60.295H60.8777L61.0319 19.4672C61.1861 19.1502 61.5203 18.8417 61.7002 18.8417C61.7859 18.8417 61.8116 18.6961 61.8116 18.2248V17.6079H60.7663H59.721V18.6875H59.7124Z" fill="#CD9934"/>
<path d="M62.0345 18.2076C62.0345 18.7989 62.0345 18.7989 62.2745 18.9103C62.4201 18.9702 62.5829 19.1502 62.7114 19.3901L62.9171 19.7671H63.5597H64.1938V18.6875V17.6079H63.1141H62.0345V18.2076Z" fill="#CD9934"/>
<path d="M34.0676 19.9897C33.4336 20.1868 32.5939 20.6581 32.1483 21.0608L31.7456 21.4206L31.8399 22.6716C31.8998 23.4684 31.9598 23.9312 32.0198 23.9312C32.1655 23.9312 32.8595 23.4256 33.2536 23.0315C34.0676 22.2261 34.5646 21.1378 34.5217 20.281L34.496 19.8526L34.0676 19.9897ZM34.1876 20.6324C34.0419 21.4978 33.5278 22.3546 32.7481 23.0315C32.5253 23.2286 32.3111 23.3913 32.2768 23.3913C32.234 23.3913 32.2169 23.2885 32.2169 23.16C32.2169 22.9287 32.5596 22.4574 33.2793 21.6691C33.4678 21.4634 33.5964 21.2749 33.5707 21.2492C33.5449 21.2235 33.2194 21.3864 32.8595 21.6006C32.354 21.909 32.174 21.9776 32.1226 21.9004C31.9769 21.6777 32.0712 21.5149 32.5425 21.1721C32.9709 20.8465 33.9991 20.2896 34.1619 20.2896C34.2133 20.3068 34.2133 20.4524 34.1876 20.6324Z" fill="#CD9934"/>
<path d="M47.2028 21.0351V22.0034H47.7426H48.2824V21.5064C48.2824 21.2408 48.3081 20.8038 48.3252 20.5382L48.3766 20.0669H47.7854H47.1942V21.0351H47.2028Z" fill="#CD9934"/>
<path d="M50.6301 20.1955C50.6558 20.264 50.6729 20.701 50.6729 21.1637V22.0034H51.2128H51.7526V21.0351V20.0669H51.1613C50.6729 20.0755 50.5958 20.0926 50.6301 20.1955Z" fill="#CD9934"/>
<path d="M51.9924 21.0351V22.0034H52.4551H52.9178V21.0351V20.0669H52.4551H51.9924V21.0351Z" fill="#CD9934"/>
<path d="M53.2263 21.0351V22.0034H53.5776H53.9289V21.2065C53.9289 20.7781 53.9546 20.3411 53.9718 20.2383C54.0146 20.0755 53.9975 20.0669 53.6205 20.0669H53.2263V21.0351Z" fill="#CD9934"/>
<path d="M57.459 21.0351L57.4847 22.0034H57.836H58.1787V21.0351V20.0669H57.8189H57.4504L57.459 21.0351Z" fill="#CD9934"/>
<path d="M58.4786 21.0351V22.0034H58.9413H59.404V21.0351V20.0669H58.9413H58.4786V21.0351Z" fill="#CD9934"/>
<path d="M59.7124 21.0352V22.0034H60.218H60.7235V21.1637C60.7235 20.7011 60.7492 20.2641 60.7664 20.1956C60.8092 20.0842 60.7321 20.0757 60.2608 20.0757H59.7124V21.0352Z" fill="#CD9934"/>
<path d="M63.0627 20.4783C63.0884 20.701 63.1055 21.1465 63.1055 21.4464V22.0117H63.6453H64.1852V21.0437V20.0757H63.5939H63.0027L63.0627 20.4783Z" fill="#CD9934"/>
<path d="M76.8577 20.4353C76.8577 21.335 77.3204 22.3803 78.0572 23.1343C78.4856 23.5713 79.3767 24.2311 79.4367 24.1625C79.4796 24.1197 79.6338 22.1747 79.6338 21.8063C79.6338 21.5835 79.5738 21.4979 79.1968 21.1894C78.7341 20.821 77.5431 20.2126 77.1147 20.1184L76.8577 20.0669V20.4353ZM77.8687 20.7524C78.1086 20.8466 78.8455 21.335 79.0854 21.5664C79.2482 21.7292 79.3339 21.8748 79.3339 22.0205C79.3339 22.1404 79.3168 22.2347 79.2911 22.2347C79.2739 22.2347 78.9398 22.0376 78.5456 21.8063C78.16 21.5663 77.8173 21.3864 77.8002 21.4121C77.7745 21.4379 77.9972 21.7206 78.2971 22.0548C79.1711 23.0401 79.2482 23.1772 79.1882 23.4257L79.1283 23.6399L78.597 23.143C77.7745 22.3804 77.4146 21.7377 77.209 20.6924L77.1576 20.4353L77.4574 20.5553C77.6202 20.6496 77.8002 20.7267 77.8687 20.7524Z" fill="#CD9934"/>
<path d="M47.2028 23.2373V24.2397H47.7426H48.2823V23.2373V22.2349H47.7426H47.2028V23.2373Z" fill="#CD9934"/>
<path d="M50.673 23.2373V24.2397H51.2128H51.7526V23.2373V22.2349H51.2128H50.673V23.2373Z" fill="#CD9934"/>
<path d="M51.9925 23.2373V24.2397H52.9521H53.9203V23.2373V22.2349H52.9521H51.9839V23.2373H51.9925Z" fill="#CD9934"/>
<path d="M57.4761 23.2373V24.2397H58.4358H59.4041V23.2373V22.2349H58.4358H57.4675V23.2373H57.4761Z" fill="#CD9934"/>
<path d="M59.7124 23.2373V24.2397H60.218H60.7235V23.2373V22.2349H60.218H59.7124V23.2373Z" fill="#CD9934"/>
<path d="M63.114 23.2373V24.2397H63.6538H64.1936V23.2373V22.2349H63.6538H63.114V23.2373Z" fill="#CD9934"/>
<path d="M27.7099 23.7257C27.6242 24.0428 27.6671 25.1994 27.7785 25.9363C28.1812 28.4039 29.5349 30.2374 31.6255 31.1456L32.0625 31.3428V31.0086C32.0625 30.5802 31.8654 29.3035 31.7112 28.6952C31.5227 27.9584 31.0857 26.8959 30.683 26.219C30.0833 25.1737 28.858 24.0085 28.0184 23.6657C27.7699 23.5544 27.7528 23.5629 27.7099 23.7257ZM28.7295 24.6768C29.8262 25.4993 30.7773 26.9816 31.1629 28.4725C31.3599 29.2008 31.3685 29.2179 30.2803 27.5728C29.7234 26.7332 29.1665 26.0391 29.0979 26.1076C29.0722 26.1333 29.2179 26.4075 29.4064 26.7246C30.049 27.7699 30.4431 28.6695 30.486 29.1921C30.5374 29.7748 30.4431 29.8091 29.9633 29.3807C29.3036 28.7895 28.6181 27.6242 28.3954 26.7246C28.164 25.7735 28.0355 24.334 28.1897 24.334C28.2326 24.3255 28.4725 24.4883 28.7295 24.6768Z" fill="#CD9934"/>
<path d="M83.2324 23.9398C81.4159 24.9166 80.0878 26.9558 79.5737 29.5606C79.3767 30.5631 79.291 31.4971 79.4024 31.4971C79.4452 31.4971 79.7537 31.3685 80.0878 31.1972C82.4441 30.0148 83.7294 27.7098 83.7294 24.6938C83.7379 23.6742 83.7379 23.6742 83.2324 23.9398ZM83.2495 25.3022C83.1981 26.1505 83.0011 27.1272 82.7697 27.6842C82.427 28.4896 81.2531 29.9462 81.0047 29.8605C80.6362 29.7405 81.0903 28.3782 81.99 26.9216C82.1871 26.6217 82.3156 26.3561 82.2899 26.3304C82.1699 26.219 81.5273 27.0929 80.4134 28.8323C80.1393 29.2607 80.1135 29.0294 80.3363 28.344C80.8419 26.8017 81.6387 25.6363 82.7269 24.8395C83.0011 24.6424 83.241 24.4711 83.2581 24.4711C83.2753 24.4711 83.2753 24.8481 83.2495 25.3022Z" fill="#CD9934"/>
<path d="M47.2028 25.6362V26.7158H47.7426H48.2824V25.6362V24.5566H47.7426H47.2028V25.6362Z" fill="#CD9934"/>
<path d="M50.673 25.6362V26.7158H51.2128H51.7526V25.6362V24.5566H51.2128H50.673V25.6362Z" fill="#CD9934"/>
<path d="M51.9924 25.6362V26.7158H52.4551H52.9178V25.6362V24.5566H52.4551H51.9924V25.6362Z" fill="#CD9934"/>
<path d="M53.2263 25.6362V26.7158H53.5776H53.9289V25.6362V24.5566H53.5776H53.2263V25.6362Z" fill="#CD9934"/>
<path d="M57.4762 25.6362V26.7158H57.8275H58.1788V25.6362V24.5566H57.8275H57.4762V25.6362Z" fill="#CD9934"/>
<path d="M58.4786 25.6362V26.7158H58.9413H59.404V25.6362V24.5566H58.9413H58.4786V25.6362Z" fill="#CD9934"/>
<path d="M59.7124 25.6362V26.7158H60.2179H60.7235V25.6362V24.5566H60.2179H59.7124V25.6362Z" fill="#CD9934"/>
<path d="M63.114 25.6362V26.7158H63.6538H64.1936V25.6362V24.5566H63.6538H63.114V25.6362Z" fill="#CD9934"/>
<path d="M33.8533 25.7906C33.1079 26.2019 32.2682 26.9559 31.8913 27.5643C31.7713 27.7442 31.7884 27.8385 32.114 29.0295C32.3111 29.7321 32.4739 30.3233 32.4996 30.3404C32.5253 30.3576 32.7909 30.1177 33.0908 29.7835C33.7334 29.1152 34.2303 28.2412 34.4102 27.4701C34.5816 26.7246 34.5388 25.6364 34.3331 25.5679C34.2903 25.5764 34.0761 25.6621 33.8533 25.7906ZM34.1446 26.9731C34.0161 27.8642 33.5106 28.8838 32.9194 29.4493L32.6881 29.6721L32.6024 29.4665C32.5339 29.278 32.5596 29.1751 32.8509 28.6525C33.0308 28.3269 33.2878 27.8814 33.4335 27.6586C33.5791 27.4272 33.6905 27.213 33.6734 27.1702C33.6563 27.1359 33.3564 27.3672 33.0051 27.6843C32.6452 28.0013 32.3282 28.2412 32.2939 28.2241C32.2682 28.1983 32.2254 28.1041 32.1997 27.9842C32.1397 27.65 32.928 26.7931 33.8105 26.2362L34.1189 26.0391L34.1703 26.2362C34.196 26.3476 34.1875 26.6818 34.1446 26.9731Z" fill="#CD9934"/>
<path d="M76.9862 25.902C76.8748 26.1847 76.8577 26.8102 76.9348 27.3328C77.0462 28.0012 77.2432 28.5153 77.6802 29.1836C78.0315 29.7234 78.8284 30.5545 78.914 30.4774C78.9483 30.4431 79.1197 29.8691 79.3082 29.1836L79.6509 27.9326L79.4453 27.6327C79.1111 27.1615 78.2286 26.3733 77.6888 26.0734C77.1404 25.7563 77.0547 25.7392 76.9862 25.902ZM77.7659 26.536C78.2286 26.8445 79.1454 27.7355 79.2139 27.9326C79.2396 28.0097 79.2311 28.164 79.1968 28.284L79.1368 28.5067L78.4685 27.9069C78.1001 27.5728 77.7745 27.3157 77.7573 27.3415C77.7316 27.3672 77.9801 27.8298 78.2971 28.3782C78.7941 29.2093 78.8798 29.4149 78.8284 29.6034C78.8027 29.7234 78.7684 29.8519 78.7427 29.8776C78.6227 29.9976 77.7145 28.6609 77.4746 28.0355C77.3118 27.607 77.1661 26.2533 77.2775 26.2533C77.3118 26.2533 77.526 26.3818 77.7659 26.536Z" fill="#CD9934"/>
<path d="M47.2028 28.0269V29.0293H48.2823H49.3619V28.4895V27.9497H48.8221H48.2823V27.4871V27.0244H47.7426H47.2028V28.0269Z" fill="#CD9934"/>
<path d="M50.6729 27.4871V27.9497H50.1674H49.6619V28.4895V29.0293H50.7072H51.7526V28.0269V27.0244H51.2128H50.6729V27.4871Z" fill="#CD9934"/>
<path d="M51.9925 28.0269V29.0293H53.7661H55.5397V28.4895V27.9497H54.7257H53.9117V27.4871V27.0244H52.9521H51.9839V28.0269H51.9925Z" fill="#CD9934"/>
<path d="M57.4762 27.4871V27.9497H56.6622H55.8481V28.4895V29.0293H57.6218H59.3955V28.0269V27.0244H58.4358H57.4676V27.4871H57.4762Z" fill="#CD9934"/>
<path d="M59.7124 28.0269V29.0293H60.7577H61.8031V28.4895V27.9497H61.2633H60.7235V27.4871V27.0244H60.2179H59.7124V28.0269Z" fill="#CD9934"/>
<path d="M63.1141 27.4871V27.9497H62.5743H62.0345V28.4895V29.0293H63.1141H64.1937V28.0269V27.0244H63.6539H63.1141V27.4871Z" fill="#CD9934"/>
<path d="M47.2028 30.3062V31.2744H49.4819H51.7611V30.3062V29.3379H49.4819H47.2028V30.3062Z" fill="#CD9934"/>
<path d="M51.9924 30.3062V31.2744H52.4551H52.9178V30.3062V29.3379H52.4551H51.9924V30.3062Z" fill="#CD9934"/>
<path d="M53.2263 30.3062V31.2744H55.694H58.1616V30.3062V29.3379H55.694H53.2263V30.3062Z" fill="#CD9934"/>
<path d="M58.4786 30.3062V31.2744H58.9413H59.4041V30.3062V29.3379H58.9413H58.4786V30.3062Z" fill="#CD9934"/>
<path d="M59.7124 30.3062V31.2744H61.9487H64.1851V30.3062V29.3379H61.9487H59.7124V30.3062Z" fill="#CD9934"/>
<path d="M37.3664 30.0149C37.4178 30.349 37.4863 30.7775 37.512 30.9831L37.5549 31.3516H38.5574H39.5513V30.3833V29.415H38.4117H37.2635L37.3664 30.0149Z" fill="#CD9934"/>
<path d="M41.7961 30.3833V31.3516H43.4584H45.1207V30.3833V29.415H43.4584H41.7961V30.3833Z" fill="#CD9934"/>
<path d="M66.3529 30.3833V31.3516H68.0151H69.6774V30.3833V29.415H68.0151H66.3529V30.3833Z" fill="#CD9934"/>
<path d="M71.8452 30.3832V31.3516H72.8905H73.9359V30.9831C73.9359 30.6403 74.0472 29.8775 74.1329 29.5519C74.1758 29.4319 74.0815 29.4233 73.0105 29.4233H71.8452V30.3832Z" fill="#CD9934"/>
<path d="M27.3929 29.8948C27.59 31.0258 28.1127 32.3196 28.7639 33.305C29.6978 34.7274 30.9488 35.7042 32.4739 36.2012C33.0137 36.3897 34.1619 36.6125 34.2219 36.5525C34.2904 36.4926 33.9734 35.6614 33.5535 34.7874C32.5082 32.6281 30.9402 30.9573 29.1923 30.1433C28.6353 29.8862 27.8214 29.6377 27.5215 29.6377C27.3758 29.6548 27.3587 29.6805 27.3929 29.8948ZM28.8838 30.5717C30.032 31.0344 31.3943 32.2082 32.2169 33.4592C32.9452 34.556 32.8509 34.5646 31.7113 33.5021C30.9488 32.7995 29.6378 31.8141 29.5521 31.8998C29.535 31.917 29.9291 32.3368 30.4432 32.8424C31.3858 33.7763 31.8313 34.359 32.0284 34.8902C32.1826 35.3358 32.0626 35.4043 31.54 35.1644C30.5632 34.7189 29.4493 33.6049 28.8838 32.5339C28.5411 31.8826 28.0527 30.6059 28.0527 30.3746C28.0441 30.2632 28.2069 30.2975 28.8838 30.5717Z" fill="#CD9934"/>
<path d="M35.2329 30.1261C34.6245 30.6059 34.1104 31.1629 33.682 31.8141C33.048 32.7823 33.048 32.688 33.7677 34.2217C34.1104 34.9672 34.4275 35.5927 34.4532 35.627C34.556 35.7298 35.1815 34.8558 35.5156 34.1789C36.1754 32.7994 36.2782 31.0086 35.7641 30.0233L35.6527 29.809L35.2329 30.1261ZM35.6699 31.8911C35.627 32.8336 35.4385 33.4934 34.9158 34.4102L34.5817 34.9929L34.4446 34.7187C34.2732 34.3845 34.2904 34.2902 34.8473 32.8165C35.0615 32.251 35.2243 31.7797 35.1986 31.7626C35.1815 31.7455 34.8816 32.0968 34.5303 32.5424C34.179 32.9879 33.8619 33.3649 33.8362 33.3649C33.8105 33.3649 33.7334 33.245 33.6734 33.0993C33.5535 32.8508 33.5535 32.8251 33.7848 32.4309C34.119 31.8483 34.6074 31.2314 35.0872 30.7773L35.4985 30.3917L35.6099 30.743C35.6699 30.9658 35.6956 31.3428 35.6699 31.8911Z" fill="#CD9934"/>
<path d="M82.8212 30.109C80.8933 30.7773 79.0854 32.5167 77.9544 34.7873C77.5431 35.6185 77.1319 36.6724 77.2004 36.7324C77.2775 36.8095 78.34 36.6124 78.9312 36.4153C80.8162 35.7727 82.2214 34.5046 83.1896 32.6024C83.4638 32.0454 83.9351 30.7002 84.0122 30.2118L84.0636 29.8862H83.7637C83.6009 29.8862 83.1725 29.9804 82.8212 30.109ZM83.2839 30.9401C82.9069 32.1654 82.2985 33.3221 81.6388 34.0162C80.9362 34.7702 79.8737 35.5243 79.4881 35.5243C79.2568 35.5243 79.2911 35.2758 79.6167 34.6417C79.848 34.2133 80.1222 33.8877 80.9105 33.1079C81.4588 32.5681 81.8787 32.1311 81.8358 32.1311C81.6131 32.1311 80.5592 32.928 79.5652 33.8448C79.1625 34.2218 78.8112 34.5217 78.7684 34.5217C78.6484 34.5217 79.1968 33.6135 79.6852 32.9966C80.5677 31.8912 81.6559 31.0772 82.8469 30.6574C83.4295 30.4432 83.4295 30.4432 83.2839 30.9401Z" fill="#CD9934"/>
<path d="M75.5381 30.4773C75.3839 30.8629 75.3582 31.0686 75.3582 31.9254C75.3582 32.8508 75.3753 32.9793 75.5981 33.6134C75.7266 33.9904 76.0008 34.5644 76.1978 34.89C76.5491 35.4641 76.9176 35.9525 76.9604 35.9011C76.969 35.8839 77.2603 35.2499 77.6202 34.4959C78.1257 33.4249 78.2457 33.0736 78.2114 32.9108C78.1257 32.5595 77.4831 31.5998 76.9947 31.0686C76.592 30.6316 75.8723 30.0318 75.7609 30.0318C75.7352 30.0403 75.6323 30.2374 75.5381 30.4773ZM76.5063 31.1457C76.9776 31.6255 77.4831 32.2853 77.7401 32.7994C77.8601 33.0393 77.8601 33.0735 77.723 33.3306L77.5773 33.6048L76.9262 32.7823C76.5749 32.3367 76.2578 31.9596 76.2236 31.9596C76.1893 31.9596 76.2407 32.1482 76.3264 32.3624C76.4206 32.5851 76.6348 33.1764 76.8148 33.6648L77.1318 34.5644L76.9947 34.8558L76.8576 35.1385L76.7034 34.9157C76.4292 34.5216 76.1122 33.8447 75.9237 33.2963C75.7951 32.8851 75.7523 32.5852 75.7437 31.994C75.7437 31.1714 75.8208 30.6402 75.9408 30.6402C75.9836 30.6573 76.2321 30.8715 76.5063 31.1457Z" fill="#CD9934"/>
<path d="M68.5978 32.4736V33.4419H70.2429H71.888L72.2136 33.1077L72.5392 32.7735V32.1395V31.5054H70.5685H68.5978V32.4736Z" fill="#CD9934"/>
<path d="M38.9343 32.2341V32.8853L39.2771 33.1594L39.6198 33.4336H41.2135H42.8073V32.5083V31.583H40.8708H38.9429V32.2341H38.9343Z" fill="#CD9934"/>
<path d="M43.1072 32.5083V33.4336H44.9579H46.8086V32.5083V31.583H44.9579H43.1072V32.5083Z" fill="#CD9934"/>
<path d="M47.2028 32.5083V33.4336H48.2823H49.3619V32.5083V31.583H48.2823H47.2028V32.5083Z" fill="#CD9934"/>
<path d="M49.6704 32.5083V33.4336H50.7158H51.7611V32.5083V31.583H50.7158H49.6704V32.5083Z" fill="#CD9934"/>
<path d="M51.9924 32.5083V33.4336H53.7661H55.5397V32.5083V31.583H53.7661H51.9924V32.5083Z" fill="#CD9934"/>
<path d="M55.9253 32.5083V33.4336H57.6647H59.4041V32.5083V31.583H57.6647H55.9253V32.5083Z" fill="#CD9934"/>
<path d="M59.7124 32.5083V33.4336H60.7577H61.8031V32.5083V31.583H60.7577H59.7124V32.5083Z" fill="#CD9934"/>
<path d="M62.0345 32.5083V33.4336H63.1141H64.1937V32.5083V31.583H63.1141H62.0345V32.5083Z" fill="#CD9934"/>
<path d="M64.5792 32.5083V33.4336H66.4728H68.3665V32.5083V31.583H66.4728H64.5792V32.5083Z" fill="#CD9934"/>
<path d="M40.6394 34.2562C40.6394 34.6845 40.6822 34.8387 40.8965 35.2242L41.1449 35.6782H43.3727H45.5834V34.7102V33.7422H43.1157H40.648V34.2562H40.6394Z" fill="#CD9934"/>
<path d="M45.8918 34.7102V35.6782H46.3545H46.8171V34.7102V33.7422H46.3545H45.8918V34.7102Z" fill="#CD9934"/>
<path d="M47.2028 34.7102V35.6782H49.4819H51.7611V34.7102V33.7422H49.4819H47.2028V34.7102Z" fill="#CD9934"/>
<path d="M51.9924 34.7102V35.6782H52.4551H52.9178V34.7102V33.7422H52.4551H51.9924V34.7102Z" fill="#CD9934"/>
<path d="M53.2263 34.7102V35.6782H55.694H58.1616V34.7102V33.7422H55.694H53.2263V34.7102Z" fill="#CD9934"/>
<path d="M58.4786 34.7102V35.6782H58.9413H59.4041V34.7102V33.7422H58.9413H58.4786V34.7102Z" fill="#CD9934"/>
<path d="M59.7124 34.7102V35.6782H61.9487H64.1851V34.7102V33.7422H61.9487H59.7124V34.7102Z" fill="#CD9934"/>
<path d="M64.5792 34.7102V35.6782H65.0848H65.5903V34.7102V33.7422H65.0848H64.5792V34.7102Z" fill="#CD9934"/>
<path d="M65.8131 34.7102V35.6782H68.0494H70.2857L70.5599 35.1728C70.7913 34.7444 70.8341 34.5817 70.8341 34.2047V33.7422H68.3236H65.8131V34.7102Z" fill="#CD9934"/>
<path d="M37.5892 34.6761C37.0408 35.6185 36.6552 36.7666 36.5781 37.7177L36.5353 38.2575L37.752 39.457C38.7544 40.4423 38.9686 40.6308 39.0372 40.5194C39.08 40.4509 39.1828 40.091 39.2771 39.7055C39.4056 39.1828 39.4485 38.7973 39.4485 37.9834C39.457 36.8352 39.3285 36.244 38.8573 35.3358C38.643 34.9074 38.069 34.1963 37.9405 34.1963C37.8976 34.2049 37.7434 34.4276 37.5892 34.6761ZM38.2918 35.2673C38.8144 36.1327 39.0372 36.9466 39.0372 38.0347C39.0372 38.7202 38.9001 39.7398 38.7801 39.8083C38.7459 39.8255 38.6259 39.7398 38.506 39.6113L38.2832 39.3799L38.2403 37.8548C38.2146 37.0237 38.1804 36.3897 38.1461 36.4497C38.1204 36.5096 37.949 37.0152 37.7777 37.555L37.4521 38.5488L37.1865 38.2918C36.938 38.0519 36.9208 38.0091 36.9723 37.6835C37.0751 36.998 37.315 36.2011 37.6149 35.5585C37.7862 35.1987 37.9576 34.8989 37.9919 34.8989C38.0433 34.9074 38.1718 35.0702 38.2918 35.2673Z" fill="#CD9934"/>
<path d="M73.1648 34.6757C72.7535 35.1041 72.3422 35.9011 72.1451 36.6551C71.8624 37.7091 71.948 39.4485 72.3336 40.5796L72.4364 40.8623L73.6532 39.6884L74.8699 38.5144V38.086C74.8699 37.1349 74.3386 35.584 73.6789 34.6243L73.4904 34.3501L73.1648 34.6757ZM73.7731 35.6954C74.073 36.3295 74.4672 37.6662 74.4672 38.0689C74.4672 38.206 74.3729 38.3688 74.2101 38.5231L73.9531 38.7801L73.6189 37.7176C73.4304 37.1263 73.259 36.6208 73.2162 36.578C73.1733 36.5351 73.1476 37.135 73.1476 38.0261V39.5427L72.9077 39.8169C72.7706 39.9711 72.6421 40.074 72.6249 40.0483C72.5221 39.9455 72.385 38.9001 72.3765 38.2232C72.3765 37.3834 72.5564 36.5522 72.882 35.901C73.0962 35.4726 73.3618 35.0699 73.4218 35.0699C73.4561 35.0613 73.6103 35.3441 73.7731 35.6954Z" fill="#CD9934"/>
<path d="M64.5792 36.7925V37.6836H65.7788H66.9783L67.5181 37.3322L68.058 36.9724V36.4926V36.0128L67.2354 35.9699C66.7898 35.9357 66.0101 35.9185 65.496 35.9185H64.5878V36.7925H64.5792Z" fill="#CD9934"/>
<path d="M43.4155 36.501L43.4241 37.0237L43.9296 37.3494L44.4351 37.6836H45.6261H46.8257V36.8352V35.9868H45.1292H43.4327V36.501H43.4155Z" fill="#CD9934"/>
<path d="M47.2028 36.8352V37.6836H48.2823H49.3619V36.8352V35.9868H48.2823H47.2028V36.8352Z" fill="#CD9934"/>
<path d="M49.6704 36.8352V37.6836H50.7158H51.7611V36.8352V35.9868H50.7158H49.6704V36.8352Z" fill="#CD9934"/>
<path d="M51.9924 36.8352V37.6836H53.7661H55.5397V36.8352V35.9868H53.7661H51.9924V36.8352Z" fill="#CD9934"/>
<path d="M55.9253 36.8352V37.6836H57.6647H59.4041V36.8352V35.9868H57.6647H55.9253V36.8352Z" fill="#CD9934"/>
<path d="M59.7124 36.8352V37.6836H60.7149H61.7174V36.8352V35.9868H60.7149H59.7124V36.8352Z" fill="#CD9934"/>
<path d="M62.0345 36.8352V37.6836H63.1141H64.1937V36.8352V35.9868H63.1141H62.0345V36.8352Z" fill="#CD9934"/>
<path d="M29.1921 36.8096C28.9179 36.8525 28.9179 36.9381 29.2521 37.495C30.2632 39.1829 32.0368 40.8107 33.7077 41.5818C34.7102 42.0445 35.5841 42.2501 36.8094 42.2929C37.5891 42.3272 38.0947 42.3015 38.6173 42.2158C39.0115 42.1473 39.3542 42.0788 39.3714 42.0531C39.517 41.916 37.2892 39.6198 36.3039 38.9087C34.753 37.7692 33.2107 37.0838 31.6427 36.8353C31.1885 36.7668 29.6205 36.7496 29.1921 36.8096ZM31.5656 37.2637C32.9536 37.5036 34.2389 38.0348 35.5499 38.9172C36.4153 39.4998 37.1693 40.1596 37.0322 40.211C36.9294 40.2453 36.5267 40.091 35.4213 39.5941C34.1618 39.0287 32.2168 38.4375 32.2168 38.6088C32.2168 38.6431 32.4138 38.7459 32.6623 38.8487C33.3735 39.1314 35.0443 39.9882 35.447 40.2538C36.2696 40.8193 36.8865 41.5304 36.6723 41.6846C36.3981 41.8988 35.8755 41.8474 34.8044 41.4962C33.3392 41.0164 32.4738 40.4851 31.3685 39.3885C30.7087 38.7287 29.5948 37.358 29.5948 37.2123C29.5948 37.1009 30.8544 37.1352 31.5656 37.2637Z" fill="#CD9934"/>
<path d="M80.3364 36.9553C80.225 36.9724 79.9079 37.0238 79.5995 37.0752C77.7059 37.3751 75.6324 38.4975 73.9187 40.1426C72.9419 41.0765 71.9737 42.1733 72.0594 42.2504C72.0936 42.2847 72.3421 42.3446 72.6249 42.3875C74.9983 42.7902 77.0718 42.3446 79.0768 41.008C80.1907 40.2626 81.7587 38.5403 82.3242 37.4436L82.5042 37.0838L82.2985 37.041C81.9986 36.9724 80.5763 36.9125 80.3364 36.9553ZM81.8015 37.4351C81.8015 37.5636 80.7391 38.8831 80.1564 39.4829C79.0511 40.6139 78.16 41.1708 76.6606 41.6678C75.4353 42.079 74.6984 42.1133 74.6984 41.7705C74.6984 41.5563 75.401 40.8281 76.0265 40.4168C76.4892 40.1083 77.7744 39.4572 78.8198 39.003C79.0254 38.9088 79.1796 38.8146 79.1539 38.7975C79.0854 38.7289 77.8173 39.0716 77.0804 39.3458C76.7205 39.4829 76.0179 39.7742 75.5381 39.9884C74.0986 40.6224 73.9701 40.5967 74.8355 39.877C76.2493 38.6946 77.8687 37.872 79.4881 37.5293C80.1479 37.3836 81.8015 37.3237 81.8015 37.4351Z" fill="#CD9934"/>
<path d="M10.4362 37.5808C9.31377 37.7693 8.27701 38.4375 7.48016 39.4743C6.68331 40.511 6.34058 41.4792 6.34058 42.7044C6.34058 44.6751 7.30022 46.1916 9.64793 47.9823C10.7875 48.8477 12.4498 49.5332 13.8635 49.7302C14.806 49.8587 16.5283 49.833 17.6593 49.6702C19.0902 49.456 20.0498 49.2161 22.0976 48.5392C26.5103 47.0998 27.1186 46.9542 29.0122 46.9028C32.4653 46.8 34.9072 47.8966 36.7323 50.3814C37.1778 50.9811 37.332 51.0754 37.4948 50.8098C37.5548 50.7155 37.4777 50.5442 37.1607 50.0815C35.5327 47.6653 32.748 46.1574 29.5777 45.9774C27.3843 45.8575 25.028 46.2516 20.3668 47.5539C17.5307 48.3422 16.2969 48.5735 14.8831 48.5735C11.6443 48.5735 8.37126 46.5943 7.37734 44.0496C7.09458 43.3042 7.07745 42.1475 7.34306 41.3592C7.66009 40.451 8.48265 39.38 9.25379 38.8745C10.5819 38.0091 12.1156 38.1463 13.2038 39.2258C13.735 39.7399 13.9492 40.2111 13.9835 40.9137C14.0178 41.4021 13.992 41.5049 13.795 41.8648C13.5294 42.3532 13.1009 42.6787 12.5611 42.7987C11.9614 42.9357 11.91 42.8672 11.9699 42.0361C12.0128 41.4192 11.9956 41.3164 11.7986 40.8623C11.6786 40.5881 11.5672 40.2369 11.5501 40.0826C11.5158 39.8256 11.5501 39.7828 11.9185 39.44C12.1327 39.243 12.2955 39.063 12.2784 39.0373C12.2098 38.9688 11.3445 39.1402 10.8818 39.3115C9.55368 39.817 8.98817 40.9908 9.43372 42.3189C9.55368 42.6873 9.57082 42.8329 9.51084 42.9015C9.44229 42.9615 9.3309 42.8929 9.09956 42.6188C8.91963 42.4217 8.74826 42.2589 8.72256 42.2589C8.68828 42.2589 8.67972 42.4217 8.71399 42.6188C8.81681 43.4499 9.41659 44.2724 10.2049 44.6408C10.5733 44.8207 10.719 44.8379 11.4044 44.8379C12.3298 44.8293 12.8696 44.6494 13.478 44.161C14.2919 43.4927 14.6946 42.6359 14.7546 41.4792C14.806 40.2626 14.4804 39.3972 13.6665 38.6689C12.7325 37.8121 11.5072 37.4094 10.4362 37.5808ZM11.0103 40.134C11.036 40.2968 11.1474 40.6224 11.2673 40.8538C11.4558 41.2393 11.473 41.3593 11.4815 42.1475C11.4815 43.2442 11.5244 43.287 12.3127 43.287C12.9296 43.2785 13.3066 43.1328 13.795 42.7044L14.0692 42.4645L13.992 42.6701C13.8721 42.9786 13.4265 43.5698 13.1695 43.7583C12.2698 44.4266 11.0103 44.5723 10.2563 44.101C9.88784 43.8782 9.45086 43.407 9.61366 43.407C9.99923 43.407 10.1706 42.8244 9.94782 42.2846C9.57082 41.3764 9.82786 40.4853 10.6333 39.9883C10.9332 39.7999 10.9503 39.7999 11.0103 40.134ZM25.6106 46.9113C25.1051 47.0484 23.7256 47.4854 22.5432 47.8709C19.2101 48.9591 17.8735 49.2504 15.9113 49.319C14.6175 49.3618 13.6065 49.2504 12.6126 48.942C12.0899 48.7792 10.976 48.2994 10.976 48.2308C10.976 48.2051 11.1731 48.2823 11.4216 48.3936C12.3041 48.7878 13.2295 48.9762 14.5233 49.0105C16.4426 49.0705 17.2823 48.9162 21.7463 47.6824C23.5285 47.1941 25.9362 46.6457 26.3389 46.6457C26.4589 46.6543 26.1247 46.7657 25.6106 46.9113Z" fill="#CD9934"/>
<path d="M99.7607 37.6062C98.8867 37.7861 97.9099 38.3516 97.4215 38.9771C96.1963 40.5366 96.4619 43.0214 97.987 44.1781C98.6039 44.6408 99.1609 44.8208 100.035 44.8208C100.712 44.8293 100.806 44.8122 101.286 44.5722C102.066 44.1867 102.588 43.4755 102.7 42.6272L102.751 42.1988L102.357 42.5844C101.86 43.0642 101.749 42.9957 101.963 42.3702C102.177 41.7532 102.168 40.9992 101.928 40.5023C101.62 39.8339 100.866 39.3113 99.8806 39.1056C99.0409 38.9257 99.0066 38.9514 99.4522 39.3798C99.675 39.5855 99.8806 39.8254 99.8978 39.9111C99.9406 40.0139 99.8549 40.2624 99.7007 40.5966C99.4608 41.1021 99.4522 41.1621 99.4608 41.9504C99.4779 42.7044 99.4608 42.7815 99.3237 42.8243C98.9467 42.9443 98.2355 42.6272 97.8328 42.156C96.8303 40.9907 97.6786 39.0714 99.4693 38.4545C100.283 38.1803 101.303 38.3259 102.108 38.8486C102.323 38.9857 102.717 39.337 102.991 39.6283C105.621 42.473 104.088 46.2345 99.5636 48.0253C98.5011 48.4451 97.8928 48.5394 96.3933 48.5394C94.7825 48.5308 94.097 48.4109 91.0981 47.5798C86.3598 46.2688 84.9461 46.0118 82.5213 46.0032C81.3902 45.9946 80.9018 46.0375 80.3963 46.1317C78.3828 46.5601 76.6777 47.4427 75.3753 48.7365C74.7498 49.3534 73.833 50.553 73.833 50.7329C73.833 50.8186 74.1929 51.0243 74.2443 50.9643C74.2614 50.9472 74.4671 50.6729 74.6984 50.3559C76.4206 48.0167 78.8026 46.8772 81.9815 46.8772C83.8493 46.8772 84.9204 47.1085 88.579 48.3081C92.4005 49.5591 93.4715 49.7733 95.8878 49.7733C97.4129 49.7733 97.6614 49.7475 98.3212 49.5847C100.129 49.1392 101.474 48.368 103.017 46.9114C104.559 45.4548 105.262 43.8182 105.047 42.156C104.91 41.0678 104.619 40.3738 103.908 39.4484C102.854 38.0517 101.2 37.3234 99.7607 37.6062ZM101.08 40.2024C101.62 40.6051 101.783 41.4019 101.5 42.2159C101.414 42.4644 101.346 42.73 101.346 42.8157C101.346 43.0214 101.551 43.3127 101.749 43.3898C101.903 43.4412 101.886 43.4669 101.62 43.7411C101.174 44.1781 100.729 44.3495 100.035 44.3409C98.9895 44.3323 98.0813 43.8011 97.5586 42.8929C97.2673 42.3788 97.2759 42.3188 97.6186 42.6615C97.9785 43.03 98.484 43.2442 99.0752 43.2956C99.5122 43.3299 99.5722 43.3127 99.7607 43.1242C99.9577 42.9272 99.9577 42.9014 99.9406 42.1303C99.9149 41.3848 99.932 41.3077 100.172 40.785C100.3 40.4851 100.42 40.1167 100.42 39.9882V39.7397L100.635 39.8683C100.755 39.9625 100.952 40.0996 101.08 40.2024ZM85.9486 46.8C87.0282 46.9971 88.5619 47.3741 90.6697 47.9568C91.5865 48.2224 92.6833 48.5137 93.1202 48.6165C95.5879 49.1992 97.7643 49.1906 99.4608 48.5822C99.8035 48.4623 100.146 48.3424 100.232 48.3081C100.318 48.2738 100.223 48.3423 100.026 48.4537C98.544 49.2506 96.2648 49.5248 93.9428 49.1906C92.4519 48.9764 91.3723 48.6851 88.6476 47.8025C87.3366 47.3741 85.94 46.9372 85.5544 46.8343C84.689 46.6116 84.8433 46.5944 85.9486 46.8Z" fill="#CD9934"/>
<path d="M41.599 38.3172C41.2906 39.6796 41.282 41.1962 41.5733 42.4643L41.6676 42.8927L43.4755 43.7667C44.4608 44.2466 45.3091 44.6406 45.352 44.6406C45.3948 44.6406 45.4119 44.495 45.3948 44.2722C45.3691 44.0751 45.3348 43.6382 45.3091 43.304C45.172 41.479 44.2981 39.6282 43.0728 38.5658C42.6358 38.1887 41.9846 37.7603 41.8218 37.7603C41.7704 37.7603 41.6676 38.0173 41.599 38.3172ZM42.5844 38.8228C43.4669 39.5597 44.1438 40.6136 44.5294 41.8389C44.7265 42.49 44.9492 43.7581 44.8721 43.8353C44.8464 43.861 44.6751 43.8009 44.4866 43.7153C44.161 43.561 44.1267 43.5096 43.8696 42.8413C43.7154 42.4557 43.4412 41.6675 43.2613 41.0934L42.9186 40.0481L42.8757 41.4961L42.8329 42.9441L42.4473 42.7385C42.0703 42.5415 42.0617 42.5243 41.9589 42.0273C41.8304 41.3504 41.8132 39.7224 41.9332 39.0284C41.9846 38.7285 42.0532 38.4715 42.0874 38.4715C42.1217 38.4543 42.3445 38.6172 42.5844 38.8228Z" fill="#CD9934"/>
<path d="M45.8918 38.5743C45.8918 39.3026 45.8661 39.2768 46.4573 39.3283L46.8171 39.3711V38.6428V37.9145H46.3545H45.8918V38.5743Z" fill="#CD9934"/>
<path d="M47.2028 38.6687V39.4228L47.8454 39.6199C48.4195 39.7999 48.6337 39.817 50.1246 39.8342L51.7611 39.8599V38.883V37.9146H49.4819H47.2028V38.6687Z" fill="#CD9934"/>
<path d="M51.9924 38.8829V39.8511H52.4551H52.9178V38.8829V37.9146H52.4551H51.9924V38.8829Z" fill="#CD9934"/>
<path d="M53.2263 38.8829V39.8511H55.694H58.1617V38.8829V37.9146H55.694H53.2263V38.8829Z" fill="#CD9934"/>
<path d="M58.4786 38.8829V39.8511H58.9413H59.404V38.8829V37.9146H58.9413H58.4786V38.8829Z" fill="#CD9934"/>
<path d="M59.7124 38.8831V39.8599L61.3575 39.8256C62.8228 39.7999 63.0541 39.7828 63.5939 39.6114L64.1937 39.4229V38.6688V37.9233H61.9573H59.721V38.8831H59.7124Z" fill="#CD9934"/>
<path d="M64.5793 38.6259V39.3457L64.982 39.3115C65.2048 39.3029 65.4361 39.2515 65.4875 39.2086C65.5475 39.1572 65.5818 38.9173 65.5818 38.523V37.9146H65.0762H64.5707V38.6259H64.5793Z" fill="#CD9934"/>
<path d="M69.0948 38.2147C68.2465 38.7031 67.4154 39.6285 66.8927 40.6824C66.3615 41.7449 66.0016 43.3128 66.0616 44.3924L66.0873 44.8809L67.9038 43.9897L69.7202 43.0986L69.8659 42.576C70.0458 41.9162 70.0801 39.6713 69.9259 39.003C69.7288 38.1804 69.6688 38.0005 69.5746 38.0005C69.5232 37.9919 69.309 38.0947 69.0948 38.2147ZM69.5489 40.5453C69.5574 41.2307 69.5232 41.8648 69.4546 42.1904C69.3518 42.7045 69.3432 42.713 68.9748 42.9015C68.7692 43.0129 68.5807 43.0986 68.5549 43.0986C68.5292 43.0986 68.5121 42.4645 68.5121 41.6848L68.5035 40.2797L68.1265 41.4021C67.9209 42.019 67.6381 42.7987 67.5096 43.15C67.2954 43.7327 67.244 43.7841 66.927 43.9383C66.7299 44.0326 66.5671 44.1097 66.5414 44.1097C66.4643 44.1097 66.6014 43.1672 66.7899 42.4217C67.1326 41.0508 67.938 39.7398 68.8805 38.9858L69.3261 38.6345L69.4289 39.0458C69.4889 39.2514 69.5489 39.8941 69.5489 40.5453Z" fill="#CD9934"/>
<path d="M49.6704 40.2625C49.6704 40.3139 49.9103 40.5196 50.1931 40.7081C50.4844 40.9052 50.9385 41.2565 51.187 41.4964C51.444 41.7363 51.6754 41.9248 51.7011 41.9248C51.7268 41.9248 51.7439 41.5221 51.7439 41.0337V40.1425H50.6986C49.8932 40.1597 49.6704 40.1768 49.6704 40.2625Z" fill="#CD9934"/>
<path d="M51.9924 41.0079V41.856H53.7661H55.5397V41.0079V40.1597H53.7661H51.9924V41.0079Z" fill="#CD9934"/>
<path d="M55.9253 41.0079V41.856H57.6647H59.4041V41.0079V40.1597H57.6647H55.9253V41.0079Z" fill="#CD9934"/>
<path d="M59.7124 41.0507V41.9502L60.1922 41.5132C60.4579 41.2734 60.912 40.9222 61.1947 40.7251C61.4775 40.5281 61.7174 40.3225 61.7174 40.2625C61.7174 40.1854 61.4946 40.1597 60.7149 40.1597H59.7124V41.0507Z" fill="#CD9934"/>
<path d="M46.5858 40.9566C46.5858 41.4535 46.7658 42.7987 46.9028 43.3385C47.2456 44.7008 47.9396 46.2259 48.2481 46.2944C48.7279 46.4058 52.5751 47.0226 52.6008 46.9884C52.6608 46.9284 52.1467 45.5404 51.8296 44.9149C50.7072 42.6787 48.8736 41.1794 46.8514 40.8195C46.6029 40.7852 46.5858 40.7938 46.5858 40.9566ZM48.1367 41.8134C49.6533 42.5845 50.9214 44.0324 51.6668 45.8402L51.8982 46.3886L51.4269 46.3029C50.9642 46.2173 50.9471 46.2087 50.5101 45.6347C50.2616 45.3177 49.7304 44.5808 49.3191 43.9896C48.9078 43.3984 48.5651 42.9358 48.548 42.9443C48.5308 42.97 48.7279 43.6469 48.9764 44.4694L49.4219 45.9602L49.0706 45.9089C48.4794 45.8317 48.4537 45.7974 48.1453 45.1891C47.6569 44.2124 47.2884 42.9529 47.1685 41.8733L47.1171 41.385L47.4169 41.4964C47.5797 41.565 47.9053 41.702 48.1367 41.8134Z" fill="#CD9934"/>
<path d="M64.0737 41.1192C62.283 41.6076 60.6207 43.0729 59.6011 45.0951C59.2412 45.8234 58.7614 47.1001 58.83 47.1772C58.8642 47.2029 59.8581 47.0573 61.0577 46.8602C63.5425 46.4403 63.3368 46.5432 63.8252 45.5235C64.4079 44.2982 64.7078 43.1328 64.7934 41.7875L64.8448 41.0078L64.6563 41.0163C64.5535 41.0163 64.2879 41.0592 64.0737 41.1192ZM64.2708 41.8475C64.2708 42.6701 63.7995 44.3496 63.2769 45.395L62.9684 46.0118L62.5229 46.089C62.2744 46.1318 62.0602 46.149 62.043 46.1318C62.0259 46.1147 62.2144 45.4635 62.4543 44.6666C62.6942 43.8698 62.8827 43.21 62.857 43.1928C62.8399 43.1757 62.5914 43.5013 62.3001 43.9211C61.3747 45.2664 60.4922 46.4061 60.3551 46.4489C60.2866 46.466 60.0724 46.5089 59.8839 46.5346C59.5583 46.586 59.5497 46.5774 59.6097 46.4146C59.7211 46.0633 60.2609 44.9836 60.5693 44.5123C60.9977 43.844 61.9659 42.85 62.6 42.4302C63.0627 42.1303 64.048 41.6419 64.2279 41.6333C64.2451 41.6247 64.2708 41.7276 64.2708 41.8475Z" fill="#CD9934"/>
<path d="M53.2263 43.1328V44.1011H55.694H58.1616V43.1328V42.1646H55.694H53.2263V43.1328Z" fill="#CD9934"/>
<path d="M28.0441 42.6272C27.4528 42.7386 27.033 42.9185 26.339 43.3983C24.7281 44.4951 23.5371 44.855 22.3547 44.6065C21.7292 44.478 21.1465 44.2124 20.6924 43.8525C20.5296 43.724 20.3754 43.6383 20.3497 43.6554C20.2468 43.7496 21.3607 44.5294 22.1319 44.9064C23.3486 45.5062 23.7427 45.5919 25.1822 45.5919C26.3218 45.6005 26.4246 45.5834 27.4614 45.3092C28.0526 45.1464 28.8495 44.9835 29.2265 44.9578C30.7345 44.8122 32.1312 45.1806 33.0823 45.9689C33.2793 46.1317 33.4421 46.2431 33.4421 46.2003C33.4421 46.0632 32.6538 45.0093 32.1483 44.478C31.163 43.4327 30.0748 42.7815 29.0551 42.6358C28.4896 42.5415 28.5239 42.5415 28.0441 42.6272ZM29.8263 43.4583C30.2975 43.6725 31.3429 44.3837 31.2743 44.4437C31.2658 44.4608 30.9402 44.4266 30.5717 44.3837C29.732 44.2809 28.6353 44.3923 27.5814 44.6751C26.476 44.975 25.6363 45.1035 25.0537 45.0863L24.531 45.0607L25.2165 44.7265C25.6021 44.5379 26.219 44.1867 26.596 43.9211C27.53 43.287 27.9155 43.1584 28.6953 43.1841C29.2008 43.2184 29.4321 43.2613 29.8263 43.4583Z" fill="#CD9934"/>
<path d="M81.7159 42.7985C80.9533 43.0727 80.3792 43.4498 79.5652 44.221C78.8455 44.9065 77.8687 46.1403 77.9544 46.2346C77.9886 46.2603 78.1514 46.1489 78.3228 45.9861C78.5027 45.8318 78.8969 45.5834 79.1968 45.4377C80.4906 44.8208 81.9044 44.7864 83.995 45.3263C85.126 45.609 85.3145 45.6433 86.1971 45.6433C86.9768 45.6433 87.311 45.609 87.9022 45.4548C88.9818 45.1806 90.2842 44.478 90.8582 43.8611C91.1496 43.5526 91.0467 43.5526 90.6954 43.8525C90.3527 44.1524 89.7786 44.4437 89.2303 44.5894C88.0393 44.8979 86.7626 44.5637 85.2888 43.5526C84.2264 42.8329 83.8322 42.67 82.9583 42.6443C82.3413 42.6272 82.1528 42.6528 81.7159 42.7985ZM83.9265 43.4326C84.1578 43.544 84.5691 43.784 84.8261 43.9639C85.4945 44.4352 85.9829 44.7094 86.5398 44.9236L87.0111 45.1035L86.0428 45.0692C85.3745 45.0435 84.9033 44.9835 84.5006 44.8721C83.2581 44.5208 82.5555 44.4009 81.5616 44.4009C81.0304 44.4009 80.4563 44.4437 80.2935 44.478L79.9851 44.5466L80.2164 44.3495C80.8505 43.8182 81.5102 43.4412 82.1014 43.2698C82.6155 43.1327 83.4209 43.2013 83.9265 43.4326Z" fill="#CD9934"/>
<path d="M36.0211 42.8587C34.9929 43.0043 33.3821 43.527 33.3821 43.7069C33.3821 43.8098 34.3846 44.7094 35.0101 45.172C38.3003 47.6139 42.1818 48.0766 45.4806 46.423L46.0718 46.1231L45.5748 45.7718C43.6384 44.3838 41.4877 43.4156 39.4827 43.0044C38.5573 42.833 36.8008 42.7473 36.0211 42.8587ZM39.3199 43.4413C40.6137 43.6898 42.9186 44.5808 43.0129 44.855C43.0557 44.9749 42.8415 44.975 41.9504 44.8208C40.4938 44.5809 39.4228 44.4781 38.4203 44.4781C37.8547 44.4781 37.3921 44.5037 37.3921 44.5294C37.3921 44.5723 37.9062 44.6665 38.5488 44.7693C40.0739 45.0007 41.3335 45.3263 41.9933 45.6604C43.0557 46.2002 43.2871 46.56 42.6787 46.7828C42.2503 46.937 40.648 46.9285 39.6798 46.7657C38.7287 46.6115 38.1889 46.423 37.2378 45.9518C35.8583 45.2492 33.9904 43.904 34.2303 43.7755C34.4103 43.6727 35.4556 43.4071 35.9611 43.3214C36.6295 43.2186 38.5574 43.2871 39.3199 43.4413Z" fill="#CD9934"/>
<path d="M72.4193 43.1243C70.6628 43.4156 69.0519 44.0153 67.3811 44.9921C66.5071 45.4976 65.4275 46.243 65.4275 46.3286C65.4275 46.4143 66.5071 46.9113 67.1926 47.1512C68.1351 47.4682 68.9919 47.5967 70.1315 47.5967C72.2308 47.5881 74.2872 46.8856 76.1893 45.5318C76.9434 44.9921 78.0144 44.0496 78.0144 43.9296C78.0144 43.8097 77.1233 43.4327 76.395 43.2442C75.5639 43.03 73.3875 42.9615 72.4193 43.1243ZM75.9494 43.6297C76.3779 43.724 76.8491 43.8439 77.0119 43.9039L77.2861 44.0239L76.9348 44.3238C75.958 45.1977 73.7816 46.4486 72.7449 46.7399C71.1683 47.1854 68.6749 47.2026 68.4007 46.7742C68.2808 46.5771 68.6492 46.2344 69.3861 45.8746C70.1915 45.4804 70.8341 45.3005 72.5992 45.0092C73.3875 44.8807 74.0387 44.7607 74.0473 44.7436C74.0644 44.7264 73.8416 44.7008 73.5417 44.6665C72.8991 44.6065 71.254 44.7264 70.003 44.9406C68.9405 45.1205 68.3065 45.1377 68.3921 45.0092C68.5635 44.735 70.7827 43.8953 71.9394 43.6726C72.2822 43.6126 72.6249 43.544 72.7106 43.5269C72.7963 43.5012 73.3789 43.4841 74.0044 43.4841C74.9041 43.4755 75.3582 43.5183 75.9494 43.6297Z" fill="#CD9934"/>
<path d="M53.5776 45.0349C53.7233 45.3862 53.8432 45.7203 53.8432 45.7717C53.8432 45.8488 54.066 45.8745 54.6914 45.8745H55.5397V45.1377V44.4009H54.4258H53.3206L53.5776 45.0349Z" fill="#CD9934"/>
<path d="M55.9253 45.1378V45.8745H56.7393H57.5532L57.5961 45.6603C57.6303 45.5404 57.7503 45.232 57.8702 44.9579C57.9902 44.6837 58.093 44.4525 58.093 44.4439C58.093 44.4268 57.6046 44.4097 57.0134 44.4097H55.9339V45.1378H55.9253Z" fill="#CD9934"/>
<path d="M27.8127 47.1512C26.1591 47.3911 23.3144 48.2822 20.2041 49.5333C18.1649 50.3558 17.4965 50.5615 16.6226 50.63C15.9542 50.6814 13.9664 50.4929 13.1181 50.2958C12.8097 50.2187 12.3641 50.1673 12.1242 50.1587C11.533 50.1587 11.2931 50.3815 11.2245 50.9642C11.1903 51.3498 11.1988 51.3755 11.4987 51.6582C12.2699 52.3951 13.855 52.5236 16.4855 52.0695C17.2909 51.9324 18.0106 51.8382 18.0963 51.8639C18.4048 51.9667 18.4305 52.1809 18.1734 52.7293L17.9335 53.2349L18.2248 53.192C18.7989 53.0892 19.4501 52.695 19.8785 52.2066C20.7782 51.1699 21.0781 50.8871 21.6264 50.5186C22.5518 49.8931 23.0659 49.8331 23.3144 50.2958C23.4258 50.5014 23.4258 50.6043 23.3401 51.0327C23.2201 51.6497 23.3058 52.001 23.7171 52.4465L23.9999 52.7721L24.454 52.1466C25.8592 50.2273 27.7442 48.7621 29.3293 48.3593C30.8545 47.9738 33.0051 48.3336 34.4874 49.2247L35.1129 49.5932L35.2672 49.4389L35.4214 49.2847L35.1558 49.0105C34.6074 48.4364 33.5449 47.8195 32.491 47.4768C31.2743 47.0484 29.3893 46.9199 27.8127 47.1512ZM31.2144 47.631C31.4114 47.6739 31.2144 47.7081 30.4004 47.7424C29.5778 47.7767 29.1922 47.8281 28.8152 47.9566C28.1298 48.188 27.2644 48.6593 26.6046 49.1648C26.0048 49.619 24.4883 51.1527 24.1798 51.6154C24.0684 51.7696 23.9656 51.8981 23.9227 51.8981C23.7857 51.8981 23.7085 51.4697 23.7857 51.1526C24.0427 50.1673 23.6571 49.5076 22.826 49.5076C22.5004 49.5076 22.2862 49.576 21.7807 49.8245C21.1295 50.1501 20.6154 50.6128 19.4073 51.9238C19.193 52.1723 18.9788 52.3609 18.936 52.3609C18.8932 52.3609 18.8417 52.2323 18.816 52.0695C18.7646 51.701 18.4819 51.4354 18.0963 51.384C17.9249 51.3583 17.1795 51.444 16.3741 51.5811C15.5858 51.7096 14.669 51.8382 14.3177 51.8639C12.9125 51.9839 11.5244 51.4526 11.6958 50.8871C11.7815 50.63 12.0642 50.5786 12.6212 50.6985C13.4437 50.8956 14.6433 51.0499 15.7486 51.0927C17.2395 51.1613 17.745 51.0413 20.444 49.9702C23.7 48.6764 26.2962 47.8624 27.7956 47.6567C28.1126 47.6139 28.4811 47.5539 28.6096 47.5368C28.9695 47.4854 30.9059 47.5625 31.2144 47.631Z" fill="#CD9934"/>
<path d="M80.7219 47.0656C80.6619 47.0828 80.3449 47.1341 80.0279 47.1856C78.6055 47.4169 77.0033 48.1966 76.2064 49.0277L75.9836 49.2676L76.1464 49.439L76.3092 49.6018L76.8062 49.2934C77.8944 48.6165 79.0254 48.2823 80.4563 48.2137C81.5445 48.1623 82.307 48.3166 83.2324 48.7707C84.3977 49.3448 86.1114 50.8957 87.0282 52.1895C87.2424 52.4894 87.4395 52.7378 87.4652 52.7464C87.4909 52.7464 87.6451 52.5664 87.7993 52.3522C88.1421 51.9067 88.2192 51.4869 88.0735 50.9042C87.9364 50.3216 88.1592 49.9617 88.6476 49.9617C89.0589 49.9617 89.9414 50.5186 90.6183 51.187C90.9782 51.5468 91.3809 51.9838 91.5094 52.1552C91.7922 52.5322 92.529 53.012 93.0346 53.132C93.2402 53.1834 93.4373 53.2091 93.4544 53.192C93.4715 53.1748 93.403 52.9948 93.3002 52.7806C93.1888 52.5836 93.1031 52.3094 93.1031 52.1895C93.1031 51.7953 93.3344 51.7782 94.9453 52.0695C96.8474 52.4036 98.2612 52.4208 99.0838 52.138C99.4436 52.0181 99.7178 51.8638 99.9149 51.6668C100.163 51.4097 100.198 51.3241 100.198 51.0156C100.198 50.7414 100.155 50.6129 99.9749 50.4158C99.7692 50.1845 99.7093 50.1588 99.298 50.1588C99.0495 50.1673 98.6039 50.2187 98.2955 50.2958C97.4387 50.4929 95.4594 50.6814 94.7825 50.63C93.9599 50.5615 93.1716 50.3216 91.1324 49.499C88.3905 48.4023 85.9143 47.5882 84.2435 47.2541C83.5237 47.117 81.0732 46.9885 80.7219 47.0656ZM83.2838 47.6054C84.9975 47.8368 87.7908 48.7021 91.0296 49.9959C93.2059 50.8785 93.7886 51.0499 94.8253 51.1013C95.6565 51.1441 97.5329 50.9813 98.4583 50.7671C98.7582 50.7071 99.0923 50.6386 99.2037 50.6129C99.3494 50.5786 99.4608 50.6129 99.5807 50.7329C99.8035 50.9556 99.7521 51.187 99.4351 51.4012C98.6639 51.9238 97.4044 51.9838 95.1424 51.5897C93.523 51.3155 93.3002 51.3069 92.966 51.504C92.709 51.6582 92.529 52.0952 92.6147 52.3265C92.6576 52.4294 92.6404 52.4294 92.5119 52.3608C92.2377 52.2066 91.9635 51.9324 91.5694 51.4269C91.141 50.8614 90.6526 50.433 89.9585 49.9789C89.3759 49.6019 88.8961 49.4647 88.4162 49.5161C88.1249 49.5504 88.005 49.6104 87.8336 49.8075C87.5594 50.1417 87.4994 50.4758 87.6194 51.0328C87.6965 51.3926 87.6965 51.5383 87.6194 51.7182L87.5251 51.9496L87.0625 51.3583C86.0685 50.0902 84.7747 48.9849 83.6009 48.3766C82.6326 47.8711 82.2385 47.7768 81.0132 47.7168L79.9336 47.674L80.5163 47.5883C81.3217 47.4769 82.3413 47.4769 83.2838 47.6054Z" fill="#CD9934"/>
<path d="M46.5259 47.2711C43.9811 47.4767 41.6848 48.3679 39.9711 49.7989C39.2342 50.4073 39.2256 50.4587 39.7997 50.7415C40.4338 51.0671 41.8818 51.547 42.8415 51.7441C43.9297 51.9754 46.1746 52.044 47.2456 51.8726C49.4819 51.5213 51.3413 50.5787 53.0035 48.9849C53.4234 48.5736 53.7661 48.2223 53.7661 48.188C53.7661 48.1194 51.7011 47.6053 50.7929 47.4596C50.0389 47.3311 48.2138 47.1768 47.6655 47.1854C47.4684 47.2025 46.9629 47.2368 46.5259 47.2711ZM49.5076 47.8109C49.7818 47.8538 50.0389 47.9138 50.0817 47.9309C50.236 48.0252 49.7304 48.1966 48.5737 48.4194C47.9225 48.5479 46.9714 48.7621 46.4659 48.8906C45.4805 49.1477 43.9982 49.6875 43.9125 49.8246C43.8697 49.876 43.9211 49.8932 44.0496 49.8674C44.6237 49.7218 46.6458 49.3533 47.3056 49.2676C48.6594 49.1048 50.3988 49.2848 50.6815 49.619C50.93 49.9189 50.3645 50.3645 49.1564 50.793C46.9714 51.5727 45.3006 51.684 42.9272 51.1956C42.0703 51.0157 40.2881 50.4587 40.2196 50.3559C40.1682 50.2616 40.9222 49.6876 41.6848 49.2506C42.8329 48.5822 44.3152 48.0851 45.8147 47.8538C46.6801 47.7167 48.8136 47.6909 49.5076 47.8109Z" fill="#CD9934"/>
<path d="M61.7774 47.5028C60.6121 47.6228 58.0759 48.154 57.716 48.3425C57.6475 48.3854 57.7588 48.5396 58.1444 48.9338C60.9377 51.7613 64.5535 52.7723 68.7177 51.8984C70.0029 51.6327 72.0765 50.8702 72.0765 50.6731C72.0765 50.536 71.2539 49.7992 70.637 49.3793C69.129 48.3768 67.2525 47.7256 65.1876 47.5028C64.3307 47.4086 62.6685 47.4086 61.7774 47.5028ZM65.9159 48.1112C67.8437 48.4368 69.8059 49.2936 71.0997 50.3647L71.3139 50.5531L70.4828 50.8359C68.4264 51.5214 66.4385 51.8213 65.0419 51.6585C63.1654 51.4271 60.8863 50.596 60.6892 50.0648C60.5435 49.6792 61.4689 49.3879 62.8484 49.3879C63.7909 49.3879 64.7077 49.5079 66.3957 49.8506C67.4839 50.0648 67.6552 50.0734 67.2954 49.8934C66.5756 49.5164 64.6992 48.9766 63.0026 48.6596C61.5289 48.3854 61.0576 48.1883 61.5546 48.0683C62.3857 47.8455 64.5449 47.8712 65.9159 48.1112Z" fill="#CD9934"/>
<path d="M56.7821 47.7169C54.8628 48.171 54.1688 48.488 53.4662 49.242C52.9693 49.7561 52.4894 50.5358 52.2238 51.1956C52.1381 51.4098 52.0696 51.6155 52.0696 51.624C52.0696 51.6497 52.1895 51.6669 52.3266 51.6669C53.0378 51.6669 53.5433 51.9754 54.0232 52.7208C54.2031 52.995 54.3659 53.2178 54.383 53.2178C54.4002 53.2178 54.4173 52.8921 54.4002 52.498C54.323 50.7072 55.1199 49.2164 56.6536 48.2738C56.9964 48.0682 57.3905 47.8283 57.5104 47.7341C57.7418 47.5798 57.7418 47.5798 57.5533 47.5884C57.4419 47.5798 57.0992 47.6484 56.7821 47.7169ZM54.383 49.5163C54.1859 49.8418 53.8432 50.9043 53.8432 51.2042C53.8432 51.3242 53.8346 51.427 53.8261 51.427C53.8089 51.427 53.6033 51.3413 53.3634 51.2471L52.9264 51.0671L53.1578 50.6558C53.3891 50.2445 54.3145 49.2592 54.4601 49.2592C54.503 49.2678 54.4687 49.3877 54.383 49.5163Z" fill="#CD9934"/>
<path d="M29.9805 48.4709C28.9266 48.6508 27.9755 49.2934 27.7442 49.996C27.5471 50.5872 27.7785 51.6412 28.2326 52.2324C28.344 52.378 28.3525 52.3695 28.4982 52.0353C28.6696 51.6583 29.1323 51.2042 29.5778 50.9728C30.7859 50.3645 32.4568 50.3988 33.9819 51.0928C35.2757 51.6755 36.4753 51.9582 37.949 52.0267C39.0715 52.0695 39.5599 52.0268 39.5599 51.864C39.5599 51.7954 39.3971 51.7439 39.0886 51.7097C38.4203 51.6325 37.2464 51.3242 36.4324 51.0071C35.747 50.7329 35.37 50.5359 33.7249 49.5505C32.2254 48.6423 31.0173 48.2995 29.9805 48.4709Z" fill="#CD9934"/>
<path d="M79.9679 48.5395C79.3681 48.668 78.16 49.2421 77.0889 49.9104C75.5038 50.8957 74.2785 51.3841 72.7534 51.6412C72.2478 51.7269 71.9222 51.8211 71.9222 51.8726C71.9222 52.0182 72.1193 52.0611 72.9076 52.0611C74.467 52.0611 75.8637 51.7783 77.2603 51.1786C78.3913 50.6987 78.9225 50.5702 79.8308 50.5616C80.6362 50.5616 81.2188 50.6816 81.8358 50.99C82.2642 51.2042 82.8554 51.804 82.9668 52.1296L83.061 52.4038L83.241 52.1724C83.6951 51.6069 83.8836 50.4331 83.6094 49.859C83.438 49.5077 82.864 49.0022 82.3927 48.788C81.5958 48.4195 80.859 48.3424 79.9679 48.5395Z" fill="#CD9934"/>
<path d="M56.268 48.642C56.1309 48.7276 55.9253 48.9162 55.8139 49.0704L55.6083 49.3446L55.9596 49.7559C56.6279 50.51 57.1591 51.7781 57.1763 52.6093C57.1848 53.2777 57.2791 53.3034 57.5533 52.695C57.9217 51.8895 58.2816 51.5982 59.1213 51.4011C59.2926 51.3669 59.3269 51.324 59.2926 51.2212C59.0099 50.4586 57.7332 49.0618 56.9963 48.7105C56.7564 48.5905 56.5508 48.5049 56.5336 48.5049C56.5165 48.5049 56.3966 48.5648 56.268 48.642ZM57.8103 50.2015C58.1359 50.5271 58.4015 50.8185 58.4015 50.8613C58.4015 50.9556 57.6475 51.3669 57.6047 51.2897C57.579 51.2555 57.5276 51.0926 57.4762 50.9298C57.3305 50.4757 57.0306 49.893 56.7479 49.5417L56.5079 49.2418L56.8592 49.4303C57.0477 49.5331 57.4762 49.8844 57.8103 50.2015Z" fill="#CD9934"/>
<path d="M5.92069 57.3219C4.0528 61.7774 1.51659 67.3555 1.19956 67.7153C0.985354 67.9638 0.925376 67.9895 0.479825 68.0238L0 68.0581L0.0257049 68.3665L0.0514098 68.6749H2.09923H4.14706V68.3836V68.0837L3.59869 68.0409C2.40769 67.9295 2.40769 67.9552 3.35877 65.7188L3.8386 64.5793H6.34054H8.85105L9.45083 66.0702C9.77643 66.8928 10.042 67.6125 10.042 67.681C10.042 67.9038 9.81927 67.9894 9.15094 68.0323L8.48262 68.0751L8.50832 68.3922L8.53402 68.7007L10.8903 68.6921L13.2466 68.6749L13.2723 68.375L13.298 68.0751L12.8696 68.0323C12.5954 68.0066 12.3812 67.9381 12.2784 67.8439C12.0385 67.6296 11.61 66.6871 9.33944 61.3576C8.19986 58.6758 7.23164 56.388 7.18023 56.2852C7.10312 56.1053 7.04314 56.0795 6.76039 56.0795H6.44336L5.92069 57.3219ZM7.41158 61.1691C7.97709 62.54 8.42264 63.6625 8.4055 63.6796C8.38836 63.6967 7.42871 63.7053 6.28913 63.6968L4.19847 63.6711L5.25237 61.1777C5.83501 59.8067 6.3234 58.6928 6.34911 58.6928C6.37481 58.6928 6.84607 59.8068 7.41158 61.1691Z" fill="#CD9934"/>
<path d="M104.533 56.1993C104.49 56.2764 104.182 57.0133 103.831 57.8273C102.897 60.038 100.575 65.2819 99.9234 66.6272C99.5464 67.4155 99.3065 67.8267 99.178 67.8953C99.0752 67.9381 98.8096 68.0152 98.5696 68.0323L98.1412 68.0752V68.3665V68.6664H100.189H102.237V68.3751V68.0752L101.62 68.0238C100.815 67.9467 100.686 67.8267 100.849 67.2783C100.909 67.0813 101.183 66.3872 101.457 65.7532L101.954 64.5964L104.456 64.5707L106.967 64.5536L107.532 65.9245C107.841 66.6786 108.115 67.424 108.123 67.5782C108.166 67.921 108.098 67.9553 107.224 68.0238L106.641 68.0666V68.3751V68.675L109.014 68.6836H111.396V68.3494C111.396 68.0324 111.396 68.0238 111.122 68.0238C110.54 68.0238 110.36 67.8696 109.974 67.0813C109.777 66.6871 108.629 64.0566 107.429 61.229L105.244 56.0965L104.927 56.0708C104.679 56.0708 104.585 56.0879 104.533 56.1993ZM105.544 61.2033L106.572 63.671L104.49 63.6967C103.351 63.7053 102.391 63.6967 102.365 63.671C102.348 63.6539 102.811 62.5057 103.402 61.1177C103.993 59.7296 104.473 58.6242 104.49 58.6585C104.507 58.7013 104.979 59.841 105.544 61.2033Z" fill="#CD9934"/>
<path d="M32.8595 56.2766C32.8423 56.3194 32.8338 56.465 32.8509 56.585C32.8766 56.7906 32.8937 56.7992 33.3993 56.8592C34.0419 56.9277 34.2047 57.0048 34.2818 57.2876C34.3589 57.5704 34.3589 67.2182 34.2818 67.5952C34.239 67.8266 34.1618 67.9209 33.8962 68.058C33.6306 68.2036 33.5706 68.2807 33.5706 68.4521V68.6663L36.6209 68.6834C39.954 68.7006 40.3482 68.6577 41.4449 68.2636C43.0472 67.6809 44.3153 66.5071 45.0864 64.9134C46.0632 62.917 46.0375 60.5778 45.0264 58.8641C44.6409 58.1958 43.6384 57.2362 42.9958 56.902C42.4217 56.6107 41.6077 56.3536 40.8708 56.2508C40.1511 56.148 32.8937 56.1652 32.8595 56.2766ZM40.4081 57.2104C41.5906 57.5275 42.4388 58.1101 43.0386 59.0355C43.6384 59.9609 43.9297 61.4604 43.784 62.917C43.5527 65.4361 42.3103 67.0897 40.271 67.6124C39.4228 67.8266 38.2918 67.9037 37.2379 67.8095C36.7066 67.7666 36.2354 67.6895 36.184 67.6466C36.0983 67.5609 36.064 57.279 36.1497 57.1933C36.4067 56.9534 39.4913 56.9705 40.4081 57.2104Z" fill="#CD9934"/>
<path d="M49.1563 56.2767C49.1392 56.3196 49.1306 56.4652 49.1478 56.5851C49.1735 56.7908 49.1906 56.7994 49.6961 56.8593C50.3388 56.9279 50.5016 57.005 50.5787 57.2878C50.6558 57.5619 50.6558 66.8671 50.5787 67.424C50.5273 67.8267 50.493 67.861 50.1674 68.0667C49.8846 68.238 49.8161 68.3152 49.8418 68.4694L49.8675 68.6664L54.1945 68.675L58.5215 68.6836L58.5729 67.6982C58.6072 67.1499 58.6671 66.4815 58.71 66.1988C58.7528 65.9246 58.7528 65.6761 58.7186 65.6332C58.6757 65.5904 58.5386 65.5818 58.393 65.5904L58.1359 65.6162L57.9046 66.5415C57.6989 67.3555 57.639 67.4754 57.4676 67.5611C57.0906 67.741 56.208 67.8181 54.3402 67.8181H52.4808L52.4294 67.4069C52.3695 66.8842 52.3695 63.534 52.4294 63.0714L52.4808 62.72H53.9546C55.3598 62.72 55.951 62.78 56.0967 62.9257C56.1395 62.9685 56.2166 63.3027 56.268 63.6883L56.3708 64.3738L56.6536 64.3994L56.9364 64.4251V62.3773V60.3209H56.6279H56.3194V60.7236C56.3194 61.3148 56.1995 61.6833 55.9853 61.7518C55.7368 61.8289 53.0635 61.8975 52.7293 61.8375L52.4551 61.7861V60.3723C52.4551 59.5926 52.4808 58.5387 52.498 58.0246L52.5494 57.0992L53.4833 57.0479C54.5372 56.9879 56.2423 57.1078 56.8335 57.2791L57.2105 57.3991L57.2619 57.8019C57.2877 58.0246 57.3048 58.3931 57.3048 58.6158V59.0271H57.6047H57.9131L57.956 58.5815C57.9903 58.3416 58.0588 57.7247 58.1188 57.2106C58.1873 56.7051 58.2387 56.2681 58.2387 56.2424C58.2387 56.2167 56.1995 56.1996 53.7147 56.1996C50.3473 56.1824 49.182 56.2082 49.1563 56.2767Z" fill="#CD9934"/>
<path d="M61.8203 56.2764C61.8031 56.3193 61.7946 56.4649 61.8117 56.5849C61.8374 56.7991 61.846 56.7991 62.4715 56.8591C63.2083 56.9191 63.3968 56.9962 63.474 57.2875C63.5168 57.4075 63.5339 59.7209 63.5339 62.4372C63.5339 65.1534 63.5082 67.4755 63.474 67.5869C63.3968 67.8782 63.1826 67.9725 62.4543 68.0239L61.8374 68.0667V68.3666V68.6665H64.425H67.0127V68.3666V68.0667L66.3701 68.0239C65.856 67.981 65.6932 67.9382 65.5561 67.8097L65.3847 67.6383L65.359 62.7199C65.3419 60.0122 65.359 57.656 65.3847 57.476C65.4275 57.1676 65.4361 57.1504 65.8302 57.0561C66.43 56.9019 67.8352 56.9191 68.375 57.0904C69.0091 57.2875 69.4375 57.6388 69.7117 58.1872C69.9088 58.5985 69.943 58.727 69.9345 59.284C69.9345 59.8495 69.9002 59.978 69.6603 60.4407C69.1719 61.409 68.2979 61.8459 66.807 61.8974C66.0359 61.9316 65.993 61.9402 65.9759 62.0944C65.9673 62.2144 66.1473 62.4886 66.5843 63.0027C67.1755 63.6882 68.1608 64.9906 70.0544 67.5441L70.8684 68.6408H72.1622H73.4561L73.4304 68.3495C73.4046 68.0924 73.3875 68.0667 73.1733 68.041C72.7363 67.9982 72.6078 67.9467 72.3336 67.664C71.9994 67.3298 68.3493 62.5057 68.3493 62.4115C68.3493 62.3686 68.5978 62.2829 68.8891 62.2058C70.123 61.8888 71.0141 61.229 71.4939 60.2436C71.7681 59.6867 71.7852 59.6181 71.7852 58.9241C71.7852 58.0501 71.6481 57.6731 71.1169 57.099C70.7228 56.6706 70.38 56.482 69.6774 56.3107C69.2319 56.2078 68.5978 56.1907 65.4875 56.1821C62.7971 56.1821 61.846 56.2079 61.8203 56.2764Z" fill="#CD9934"/>
<path d="M75.9665 56.2164C75.9494 56.2336 75.9323 56.3793 75.9323 56.5335V56.8162L76.5406 56.8591C77.3889 56.9019 77.526 57.0133 77.5945 57.6302C77.6202 57.9044 77.6374 60.2607 77.6202 62.8827L77.5945 67.6467L77.4231 67.8181C77.2861 67.9637 77.149 67.998 76.592 68.0237L75.9323 68.0666V68.3836V68.7007H78.5199H81.1075V68.3665V68.0409H80.5934C79.8737 68.0409 79.5481 67.8781 79.4624 67.4583C79.4281 67.2869 79.4196 64.9391 79.4196 62.2486C79.4367 58.4699 79.4624 57.3046 79.5395 57.1761C79.6595 56.9705 80.0622 56.8419 80.662 56.8419H81.099V56.5077V56.1821H78.5456C77.149 56.1821 75.9837 56.1993 75.9665 56.2164Z" fill="#CD9934"/>
<path d="M83.8152 56.4994V56.8164L84.3378 56.8593C85.0233 56.9107 85.1004 56.9535 85.2118 57.2877C85.3232 57.6304 85.3318 66.4129 85.229 67.304C85.169 67.8352 85.1604 67.8438 84.8434 68.0238C84.5606 68.178 84.5092 68.238 84.5092 68.4522V68.7007H87.5852C90.2157 68.6921 90.7555 68.675 91.3467 68.555C93.7287 68.0837 95.6394 66.3701 96.3934 64.031C96.6334 63.2855 96.719 62.7028 96.719 61.8374C96.7105 60.1495 96.1878 58.8557 95.0482 57.7333C94.4827 57.1763 93.9086 56.825 93.1889 56.5765C92.1607 56.2252 91.6637 56.1995 87.6281 56.191H83.8238V56.4994H83.8152ZM91.321 57.2105C92.5377 57.5361 93.2917 58.0331 93.8829 58.9071C94.9882 60.5179 95.0739 63.2941 94.0714 65.3162C93.1375 67.2269 91.0897 68.0752 88.125 67.801C87.6109 67.7582 87.1483 67.6896 87.1225 67.681C87.0197 67.621 87.0454 57.2363 87.1397 57.1849C87.5167 56.9535 90.4213 56.9706 91.321 57.2105Z" fill="#CD9934"/>
<path d="M16.0741 56.5336V56.8421H16.4083C16.9224 56.8506 17.3336 56.9706 17.5307 57.1933L17.7021 57.3905L17.6935 62.1201C17.6935 64.7249 17.6592 67.0469 17.6335 67.2954C17.5564 67.8866 17.445 67.9809 16.7596 68.0408L16.1941 68.0837V68.375V68.6748L18.1648 68.6663H20.1355V68.375V68.0837L19.5957 68.0408C18.9787 67.9894 18.8245 67.9295 18.7303 67.7581C18.6703 67.6296 18.5932 58.3329 18.6532 58.3929C18.6789 58.4186 20.1098 60.2094 21.8406 62.3686C23.5799 64.5364 25.4307 66.8327 25.9619 67.4753L26.9301 68.632L27.7184 68.8291L28.5067 69.0176L28.5324 63.2254C28.5495 59.0527 28.5838 57.3819 28.6524 57.2276C28.7637 56.9706 28.8837 56.9278 29.552 56.8764L30.0661 56.8335V56.5336V56.2423L28.0783 56.2594L26.0819 56.2851V56.5593V56.8335L26.5703 56.8849C27.2129 56.9534 27.3414 57.0049 27.4614 57.2019C27.5299 57.3305 27.5642 58.47 27.5728 62.0087L27.5985 66.6442L27.2386 66.2587C26.7845 65.7703 22.5089 60.415 20.6924 58.0502L19.3129 56.2594H17.7021H16.0912V56.5336H16.0741Z" fill="#CD9934"/>
<path d="M44.7779 72.6847C43.7411 72.839 42.8929 73.4644 42.4645 74.3727C42.2589 74.8097 42.2332 74.964 42.2332 75.5723C42.2332 76.0436 42.276 76.395 42.3617 76.6692C42.7987 77.9459 44.1696 78.7171 45.7718 78.5971C46.6458 78.5372 47.3312 78.2886 47.4854 77.9887C47.6654 77.6374 47.5283 77.5946 47.057 77.8345C46.68 78.023 46.5515 78.0402 45.8232 78.0402C45.0864 78.0402 44.9664 78.0145 44.5723 77.826C44.0239 77.5518 43.5698 77.0462 43.347 76.4635C43.2185 76.1122 43.1928 75.9065 43.2185 75.3324C43.2613 74.287 43.6212 73.7044 44.4352 73.2759C44.7179 73.1303 44.8979 73.096 45.4805 73.096C46.0631 73.096 46.2345 73.1303 46.5601 73.2846C46.9285 73.4731 46.9456 73.4902 47.0056 73.8757C47.057 74.1842 47.1084 74.287 47.2027 74.287C47.3141 74.287 47.3483 74.1671 47.4255 73.653C47.4683 73.3017 47.5026 73.0018 47.4769 72.9847C47.4597 72.9675 47.2198 72.8818 46.9456 72.8047C46.303 72.6504 45.3691 72.5905 44.7779 72.6847Z" fill="#CD9934"/>
<path d="M71.134 72.6851C69.4632 72.925 68.4351 74.0559 68.4351 75.641C68.4351 76.9862 69.0605 77.9287 70.2772 78.4085C70.9113 78.657 72.3764 78.6569 73.2847 78.3999L73.9187 78.22V77.4145C73.9187 76.6948 73.9359 76.6092 74.0729 76.5321C74.1586 76.4892 74.2272 76.395 74.2272 76.3179C74.2272 76.1979 74.1158 76.1893 73.1818 76.1893C72.1537 76.1808 72.1365 76.1808 72.1365 76.3607C72.1365 76.5149 72.1794 76.532 72.5821 76.5577L73.0191 76.5835L73.0448 77.2603C73.0705 77.9286 73.0705 77.9286 72.8477 78.0143C72.7277 78.0657 72.3507 78.1257 72.0166 78.1343C71.2026 78.1771 70.6371 77.9801 70.123 77.466C69.6003 76.9519 69.3947 76.3864 69.3947 75.4954C69.3947 74.6471 69.5918 74.1416 70.0802 73.6875C70.5171 73.2762 70.8856 73.1305 71.5882 73.0877C72.0594 73.0534 72.2565 73.0791 72.6678 73.2162C73.3361 73.439 73.4389 73.5504 73.4389 73.9617C73.4389 74.2358 73.4646 74.2958 73.5846 74.2958C73.7474 74.2958 73.7902 74.1758 73.8673 73.4733L73.9101 72.9935L73.5417 72.8735C72.8134 72.625 71.9566 72.5565 71.134 72.6851Z" fill="#CD9934"/>
<path d="M84.3549 72.6846C82.6583 72.9588 81.6216 74.5354 81.99 76.3006C82.1357 76.9947 82.3413 77.4061 82.744 77.8259C83.8151 78.9313 86.0514 78.8542 87.1824 77.6802C87.8507 76.9862 88.1678 75.8722 87.9878 74.8611C87.7565 73.6014 86.9682 72.8731 85.623 72.676C85.0146 72.5903 84.9289 72.5904 84.3549 72.6846ZM85.8629 73.2673C86.5226 73.61 86.9254 74.2441 87.0796 75.1953C87.2253 76.0779 86.9339 77.2004 86.4284 77.6631C85.94 78.1172 85.0575 78.2715 84.3377 78.023C83.9093 77.8773 83.3438 77.3032 83.121 76.7977C82.7954 76.0522 82.7526 75.1352 82.9925 74.3298C83.1039 73.9527 83.7465 73.2758 84.1321 73.1473C84.5434 73.0188 85.4859 73.0873 85.8629 73.2673Z" fill="#CD9934"/>
<path d="M29.4406 74.0129C28.4467 76.3093 27.7527 77.8087 27.5899 77.9801C27.5042 78.0829 27.35 78.16 27.2386 78.16C27.0929 78.16 27.0415 78.2028 27.0415 78.3142C27.0415 78.4599 27.0929 78.4685 28.0097 78.4685C28.9265 78.4685 28.9779 78.4599 28.9779 78.3142C28.9779 78.2028 28.9265 78.16 28.7894 78.16C28.5153 78.16 28.361 78.0829 28.361 77.9373C28.361 77.8687 28.4724 77.5431 28.6095 77.2089L28.858 76.6177H29.989H31.1286L31.3856 77.2775C31.5227 77.6288 31.617 77.9801 31.5913 78.0486C31.557 78.1257 31.437 78.1686 31.2314 78.1686C30.9744 78.1686 30.9229 78.1943 30.9229 78.3228C30.9229 78.4685 30.9744 78.4771 32.0454 78.4771C33.1164 78.4771 33.1678 78.4685 33.1678 78.3228C33.1678 78.22 33.1164 78.1686 33.0136 78.1686C32.9279 78.1686 32.7994 78.1086 32.7137 78.0229C32.6366 77.9458 32.0711 76.7205 31.4713 75.281C30.5202 73.0532 30.3403 72.6848 30.2032 72.6848C30.0404 72.6762 29.9205 72.8905 29.4406 74.0129ZM30.4688 75.1268L30.8972 76.155H29.9719C29.4578 76.155 29.0551 76.1207 29.0722 76.095C29.5177 74.9726 29.9633 74.0215 29.9976 74.0558C30.0233 74.0815 30.2375 74.5699 30.4688 75.1268Z" fill="#CD9934"/>
<path d="M55.1541 73.2674C54.7857 74.1585 53.3976 77.2689 53.1834 77.6973C52.9949 78.0658 52.8749 78.16 52.5922 78.16C52.4979 78.16 52.4465 78.2114 52.4465 78.3142C52.4465 78.4599 52.4979 78.4685 53.4148 78.4685C54.3316 78.4685 54.383 78.4599 54.383 78.3142C54.383 78.1943 54.3316 78.16 54.1688 78.16C54.0488 78.16 53.8946 78.1171 53.8175 78.0572C53.6889 77.9543 53.6975 77.9201 53.9631 77.286L54.2459 76.6177H55.3855H56.5165L56.7735 77.2603C56.9021 77.6116 57.022 77.9372 57.022 77.9886C57.022 78.1 56.8335 78.1686 56.5508 78.1686C56.3794 78.1686 56.328 78.2114 56.328 78.3228C56.328 78.4685 56.3794 78.4771 57.4504 78.4771C58.4958 78.4771 58.5729 78.4685 58.5729 78.3314C58.5729 78.2285 58.5043 78.1771 58.3415 78.1428C58.0588 78.0829 57.9217 77.8173 56.6707 74.8697C55.574 72.2906 55.5654 72.282 55.1541 73.2674ZM55.8396 75.0582C56.0624 75.5808 56.2423 76.035 56.2423 76.0779C56.2423 76.1207 55.8396 76.1464 55.3426 76.1464C54.6572 76.1464 54.4515 76.1207 54.4858 76.0435C54.8971 75.0067 55.3512 73.9957 55.3855 74.0385C55.4197 74.0814 55.6168 74.5355 55.8396 75.0582Z" fill="#CD9934"/>
<path d="M10.2048 72.8991C10.2048 73.0105 10.2819 73.0533 10.5219 73.0875C10.7018 73.1133 10.8817 73.1732 10.9331 73.2161C10.9931 73.2761 11.0188 74.013 11.0188 75.6582C11.0188 78.2716 11.0445 78.1602 10.5047 78.1602C10.2648 78.1602 10.2134 78.1945 10.2134 78.3144C10.2134 78.4601 10.2648 78.4688 11.4472 78.4688C12.6296 78.4688 12.681 78.4601 12.681 78.3144C12.681 78.1945 12.6296 78.1602 12.4411 78.1602C11.927 78.1602 11.9099 78.1174 11.9099 76.8835V75.761H12.5525C13.3065 75.761 13.4521 75.8382 13.5121 76.2837C13.5464 76.5322 13.5892 76.6093 13.7006 76.6093C13.8377 76.6093 13.8463 76.5322 13.8463 75.6411C13.8463 74.7414 13.8377 74.6728 13.7006 74.6728C13.5892 74.6728 13.5378 74.7499 13.4864 74.9556C13.4093 75.2983 13.2894 75.3411 12.4411 75.3582L11.9185 75.3669V74.2958V73.2332L12.2783 73.1819C12.6725 73.1304 13.5378 73.199 13.6921 73.2932C13.7435 73.3275 13.812 73.5075 13.8206 73.7131C13.8634 73.9959 13.8891 74.0644 14.0176 74.0644C14.1976 74.0644 14.2147 74.0216 14.2661 73.3104L14.309 72.7534H12.2612C10.3077 72.7534 10.2048 72.762 10.2048 72.8991Z" fill="#CD9934"/>
<path d="M15.7656 72.8992C15.7656 73.0106 15.8428 73.0535 16.0741 73.0963C16.3226 73.1391 16.4083 73.1905 16.4683 73.3533C16.5111 73.4733 16.5368 74.4157 16.5197 75.7866C16.494 78.2371 16.5111 78.1686 16.0141 78.1686C15.8171 78.1686 15.7571 78.2029 15.7571 78.3228C15.7571 78.4685 15.8085 78.4771 16.9567 78.4771C18.0963 78.4771 18.1563 78.4685 18.1563 78.3228C18.1563 78.2029 18.1048 78.1686 17.9163 78.1686C17.7878 78.1686 17.6164 78.1258 17.5308 78.0915C17.3937 78.0144 17.3851 77.903 17.3851 75.6153V73.2248L17.5822 73.1477C17.6936 73.1048 17.8564 73.0706 17.9677 73.0706C18.0963 73.0706 18.1563 73.0277 18.1563 72.9163C18.1563 72.7707 18.1048 72.7621 16.9567 72.7621C15.8428 72.7535 15.7656 72.7622 15.7656 72.8992Z" fill="#CD9934"/>
<path d="M19.3987 72.8989C19.3987 73.0189 19.4758 73.0617 19.7157 73.096C19.9556 73.1388 20.0499 73.1988 20.1098 73.3531C20.2298 73.6701 20.1527 77.8774 20.0242 78.0316C19.9642 78.1001 19.8014 78.1516 19.6643 78.1516C19.4587 78.1516 19.3987 78.1859 19.3987 78.3058C19.3987 78.4515 19.4501 78.46 20.3241 78.46C21.198 78.46 21.2494 78.4515 21.2494 78.3058C21.2494 78.1859 21.198 78.1516 21.0267 78.1516C20.6154 78.1516 20.5982 78.083 20.5725 75.838C20.5468 74.0386 20.5554 73.7986 20.6582 73.9014C20.7182 73.9614 21.2666 74.647 21.8749 75.4096C24.1112 78.2116 24.3083 78.4257 24.6853 78.5286C24.8824 78.5714 25.0452 78.6143 25.0709 78.6143C25.0966 78.6143 25.1137 77.4232 25.1137 75.9665C25.1137 74.5184 25.148 73.2845 25.1737 73.2331C25.208 73.1902 25.3622 73.1217 25.525 73.096C25.7306 73.0532 25.8077 73.0018 25.8077 72.8989C25.8077 72.7618 25.7392 72.7532 24.8824 72.7532C24.0255 72.7532 23.957 72.7618 23.957 72.8989C23.957 73.0189 24.0341 73.0617 24.2569 73.096C24.4797 73.1388 24.5739 73.1903 24.6082 73.3102C24.6339 73.4045 24.651 74.3728 24.651 75.4696V77.4575L24.3854 77.1747C24.0855 76.832 21.4979 73.5587 21.1466 73.0788L20.9153 72.7446H20.1527C19.4587 72.7532 19.3987 72.7704 19.3987 72.8989Z" fill="#CD9934"/>
<path d="M34.376 72.8991C34.376 73.0105 34.4531 73.0533 34.6844 73.0962C34.8815 73.1304 35.0186 73.2075 35.07 73.3018C35.13 73.4131 35.1557 74.1758 35.13 75.7353C35.1043 78.2116 35.1129 78.1601 34.6673 78.1601C34.5045 78.1601 34.4531 78.203 34.4531 78.3144C34.4531 78.46 34.5045 78.4687 35.3785 78.4687C36.2525 78.4687 36.3039 78.46 36.3039 78.3144C36.3039 78.1944 36.2525 78.1601 36.0383 78.1601C35.9012 78.1601 35.7384 78.1173 35.6869 78.0488C35.627 77.9802 35.6013 77.3461 35.6184 75.9152L35.6441 73.893L36.3724 74.8099C36.7751 75.3154 37.5977 76.3351 38.2146 77.0805C39.2428 78.3573 39.3457 78.4515 39.6627 78.5286C39.8598 78.5714 40.0226 78.6143 40.0483 78.6143C40.074 78.6143 40.0911 77.4833 40.0911 76.1123C40.0911 74.7413 40.1168 73.5074 40.134 73.3789C40.1768 73.1818 40.2282 73.1304 40.4853 73.0962C40.708 73.0533 40.7852 73.0105 40.7852 72.8991C40.7852 72.762 40.7166 72.7534 39.8598 72.7534C39.0029 72.7534 38.9344 72.762 38.9344 72.8991C38.9344 73.0105 39.0115 73.0619 39.2171 73.0962C39.3799 73.1304 39.5342 73.1904 39.5684 73.2332C39.6027 73.2846 39.6284 74.2443 39.6284 75.3668C39.6284 77.2005 39.6113 77.389 39.5085 77.3033C39.3885 77.2005 36.8951 74.0644 36.2439 73.1904L35.9097 72.7534H35.1471C34.4531 72.7534 34.376 72.7706 34.376 72.8991Z" fill="#CD9934"/>
<path d="M48.8221 72.8991C48.8221 73.0105 48.8993 73.0533 49.1392 73.0875C49.3191 73.1133 49.4905 73.1647 49.5504 73.2161C49.6019 73.2675 49.6361 74.0215 49.6361 75.6153C49.6361 77.826 49.6276 77.9375 49.4905 78.0489C49.4048 78.1088 49.2163 78.1602 49.0792 78.1602C48.8821 78.1602 48.8221 78.1945 48.8221 78.3144C48.8221 78.4601 48.8736 78.4688 50.056 78.4688C51.2384 78.4688 51.2898 78.4601 51.2898 78.3144C51.2898 78.1945 51.2384 78.1602 51.0327 78.1602C50.8957 78.1602 50.7072 78.1174 50.6215 78.0489C50.4844 77.9375 50.4758 77.826 50.4758 75.6153C50.4758 74.0044 50.5015 73.2761 50.5615 73.2161C50.6043 73.1732 50.7928 73.1047 50.9728 73.0875C51.2127 73.0533 51.2898 73.0105 51.2898 72.8991C51.2898 72.762 51.2127 72.7534 50.056 72.7534C48.8993 72.7534 48.8221 72.762 48.8221 72.8991Z" fill="#CD9934"/>
<path d="M59.7124 72.8991C59.7124 73.0105 59.7895 73.0533 60.0294 73.0876C60.2094 73.1133 60.3893 73.1732 60.4407 73.2161C60.5007 73.2761 60.5264 74.013 60.5264 75.6667V78.0315L60.355 78.1515C60.2522 78.2115 60.1751 78.3143 60.1751 78.3657C60.1751 78.4599 60.5264 78.4771 62.2143 78.4771H64.245L64.2879 77.9544C64.3736 77.1147 64.3564 77.0119 64.1936 77.0119C64.0737 77.0119 64.0223 77.1061 63.9537 77.4145C63.9023 77.6373 63.808 77.8687 63.7395 77.9201C63.6538 77.9887 63.2768 78.0229 62.5142 78.0229H61.4089V75.6324V73.2419L61.606 73.1647C61.7174 73.1219 61.8802 73.0876 61.9916 73.0876C62.1201 73.0876 62.1801 73.0447 62.1801 72.9333C62.1801 72.7877 62.1287 72.7791 60.9462 72.7791C59.7895 72.7534 59.7124 72.762 59.7124 72.8991Z" fill="#CD9934"/>
<path d="M75.4696 72.8991C75.4696 73.0105 75.5467 73.0533 75.7866 73.0875C75.9666 73.1132 76.1465 73.1732 76.1979 73.2161C76.2579 73.276 76.2836 74.0129 76.2836 75.6581C76.2836 78.2715 76.3093 78.1601 75.7695 78.1601C75.5296 78.1601 75.4782 78.1944 75.4782 78.3144C75.4782 78.46 75.5296 78.4687 76.712 78.4687C77.8944 78.4687 77.9458 78.46 77.9458 78.3144C77.9458 78.1944 77.8944 78.1601 77.7059 78.1601C77.5774 78.1601 77.406 78.1174 77.3204 78.0831C77.1833 78.006 77.1747 77.8945 77.1747 75.6153V73.2247L77.3546 73.1818C77.6631 73.1047 78.3314 73.139 78.597 73.2418C79.0083 73.4132 79.1882 73.7045 79.1882 74.2015C79.1882 74.587 79.1625 74.6471 78.8969 74.9127C78.597 75.2212 78.1943 75.3754 77.7059 75.3754C77.5431 75.3754 77.4146 75.4182 77.4146 75.461C77.4146 75.5039 77.6374 75.8209 77.9201 76.1722C78.1943 76.5235 78.6827 77.1662 79.0169 77.6203L79.6166 78.4344L80.2593 78.46C80.8505 78.4857 80.8933 78.4772 80.8933 78.323C80.8933 78.2287 80.8419 78.1688 80.7562 78.1688C80.6791 78.1688 80.5506 78.1173 80.4563 78.0488C80.2764 77.9288 78.6827 75.8466 78.6399 75.6924C78.6227 75.6496 78.7684 75.5553 78.9655 75.4867C79.4538 75.3239 79.7709 75.0583 79.9594 74.6642C80.3449 73.8673 80.0194 73.0533 79.2311 72.8391C79.0511 72.7963 78.2029 72.7534 77.209 72.7534C75.5639 72.7534 75.4696 72.762 75.4696 72.8991Z" fill="#CD9934"/>
<path d="M89.2217 72.8992C89.2217 73.0106 89.2988 73.0534 89.5301 73.0962C89.7186 73.1305 89.8643 73.2076 89.9157 73.2933C89.9586 73.3876 89.9928 74.1844 89.9928 75.324C89.9928 77.3119 90.0357 77.6375 90.3441 77.9973C90.6869 78.4086 91.2438 78.5885 92.1606 78.5885C93.146 78.5971 93.6258 78.46 94.0285 78.0316C94.5083 77.526 94.5083 77.5346 94.5512 75.324C94.594 73.4218 94.594 73.2761 94.7397 73.1733C94.8253 73.1133 95.0138 73.0619 95.1509 73.0619C95.348 73.0619 95.408 73.0277 95.408 72.9077C95.408 72.7621 95.3566 72.7535 94.3627 72.7535C93.3773 72.7535 93.3173 72.7621 93.3173 72.9077C93.3173 73.0277 93.3687 73.0619 93.5058 73.0619C93.6172 73.0619 93.78 73.0962 93.8914 73.1391L94.0885 73.2162V75.0926C94.0885 76.8834 94.0799 76.9863 93.9171 77.3119C93.6515 77.8174 93.3087 77.9716 92.4262 77.9716C91.5522 77.9716 91.2267 77.8345 90.9953 77.3632C90.8582 77.0634 90.8411 76.892 90.8411 75.1869C90.8411 74.1758 90.8754 73.2933 90.9096 73.2419C90.9439 73.1819 91.1153 73.122 91.2952 73.0962C91.5351 73.062 91.6122 73.0191 91.6122 72.9077C91.6122 72.7706 91.5351 72.7621 90.4127 72.7621C89.2988 72.7535 89.2217 72.7621 89.2217 72.8992Z" fill="#CD9934"/>
<path d="M96.5562 72.899C96.5562 73.019 96.599 73.0618 96.7447 73.0618C96.856 73.0618 97.0188 73.0961 97.1302 73.1389L97.3273 73.216V75.6067C97.3273 77.9032 97.3187 78.006 97.1816 78.0832C97.096 78.126 96.9246 78.1602 96.7961 78.1602C96.6076 78.1602 96.5562 78.1945 96.5562 78.3144C96.5562 78.4601 96.6076 78.4688 97.79 78.4688C98.9724 78.4688 99.0238 78.4601 99.0238 78.3144C99.0238 78.1945 98.9724 78.1602 98.7411 78.1602C98.1927 78.1602 98.2184 78.2631 98.1927 75.7096C98.1841 74.3386 98.2098 73.3617 98.2441 73.2932C98.3641 73.1047 99.3837 73.0961 99.7093 73.276C100.403 73.653 100.438 74.767 99.7693 75.2555C99.6065 75.3754 99.4265 75.4182 99.0752 75.4182C98.6468 75.4268 98.5954 75.4439 98.6211 75.5724C98.664 75.7867 98.6468 75.7781 99.2466 75.7781C99.9149 75.7781 100.369 75.581 100.755 75.1355C101.389 74.39 101.269 73.3103 100.506 72.9333C100.258 72.8047 99.9921 72.7876 98.3898 72.7619C96.5904 72.7447 96.5562 72.7448 96.5562 72.899Z" fill="#CD9934"/>
<path d="M57.956 82.2129C57.3391 82.3843 56.6451 82.7613 55.197 83.6952C53.6633 84.6891 53.3891 84.8347 52.7636 84.9975C51.4612 85.3317 50.4159 84.4492 50.8615 83.3867C50.9985 83.044 51.4098 82.7185 51.684 82.7185C51.8897 82.7185 51.8982 82.7356 51.8639 82.9926C51.8125 83.3268 51.9925 83.5753 52.3009 83.5753C52.6779 83.5753 52.8836 83.164 52.6865 82.7956C52.4466 82.3672 51.4955 82.2901 50.9214 82.6671C50.1417 83.1897 50.056 84.5092 50.7586 85.306C51.1871 85.803 51.7097 86 52.5237 86C53.5862 86 54.1174 85.7858 56.1138 84.4749C56.8421 84.0037 57.6218 83.5153 57.8703 83.4039C58.9671 82.847 59.9781 82.9498 60.5008 83.6695C60.6978 83.9437 60.6978 84.492 60.5008 84.8262C60.3294 85.126 59.9096 85.4259 59.6782 85.4259C59.5326 85.4259 59.5154 85.3831 59.5411 85.1347C59.584 84.7577 59.404 84.5606 59.0613 84.5949C58.5558 84.6377 58.5386 85.2803 59.027 85.5802C59.6011 85.9315 60.5436 85.6231 60.9206 84.9805C61.092 84.6891 61.1263 84.5435 61.1177 84.1236C61.1091 83.2668 60.7236 82.6584 59.9952 82.3414C59.4897 82.1015 58.5386 82.0501 57.956 82.2129Z" fill="#CD9934"/>
<path d="M55.3426 82.3326C55.1198 82.3926 54.8285 82.564 53.1063 83.6265C51.9581 84.3377 51.7097 84.3721 51.2213 83.8494C50.9642 83.5751 50.93 83.6351 51.0585 84.115C51.2041 84.6377 51.7868 84.8776 52.5408 84.7234C53.0977 84.6034 53.8174 84.2264 55.1284 83.3609C55.7282 82.9582 56.3451 82.5726 56.4822 82.504C56.7135 82.3841 56.7221 82.3669 56.585 82.3069C56.3793 82.247 55.6339 82.2555 55.3426 82.3326Z" fill="#CD9934"/>
<path d="M58.3073 83.5152C57.7589 83.738 57.4076 83.9436 55.9852 84.8861C55.3512 85.3145 54.7942 85.6487 54.7685 85.6487C54.7257 85.6487 54.7 85.6916 54.7 85.7344C54.7 85.7858 54.9313 85.8115 55.4283 85.7858L56.148 85.7601L56.9106 85.2889C57.3305 85.0232 57.9988 84.6205 58.393 84.372C58.8985 84.0636 59.2155 83.9179 59.4554 83.8836C59.7725 83.8493 59.8239 83.8751 60.0724 84.1236L60.3466 84.3977V84.1236C60.3466 83.9265 60.2866 83.7894 60.0809 83.5923C59.8325 83.3438 59.7896 83.3267 59.2926 83.3267C58.9071 83.3352 58.6157 83.3867 58.3073 83.5152Z" fill="#CD9934"/>
<path d="M16.2541 83.6864L16.057 83.8835L11.3445 83.9521C8.75684 83.9864 6.62333 84.0292 6.6062 84.0464C6.56336 84.0892 12.2698 84.1749 14.4547 84.1749H16.0656L16.1855 84.372C16.4083 84.7148 17.0167 84.6977 17.2823 84.3378C17.3594 84.2349 18.8417 84.2349 31.7284 84.3892C39.6284 84.4834 46.8943 84.5863 47.8882 84.6034L49.679 84.6548V84.0635V83.4722H49.122C48.8136 83.4722 41.5562 83.5578 32.9879 83.6693L17.4108 83.8664L17.2137 83.6693C16.931 83.4122 16.5197 83.4207 16.2541 83.6864Z" fill="#CD9934"/>
<path d="M61.726 84.0722V84.6636L63.5681 84.6121C64.5706 84.5864 71.8366 84.4921 79.6937 84.3979L94.0028 84.2265L94.2512 84.4322C94.5854 84.7064 94.8939 84.7064 95.1938 84.4065L95.4251 84.1751H96.9845C99.1438 84.1751 104.842 84.0808 104.799 84.0466C104.782 84.0294 102.657 83.9866 100.086 83.9523L95.3994 83.8837L95.1852 83.6866C94.9024 83.4124 94.4655 83.4124 94.2084 83.6866L94.0285 83.8837L78.4342 83.6866C69.8573 83.5667 62.5913 83.4895 62.2915 83.4895H61.726V84.0722Z" fill="#CD9934"/>
</svg>
