<svg width="152" height="66" viewBox="0 0 152 66" fill="none" xmlns="http://www.w3.org/2000/svg">
<path fill-rule="evenodd" clip-rule="evenodd" d="M152 51.5128H146.589V29.6856H144.522V25.3536C144.932 25.3382 145.331 25.2166 145.68 25.0008C146.029 24.785 146.316 24.4823 146.513 24.1224C147.018 23.4264 147.304 22.5954 147.334 21.736H152V51.5128Z" fill="url(#paint0_linear)"/>
<path fill-rule="evenodd" clip-rule="evenodd" d="M131.313 39.0338H136.268V46.1018C136.268 46.8314 136.587 47.2114 137.241 47.2114C137.894 47.2114 138.214 46.8466 138.214 46.1018V39.201C138.249 38.9134 138.224 38.6215 138.14 38.344C138.057 38.0666 137.916 37.8097 137.727 37.5898C137.184 37.247 136.542 37.0971 135.903 37.1642V33.805C137.454 33.805 138.229 33.2223 138.229 32.057V26.7826C138.229 26.1898 137.894 25.8858 137.256 25.8858C136.618 25.8858 136.238 26.1898 136.238 26.7826V32.2546H131.45V26.737C131.45 23.2207 133.476 21.4626 137.53 21.4626C139.031 21.4292 140.504 21.8707 141.74 22.7242C144.111 24.3962 143.549 28.029 143.549 30.8258C143.648 31.8209 143.43 32.822 142.925 33.6851C142.419 34.5482 141.653 35.2288 140.737 35.629C142.662 36.2978 143.625 38.137 143.625 41.1466V45.6002C143.625 49.7346 141.598 51.8068 137.545 51.817C133.491 51.8271 131.434 49.9423 131.374 46.1626L131.313 39.0338Z" fill="url(#paint1_linear)"/>
<path fill-rule="evenodd" clip-rule="evenodd" d="M129.762 41.4808L123.576 41.4352V36.5408L129.808 36.5104L129.762 41.4808Z" fill="url(#paint2_linear)"/>
<path fill-rule="evenodd" clip-rule="evenodd" d="M120.43 30.0808C120.156 32.1075 118.504 33.1208 115.474 33.1208C112.445 33.1208 110.793 32.1075 110.519 30.0808H113.194C113.422 30.9472 114.167 31.3728 115.474 31.3728C116.782 31.3728 117.557 30.9472 117.754 30.0808H120.43Z" fill="url(#paint3_linear)"/>
<path fill-rule="evenodd" clip-rule="evenodd" d="M108.65 51.6193V33.6681H113.149V41.8609L116.569 33.6681H122.39V51.6193H117.876V42.0585L114.198 51.6193H108.65Z" fill="url(#paint4_linear)"/>
<path fill-rule="evenodd" clip-rule="evenodd" d="M101.354 33.4399C97.2091 33.4399 95.1419 34.6053 95.152 36.9359V48.4879C95.152 50.6463 97.2091 51.7255 101.323 51.7255C102.853 51.7838 104.376 51.4927 105.777 50.8743C106.27 50.6885 106.696 50.3588 107 49.9278C107.303 49.4969 107.47 48.9846 107.479 48.4575V36.9055C107.479 34.5951 105.437 33.4399 101.354 33.4399ZM102.19 48.6399C102.19 48.9946 101.896 49.1719 101.308 49.1719C100.7 49.1719 100.396 48.9895 100.396 48.6399V36.4799C100.396 36.1151 100.7 35.9479 101.308 35.9479C101.916 35.9479 102.19 36.1303 102.19 36.4799V48.6399Z" fill="url(#paint5_linear)"/>
<path fill-rule="evenodd" clip-rule="evenodd" d="M92.5832 34.2912C90.9583 33.8022 89.2624 33.5915 87.5672 33.668H81.8976V51.68H87.1568V45.0072C89.0938 45.1893 91.0474 44.9561 92.8872 44.3232C93.3299 44.0834 93.6934 43.7201 93.9336 43.2776C94.1737 42.8351 94.2802 42.3323 94.24 41.8304V36.8448C94.2873 36.2955 94.1501 35.7461 93.85 35.2836C93.5499 34.8211 93.1041 34.4719 92.5832 34.2912ZM88.9656 41.496C88.9656 42.1344 88.3576 42.4536 87.1568 42.4536V36.2368C88.3576 36.2368 88.9656 36.556 88.9656 37.1944V41.496Z" fill="url(#paint6_linear)"/>
<path fill-rule="evenodd" clip-rule="evenodd" d="M80.8487 36.0089H77.8391V51.6193H72.4431V36.0089H69.4183V33.6681H80.8487V36.0089Z" fill="url(#paint7_linear)"/>
<path fill-rule="evenodd" clip-rule="evenodd" d="M68.4 39.9455H63.4752V36.3887C63.4752 36.0999 63.232 35.9479 62.7304 35.9479C62.2288 35.9479 61.9552 36.0999 61.9552 36.3887V48.8527C61.9552 49.1466 62.2136 49.2935 62.7304 49.2935C63.2472 49.2935 63.4955 49.1466 63.4752 48.8527V44.4143H68.4V48.9743C68.4 49.8255 67.8224 50.4943 66.6824 51.0263C65.4603 51.5576 64.1388 51.8219 62.8064 51.8015C58.6416 51.8015 56.5592 50.7223 56.5592 48.5639V37.0119C56.5592 34.6812 58.6416 33.5159 62.8064 33.5159C66.5355 33.4652 68.4 34.5191 68.4 36.6775V39.9455Z" fill="url(#paint8_linear)"/>
<path fill-rule="evenodd" clip-rule="evenodd" d="M55.404 39.9457H50.4792V36.3889C50.4792 36.1001 50.236 35.9481 49.7344 35.9481C49.2328 35.9481 48.9592 36.1001 48.9592 36.3889V48.8529C48.9592 49.1468 49.2176 49.2937 49.7344 49.2937C50.2512 49.2937 50.4995 49.1468 50.4792 48.8529V44.4145H55.404V48.9745C55.404 49.8257 54.8264 50.4945 53.6864 51.0265C52.4643 51.5578 51.1429 51.8221 49.8104 51.8017C45.6456 51.8017 43.5632 50.7225 43.5632 48.5641V37.0121C43.5632 34.6814 45.6456 33.5161 49.8104 33.5161C53.5395 33.5161 55.404 34.575 55.404 36.6929V39.9457Z" fill="url(#paint9_linear)"/>
<path fill-rule="evenodd" clip-rule="evenodd" d="M36.3128 33.4399C32.1682 33.4399 30.101 34.6053 30.1112 36.9359V48.4879C30.1112 50.6463 32.1683 51.7255 36.2824 51.7255C37.8123 51.7838 39.3354 51.4927 40.736 50.8743C41.2293 50.6885 41.6554 50.3588 41.9589 49.9278C42.2625 49.4969 42.4296 48.9846 42.4384 48.4575V36.9055C42.4384 34.5951 40.3965 33.4399 36.3128 33.4399ZM37.1488 48.6399C37.1488 48.9946 36.8549 49.1719 36.2672 49.1719C35.6592 49.1719 35.3552 48.9895 35.3552 48.6399V36.4799C35.3552 36.1151 35.6592 35.9479 36.2672 35.9479C36.8752 35.9479 37.1488 36.1303 37.1488 36.4799V48.6399Z" fill="url(#paint10_linear)"/>
<path fill-rule="evenodd" clip-rule="evenodd" d="M28.956 51.6192H24.1376V41.5416L21.3256 51.6192H17.6016L14.3792 41.5416V51.6192H10.1536V18.8328H14.8352L19.5776 42.9856L24.3808 18.8328H28.956V51.6192Z" fill="url(#paint11_linear)"/>
<path d="M39.0488 12.0688C42.3815 12.0688 45.0832 9.36711 45.0832 6.0344C45.0832 2.70169 42.3815 0 39.0488 0C35.7161 0 33.0144 2.70169 33.0144 6.0344C33.0144 9.36711 35.7161 12.0688 39.0488 12.0688Z" fill="#FF0000"/>
<path fill-rule="evenodd" clip-rule="evenodd" d="M19.608 1.03359C20.5958 1.03063 21.5623 1.32025 22.3856 1.86593C23.209 2.4116 23.8523 3.18889 24.2344 4.09974C24.6165 5.01059 24.7204 6.0142 24.5328 6.98399C24.3452 7.95378 23.8747 8.8463 23.1805 9.54897C22.4862 10.2516 21.5995 10.733 20.6321 10.9323C19.6646 11.1316 18.6598 11.04 17.7444 10.6689C16.829 10.2978 16.044 9.66399 15.4883 8.84732C14.9327 8.03064 14.6314 7.06771 14.6224 6.07999C14.6164 5.42073 14.7408 4.76678 14.9885 4.15578C15.2361 3.54477 15.6022 2.98877 16.0655 2.51976C16.5289 2.05076 17.0804 1.678 17.6884 1.42295C18.2963 1.16789 18.9487 1.03557 19.608 1.03359Z" fill="#FF0000"/>
<path d="M3.116 9.15046C4.83692 9.15046 6.232 7.75538 6.232 6.03446C6.232 4.31354 4.83692 2.91846 3.116 2.91846C1.39508 2.91846 0 4.31354 0 6.03446C0 7.75538 1.39508 9.15046 3.116 9.15046Z" fill="#FF0000"/>
<path d="M10.1536 62.8065V57.8513H13.7712V58.6417H11.2176V62.8217L10.1536 62.8065Z" fill="#C10000"/>
<path d="M18.8328 62.1224V65.6184H17.7688V57.8512H18.8328V58.5504C19.1078 58.2838 19.4343 58.0761 19.7924 57.9402C20.1505 57.8043 20.5326 57.743 20.9152 57.76C21.7156 57.7268 22.4967 58.0108 23.0888 58.5504C23.3452 58.7861 23.5493 59.0728 23.688 59.3922C23.8268 59.7116 23.8971 60.0566 23.8944 60.4048C23.8997 60.7497 23.8321 61.0919 23.6959 61.4089C23.5596 61.7259 23.3579 62.0104 23.104 62.244C22.8167 62.5043 22.4808 62.7055 22.1157 62.8359C21.7505 62.9663 21.3633 63.0234 20.976 63.004C20.5765 63.0187 20.1785 62.9477 19.8088 62.7956C19.4391 62.6435 19.1063 62.414 18.8328 62.1224ZM20.824 62.1224C21.088 62.1348 21.3519 62.0941 21.5999 62.0027C21.8479 61.9113 22.0751 61.7711 22.268 61.5904C22.4435 61.4245 22.5827 61.2241 22.6769 61.0017C22.7711 60.7793 22.8182 60.5398 22.8152 60.2984C22.826 60.0389 22.7767 59.7805 22.6712 59.5433C22.5658 59.306 22.407 59.0962 22.2072 58.9304C21.8172 58.5994 21.3203 58.4212 20.8088 58.4288C20.293 58.4229 19.792 58.6007 19.3952 58.9304C19.1929 59.0916 19.0312 59.2979 18.923 59.5328C18.8148 59.7677 18.7631 60.0247 18.772 60.2832C18.7679 60.5285 18.8159 60.7718 18.9128 60.9972C19.0098 61.2225 19.1535 61.4247 19.3344 61.5904C19.5289 61.7816 19.7593 61.9324 20.0124 62.0341C20.2654 62.1359 20.5361 62.1865 20.8088 62.1832L20.824 62.1224Z" fill="#C10000"/>
<path d="M28.3936 65.6031L30.4 62.3199L27.588 57.7599H28.7888L30.9472 61.3167L32.9384 57.7599H34.1088L29.5488 65.5271L28.3936 65.6031Z" fill="#C10000"/>
<path d="M38.152 57.8513H43.0616V62.8065H41.9976V58.6417H39.2008V62.8217H38.1368L38.152 57.8513Z" fill="#C10000"/>
<path d="M48.0017 57.8513H52.9113V62.8065H51.8473V58.6417H49.0505V62.8217H47.9865L48.0017 57.8513Z" fill="#C10000"/>
<path d="M62.5176 58.5503V57.8511H63.5816V62.8063H62.5176V62.1071C62.2487 62.3849 61.9243 62.603 61.5655 62.747C61.2067 62.8911 60.8215 62.9579 60.4352 62.9431C59.68 62.9861 58.9333 62.7659 58.3224 62.3199C58.0365 62.0887 57.8091 61.7935 57.6586 61.4581C57.5081 61.1228 57.4387 60.7567 57.456 60.3895C57.4411 60.027 57.5117 59.6661 57.6623 59.336C57.8128 59.0059 58.0389 58.7159 58.3224 58.4895C58.919 58.0055 59.667 57.7472 60.4352 57.7599C60.8185 57.7363 61.2024 57.7946 61.5615 57.9308C61.9205 58.0671 62.2464 58.2783 62.5176 58.5503ZM60.5416 58.5503C60.0273 58.5375 59.5255 58.7101 59.128 59.0367C58.934 59.2025 58.781 59.4108 58.6808 59.6455C58.5806 59.8801 58.536 60.1347 58.5504 60.3895C58.5419 60.6371 58.5847 60.8838 58.6763 61.114C58.7679 61.3442 58.9061 61.5529 59.0824 61.7271C59.4957 62.0667 60.0142 62.2524 60.5492 62.2524C61.0842 62.2524 61.6026 62.0667 62.016 61.7271C62.1945 61.5571 62.3355 61.3517 62.4298 61.1239C62.524 60.8961 62.5695 60.6511 62.5632 60.4047C62.577 60.1433 62.5276 59.8825 62.4191 59.6443C62.3106 59.4062 62.1462 59.1977 61.94 59.0367C61.5543 58.7027 61.0665 58.5097 60.5568 58.4895L60.5416 58.5503Z" fill="#C10000"/>
<path d="M74.8904 57.8513H76V59.8881L78.4624 57.8513H79.7544L77.064 60.0553L80.104 62.8065H78.7208L76.3344 60.6329L76.0152 60.8913V62.8217H74.9512L74.8904 57.8513Z" fill="#C10000"/>
<path d="M89.1935 62.2137C88.5249 62.6806 87.729 62.9309 86.9135 62.9309C86.098 62.9309 85.3022 62.6806 84.6335 62.2137C84.3493 61.9919 84.1193 61.7083 83.9612 61.3843C83.803 61.0603 83.7208 60.7046 83.7208 60.3441C83.7208 59.9836 83.803 59.6278 83.9612 59.3038C84.1193 58.9799 84.3493 58.6962 84.6335 58.4745C85.3022 58.0076 86.098 57.7572 86.9135 57.7572C87.729 57.7572 88.5249 58.0076 89.1935 58.4745C89.4778 58.6962 89.7077 58.9799 89.8659 59.3038C90.024 59.6278 90.1062 59.9836 90.1062 60.3441C90.1062 60.7046 90.024 61.0603 89.8659 61.3843C89.7077 61.7083 89.4778 61.9919 89.1935 62.2137ZM88.4031 58.9913C87.9605 58.6722 87.4288 58.5005 86.8831 58.5005C86.3375 58.5005 85.8057 58.6722 85.3631 58.9913C85.16 59.1517 84.9976 59.3578 84.8893 59.5929C84.781 59.828 84.7298 60.0854 84.7399 60.3441C84.729 60.6044 84.7814 60.8634 84.8926 61.099C85.0038 61.3347 85.1705 61.5398 85.3783 61.6969C85.82 62.0181 86.3522 62.1912 86.8983 62.1912C87.4445 62.1912 87.9766 62.0181 88.4183 61.6969C88.6262 61.5398 88.7929 61.3347 88.904 61.099C89.0152 60.8634 89.0676 60.6044 89.0567 60.3441C89.0658 60.0803 89.0111 59.8182 88.8973 59.5801C88.7835 59.3419 88.614 59.1348 88.4031 58.9761V58.9913Z" fill="#C10000"/>
<path d="M93.9664 62.8066L95.4864 57.4562L98.0096 61.4994L100.472 57.4562L101.992 62.8066H100.898L100.092 59.7666L98.0248 63.1866L95.76 59.7362L94.9848 62.7762L93.9664 62.8066Z" fill="#C10000"/>
<path d="M106.142 57.8513H111.051V62.8065H109.987V58.6417H107.19V62.8217H106.126L106.142 57.8513Z" fill="#C10000"/>
<path d="M120.658 58.5505V57.8513H121.722V62.8065H120.658V62.1073C120.389 62.3851 120.064 62.6032 119.705 62.7472C119.347 62.8913 118.962 62.9581 118.575 62.9433C117.82 62.9863 117.073 62.766 116.462 62.3201C116.177 62.0889 115.949 61.7937 115.799 61.4583C115.648 61.123 115.579 60.7569 115.596 60.3897C115.581 60.0272 115.652 59.6663 115.802 59.3362C115.953 59.0061 116.179 58.7161 116.462 58.4897C117.055 58.009 117.797 57.7509 118.56 57.7601C118.946 57.7343 119.333 57.7915 119.694 57.9278C120.056 58.0642 120.385 58.2765 120.658 58.5505ZM118.682 58.5505C118.167 58.5377 117.666 58.7103 117.268 59.0369C117.074 59.2026 116.921 59.411 116.821 59.6456C116.721 59.8803 116.676 60.1349 116.69 60.3897C116.682 60.6373 116.725 60.884 116.816 61.1142C116.908 61.3444 117.046 61.5531 117.222 61.7273C117.636 62.0669 118.154 62.2526 118.689 62.2526C119.224 62.2526 119.743 62.0669 120.156 61.7273C120.335 61.5573 120.476 61.3518 120.57 61.1241C120.664 60.8963 120.709 60.6513 120.703 60.4049C120.717 60.1435 120.668 59.8827 120.559 59.6445C120.451 59.4064 120.286 59.1979 120.08 59.0369C119.69 58.6997 119.197 58.5065 118.682 58.4897V58.5505Z" fill="#C10000"/>
<path d="M126.662 62.8065V57.8513H127.68V59.8881H130.568V57.8513H131.632V62.8065H130.568V60.6633H127.68V62.8065H126.662Z" fill="#C10000"/>
<path d="M136.587 57.8513H137.651V61.1345L141.831 57.4713V62.8217H140.767V59.4929L136.587 63.1561V57.8513Z" fill="#C10000"/>
<path d="M146.771 57.8511H147.835V61.1343L152 57.4559V62.8063H150.936V59.4927L146.756 63.1559L146.771 57.8511ZM147.303 55.7079L148.185 55.4343C148.325 55.635 148.511 55.7989 148.728 55.9121C148.945 56.0252 149.186 56.0843 149.431 56.0843C149.676 56.0843 149.917 56.0252 150.134 55.9121C150.351 55.7989 150.537 55.635 150.678 55.4343L151.559 55.7079C151.396 56.0752 151.111 56.3755 150.754 56.5591C150.339 56.7607 149.884 56.8655 149.424 56.8655C148.963 56.8655 148.508 56.7607 148.094 56.5591C147.742 56.3728 147.463 56.0728 147.303 55.7079Z" fill="#C10000"/>
<defs>
<linearGradient id="paint0_linear" x1="148.261" y1="51.5128" x2="148.261" y2="21.736" gradientUnits="userSpaceOnUse">
<stop stop-color="#C10000"/>
<stop offset="1" stop-color="#FF0000"/>
</linearGradient>
<linearGradient id="paint1_linear" x1="1244.56" y1="1055.7" x2="1244.56" y2="450.394" gradientUnits="userSpaceOnUse">
<stop stop-color="#C10000"/>
<stop offset="1" stop-color="#FF0000"/>
</linearGradient>
<linearGradient id="paint2_linear" x1="643.013" y1="172.153" x2="643.013" y2="155.899" gradientUnits="userSpaceOnUse">
<stop stop-color="#C10000"/>
<stop offset="1" stop-color="#FF0000"/>
</linearGradient>
<linearGradient id="paint3_linear" x1="863.413" y1="96.2008" x2="863.413" y2="90.2424" gradientUnits="userSpaceOnUse">
<stop stop-color="#C10000"/>
<stop offset="1" stop-color="#FF0000"/>
</linearGradient>
<linearGradient id="paint4_linear" x1="1152.95" y1="643.291" x2="1152.95" y2="431.287" gradientUnits="userSpaceOnUse">
<stop stop-color="#C10000"/>
<stop offset="1" stop-color="#FF0000"/>
</linearGradient>
<linearGradient id="paint5_linear" x1="916.762" y1="656.679" x2="916.762" y2="436.615" gradientUnits="userSpaceOnUse">
<stop stop-color="#C10000"/>
<stop offset="1" stop-color="#FF0000"/>
</linearGradient>
<linearGradient id="paint6_linear" x1="797.423" y1="645.861" x2="797.423" y2="432.958" gradientUnits="userSpaceOnUse">
<stop stop-color="#C10000"/>
<stop offset="1" stop-color="#FF0000"/>
</linearGradient>
<linearGradient id="paint7_linear" x1="634.423" y1="643.291" x2="634.423" y2="431.287" gradientUnits="userSpaceOnUse">
<stop stop-color="#C10000"/>
<stop offset="1" stop-color="#FF0000"/>
</linearGradient>
<linearGradient id="paint8_linear" x1="543.335" y1="656.601" x2="543.335" y2="436.591" gradientUnits="userSpaceOnUse">
<stop stop-color="#C10000"/>
<stop offset="1" stop-color="#FF0000"/>
</linearGradient>
<linearGradient id="paint9_linear" x1="428.981" y1="656.544" x2="428.981" y2="436.555" gradientUnits="userSpaceOnUse">
<stop stop-color="#C10000"/>
<stop offset="1" stop-color="#FF0000"/>
</linearGradient>
<linearGradient id="paint10_linear" x1="324.362" y1="656.679" x2="324.362" y2="436.615" gradientUnits="userSpaceOnUse">
<stop stop-color="#C10000"/>
<stop offset="1" stop-color="#FF0000"/>
</linearGradient>
<linearGradient id="paint11_linear" x1="252.14" y1="1132.26" x2="252.14" y2="425.056" gradientUnits="userSpaceOnUse">
<stop stop-color="#C10000"/>
<stop offset="1" stop-color="#FF0000"/>
</linearGradient>
</defs>
</svg>
