<svg width="81" height="49" viewBox="0 0 81 49" fill="none" xmlns="http://www.w3.org/2000/svg">
<path d="M61.5481 17.7846C58.6526 12.619 58.2071 9.29819 58.2071 9.29819L58.0587 7.82229L56.7223 8.56024C56.7223 8.56024 55.9798 8.92922 54.0495 8.92922C53.1586 8.92922 50.4115 8.11747 47.9615 7.37952C44.769 6.42018 41.428 5.46084 39.7204 5.46084C37.1962 5.46084 33.8552 7.82229 31.5536 9.88855C30.5142 10.1099 28.2126 10.2575 26.0596 9.81476C25.6141 9.74096 24.6489 9.51958 24.2777 9.44578L23.3868 9.1506L23.0156 10.0361C23.0156 10.1099 21.4565 14.1687 19.3776 18.3012C17.67 21.7696 14.1063 26.1973 14.0321 26.1973L13.2896 27.0828L14.2548 27.6732C15.2942 28.3373 16.0367 29.3705 16.3336 29.7395L15.7397 30.0346L15.6654 30.1084C14.1063 31.2154 13.7351 33.5768 14.8488 35.4217C15.517 36.4548 16.5564 37.119 17.7443 37.119C18.0412 37.119 18.4125 37.0452 18.7094 36.9714C18.561 37.9307 18.7094 38.8901 19.2291 39.7018C19.8973 40.8087 21.0852 41.4729 22.4216 41.4729C22.7929 41.4729 23.1641 41.3991 23.5353 41.3253C23.5353 42.0633 23.6838 42.8012 24.1292 43.3916C24.7974 44.4985 25.9853 45.2364 27.3217 45.2364C28.0642 45.2364 28.8808 45.0151 29.549 44.5723L30.44 43.9819C30.5142 44.4985 30.7369 45.0151 31.0339 45.5316C31.7021 46.7861 32.89 47.5241 34.0779 47.5241C34.7461 47.5241 35.3401 47.3027 35.934 46.9337L36.7507 46.491C37.4189 46.8599 39.0522 47.8193 40.2401 48.4834C40.9083 48.8524 41.6508 49 42.3932 49C43.6554 49 44.8433 48.4834 45.5115 47.8193C46.3281 47.0075 46.6251 46.1958 46.6994 45.4578C47.1448 45.753 47.516 45.9006 47.7388 46.0482C48.6297 46.5648 49.5206 46.7861 50.3373 46.7861C51.5252 46.7861 52.6389 46.1958 53.4555 45.0889C54.0495 44.3509 54.198 43.4654 54.2722 42.7274C54.8662 42.9488 55.4601 43.0226 55.9798 43.0226C57.242 43.0226 58.3556 42.506 59.0238 41.5467C59.8405 40.4398 60.1375 39.5542 60.0632 38.6687C60.2117 38.6687 60.286 38.6687 60.4345 38.6687C61.9936 38.6687 63.4042 37.9307 64.2951 36.5286C64.7406 35.7907 64.5921 35.1265 64.5921 34.5361C64.6664 32.8389 63.7012 31.5105 62.1421 30.4036C61.9936 30.256 63.4785 27.8208 66.8194 26.5663L68.3785 25.7545L66.8937 24.7952C66.8937 24.7952 64.6664 23.1717 61.5481 17.7846ZM18.7837 34.6837L18.7094 34.7575C18.4125 34.9789 18.1155 35.0527 17.7443 35.0527C17.3731 35.0527 16.9276 34.9051 16.5564 34.3148C16.0367 33.4292 16.1109 32.2485 16.7791 31.8057L19.2291 30.4036L19.3034 30.3298C19.5261 30.1822 19.8231 30.0346 20.0458 30.0346C20.6398 30.0346 21.1595 30.6988 21.4565 31.0678C22.1989 32.1747 21.9762 32.6913 21.2337 33.2078L18.7837 34.6837ZM23.5353 39.1114C22.7186 39.7018 21.5307 39.4804 21.011 38.6687C20.417 37.7831 20.7883 36.4548 21.6792 35.7907L24.7232 33.6506C25.0202 33.4292 25.3914 33.2816 25.7626 33.2816C26.3566 33.2816 26.8763 33.5768 27.1732 34.0934C27.7672 35.0527 27.4702 36.3072 26.505 36.9714L23.5353 39.1114ZM31.3309 40.7349L28.3611 42.8012C27.5445 43.3916 26.4308 43.1702 25.9111 42.2846C25.3171 41.3991 25.6141 40.0708 26.505 39.4804L29.4748 37.4142C29.7718 37.1928 30.143 37.119 30.5142 37.119C31.1082 37.119 31.6279 37.4142 31.9991 37.9307C32.5188 38.8163 32.2218 40.1446 31.3309 40.7349ZM37.4189 43.6867L34.8946 45.0889L34.8204 45.1627C34.1522 45.6792 33.2612 45.384 32.8158 44.4985C32.2218 43.4654 32.2961 42.6536 32.9643 42.2108L35.4143 40.8825L35.4885 40.8087C35.7855 40.5873 36.0825 40.5136 36.3795 40.5136C36.6022 40.5136 36.8992 40.5873 37.1961 40.7349L37.4931 41.1777C38.0128 42.0633 38.0128 43.244 37.4189 43.6867ZM62.2906 35.4217C61.5481 36.6024 60.5087 36.8976 59.0238 36.3072C57.1677 35.5693 50.3373 31.363 50.2631 31.363L49.2237 33.0602C49.5206 33.2078 55.4601 36.8976 57.8359 38.0045C58.1329 38.5211 58.2072 39.1852 57.3905 40.366C56.7223 41.2515 55.0889 41.1777 53.604 40.1446C51.451 38.6687 45.5857 35.4955 45.363 35.3479L44.3978 37.119C44.472 37.119 50.0403 40.1446 52.2676 41.6205C52.2676 41.6943 52.5646 42.9488 51.9707 43.8343C51.6737 44.2771 50.857 45.3102 48.8524 44.2033C47.7388 43.5392 41.8735 40.2184 41.8735 40.2184L40.8341 41.9895C40.8341 41.9895 42.8387 43.0964 44.6948 44.2033H44.6205C44.6205 44.2033 45.1402 45.384 44.1751 46.3434C43.6554 46.8599 42.3932 47.2289 41.2796 46.6386C40.5371 46.1958 39.572 45.6792 38.8295 45.2364C39.7947 44.4985 40.3886 43.3916 40.0917 41.9895L39.0522 39.997C38.3841 38.9639 37.6416 38.6687 36.3795 38.6687C35.8598 38.6687 34.9688 38.8901 34.3006 39.1114C34.3006 38.3735 34.1522 37.5617 33.7067 36.8976C33.0385 35.7907 31.8506 35.0527 30.5142 35.0527C30.2172 35.0527 29.846 35.1265 29.549 35.2003C29.549 34.4623 29.4006 33.7244 28.9551 33.0602C28.2869 31.9533 27.099 31.2892 25.7626 31.2892C25.0944 31.2892 24.4262 31.4367 23.9065 31.8057C23.758 31.2892 23.5353 30.7726 23.2383 30.256C22.1247 28.6325 20.9368 28.3374 20.1201 28.3374C19.4519 28.3374 18.8579 28.4849 18.264 28.8539H18.1897C17.967 28.5587 17.2988 27.5256 16.2594 26.6401C17.3731 25.1642 19.7489 21.9172 21.1595 19.1867C22.7186 16.0873 23.9808 12.988 24.5747 11.512C24.9459 11.5858 25.3171 11.7334 25.6141 11.7334C26.9505 12.0286 28.1384 12.0286 29.1778 12.0286C28.8808 12.3238 28.6581 12.5452 28.5839 12.619C27.9899 13.2831 27.396 13.7997 26.8763 14.3163C25.3914 15.6446 23.8323 17.0467 25.3171 19.113C26.1338 20.2199 27.4702 20.8102 29.0293 20.8102C30.5142 20.884 32.2961 20.3675 33.4097 19.4081C33.6324 19.1867 33.9294 19.0392 34.1522 18.8178C35.4885 17.7108 37.3446 16.2349 38.4583 16.2349C40.0174 16.2349 41.725 16.5301 44.0266 18.4488C46.5509 20.5889 57.539 29.4443 60.4345 31.5105C63.5527 33.7244 62.736 34.6099 62.2906 35.4217ZM60.4345 28.9277C56.4253 25.9021 47.5903 18.8178 45.4372 16.9729C42.6902 14.6114 40.3886 14.2425 38.5325 14.2425C36.6022 14.2425 34.5976 15.9398 32.89 17.2681C32.6673 17.4895 32.3703 17.7108 32.1476 17.8584C31.4794 18.375 30.2915 18.8178 29.1036 18.8178C28.2127 18.8178 27.396 18.4488 26.9505 17.9322C26.5793 17.4157 26.505 17.3419 28.2126 15.7922C28.7324 15.2756 29.4006 14.6852 30.0687 14.0211C33.1127 10.7741 37.5674 7.45331 39.7204 7.45331C41.1311 7.45331 44.472 8.41265 47.3676 9.29819C50.2631 10.1837 52.7874 10.9217 54.0495 10.9217C55.0889 10.9217 55.8313 10.8479 56.4253 10.7003C56.7965 12.1762 57.6874 15.0542 59.7663 18.744C61.7709 22.2861 63.4785 24.3524 64.5921 25.3855C63.2557 26.1973 61.2511 27.5256 60.4345 28.9277ZM21.4565 7.74849L21.5307 7.15813L10.4684 0.221386L0 24.0572L10.3199 27.378L10.7654 27.0828C10.9138 27.009 13.5866 25.0166 17.67 17.3419C21.1595 10.7003 21.4565 8.04367 21.4565 7.74849ZM7.42438 23.0979C6.16224 23.0979 5.19707 22.1386 5.19707 20.884C5.19707 19.6295 6.16224 18.6702 7.42438 18.6702C8.68653 18.6702 9.6517 19.6295 9.6517 20.884C9.6517 22.0648 8.61228 23.0979 7.42438 23.0979ZM69.8634 0L59.5435 5.97741L59.6178 6.64157C59.6178 6.86295 59.989 11.881 63.7754 18.2274C66.7452 23.1717 70.5316 25.5331 70.6801 25.6807L71.1256 25.9759L81 22.8765L69.8634 0ZM73.5756 23.1717C72.3135 23.1717 71.2741 22.1386 71.2741 20.884C71.2741 19.6295 72.3135 18.5964 73.5756 18.5964C74.8378 18.5964 75.8772 19.6295 75.8772 20.884C75.8772 22.1386 74.8378 23.1717 73.5756 23.1717Z" fill="white"/>
</svg>
