<svg width="69" height="62" viewBox="0 0 69 62" fill="none" xmlns="http://www.w3.org/2000/svg">
<path d="M28.2694 12.0466C24.0933 12.0466 22.3264 15.1788 22.3264 18.2306H24.4948C24.4948 17.2668 24.7358 14.215 28.3497 14.215C30.1969 14.215 32.2047 15.2591 32.2047 17.1865C32.2047 18.3912 31 19.5155 29.7953 20.6399C28.5104 21.8446 27.3057 22.9689 27.3057 24.4948V26.342H29.5544V24.4948C29.5544 23.9326 30.5984 23.0492 31.4016 22.2461C32.8471 20.8808 34.5337 19.2746 34.5337 17.1865C34.3731 14.2953 31.7228 12.0466 28.2694 12.0466ZM28.2694 28.1891C27.6269 28.1891 27.1451 28.671 27.1451 29.3135C27.1451 29.956 27.6269 30.4378 28.2694 30.4378C28.9119 30.4378 29.3938 29.956 29.3938 29.3135C29.3938 28.671 28.9119 28.1891 28.2694 28.1891ZM56.057 31.6425V9.23575C56.057 4.17617 51.9611 0.0803109 46.9016 0.0803109L9.15544 0C4.09585 0 0 4.09585 0 9.15544V31.5622C0 36.6218 4.09585 40.7979 9.15544 40.7979H16.3834L27.1451 51.5596V40.7979H46.9016C51.8808 40.7979 56.057 36.6218 56.057 31.6425ZM24.8964 38.5492V40.7979V46.2591L17.2668 38.6295L17.0259 38.8705V38.5492H9.07513C5.22021 38.5492 2.16839 35.3368 2.16839 31.5622V9.15544C2.16839 5.30052 5.30052 2.2487 9.07513 2.2487L46.8212 2.32902C50.6762 2.32902 53.728 5.46114 53.728 9.23575V31.6425C53.728 35.4974 50.5959 38.5492 46.8212 38.5492H24.8964ZM62.3212 25.057H58.4663C58.4663 25.057 58.5466 27.9482 58.5466 31.6425C58.5466 39.3523 52.8446 43.3679 47.2228 43.3679C43.2073 43.3679 29.6347 43.3679 29.6347 43.3679V46.2591C29.6347 50.2746 32.1244 52.7642 36.1399 52.7642L41.7617 52.8446V62L51.2383 52.5233V52.8446H62.3212C66.3368 52.8446 68.8264 50.2746 68.8264 46.2591V31.6425C68.9067 27.6269 66.3368 25.057 62.3212 25.057Z" fill="white"/>
</svg>
