<svg width="67" height="62" viewBox="0 0 67 62" fill="none" xmlns="http://www.w3.org/2000/svg">
<path d="M48.4743 16.5501V8.56911H45.1138V0H0V10.8374H3.27642V17.7263H0.756098V29.1518L8.31707 29.2358V36.9648H0.756098V48.5583H4.95664V56.9594H29.2358V56.7073C33.1843 60.0677 38.3089 62 43.9377 62C56.6233 62 66.9566 51.6667 66.9566 38.981C66.7886 27.9756 58.8916 18.6504 48.4743 16.5501ZM46.206 10.8374V16.2141C45.4499 16.1301 44.6098 16.1301 43.8537 16.1301C40.7453 16.1301 37.7209 16.8022 34.9485 17.8943V17.6423H5.62873V10.7534H46.206V10.8374ZM2.3523 8.31707V2.3523H42.8455V8.56911H5.62873V8.31707H2.3523ZM3.02439 26.9675V20.0786H5.62873V19.9946H31C28.3117 21.8428 25.9593 24.1951 24.2791 27.0515H3.02439V26.9675ZM23.019 29.2358C21.8428 31.6721 21.1707 34.2764 20.9187 37.0488H10.5014V29.2358H23.019ZM3.1084 46.206V39.2331H8.73713V39.3171H20.8347C20.8347 41.7534 21.2547 44.0217 22.0108 46.206H7.22493H3.1084ZM7.22493 54.607V48.4743H22.935C23.9431 50.7425 25.3713 52.7588 26.9675 54.607H7.22493ZM29.2358 53.5989C25.4553 49.8184 23.187 44.6938 23.187 38.981C23.187 27.5556 32.4282 18.3144 43.8537 18.3144C49.5664 18.3144 54.6911 20.6667 58.4715 24.3631L56.6233 26.2114C53.3469 22.935 48.8943 20.9187 43.9377 20.9187C34.0244 20.9187 25.9593 28.9837 25.9593 38.897C25.9593 43.8537 27.9756 48.3062 31.252 51.5827L29.2358 53.5989ZM43.8537 54.607C35.2846 54.607 28.2276 47.5501 28.2276 38.897C28.2276 30.2439 35.2846 23.271 43.8537 23.271C52.5068 23.271 59.4797 30.3279 59.4797 38.897C59.5637 47.5501 52.5068 54.607 43.8537 54.607ZM44.7778 37.1328C42.1734 36.1247 41.0813 35.4526 41.0813 34.1084C41.0813 33.0163 41.9214 31.7561 44.1897 31.7561C46.0379 31.7561 47.2981 32.3442 47.8862 32.6802L48.6423 30.916C47.7182 30.4959 46.71 29.9919 44.9458 29.9919V27.0515H42.8455V30.0759C40.1572 30.4959 38.561 32.1762 38.561 34.3604C38.561 36.7127 40.4092 37.9729 43.4336 39.065C45.6179 39.9051 46.794 40.7453 46.794 42.2575C46.794 43.7696 45.3659 44.6938 43.2656 44.6938C41.5854 44.6938 40.1572 44.2737 39.1491 43.6016L38.477 45.4499C39.4851 46.1219 41.1653 46.626 42.8455 46.626V49.3144H44.8618V46.542C47.8862 46.122 49.3984 44.1057 49.3984 42.0054C49.3144 39.5691 47.8022 38.2249 44.7778 37.1328Z" fill="#FFFFFF"/>
</svg>
