<svg width="52" height="62" viewBox="0 0 52 62" fill="none" xmlns="http://www.w3.org/2000/svg">
<path d="M11.931 19.5172C12 21.5862 12.4828 23.7241 13.5172 26.3448C16 32.6897 20.4828 36.4828 25.5862 36.4828C33.1724 36.4828 39.3103 28.6207 39.3103 18.8966V18.069C39.6552 16.4138 40 15.2414 40 13.931C40 10.069 38.6207 6.48276 36.2069 3.93103C33.6552 1.37931 30.069 0 26.1379 0C21.8621 0 19.3793 1.93103 18.4138 2.75862C18.2759 2.75862 18.069 2.75862 17.931 2.75862C16.8966 2.75862 14.8966 3.03448 12.8966 5.58621C11.3793 7.51724 10.4828 10.4828 10.4828 13.6552C10.4828 15.5172 10.9655 17.6552 11.8621 19.3103L11.931 19.5172ZM25.5862 34.6207C21.3103 34.6207 17.4483 31.3103 15.3103 25.6552C14.4828 23.4483 13.8621 21.5172 13.7931 19.8621H14.8966L15.3793 23.2414C15.4483 23.7241 15.8621 24.069 16.3448 24.069H22.8276C23.3103 24.069 23.7241 23.7241 23.7931 23.2414L24.2759 20H26.4138L26.8965 23.2414C26.9655 23.7241 27.3793 24.069 27.8621 24.069H34.3448C34.8276 24.069 35.2414 23.7241 35.3103 23.2414L35.7931 20L37.5172 19.8621L37.6552 20.069C36.8965 28.069 31.7241 34.6207 25.5862 34.6207ZM26.9655 17.3103C26.6897 17.3103 26.4138 17.4483 26.2759 17.6552C26.2069 17.7931 26.1379 17.931 26.069 18.069H24.3448C24.2759 17.931 24.2759 17.7931 24.1379 17.6552C23.931 17.4483 23.7241 17.3103 23.4483 17.3103H15.5172C15.2414 17.3103 14.9655 17.4483 14.8276 17.6552C14.6897 17.7931 14.6207 17.931 14.6207 18.069H13.7931C14.2759 15.8621 15.5172 10.8276 19.2414 10.2759C19.6552 10.2069 20.069 10.2069 20.4138 10.2069C21.8621 10.2069 22.4138 10.6897 23.4483 11.5862C24.4828 12.4828 25.931 13.7241 28.8276 14.6897C31.7241 15.6552 34.2759 15.7931 35.4483 15.8621L36.4828 18.069L35.7931 18.1379C35.7931 17.931 35.7241 17.7931 35.5862 17.6552C35.3793 17.4483 35.1724 17.3103 34.8965 17.3103H26.9655ZM33.7931 19.2414L33.3793 22.1379H28.5517L28.1379 19.2414H33.7931ZM22.3448 19.2414L21.931 22.1379H17.1034L16.6897 19.2414H22.3448ZM14.3448 6.75862C16.4828 4 18.4138 4.55172 18.4138 4.55172L19.0345 4.75862L19.4483 4.27586C19.5172 4.2069 21.6552 1.93103 26.1379 1.93103C29.5862 1.93103 32.6207 3.03448 34.7586 5.31034C36.8965 7.51724 38.069 10.5517 38.069 13.931C38.069 14.7586 38 15.6552 37.7931 16.5517L36.6207 14H35.8621C35.3103 14 32.5517 14 29.3793 12.9655C26.8276 12.1379 25.6552 11.1034 24.6897 10.2069C23.5862 9.24138 22.5517 8.34483 20.4138 8.34483C19.931 8.34483 19.5172 8.41379 18.9655 8.48276C15.1724 9.03448 13.3793 12.7586 12.4828 15.5172C12.3448 14.9655 12.2759 14.2759 12.2759 13.6552C12.3448 10.9655 13.1034 8.34483 14.3448 6.75862ZM24.3448 51.8621C25.5862 53.4483 25.931 53.6552 25.931 53.6552C25.931 53.6552 26.6207 53.1034 27.7241 51.5172C28.8276 49.931 28.9655 49.4483 28.9655 49.4483L26.8276 42.9655L28.2759 41.5172L27.0345 37.931H24.7586L23.4483 41.5862L24.8276 43.0345L22.8966 49.5172C22.8966 49.4483 23.1724 50.2759 24.3448 51.8621ZM51.6552 56.7586C51.6552 56.6207 51.6552 53.7931 51.2414 50V49.931C50.8276 46.2759 50.4828 43.0345 46.4138 40.2069C42.5517 37.5172 36.6897 36.2069 36.4138 36.1379L35.1724 35.8621L35.2414 37.1034C35.2414 37.1724 35.4483 42.1379 31.7931 48.2069C29.1034 52.6207 26.8965 55.1035 25.8621 56.1379C24.8276 55.1035 22.6897 52.6207 20 48.2069C16.3448 42.2069 16.4828 37.1035 16.4828 37.0345L16.5517 35.7931L15.3793 36.069C15.1034 36.1379 9.31034 37.4483 5.44828 40.2069C1.24138 43.1724 0.896552 46.4828 0.482759 50C0 53.7931 0 56.6897 0 56.8276V57.1724L0.206897 57.4483C0.551724 57.931 4.34483 62 25.8621 62C47.3793 62 51.1034 57.931 51.5172 57.4483L51.7241 57.1724L51.6552 56.7586ZM25.8621 60C7.93103 60 2.89655 57.1034 1.93103 56.3448C1.93103 55.4483 2 53.0345 2.34483 50.2069C2.75862 46.4138 3.10345 44.1379 6.48276 41.7241C9.10345 39.931 12.7586 38.6897 14.6207 38.2069C14.7586 40.2069 15.4483 44.4138 18.4138 49.1724C22.3448 55.5862 25.1724 58.069 25.2414 58.1379L25.8621 58.6897L26.4828 58.2069C26.6207 58.1379 29.5172 55.6552 33.4483 49.1724C36.3448 44.4138 37.0345 40.2759 37.1724 38.2759C39.0345 38.7586 42.7586 39.931 45.3103 41.7241C48.6897 44.069 48.9655 46.4828 49.3103 50.1379V50.2069C49.6552 53.0345 49.6552 55.3793 49.7241 56.3448C48.6897 57.1724 43.6552 60 25.8621 60Z" fill="#F2641A"/>
</svg>
