<svg width="62" height="56" viewBox="0 0 62 56" fill="none" xmlns="http://www.w3.org/2000/svg">
<path d="M62 47.2589V46.8325C62 46.7614 61.9285 44.5584 61.6424 41.7157C61.6424 41.4315 61.5709 41.1472 61.5709 40.8629C61.3564 38.4467 61.0704 36.1726 58.2099 34.1117C55.2065 32.0508 50.4867 30.6294 50.3437 30.6294L49.9862 30.5584L49.6286 30.7716C49.5571 30.7716 46.6967 33.4721 42.1915 33.4721H41.8339C40.7612 33.4721 39.8316 33.4721 39.045 33.3299C39.5456 32.6193 39.9746 31.9086 40.4037 31.1269C40.9043 31.198 41.4764 31.269 41.9769 31.269C47.6978 31.269 52.4175 25.2995 52.489 17.7665C53.9193 14.7107 53.7047 11.0863 51.8454 8.10152C49.8431 4.83249 46.2676 2.91371 42.406 2.91371C39.188 2.91371 37.2572 4.33502 36.3991 5.11675C35.4694 5.04568 33.7532 5.25888 32.0369 7.39086C31.7509 7.81726 31.5363 8.38579 31.3218 9.16751C31.3218 9.23858 31.3218 9.23858 31.2503 9.30964C30.7497 9.30964 30.2491 9.38071 29.7486 9.52284C29.677 6.96447 28.9619 4.69036 27.3172 3.05584C25.6009 0.994924 22.955 0 19.737 0C16.519 0 14.5167 1.35025 13.7301 2.06091C12.8005 2.06091 11.1557 2.41624 9.51096 4.47716C7.36563 7.24873 7.36563 11.0863 8.58132 13.5025C8.58132 14.6396 8.65283 15.7056 8.86736 16.7716C8.86736 16.8426 8.86736 16.8426 8.86736 16.9137C9.08189 18.0508 9.36794 19.2589 9.86851 20.3959C11.7993 25.3706 15.3749 28.2843 19.308 28.2843C20.0231 28.2843 20.8097 28.1421 21.4533 28C21.5963 28.4975 21.7393 28.9949 21.9539 29.4924C22.0254 29.6345 22.0969 29.8477 22.1684 29.9898C21.3818 30.3452 20.4521 30.6294 19.5225 30.6294C15.0888 30.6294 11.5133 27.9289 11.5133 27.9289L11.1557 27.6447L10.7266 27.7157C10.5836 27.7157 6.86505 28.4264 3.86159 30.4873C0.929643 32.5482 0.71511 34.8223 0.500577 37.2386C0.500577 37.5228 0.429066 37.8071 0.429066 38.0914C0 41.0051 0 43.2081 0 43.2792V43.5634L0.214533 43.8477C0.500577 44.2741 2.43137 46.264 12.5144 46.8325C12.5144 47.0457 12.4429 47.2589 12.4429 47.5431C12.1569 50.3858 12.1569 52.5888 12.1569 52.6599V53.0152L12.3714 53.2995C12.729 53.7259 15.5179 56 31.6794 56C47.8408 56 50.7013 53.797 51.1303 53.2995L51.4164 53.0152V52.5888C51.4164 52.5178 51.4164 51.3807 51.2734 49.6751C59.5686 49.0355 61.4994 47.7563 61.7855 47.5431L62 47.2589ZM23.7416 28.7817C23.1696 27.2183 22.7405 25.797 22.526 24.3046C22.5975 22.599 23.2411 20.5381 24.2422 19.1878C24.8858 18.335 25.6724 17.8376 26.6021 17.6954C28.2468 17.4822 28.7474 17.9086 29.7486 18.8325C30.6067 19.6142 31.6794 20.6802 33.7532 21.4619C35.8985 22.2437 38.8305 23.2386 39.9746 23.665L40.0461 23.8071C40.0461 30.203 35.97 35.6751 31.3218 35.6751C28.3183 35.6041 25.3864 32.9746 23.7416 28.7817ZM23.2411 14.7817C24.3137 13.4315 25.0288 13.2183 25.5294 13.2183C25.7439 13.2183 25.887 13.2893 25.887 13.2183L26.5306 13.4315L26.9596 12.934C27.0311 12.8629 28.5329 11.0863 31.7509 11.0863C34.8974 11.0863 37.6148 12.5787 39.188 14.8528C40.5467 16.7716 40.9043 19.1168 40.4037 21.6751C39.188 21.2487 36.3991 20.2538 34.3968 19.5431C32.6805 18.9036 31.8224 18.0508 31.0358 17.3401C29.9631 16.2741 28.8904 15.2792 26.2445 15.7056C24.8143 15.9188 23.5271 16.7005 22.5975 17.9797C22.3114 18.335 22.0969 18.6904 21.9539 19.1168C21.8824 17.6244 22.3114 16.0609 23.2411 14.7817ZM41.9769 29.2081C41.6909 29.2081 41.4764 29.2081 41.1903 29.1371C41.7624 27.5025 42.0484 25.7259 42.0484 23.8782C43.3356 20.2538 42.8351 16.5584 40.9043 13.7868C40.1892 12.7919 39.331 11.9391 38.3299 11.2284C39.331 11.0152 40.4752 11.7259 42.4775 13.2183C43.2641 13.7868 44.1223 14.4264 45.0519 15.066C47.4118 16.5584 49.4141 17.0558 50.4867 17.269V17.4822C50.4867 23.8071 46.5536 29.2081 41.9769 29.2081ZM36.3991 6.96447L37.0427 7.17766L37.4717 6.60914C37.4717 6.60914 39.045 4.69035 42.3345 4.69035C45.481 4.69035 48.4129 6.32487 50.0577 8.95431C51.2734 10.9442 51.6309 13.1472 51.0588 15.2792C50.4867 15.2081 48.4129 14.8528 45.9815 13.2893C45.0519 12.7208 44.2653 12.1523 43.4787 11.5127C41.1188 9.73604 38.8305 8.03046 36.113 9.94924C35.1834 9.52284 34.2537 9.23858 33.1811 9.09645C33.2526 8.81218 33.3956 8.38579 33.4671 8.31472C35.1119 6.60914 36.3991 6.96447 36.3991 6.96447ZM11.0127 5.75635C12.5144 3.83756 13.7301 4.05076 13.8016 4.05076L14.4452 4.19289L14.8743 3.69543C14.9458 3.62437 16.519 1.91878 19.737 1.91878C22.3829 1.91878 24.5998 2.70051 26.03 4.26396C27.3887 5.68528 27.8893 7.67513 27.8893 10.0203C26.9596 10.4467 26.316 11.0152 25.887 11.2995C25.7439 11.2995 25.6724 11.2995 25.5294 11.2995C25.4579 11.2995 25.3149 11.2995 25.2434 11.2995V11.0863L25.0288 11.0152C24.1707 10.8731 23.3126 10.731 22.3114 10.3756C20.5952 9.73604 19.737 8.88325 18.9504 8.17259C17.8777 7.1066 16.8051 6.11167 14.1592 6.53807C12.729 6.75127 11.4418 7.53299 10.5121 8.81218C10.1546 9.23858 9.94002 9.73604 9.72549 10.2335C9.65398 8.74112 10.0115 7.03553 11.0127 5.75635ZM19.2364 26.3655C16.1615 26.3655 13.301 23.8782 11.6563 19.6853C10.9412 17.8376 10.5121 16.0609 10.4406 14.2132C10.6551 12.7208 11.2987 11.0863 12.0854 9.94924C12.729 9.09645 13.5156 8.59898 14.4452 8.45685C16.09 8.24365 16.5905 8.67005 17.5917 9.59391C18.4498 10.3756 19.5225 11.4416 21.5963 12.2234C21.9539 12.3655 22.2399 12.4365 22.5975 12.5076C22.3114 12.7919 21.9539 13.0761 21.6678 13.5025C19.5225 16.2741 19.5225 20.1117 20.7382 22.5279C20.7382 22.9543 20.7382 23.3807 20.8097 23.8071C20.8097 24.5888 20.8097 25.2995 20.9527 25.9391H21.0242V26.0101C20.4521 26.2944 19.88 26.3655 19.2364 26.3655ZM50.9873 47.7563C50.9873 47.6853 50.9873 47.6142 50.9873 47.4721C50.9873 47.1878 50.9158 46.9035 50.9158 46.6193C50.7013 44.203 50.4152 41.9289 47.5548 39.868C44.6228 37.8071 41.8339 37.0964 41.6909 37.0964L40.9758 36.9543L40.5467 37.4518C40.5467 37.5228 37.2572 41.0761 31.7509 41.0761C26.316 41.0761 23.098 37.5939 23.098 37.5228L22.669 37.0254L22.1684 37.1675C22.0254 37.1675 18.8789 37.8071 15.8754 39.868C13.6586 41.4315 13.015 43.066 12.729 44.8426C5.29181 44.4162 2.71742 43.2792 2.00231 42.7817C2.00231 42 2.07382 40.2944 2.28835 38.3046C2.28835 38.0203 2.35986 37.736 2.35986 37.4518C2.57439 35.1777 2.71742 33.6142 4.93426 32.1218C7.00807 30.6294 9.65398 29.9898 10.6551 29.7766C11.7993 30.5584 15.2318 32.6193 19.5225 32.6193C20.8812 32.6193 22.0254 32.1929 23.0265 31.7665C25.0288 35.3909 28.1038 37.5228 31.3933 37.5228C33.7532 37.5228 35.8985 36.5279 37.6863 34.8223C38.902 35.3198 40.3322 35.3198 41.9054 35.3198H42.263C46.5536 35.3198 49.2711 33.1167 50.3437 32.5482C51.3449 32.7614 54.9204 34.1117 57.1373 35.6041C59.2826 37.0964 59.4971 38.6599 59.7117 40.934C59.7117 41.2183 59.7832 41.5025 59.7832 41.7868C59.9977 43.7056 60.0692 45.3401 60.1407 46.1218C59.1396 46.5482 56.7797 47.3299 50.9873 47.7563Z" fill="#F2641A"/>
</svg>
