<svg width="78" height="79" viewBox="0 0 78 79" fill="none" xmlns="http://www.w3.org/2000/svg">
<path d="M22.4 47.3C21.6 47.3 20.8 47 20.3 46.8L20 48.3C20.5 48.6 21.4 48.8 22.4 48.8C24.7 48.8 25.7 47.6 25.7 46.2C25.7 45 25 44.3 23.6 43.7C22.5 43.3 22.1 43.1 22.1 42.5C22.1 42.1 22.5 41.7 23.3 41.7C24.1 41.7 24.7 41.9 25 42.1L25.4 40.6C24.9 40.4 24.2 40.2 23.3 40.2C21.4 40.2 20.2 41.3 20.2 42.7C20.2 43.9 21.1 44.7 22.5 45.2C23.5 45.5 23.9 45.8 23.9 46.4C23.7 46.9 23.3 47.3 22.4 47.3ZM30.4 48.8C32.8 48.8 34.5 47.2 34.5 44.4C34.5 42.1 33.1 40.2 30.6 40.2C28.2 40.2 26.6 42.1 26.6 44.6C26.5 46.9 28 48.8 30.4 48.8ZM30.5 41.7C31.8 41.7 32.5 43 32.5 44.5C32.5 46.1 31.8 47.3 30.5 47.3C29.2 47.3 28.5 46.1 28.5 44.5C28.5 42.9 29.3 41.7 30.5 41.7ZM48.2 21.8H52.8V6.1H48.2V21.8ZM37.6 45.3H40.6V43.8H37.6V41.9H40.8V40.3H35.7V48.7H37.6V45.3ZM66.8 53.2V7.3L59.7 0H0V66.7L52.2 66.8C52.6 73.5 58.2 78.8 65.1 78.8C72.2 78.8 78 73 78 65.9C77.9 59.4 73.1 54.1 66.8 53.2ZM11.8 2.8H56.2V25.2H11.8V2.8ZM9.1 36.5V64H2.8V2.8H9.1V27.9H59V3.2L64.1 8.5V53.2C62.3 53.3 60.5 53.8 59 54.7V36.7C59 34.8 57.5 33.3 55.6 33.3H12.6C10.6 33.1 9.1 34.6 9.1 36.5ZM56.2 56.5C54.1 58.4 52.7 61.1 52.3 64H11.8V36.5C11.8 36.1 12.1 35.8 12.5 35.8H55.5C55.9 35.8 56.2 36.1 56.2 36.5V56.5ZM72.8 71.7L70.7 73.8L65.2 68.3L59.7 73.8L57.6 71.7L63.1 66.2L57.6 60.7L59.7 58.6L65.2 64.1L70.7 58.6L72.8 60.7L67.3 66.2L72.8 71.7ZM45.7 48.7V41.9H48V40.3H41.6V41.9H43.8V48.7H45.7ZM46.4 56.9H49.5V55.4H46.4V53.7H49.7V52.1H44.6V60.5H49.9V58.9H46.5V56.9H46.4ZM41.7 56.6C42.4 56.3 43.2 55.6 43.2 54.5C43.2 53.7 42.9 53.1 42.4 52.7C41.8 52.2 40.9 52 39.7 52C38.7 52 37.8 52.1 37.2 52.2V60.4H39.1V57.1H39.7C40.5 57.1 40.8 57.4 41.1 58.4C41.3 59.4 41.5 60.1 41.7 60.3H43.6C43.4 60 43.2 58.9 42.9 57.9C42.6 57.3 42.3 56.8 41.7 56.6ZM39.8 55.8H39.1V53.5C39.2 53.5 39.5 53.4 40 53.4C40.9 53.4 41.4 53.8 41.4 54.6C41.3 55.4 40.7 55.8 39.8 55.8ZM26.8 52.1L26.1 55.5C25.9 56.5 25.7 57.5 25.6 58.4C25.5 57.5 25.3 56.6 25.2 55.6L24.5 52.1H22.5L21.8 55.5C21.6 56.5 21.4 57.5 21.3 58.5C21.2 57.7 21 56.6 20.8 55.6L20.2 52.2H18.2L20.2 60.6H22.3L23.1 57C23.3 56.2 23.4 55.4 23.6 54.4C23.7 55.4 23.8 56.1 24 57L24.7 60.6H26.7L28.9 52.2H26.8V52.1ZM31 52.1L28.5 60.5H30.4L31 58.4H33.4L34 60.5H36L33.4 52.1H31ZM31.3 56.9L31.8 55.1C31.9 54.6 32.1 54 32.2 53.5C32.3 54 32.5 54.6 32.6 55.1L33.1 56.9H31.3Z" fill="#F2641A"/>
</svg>
