<svg width="87" height="79" viewBox="0 0 87 79" fill="none" xmlns="http://www.w3.org/2000/svg">
<path d="M86.7 66.5V65.9C86.7 65.8 86.6 62.7 86.2 58.7C86.2 58.3 86.1 57.9 86.1 57.5C85.8 54.1 85.4 50.9 81.4 48C77.2 45.1 70.6 43.1 70.4 43.1L69.9 43L69.4 43.3C69.3 43.3 65.3 47.1 59 47.1H58.5C57 47.1 55.7 47.1 54.6 46.9C55.3 45.9 55.9 44.9 56.5 43.8C57.2 43.9 58 44 58.7 44C66.7 44 73.3 35.6 73.4 25C75.4 20.7 75.1 15.6 72.5 11.4C69.7 6.8 64.7 4.1 59.3 4.1C54.8 4.1 52.1 6.1 50.9 7.2C49.6 7.1 47.2 7.4 44.8 10.4C44.4 11 44.1 11.8 43.8 12.9C43.8 13 43.8 13 43.7 13.1C43 13.1 42.3 13.2 41.6 13.4C41.5 9.8 40.5 6.6 38.2 4.3C35.8 1.4 32.1 0 27.6 0C23.1 0 20.3 1.9 19.2 2.9C17.9 2.9 15.6 3.4 13.3 6.3C10.3 10.2 10.3 15.6 12 19C12 20.6 12.1 22.1 12.4 23.6C12.4 23.7 12.4 23.7 12.4 23.8C12.7 25.4 13.1 27.1 13.8 28.7C16.5 35.7 21.5 39.8 27 39.8C28 39.8 29.1 39.6 30 39.4C30.2 40.1 30.4 40.8 30.7 41.5C30.8 41.7 30.9 42 31 42.2C29.9 42.7 28.6 43.1 27.3 43.1C21.1 43.1 16.1 39.3 16.1 39.3L15.6 38.9L15 39C14.8 39 9.6 40 5.4 42.9C1.3 45.8 1 49 0.7 52.4C0.7 52.8 0.6 53.2 0.6 53.6C0 57.7 0 60.8 0 60.9V61.3L0.3 61.7C0.7 62.3 3.4 65.1 17.5 65.9C17.5 66.2 17.4 66.5 17.4 66.9C17 70.9 17 74 17 74.1V74.6L17.3 75C17.8 75.6 21.7 78.8 44.3 78.8C66.9 78.8 70.9 75.7 71.5 75L71.9 74.6V74C71.9 73.9 71.9 72.3 71.7 69.9C83.3 69 86 67.2 86.4 66.9L86.7 66.5ZM33.2 40.5C32.4 38.3 31.8 36.3 31.5 34.2C31.6 31.8 32.5 28.9 33.9 27C34.8 25.8 35.9 25.1 37.2 24.9C39.5 24.6 40.2 25.2 41.6 26.5C42.8 27.6 44.3 29.1 47.2 30.2C50.2 31.3 54.3 32.7 55.9 33.3L56 33.5C56 42.5 50.3 50.2 43.8 50.2C39.6 50.1 35.5 46.4 33.2 40.5ZM32.5 20.8C34 18.9 35 18.6 35.7 18.6C36 18.6 36.2 18.7 36.2 18.6L37.1 18.9L37.7 18.2C37.8 18.1 39.9 15.6 44.4 15.6C48.8 15.6 52.6 17.7 54.8 20.9C56.7 23.6 57.2 26.9 56.5 30.5C54.8 29.9 50.9 28.5 48.1 27.5C45.7 26.6 44.5 25.4 43.4 24.4C41.9 22.9 40.4 21.5 36.7 22.1C34.7 22.4 32.9 23.5 31.6 25.3C31.2 25.8 30.9 26.3 30.7 26.9C30.6 24.8 31.2 22.6 32.5 20.8ZM58.7 41.1C58.3 41.1 58 41.1 57.6 41C58.4 38.7 58.8 36.2 58.8 33.6C60.6 28.5 59.9 23.3 57.2 19.4C56.2 18 55 16.8 53.6 15.8C55 15.5 56.6 16.5 59.4 18.6C60.5 19.4 61.7 20.3 63 21.2C66.3 23.3 69.1 24 70.6 24.3V24.6C70.6 33.5 65.1 41.1 58.7 41.1ZM50.9 9.8L51.8 10.1L52.4 9.3C52.4 9.3 54.6 6.6 59.2 6.6C63.6 6.6 67.7 8.9 70 12.6C71.7 15.4 72.2 18.5 71.4 21.5C70.6 21.4 67.7 20.9 64.3 18.7C63 17.9 61.9 17.1 60.8 16.2C57.5 13.7 54.3 11.3 50.5 14C49.2 13.4 47.9 13 46.4 12.8C46.5 12.4 46.7 11.8 46.8 11.7C49.1 9.3 50.9 9.8 50.9 9.8ZM15.4 8.1C17.5 5.4 19.2 5.7 19.3 5.7L20.2 5.9L20.8 5.2C20.9 5.1 23.1 2.7 27.6 2.7C31.3 2.7 34.4 3.8 36.4 6C38.3 8 39 10.8 39 14.1C37.7 14.7 36.8 15.5 36.2 15.9C36 15.9 35.9 15.9 35.7 15.9C35.6 15.9 35.4 15.9 35.3 15.9V15.6L35 15.5C33.8 15.3 32.6 15.1 31.2 14.6C28.8 13.7 27.6 12.5 26.5 11.5C25 10 23.5 8.6 19.8 9.2C17.8 9.5 16 10.6 14.7 12.4C14.2 13 13.9 13.7 13.6 14.4C13.5 12.3 14 9.9 15.4 8.1ZM26.9 37.1C22.6 37.1 18.6 33.6 16.3 27.7C15.3 25.1 14.7 22.6 14.6 20C14.9 17.9 15.8 15.6 16.9 14C17.8 12.8 18.9 12.1 20.2 11.9C22.5 11.6 23.2 12.2 24.6 13.5C25.8 14.6 27.3 16.1 30.2 17.2C30.7 17.4 31.1 17.5 31.6 17.6C31.2 18 30.7 18.4 30.3 19C27.3 22.9 27.3 28.3 29 31.7C29 32.3 29 32.9 29.1 33.5C29.1 34.6 29.1 35.6 29.3 36.5H29.4V36.6C28.6 37 27.8 37.1 26.9 37.1ZM71.3 67.2C71.3 67.1 71.3 67 71.3 66.8C71.3 66.4 71.2 66 71.2 65.6C70.9 62.2 70.5 59 66.5 56.1C62.4 53.2 58.5 52.2 58.3 52.2L57.3 52L56.7 52.7C56.7 52.8 52.1 57.8 44.4 57.8C36.8 57.8 32.3 52.9 32.3 52.8L31.7 52.1L31 52.3C30.8 52.3 26.4 53.2 22.2 56.1C19.1 58.3 18.2 60.6 17.8 63.1C7.4 62.5 3.8 60.9 2.8 60.2C2.8 59.1 2.9 56.7 3.2 53.9C3.2 53.5 3.3 53.1 3.3 52.7C3.6 49.5 3.8 47.3 6.9 45.2C9.8 43.1 13.5 42.2 14.9 41.9C16.5 43 21.3 45.9 27.3 45.9C29.2 45.9 30.8 45.3 32.2 44.7C35 49.8 39.3 52.8 43.9 52.8C47.2 52.8 50.2 51.4 52.7 49C54.4 49.7 56.4 49.7 58.6 49.7H59.1C65.1 49.7 68.9 46.6 70.4 45.8C71.8 46.1 76.8 48 79.9 50.1C82.9 52.2 83.2 54.4 83.5 57.6C83.5 58 83.6 58.4 83.6 58.8C83.9 61.5 84 63.8 84.1 64.9C82.7 65.5 79.4 66.6 71.3 67.2Z" fill="#F2641A"/>
</svg>
