<svg width="62" height="62" viewBox="0 0 62 62" fill="none" xmlns="http://www.w3.org/2000/svg">
<path d="M17.6244 37.2157C16.9949 37.2157 16.3655 36.9797 15.9721 36.8223L15.736 38.0025C16.1294 38.2386 16.8376 38.3959 17.6244 38.3959C19.434 38.3959 20.2208 37.4518 20.2208 36.3503C20.2208 35.4061 19.67 34.8553 18.5685 34.3832C17.703 34.0685 17.3883 33.9112 17.3883 33.4391C17.3883 33.1244 17.703 32.8096 18.3325 32.8096C18.9619 32.8096 19.434 32.967 19.67 33.1244L19.9848 31.9442C19.5914 31.7868 19.0406 31.6294 18.3325 31.6294C16.8376 31.6294 15.8934 32.4949 15.8934 33.5964C15.8934 34.5406 16.6015 35.1701 17.703 35.5634C18.4898 35.7995 18.8046 36.0355 18.8046 36.5076C18.6472 36.901 18.3325 37.2157 17.6244 37.2157ZM23.9188 38.3959C25.8071 38.3959 27.1447 37.1371 27.1447 34.934C27.1447 33.1244 26.0431 31.6294 24.0761 31.6294C22.1878 31.6294 20.9289 33.1244 20.9289 35.0914C20.8503 36.901 22.0305 38.3959 23.9188 38.3959ZM23.9975 32.8096C25.0203 32.8096 25.5711 33.8325 25.5711 35.0127C25.5711 36.2716 25.0203 37.2157 23.9975 37.2157C22.9746 37.2157 22.4239 36.2716 22.4239 35.0127C22.4239 33.7538 23.0533 32.8096 23.9975 32.8096ZM37.9239 17.1523H41.5431V4.79949H37.9239V17.1523ZM29.5838 35.6421H31.9442V34.4619H29.5838V32.967H32.1015V31.7081H28.0888V38.3173H29.5838V35.6421ZM52.5584 41.8579V5.74365L46.9721 0H0V52.4797L41.0711 52.5584C41.3858 57.8299 45.7919 62 51.2208 62C56.8071 62 61.3706 57.4365 61.3706 51.8503C61.2919 46.736 57.5152 42.566 52.5584 41.8579ZM9.28426 2.20305H44.2183V19.8274H9.28426V2.20305ZM7.1599 28.7183V50.3553H2.20305V2.20305H7.1599V21.9518H46.4213V2.51777L50.434 6.68782V41.8579C49.0178 41.9365 47.6015 42.3299 46.4213 43.0381V28.8756C46.4213 27.3807 45.2411 26.2005 43.7462 26.2005H9.91371C8.3401 26.0431 7.1599 27.2233 7.1599 28.7183ZM44.2183 44.4543C42.566 45.9492 41.4645 48.0736 41.1497 50.3553H9.28426V28.7183C9.28426 28.4036 9.5203 28.1675 9.83502 28.1675H43.6675C43.9822 28.1675 44.2183 28.4036 44.2183 28.7183V44.4543ZM57.2792 56.4137L55.6269 58.066L51.2995 53.7386L46.9721 58.066L45.3198 56.4137L49.6472 52.0863L45.3198 47.7589L46.9721 46.1066L51.2995 50.434L55.6269 46.1066L57.2792 47.7589L52.9518 52.0863L57.2792 56.4137ZM35.9569 38.3173V32.967H37.7665V31.7081H32.731V32.967H34.4619V38.3173H35.9569ZM36.5076 44.769H38.9467V43.5888H36.5076V42.2513H39.1041V40.9924H35.0914V47.6015H39.2614V46.3426H36.5863V44.769H36.5076ZM32.8096 44.533C33.3604 44.297 33.9898 43.7462 33.9898 42.8807C33.9898 42.2513 33.7538 41.7792 33.3604 41.4645C32.8883 41.0711 32.1802 40.9137 31.236 40.9137C30.4492 40.9137 29.7411 40.9924 29.269 41.0711V47.5228H30.764V44.9264H31.236C31.8655 44.9264 32.1015 45.1624 32.3376 45.9492C32.4949 46.736 32.6523 47.2868 32.8096 47.4442H34.3046C34.1472 47.2081 33.9898 46.3426 33.7538 45.5558C33.5178 45.0838 33.2817 44.6904 32.8096 44.533ZM31.3147 43.9035H30.764V42.0939C30.8426 42.0939 31.0787 42.0152 31.4721 42.0152C32.1802 42.0152 32.5736 42.3299 32.5736 42.9594C32.4949 43.5888 32.0228 43.9035 31.3147 43.9035ZM21.0863 40.9924L20.5355 43.6675C20.3782 44.4543 20.2208 45.2411 20.1421 45.9492C20.0635 45.2411 19.9061 44.533 19.8274 43.7462L19.2766 40.9924H17.703L17.1523 43.6675C16.9949 44.4543 16.8376 45.2411 16.7589 46.0279C16.6802 45.3985 16.5228 44.533 16.3655 43.7462L15.8934 41.0711H14.3198L15.8934 47.6802H17.5457L18.1751 44.8477C18.3325 44.2183 18.4112 43.5888 18.5685 42.802C18.6472 43.5888 18.7259 44.1396 18.8832 44.8477L19.434 47.6802H21.0076L22.7386 41.0711H21.0863V40.9924ZM24.3909 40.9924L22.4239 47.6015H23.9188L24.3909 45.9492H26.2792L26.7513 47.6015H28.3249L26.2792 40.9924H24.3909ZM24.6269 44.769L25.0203 43.3528C25.099 42.9594 25.2563 42.4873 25.335 42.0939C25.4137 42.4873 25.5711 42.9594 25.6497 43.3528L26.0431 44.769H24.6269Z" fill="#F2641A"/>
</svg>
