<svg width="54" height="62" viewBox="0 0 54 62" fill="none" xmlns="http://www.w3.org/2000/svg">
<path d="M46.5562 17.0181L48.7304 14.844L50.5296 16.6433L51.9541 15.2189L46.9311 10.1959L45.5067 11.6203L47.3059 13.4196L45.1318 15.5937C41.0085 11.7703 35.6856 9.22128 29.763 8.54655V6.59734H34.1862V2.39903C34.1112 1.04958 32.9867 0 31.7122 0H21.6663C20.3168 0 19.2672 1.04958 19.2672 2.39903V6.59734H23.8404V8.47158C17.8428 9.14631 12.37 11.7703 8.24668 15.7437L5.84764 13.3446L7.64692 11.5453L6.22249 10.1209L1.19952 15.1439L2.62394 16.5683L4.42322 14.769L6.89722 17.243C2.62394 22.0411 0 28.3386 0 35.1608C0 49.9299 11.9952 62 26.8392 62C41.6082 62 53.6784 50.0048 53.6784 35.1608C53.6784 28.1886 50.9794 21.8162 46.5562 17.0181ZM21.3664 4.57316V2.474C21.3664 2.24909 21.5163 2.09915 21.6663 2.09915H31.7122C31.8622 2.09915 32.0121 2.24909 32.0121 2.474V4.57316H21.3664ZM27.6638 6.59734V8.32164C27.364 8.32164 27.1391 8.32164 26.8392 8.32164C26.5393 8.32164 26.2394 8.32164 25.9395 8.32164V6.59734H27.6638ZM12.1451 55.1028C5.99758 50.6046 2.02418 43.3325 2.02418 35.1608C2.02418 21.5163 13.1197 10.4208 26.7642 10.4208C32.0121 10.4208 36.8851 12.0701 40.9335 14.919L39.5091 16.8682C35.8356 14.3192 31.4123 12.8198 26.6892 12.8198C14.3192 12.8198 4.27328 22.8658 4.27328 35.2358C4.27328 42.6578 7.87183 49.2551 13.4946 53.3035L12.1451 55.1028ZM26.7642 55.5526C15.5187 55.5526 6.37243 46.4063 6.37243 35.2358C6.37243 23.9903 15.5187 14.919 26.7642 14.919C38.0097 14.919 47.156 24.0653 47.156 35.2358C47.156 46.4063 38.0097 55.5526 26.7642 55.5526ZM37.6348 23.3156L30.4377 29.763C29.3882 29.0883 28.1137 28.6385 26.7642 28.6385C23.1657 28.6385 20.1669 31.5623 20.1669 35.2358C20.1669 38.8343 23.0907 41.8331 26.7642 41.8331C30.3628 41.8331 33.3615 38.9093 33.3615 35.2358C33.3615 33.7364 32.8368 32.312 31.9371 31.1874L38.9843 24.89L37.6348 23.3156ZM26.8392 39.734C24.3652 39.734 22.341 37.7098 22.341 35.2358C22.341 32.7618 24.3652 30.7376 26.8392 30.7376C29.3132 30.7376 31.3374 32.7618 31.3374 35.2358C31.3374 37.7098 29.3132 39.734 26.8392 39.734ZM26.8392 33.0617C25.6397 33.0617 24.6651 34.0363 24.6651 35.2358C24.6651 36.4353 25.6397 37.4099 26.8392 37.4099C28.0387 37.4099 29.0133 36.4353 29.0133 35.2358C29.0133 34.0363 28.0387 33.0617 26.8392 33.0617Z" fill="white"/>
</svg>
