<svg width="64" height="81" viewBox="0 0 64 81" fill="none" xmlns="http://www.w3.org/2000/svg">
<path d="M48.3 0H0V81H63.9V16.1L48.3 0ZM61.1 78H2.8V3H42.5C43.1 3.1 43.9 3.3 44.4 3.8C44.8 4.2 45 4.7 45 5.4V18.8H56.8C59.9 18.8 61.1 21.5 61.1 21.6H61.2V78H61.1ZM61.1 17.6C60 16.8 58.6 16.2 56.7 16.2H47.7V5.4C47.7 4.5 47.5 3.7 47.1 3H47.2L61.2 17.2V17.6H61.1ZM22 50.8V74.8H30.7V53L22.9 49.9L22 50.8ZM10.9 74.9H19.8V52.9L10.9 61.4V74.9ZM44 74.9H52.7V42L44 50.9V74.9ZM33.1 54V74.9H41.8V53.2L38.7 56.3L33.1 54ZM37.4 49L21.6 43.2L8.7 55.4L10.6 57.4L22.2 46.3L38 52.2L52.8 37.7L50.9 35.7L37.4 49ZM37.9 8.3H9.9V11H37.9V8.3ZM51.8 29H9.9V31.8H51.8V29ZM37.9 15.1H9.9V17.9H37.9V15.1ZM51.8 22.2H9.9V25H51.8V22.2Z" fill="#F2641A"/>
</svg>
