<svg width="67" height="62" viewBox="0 0 67 62" fill="none" xmlns="http://www.w3.org/2000/svg">
<path d="M66.7089 3.13924V0H0V3.13924H2.58987V43.9494H0V47.0886H66.7089V43.9494H64.119V3.13924H66.7089ZM62 43.9494H4.70886V3.13924H62V43.9494ZM27.2329 48.6582L21.1899 62H23.5443L28.6456 50.8557H32.1772V62H34.5316V50.8557H38.0633L43.1646 62H45.519L39.4759 48.6582H27.2329ZM32.962 41.438C42.2228 41.438 49.9139 34.4532 50.7772 25.1924L51.0127 22.838H33.5899V5.49367L31.2354 5.72911C21.9747 6.67089 15.0684 14.2835 15.0684 23.5443C15.0684 33.4329 23.0734 41.438 32.962 41.438ZM31.3924 7.8481V25.0354H48.6582C47.8734 33.0405 41.2025 39.319 32.962 39.319C24.2506 39.319 17.1873 32.2557 17.1873 23.5443C17.1873 15.3823 23.4658 8.63291 31.3924 7.8481ZM35.3165 5.65063V21.1899H50.8557C50.4633 12.7924 43.7139 6.04304 35.3165 5.65063Z" fill="white"/>
</svg>
