<svg width="49" height="62" viewBox="0 0 49 62" fill="none" xmlns="http://www.w3.org/2000/svg">
<path d="M36.9704 0H0V62H48.9111V12.3235L36.9704 0ZM46.7679 59.7037H2.14321V2.2963H32.5309C32.9901 2.37284 33.6025 2.52593 33.9852 2.90864C34.2914 3.21481 34.4444 3.59753 34.4444 4.13333V14.3901H43.4765C45.8494 14.3901 46.7679 16.4568 46.7679 16.5333H46.8444V59.7037H46.7679ZM46.7679 13.4716C45.9259 12.8593 44.8543 12.4 43.4 12.4H36.5111V4.13333C36.5111 3.44444 36.358 2.8321 36.0519 2.2963H36.1284L46.8444 13.1654V13.4716H46.7679ZM16.8395 38.8839V57.2543H23.4988V40.5679L17.5284 38.1951L16.8395 38.8839ZM8.34321 57.3309H15.1556V40.4914L8.34321 46.9975V57.3309ZM33.679 57.3309H40.3383V32.1481L33.679 38.9605V57.3309ZM25.3358 41.3333V57.3309H31.9951V40.721L29.6222 43.0938L25.3358 41.3333ZM28.6272 37.5062L16.5333 33.0667L6.65926 42.4049L8.11358 43.9358L16.9926 35.4395L29.0864 39.9556L40.4148 28.8568L38.9605 27.3259L28.6272 37.5062ZM29.0099 6.35309H7.57778V8.41975H29.0099V6.35309ZM39.6494 22.1975H7.57778V24.3407H39.6494V22.1975ZM29.0099 11.558H7.57778V13.7012H29.0099V11.558ZM39.6494 16.9926H7.57778V19.1358H39.6494V16.9926Z" fill="#FFFFFF"/>
</svg>
