<svg width="27" height="27" viewBox="0 0 27 27" fill="none" xmlns="http://www.w3.org/2000/svg">
<path fill-rule="evenodd" clip-rule="evenodd" d="M2.00013 13.0228C2.14385 6.80744 7.28191 1.88095 13.4979 2.0022C19.7139 1.88095 24.8519 6.80744 25.0001 13.0273C24.8564 19.2382 19.7184 24.1647 13.5024 24.0435C12.0472 24.0479 10.601 23.783 9.24012 23.262L6.56779 24.9282C6.49144 24.9731 6.40162 25 6.31179 25C6.0468 25 5.83122 24.7844 5.83122 24.5195V21.2232C3.41489 19.1798 2.0181 16.1844 2.00013 13.0228ZM3.83122 22.1042C1.40488 19.7196 0.0196221 16.4585 0.000163674 13.0342L0 13.0054L0.000665903 12.9766C0.169541 5.67343 6.19723 -0.119552 13.4979 0.00187484C20.7993 -0.119568 26.8255 5.67394 26.9996 12.9797L27.0007 13.0266L26.9996 13.0736C26.8306 20.3782 20.7935 26.1739 13.4859 26.0435C12.1334 26.0455 10.7881 25.8484 9.49451 25.4603L7.60402 26.639L7.58176 26.6521C7.22834 26.8599 6.79172 27 6.31179 27C4.94242 27 3.83122 25.8892 3.83122 24.5195V22.1042ZM14.6252 16.2608C14.8138 16.4224 15.1013 16.409 15.2764 16.2338L21.0253 10.4855C21.1915 10.3148 21.2095 10.0499 21.0702 9.86124C20.9265 9.66814 20.666 9.61425 20.4549 9.72652L15.4741 12.4435L12.3751 9.7849C12.1864 9.62323 11.899 9.6367 11.7238 9.81184L5.97494 15.5602C5.78631 15.7488 5.78631 16.0497 5.97494 16.2383C6.12315 16.3865 6.3567 16.4179 6.54085 16.3191L11.5217 13.6021L14.6252 16.2608Z" fill="#9D9EBF"/>
</svg>
