<svg width="124" height="60" fill="none" xmlns="http://www.w3.org/2000/svg"><path d="M52.446 28.229v-1.767h-1.64c-.67 0-1.21-.539-1.21-1.208h4.154v3.384c-.503.874-1.155 1.543-1.975 2.008-.82.465-1.732.688-2.757.688-1.565 0-2.85-.52-3.875-1.543s-1.528-2.343-1.528-3.924c0-1.58.503-2.9 1.528-3.923 1.025-1.022 2.31-1.543 3.875-1.543.969 0 1.844.204 2.646.632a5.144 5.144 0 0 1 1.937 1.804 1.38 1.38 0 0 1-1.751-.112 3.917 3.917 0 0 0-.764-.576c-.615-.354-1.304-.52-2.068-.52-1.174 0-2.142.408-2.925 1.208-.764.8-1.155 1.822-1.155 3.05 0 1.226.391 2.249 1.155 3.049.764.799 1.751 1.208 2.925 1.208.727 0 1.379-.149 1.956-.465a4.957 4.957 0 0 0 1.472-1.45zm3.95-7.605h8.216c0 .67-.54 1.209-1.211 1.209h-5.72v3.44h4.21c0 .669-.54 1.208-1.21 1.208H57.7v3.403h6.148c.67 0 1.211.539 1.211 1.208h-8.663V20.624zm11.309 10.431V20.624c.428 0 .838.186 1.136.52l6.334 7.29v-6.49c0-.725.578-1.302 1.305-1.302v10.432a1.46 1.46 0 0 1-1.1-.502l-6.371-7.308v6.508a1.29 1.29 0 0 1-1.304 1.283zm11.439-10.431h8.216c0 .67-.54 1.209-1.211 1.209h-5.72v3.44h4.192c0 .669-.54 1.208-1.21 1.208h-2.982v3.403h6.148c.671 0 1.211.539 1.211 1.208h-8.644V20.624zm11.309 10.431V20.624h5.998c1.025 0 1.826.26 2.404.762.577.52.876 1.227.876 2.139 0 .762-.224 1.413-.69 1.933-.447.54-1.062.874-1.807 1.004l2.608 4.593h-.689c-.466 0-.894-.242-1.118-.65L95.8 26.5h-4.061v3.272c.019.707-.559 1.283-1.285 1.283zm5.905-5.783c.652 0 1.155-.148 1.49-.427.336-.298.504-.707.504-1.283 0-.54-.168-.967-.503-1.283-.336-.298-.82-.465-1.435-.465h-4.676v3.458h4.62zm5.31 5.783l5.124-10.431h1.08l5.179 10.431h-.037a2.211 2.211 0 0 1-1.993-1.227l-.801-1.58h-5.776l-.764 1.561a2.236 2.236 0 0 1-2.012 1.246zm3.372-4.035h4.602l-2.31-4.63-2.292 4.63zm9.837-6.396h.093c.671 0 1.211.54 1.211 1.209v8.032h5.627c.67 0 1.211.54 1.211 1.209h-8.142v-10.45zM43.97 38.604h.092c.671 0 1.211.54 1.211 1.209v8.032H50.9c.67 0 1.21.54 1.21 1.209h-8.14v-10.45zm10.842 0h8.216c0 .67-.54 1.209-1.21 1.209h-5.72v3.44h4.192c0 .669-.54 1.208-1.211 1.208h-2.981v3.403h6.148c.67 0 1.21.54 1.21 1.209h-8.644v-10.47zm15.818-.018c1.639 0 2.98.483 3.987 1.45 1.005.967 1.509 2.231 1.509 3.793 0 1.562-.504 2.827-1.49 3.775-.988.948-2.33 1.413-4.006 1.413h-4.49V38.586h4.49zm0 1.208h-3.186v8.033h3.186c1.285 0 2.31-.353 3.036-1.078.746-.726 1.1-1.693 1.1-2.92 0-1.208-.373-2.175-1.137-2.919-.727-.744-1.733-1.116-3-1.116zm17.047 6.416v-1.767h-1.64c-.67 0-1.211-.54-1.211-1.209h4.155v3.384c-.503.874-1.155 1.544-1.975 2.008-.82.465-1.733.688-2.757.688-1.566 0-2.851-.52-3.876-1.543-1.024-1.023-1.527-2.343-1.527-3.923s.503-2.9 1.527-3.924c1.025-1.022 2.31-1.543 3.876-1.543.968 0 1.844.205 2.645.632a5.146 5.146 0 0 1 1.938 1.804l-.168.111c-.484.335-1.118.242-1.528-.185a3.995 3.995 0 0 0-.82-.633c-.614-.353-1.304-.52-2.067-.52-1.174 0-2.143.409-2.925 1.208-.764.8-1.156 1.823-1.156 3.05 0 1.227.392 2.25 1.155 3.05.764.799 1.752 1.208 2.926 1.208.726 0 1.378-.149 1.956-.465a4.678 4.678 0 0 0 1.472-1.432zm4.005-7.606h8.216c0 .67-.54 1.209-1.21 1.209h-5.72v3.44h4.191c0 .669-.54 1.208-1.21 1.208h-2.981v3.403h6.148c.67 0 1.211.54 1.211 1.209h-8.645v-10.47zm11.346 10.376V38.642c0-.019.019-.056.056-.056h5.943c1.025 0 1.826.26 2.404.762.577.52.875 1.227.875 2.138 0 .763-.223 1.414-.689 1.934-.447.52-1.025.855-1.733 1.004-.037 0-.056.038-.037.075l2.534 4.462c.018.037 0 .075-.038.075h-.633c-.447 0-.857-.242-1.081-.633l-2.235-3.904c0-.019-.019-.019-.038-.019h-3.986c-.019 0-.056.019-.056.056v3.272c0 .688-.559 1.246-1.249 1.246-.018-.018-.037-.037-.037-.074zm1.304-5.783c0 .019.019.056.056.056h4.565c.652 0 1.155-.149 1.49-.428.335-.297.503-.706.503-1.283 0-.539-.168-.967-.503-1.283-.335-.297-.82-.465-1.434-.465h-4.639c-.019 0-.056.019-.056.056v3.347h.018z" fill="#fff"/><path fill-rule="evenodd" clip-rule="evenodd" d="M.417 55.436c.14-.49.289-.925.375-1.233.62-2.072 2.32-5.972 2.32-5.972 2.363-5.016 5.795-10.01 8.982-14.548.043-1.573-.118-2.922-.46-4.261-.77-3.37 1.144-5.77 2.759-4.145.246.244.46.755.491.84.321.892.546 1.849.653 2.773.342-.478 1.347-1.817 1.497-2.019l.01-.01c-.235-5.77 1.059-11.754 3.721-16.78 1.69-3.188 6.32-11.498 11.132-9.872.652.223.951.722 1.058 1.36-.438-2.062-3.24.234-3.935.967-2.085 2.125-3.528 5.037-4.865 7.64-1.754 3.422-2.673 7.184-3.069 10.989a36.703 36.703 0 0 0-.181 5.196c.053 1.552.534 6.217 1.336 7.014.78 1.254 2.203 1.753 3.219.393-1.187 1.626-4.213 3.4-6.106 1.976-1.251-.945-1.647-2.996-1.882-4.612a825.85 825.85 0 0 1-1.497 2.02l-4.052 5.727c-2.353 3.624-4.566 7.248-6.16 11.286-.566 1.403-1.218 3.06-1.56 4.697-.236.977-.813 2.444-1.722 3.145-.62.49-1.53.66-1.935-.17-.343-.722-.214-1.891-.129-2.401z" fill="#F26419"/><path fill-rule="evenodd" clip-rule="evenodd" d="M4.01 57.455c2.032-2.072 3.614-5.027 4.844-7.62a35.702 35.702 0 0 0 2.117-5.621c.16-.617.3-1.212.417-1.796.716-2.997 3.197-6.886 4.576-8.725 0 .596.043 1.233.022 1.807a34.752 34.752 0 0 1-.92 6.875C14.061 46.966 7.624 61.93 1.112 59.793c-1.24-.404-1.24-1.892-.962-3.284-.278 2.848 1.486 2.646 2.812 1.796.385-.234.717-.51 1.048-.85zM22.626 32.46a14.51 14.51 0 0 0 1.037-4.176c.01-.074.01-.16.022-.233.085-1.17 3.86-1.605 3.817-1.02a19.64 19.64 0 0 1-.332 2.454c-.203.978-.491 1.998-.93 2.944 0 0-.78 1.52-1.721 1.647-.984.127-1.829-.627-1.893-1.615zM28.86 4.8C29.93.994 32.677.123 32.998 2.003c.053 1.478-.952 4.39-1.369 5.569-1.219 3.475-2.876 6.705-4.822 9.85-.075.118-.15.235-.214.352-1.721 2.773-3.529 5.472-5.39 8.15.076-4.091 1.926-7.81 2.46-8.884 1.957-3.315 3.828-7.173 4.919-10.881.128-.532.214-.989.278-1.36zM10.618 26.34a9.228 9.228 0 0 0-1.315 3.028c-.3 1.307-.492 4.102 1.54 3.932.075-.01.128.085.064.138-1.39 1.212-4.93 1.786-5.486-.786-.491-2.997.963-6.344 3.647-7.864 1.914-1.084 4.362-1.679 5.517.574 0 0-.118-.212-.438-.52-.097-.086-.289-.266-.6-.373-1.08-.33-2.405 1.074-2.929 1.87z" fill="#F26419"/></svg>