<svg width="83" height="84" fill="none" xmlns="http://www.w3.org/2000/svg"><path fill-rule="evenodd" clip-rule="evenodd" d="M47.73 75.52c-10.65 11.033-28.227 11.34-39.252.684-11.033-10.657-11.333-28.245-.69-39.278l1.817 1.757c-9.68 10.028-9.4 26.017.621 35.71 10.022 9.686 26.007 9.405 35.687-.623l1.817 1.75z" fill="#F26419"/><path fill-rule="evenodd" clip-rule="evenodd" d="M38.651 66.75c-5.806 6.016-15.397 6.186-21.409.376-6.011-5.81-6.182-15.407-.376-21.423l1.817 1.757c-4.843 5.017-4.7 13.008.315 17.855 5.014 4.846 13 4.703 17.843-.315l1.81 1.75zM83 28.067l-8.54 10.91-5.157-2.475.103-1.06L83 28.068z" fill="#F26419"/><path fill-rule="evenodd" clip-rule="evenodd" d="M65.758 45.929l8.539-10.903 5.158 2.468-.103 1.066-13.594 7.369zm8.259-11.717s-3.518.643-4.604 1.23c-1.087.589-.424.91-.103 1.06.321.158 3.689-.54 3.689-.54l1.018-1.75z" fill="#F26419"/><path fill-rule="evenodd" clip-rule="evenodd" d="M74.748 39.783s3.518-.642 4.604-1.23c1.086-.588.424-.909.103-1.06-.322-.157-3.69.54-3.69.54l-1.017 1.75zM53.953 0l-8.539 10.91-5.157-2.475.102-1.06L53.953 0z" fill="#F26419"/><path fill-rule="evenodd" clip-rule="evenodd" d="M36.711 17.862l8.54-10.91 5.157 2.474-.102 1.06-13.595 7.376zM44.97 6.145s-3.518.643-4.604 1.23c-1.086.589-.423.91-.102 1.06.32.157 3.688-.54 3.688-.54l1.018-1.75z" fill="#F26419"/><path fill-rule="evenodd" clip-rule="evenodd" d="M45.701 11.716s3.518-.642 4.605-1.23c1.086-.588.423-.91.102-1.06-.321-.157-3.689.54-3.689.54l-1.018 1.75z" fill="#F26419"/><path d="M16.382 28.02l-8.594 8.906L9.6 38.678l8.594-8.905-1.813-1.752zm29.052 28.066l-8.593 8.906 1.813 1.752 8.594-8.906-1.814-1.752zM25.465 36.794L16.871 45.7l1.813 1.752 8.594-8.904-1.813-1.753zm29.046 28.069l-8.594 8.904 1.813 1.753 8.594-8.905-1.813-1.752z" fill="#F26419"/><path d="M17.257 27.117l-1.751 1.814L26.4 39.459l1.75-1.815-10.893-10.527zm3.508-3.63l-1.751 1.814L29.907 35.83l1.752-1.814-10.894-10.528z" fill="#F26419"/><path fill-rule="evenodd" clip-rule="evenodd" d="M28.67 17.103l9.08 8.77a1.27 1.27 0 0 1 .034 1.784 1.268 1.268 0 0 1-1.783.034l-9.079-8.77a1.27 1.27 0 0 1-.034-1.784 1.268 1.268 0 0 1 1.783-.034z" fill="#F26419"/><path d="M46.303 55.187L44.552 57l10.894 10.53 1.75-1.814-10.893-10.528zm3.507-3.63l-1.75 1.814L58.953 63.9l1.752-1.814L49.81 51.557z" fill="#F26419"/><path fill-rule="evenodd" clip-rule="evenodd" d="M57.724 45.17l9.079 8.77a1.27 1.27 0 0 1 .034 1.784 1.268 1.268 0 0 1-1.783.035l-9.085-8.77a1.27 1.27 0 0 1-.035-1.785 1.276 1.276 0 0 1 1.79-.034z" fill="#F26419"/><path d="M26.888 17.14l-7 7.252 1.813 1.752 7-7.253-1.813-1.752zm29.046 28.07l-7 7.252 1.813 1.752 7-7.252-1.813-1.752zM35.965 25.909l-7 7.252 1.814 1.752 7-7.252-1.814-1.752zm29.046 28.069l-7 7.252 1.814 1.753 7-7.253-1.814-1.752z" fill="#F26419"/><path d="M27.796 18.02l-7 7.252 9.075 8.771 7-7.252-9.076-8.771zm29.046 28.07l-7 7.252 9.075 8.771 7-7.252-9.075-8.771z" fill="#F26419"/></svg>