<svg width="83" height="84" viewBox="0 0 83 84" fill="none" xmlns="http://www.w3.org/2000/svg">
<path fill-rule="evenodd" clip-rule="evenodd" d="M47.7301 75.5204C37.0802 86.5531 19.5033 86.8607 8.47759 76.2039C-2.55492 65.5472 -2.8555 47.959 7.78763 36.9262L9.60475 38.683C-0.0751699 48.7109 0.204911 64.6995 10.2264 74.3925C20.2479 84.0786 36.2331 83.7984 45.913 73.7704L47.7301 75.5204Z" fill="#F2641A"/>
<path fill-rule="evenodd" clip-rule="evenodd" d="M38.6513 66.7502C32.8448 72.7656 23.2536 72.9365 17.2421 67.1262C11.2306 61.3159 11.0598 51.7186 16.8664 45.7032L18.6835 47.46C13.8401 52.4774 13.9836 60.4682 18.9978 65.3147C24.0119 70.1612 31.9977 70.0177 36.8411 65.0003L38.6513 66.7502Z" fill="#F2641A"/>
<path fill-rule="evenodd" clip-rule="evenodd" d="M83 28.0672L74.4609 38.9769L69.3033 36.5024L69.4058 35.4429L83 28.0672Z" fill="#F2641A"/>
<path fill-rule="evenodd" clip-rule="evenodd" d="M65.7579 45.9288L74.297 35.0259L79.4546 37.4936L79.3521 38.56L65.7579 45.9288Z" fill="#F2641A"/>
<path fill-rule="evenodd" clip-rule="evenodd" d="M74.0169 34.2125C74.0169 34.2125 70.4988 34.855 69.4126 35.4429C68.3264 36.0308 68.989 36.352 69.3101 36.5024C69.6312 36.6597 72.999 35.9624 72.999 35.9624L74.0169 34.2125Z" fill="#F2641A"/>
<path fill-rule="evenodd" clip-rule="evenodd" d="M74.7478 39.7835C74.7478 39.7835 78.2659 39.141 79.3521 38.5531C80.4383 37.9653 79.7756 37.644 79.4546 37.4936C79.1335 37.3364 75.7657 38.0336 75.7657 38.0336L74.7478 39.7835Z" fill="#F2641A"/>
<path fill-rule="evenodd" clip-rule="evenodd" d="M53.9534 0L45.4143 10.9097L40.2567 8.43521L40.3592 7.37568L53.9534 0Z" fill="#F2641A"/>
<path fill-rule="evenodd" clip-rule="evenodd" d="M36.7113 17.8616L45.2504 6.95188L50.408 9.42639L50.3055 10.4859L36.7113 17.8616Z" fill="#F2641A"/>
<path fill-rule="evenodd" clip-rule="evenodd" d="M44.9703 6.14522C44.9703 6.14522 41.4522 6.78778 40.366 7.37564C39.2798 7.96351 39.9425 8.28479 40.2635 8.43517C40.5846 8.59239 43.9524 7.89515 43.9524 7.89515L44.9703 6.14522Z" fill="#F2641A"/>
<path fill-rule="evenodd" clip-rule="evenodd" d="M45.7012 11.7163C45.7012 11.7163 49.2193 11.0738 50.3055 10.4859C51.3917 9.89805 50.729 9.57677 50.408 9.42639C50.0869 9.26917 46.7191 9.96641 46.7191 9.96641L45.7012 11.7163Z" fill="#F2641A"/>
<path d="M16.3824 28.0208L7.78763 36.9262L9.60108 38.6775L18.1955 29.773L16.3824 28.0208Z" fill="#F2641A"/>
<path d="M45.4343 56.0864L36.841 64.9921L38.6545 66.7442L47.2477 57.8384L45.4343 56.0864Z" fill="#F2641A"/>
<path d="M25.4651 36.7944L16.8706 45.6989L18.6838 47.4512L27.2782 38.5467L25.4651 36.7944Z" fill="#F2641A"/>
<path d="M54.5112 64.8627L45.9168 73.7672L47.7301 75.5204L56.3244 66.615L54.5112 64.8627Z" fill="#F2641A"/>
<path d="M17.2571 27.1166L15.506 28.9309L26.3997 39.4589L28.1509 37.6445L17.2571 27.1166Z" fill="#F2641A"/>
<path d="M20.7648 23.487L19.0136 25.3014L29.9074 35.8293L31.6585 34.015L20.7648 23.487Z" fill="#F2641A"/>
<path fill-rule="evenodd" clip-rule="evenodd" d="M28.6708 17.1028L37.7496 25.873C38.2483 26.3583 38.262 27.1581 37.7838 27.6571C37.2987 28.1561 36.4995 28.1697 36.0008 27.6912L26.922 18.9211C26.4233 18.4358 26.4097 17.636 26.8879 17.137C27.3729 16.638 28.1721 16.6243 28.6708 17.1028Z" fill="#F2641A"/>
<path d="M46.3032 55.1868L44.552 57.0011L55.4458 67.5291L57.1969 65.7147L46.3032 55.1868Z" fill="#F2641A"/>
<path d="M49.8108 51.5568L48.0597 53.3712L58.9534 63.8991L60.7046 62.0848L49.8108 51.5568Z" fill="#F2641A"/>
<path fill-rule="evenodd" clip-rule="evenodd" d="M57.7243 45.17L66.803 53.9402C67.3017 54.4255 67.3154 55.2253 66.8372 55.7243C66.3522 56.2233 65.5529 56.237 65.0542 55.7585L55.9686 46.9883C55.4699 46.503 55.4563 45.7032 55.9345 45.2042C56.4195 44.7052 57.2188 44.6915 57.7243 45.17Z" fill="#F2641A"/>
<path d="M26.888 17.1391L19.8881 24.3915L21.7013 26.1438L28.7011 18.8914L26.888 17.1391Z" fill="#F2641A"/>
<path d="M55.9341 45.2097L48.9342 52.4621L50.7473 54.2144L57.7472 46.962L55.9341 45.2097Z" fill="#F2641A"/>
<path d="M35.9654 25.9087L28.9655 33.1612L30.7787 34.9134L37.7786 27.661L35.9654 25.9087Z" fill="#F2641A"/>
<path d="M65.0114 53.978L58.0115 61.2304L59.8247 62.9827L66.8246 55.7303L65.0114 53.978Z" fill="#F2641A"/>
<path d="M27.7955 18.0198L20.7957 25.2722L29.8713 34.0432L36.8712 26.7907L27.7955 18.0198Z" fill="#F2641A"/>
<path d="M56.8416 46.0897L49.8417 53.3421L58.9174 62.113L65.9173 54.8606L56.8416 46.0897Z" fill="#F2641A"/>
</svg>
