<svg width="22" height="22" viewBox="0 0 22 22" fill="none" xmlns="http://www.w3.org/2000/svg">
<path d="M6.11111 0C4.49034 0 2.93596 0.643847 1.78991 1.78991C0.643847 2.93596 0 4.49034 0 6.11111V15.8889C0 17.5097 0.643847 19.064 1.78991 20.2101C2.93596 21.3562 4.49034 22 6.11111 22H15.8889C17.5097 22 19.064 21.3562 20.2101 20.2101C21.3562 19.064 22 17.5097 22 15.8889V6.11111C22 4.49034 21.3562 2.93596 20.2101 1.78991C19.064 0.643847 17.5097 0 15.8889 0H6.11111ZM18.3334 2.44445C19.0055 2.44445 19.5555 2.99445 19.5555 3.66666C19.5555 4.33889 19.0055 4.88889 18.3334 4.88889C17.6611 4.88889 17.1111 4.33889 17.1111 3.66666C17.1111 2.99445 17.6611 2.44445 18.3334 2.44445ZM11 4.88889C12.6208 4.88889 14.1752 5.53274 15.3212 6.67879C16.4673 7.82485 17.1111 9.37922 17.1111 11C17.1111 12.6208 16.4673 14.1752 15.3212 15.3212C14.1752 16.4673 12.6208 17.1111 11 17.1111C9.37922 17.1111 7.82485 16.4673 6.67879 15.3212C5.53274 14.1752 4.88889 12.6208 4.88889 11C4.88889 9.37922 5.53274 7.82485 6.67879 6.67879C7.82485 5.53274 9.37922 4.88889 11 4.88889ZM11 7.33336C10.5183 7.33349 10.0414 7.42851 9.59647 7.61303C9.15152 7.79749 8.74727 8.06781 8.40675 8.40847C8.0663 8.74919 7.79625 9.15365 7.61207 9.59874C7.42789 10.0438 7.33315 10.5207 7.33336 11.0025C7.33349 11.4841 7.42851 11.9611 7.61303 12.406C7.79749 12.851 8.06781 13.2552 8.40847 13.5957C8.74919 13.9362 9.15365 14.2062 9.59874 14.3904C10.0438 14.5746 10.5207 14.6693 11.0025 14.6691C11.9752 14.6688 12.908 14.2821 13.5957 13.5939C14.2833 12.9059 14.6695 11.9728 14.6691 11C14.6688 10.0272 14.2821 9.09439 13.5939 8.40675C12.9059 7.71911 11.9728 7.33301 11 7.33336Z" fill="#9D9EBF"/>
</svg>
