<svg width="34" height="23" fill="none" xmlns="http://www.w3.org/2000/svg"><path d="M5.967 23c6.228-1.752 12.267-8.82 10.205-16.638C15.046 2.14 11.376-.422 7.268.057 3.393.507.25 3.921.016 7.89c-.249 4.208 2.427 7.892 6.448 8.805.877.195 1.798.18 2.836.27C9.213 19.48 7.867 21.338 5.967 23zm17.574-.06c6.375-1.827 10.79-8.027 10.44-14.526C33.745 4.146 30.748.64 26.845.087c-3.86-.554-7.617 1.797-8.918 5.586-1.96 5.706 2.354 11.591 8.26 11.247.161-.015.337 0 .615 0-.22 2.516-1.433 4.433-3.26 6.02z" fill="#C7C7D5"/></svg>