<svg width="26" height="28" fill="none" xmlns="http://www.w3.org/2000/svg"><path d="M25.62 9.882a9.81 9.81 0 0 0-2.902-6.98A9.813 9.813 0 0 0 15.738 0H9.882a9.812 9.812 0 0 0-6.98 2.902A9.813 9.813 0 0 0 0 9.882v4.603c0 2.037.621 3.996 1.797 5.666a9.916 9.916 0 0 0 4.057 3.353v2.644c0 1.367.765 1.852 1.42 1.852.469 0 .937-.231 1.393-.687l2.946-2.945h4.125a9.813 9.813 0 0 0 6.98-2.902 9.813 9.813 0 0 0 2.902-6.98V9.881zm-9.882 12.845h-4.465a.82.82 0 0 0-.58.24l-3.186 3.186-.012.012v-3.208a.82.82 0 0 0-.528-.767C3.78 20.975 1.64 17.878 1.64 14.485V9.882c0-2.191.86-4.258 2.421-5.82a8.183 8.183 0 0 1 5.82-2.421h5.856c2.191 0 4.258.86 5.82 2.421a8.182 8.182 0 0 1 2.422 5.82v4.603c0 4.545-3.698 8.242-8.242 8.242z" fill="#9D9EBF"/><path d="M13.01 3.629a.82.82 0 1 0 0 1.64 6.98 6.98 0 0 1 4.97 2.06 6.982 6.982 0 0 1 2.058 4.969.82.82 0 0 0 1.64 0 8.612 8.612 0 0 0-2.539-6.13 8.612 8.612 0 0 0-6.13-2.54z" fill="#9D9EBF"/><path d="M16.523 12.298a.82.82 0 0 0 1.641 0 5.16 5.16 0 0 0-5.155-5.155.82.82 0 1 0 0 1.64 3.518 3.518 0 0 1 3.514 3.515zm-8.439-4.12l-.565.016c-.197.006-.515.095-.776.42-.261.327-1.002 1.119-.957 2.684.045 1.566 1.146 3.048 1.3 3.257.154.208 2.143 3.469 5.18 4.658 2.523.988 3.024.763 3.563.694.54-.068 1.725-.82 1.95-1.57.224-.75.206-1.386.128-1.517-.078-.13-.277-.205-.576-.355-.3-.151-1.77-.892-2.043-.99-.273-.1-.472-.146-.66.178-.187.324-.745 1.076-.912 1.293-.165.218-.337.25-.637.099s-1.25-.466-2.409-1.518c-.901-.818-1.541-1.877-1.723-2.19-.18-.313-.032-.49.111-.653.129-.146.302-.346.445-.536.142-.19.18-.324.272-.54.093-.215.038-.399-.04-.556-.079-.157-.69-1.714-.97-2.336-.237-.524-.47-.535-.68-.538z" fill="#9D9EBF"/></svg>