<svg width="75" height="90" fill="none" xmlns="http://www.w3.org/2000/svg"><path d="M17.3 28.3c.1 3 .8 6.1 2.3 9.9 3.6 9.2 10.1 14.7 17.5 14.7 11 0 19.9-11.4 19.9-25.5v-1.2c.5-2.4 1-4.1 1-6 0-5.6-2-10.8-5.5-14.5C48.8 2 43.6 0 37.9 0c-6.2 0-9.8 2.8-11.2 4H26c-1.5 0-4.4.4-7.3 4.1-2.2 2.8-3.5 7.1-3.5 11.7 0 2.7.7 5.8 2 8.2l.1.3zm19.8 21.9c-6.2 0-11.8-4.8-14.9-13-1.2-3.2-2.1-6-2.2-8.4h1.6l.7 4.9c.1.7.7 1.2 1.4 1.2h9.4c.7 0 1.3-.5 1.4-1.2l.7-4.7h3.1l.7 4.7c.1.7.7 1.2 1.4 1.2h9.4c.7 0 1.3-.5 1.4-1.2l.7-4.7 2.5-.2.2.3C53.5 40.7 46 50.2 37.1 50.2zm2-25.1c-.4 0-.8.2-1 .5l-.3.6h-2.5c-.1-.2-.1-.4-.3-.6-.3-.3-.6-.5-1-.5H22.5c-.4 0-.8.2-1 .5-.2.2-.3.4-.3.6H20c.7-3.2 2.5-10.5 7.9-11.3.6-.1 1.2-.1 1.7-.1 2.1 0 2.9.7 4.4 2 1.5 1.3 3.6 3.1 7.8 4.5 4.2 1.4 7.9 1.6 9.6 1.7l1.5 3.2-1 .1c0-.3-.1-.5-.3-.7-.3-.3-.6-.5-1-.5H39.1zm9.9 2.8l-.6 4.2h-7l-.6-4.2H49zm-16.6 0l-.6 4.2h-7l-.6-4.2h8.2zM20.8 9.8c3.1-4 5.9-3.2 5.9-3.2l.9.3.6-.7c.1-.1 3.2-3.4 9.7-3.4 5 0 9.4 1.6 12.5 4.9 3.1 3.2 4.8 7.6 4.8 12.5 0 1.2-.1 2.5-.4 3.8l-1.7-3.7H52c-.8 0-4.8 0-9.4-1.5-3.7-1.2-5.4-2.7-6.8-4-1.6-1.4-3.1-2.7-6.2-2.7-.7 0-1.3.1-2.1.2-5.5.8-8.1 6.2-9.4 10.2-.2-.8-.3-1.8-.3-2.7.1-3.9 1.2-7.7 3-10zm14.5 65.4c1.8 2.3 2.3 2.6 2.3 2.6s1-.8 2.6-3.1 1.8-3 1.8-3l-3.1-9.4 2.1-2.1-1.8-5.2h-3.3L34 60.3l2 2.1-2.8 9.4c0-.1.4 1.1 2.1 3.4zm39.6 7.1c0-.2 0-4.3-.6-9.8v-.1c-.6-5.3-1.1-10-7-14.1-5.6-3.9-14.1-5.8-14.5-5.9L51 52l.1 1.8c0 .1.3 7.3-5 16.1-3.9 6.4-7.1 10-8.6 11.5-1.5-1.5-4.6-5.1-8.5-11.5-5.3-8.7-5.1-16.1-5.1-16.2l.1-1.8-1.7.4c-.4.1-8.8 2-14.4 6-6.1 4.3-6.6 9.1-7.2 14.2C0 78 0 82.2 0 82.4v.5l.3.4c.5.7 6 6.6 37.2 6.6 31.2 0 36.6-5.9 37.2-6.6l.3-.4-.1-.6zM37.5 87c-26 0-33.3-4.2-34.7-5.3 0-1.3.1-4.8.6-8.9.6-5.5 1.1-8.8 6-12.3 3.8-2.6 9.1-4.4 11.8-5.1.2 2.9 1.2 9 5.5 15.9 5.7 9.3 9.8 12.9 9.9 13l.9.8.9-.7c.2-.1 4.4-3.7 10.1-13.1 4.2-6.9 5.2-12.9 5.4-15.8 2.7.7 8.1 2.4 11.8 5 4.9 3.4 5.3 6.9 5.8 12.2v.1c.5 4.1.5 7.5.6 8.9-1.5 1.2-8.8 5.3-34.6 5.3z" fill="#F2641A"/></svg>