<svg width="80" height="74" fill="none" xmlns="http://www.w3.org/2000/svg"><path d="M57.7 19.7v-9.5h-4V0H0v12.9h3.9v8.2h-3v13.6l9 .1V44h-9v13.8h5v10h28.9v-.3c4.7 4 10.8 6.3 17.5 6.3 15.1 0 27.4-12.3 27.4-27.4-.2-13.1-9.6-24.2-22-26.7zM55 12.9v6.4c-.9-.1-1.9-.1-2.8-.1-3.7 0-7.3.8-10.6 2.1V21H6.7v-8.2H55v.1zm-52.2-3V2.8H51v7.4H6.7v-.3H2.8zm.8 22.2v-8.2h3.1v-.1h30.2c-3.2 2.2-6 5-8 8.4H3.6v-.1zm23.8 2.7c-1.4 2.9-2.2 6-2.5 9.3H12.5v-9.3h14.9zM3.7 55v-8.3h6.7v.1h14.4c0 2.9.5 5.6 1.4 8.2H3.7zm4.9 10v-7.3h18.7c1.2 2.7 2.9 5.1 4.8 7.3H8.6zm26.2-1.2c-4.5-4.5-7.2-10.6-7.2-17.4 0-13.6 11-24.6 24.6-24.6 6.8 0 12.9 2.8 17.4 7.2l-2.2 2.2c-3.9-3.9-9.2-6.3-15.1-6.3-11.8 0-21.4 9.6-21.4 21.4 0 5.9 2.4 11.2 6.3 15.1l-2.4 2.4zM52.2 65C42 65 33.6 56.6 33.6 46.3c0-10.3 8.4-18.6 18.6-18.6 10.3 0 18.6 8.4 18.6 18.6.1 10.3-8.3 18.7-18.6 18.7zm1.1-20.8c-3.1-1.2-4.4-2-4.4-3.6 0-1.3 1-2.8 3.7-2.8 2.2 0 3.7.7 4.4 1.1l.9-2.1c-1.1-.5-2.3-1.1-4.4-1.1v-3.5H51v3.6c-3.2.5-5.1 2.5-5.1 5.1 0 2.8 2.2 4.3 5.8 5.6 2.6 1 4 2 4 3.8 0 1.8-1.7 2.9-4.2 2.9-2 0-3.7-.5-4.9-1.3l-.8 2.2c1.2.8 3.2 1.4 5.2 1.4v3.2h2.4v-3.3c3.6-.5 5.4-2.9 5.4-5.4-.1-2.9-1.9-4.5-5.5-5.8z" fill="#F2641A"/></svg>