<svg width="71" height="76" fill="none" xmlns="http://www.w3.org/2000/svg"><path d="M43.9 66h8v-8h-8v8zm-15-66h-3v11h3V0zm-7 66h8v-8h-8v8zm39-66h-3v11h3V0zm-16 0h-3v11h3V0zm-12 66h8v-8h-8v8zM0 75.9h70.8V27.1H0v48.8zm2.8-46H68v43.3H2.8V29.9zM54.9 44h8v-8h-8v8zm-11 11h8v-8h-8v8zm19-47.9V11c0 1.1-.9 2-2 2h-3c-1.1 0-2-.9-2-2V7.1h-9V11c0 1.1-.9 2-2 2h-3c-1.1 0-2-.9-2-2V7.1h-9V11c0 1.1-.9 2-2 2h-3c-1.1 0-2-.9-2-2V7.1h-9V11c0 1.1-.9 2-2 2h-3c-1.1 0-2-.9-2-2V7.1H0v16.8h70.8V7.1h-7.9zm-8 47.9h8v-8h-8v8zm0 11h8v-8h-8v8zm-42-66h-3v11h3V0z" fill="#F2641A"/></svg>