<svg width="75" height="90" viewBox="0 0 75 90" fill="none" xmlns="http://www.w3.org/2000/svg">
<path d="M17.3 28.3C17.4 31.3 18.1 34.4 19.6 38.2C23.2 47.4 29.7 52.9 37.1 52.9C48.1 52.9 57 41.5 57 27.4V26.2C57.5 23.8 58 22.1 58 20.2C58 14.6 56 9.4 52.5 5.7C48.8 2 43.6 0 37.9 0C31.7 0 28.1 2.8 26.7 4C26.5 4 26.2 4 26 4C24.5 4 21.6 4.4 18.7 8.1C16.5 10.9 15.2 15.2 15.2 19.8C15.2 22.5 15.9 25.6 17.2 28L17.3 28.3ZM37.1 50.2C30.9 50.2 25.3 45.4 22.2 37.2C21 34 20.1 31.2 20 28.8H21.6L22.3 33.7C22.4 34.4 23 34.9 23.7 34.9H33.1C33.8 34.9 34.4 34.4 34.5 33.7L35.2 29H38.3L39 33.7C39.1 34.4 39.7 34.9 40.4 34.9H49.8C50.5 34.9 51.1 34.4 51.2 33.7L51.9 29L54.4 28.8L54.6 29.1C53.5 40.7 46 50.2 37.1 50.2ZM39.1 25.1C38.7 25.1 38.3 25.3 38.1 25.6C38 25.8 37.9 26 37.8 26.2H35.3C35.2 26 35.2 25.8 35 25.6C34.7 25.3 34.4 25.1 34 25.1H22.5C22.1 25.1 21.7 25.3 21.5 25.6C21.3 25.8 21.2 26 21.2 26.2H20C20.7 23 22.5 15.7 27.9 14.9C28.5 14.8 29.1 14.8 29.6 14.8C31.7 14.8 32.5 15.5 34 16.8C35.5 18.1 37.6 19.9 41.8 21.3C46 22.7 49.7 22.9 51.4 23L52.9 26.2L51.9 26.3C51.9 26 51.8 25.8 51.6 25.6C51.3 25.3 51 25.1 50.6 25.1H39.1ZM49 27.9L48.4 32.1H41.4L40.8 27.9H49ZM32.4 27.9L31.8 32.1H24.8L24.2 27.9H32.4ZM20.8 9.8C23.9 5.8 26.7 6.6 26.7 6.6L27.6 6.9L28.2 6.2C28.3 6.1 31.4 2.8 37.9 2.8C42.9 2.8 47.3 4.4 50.4 7.7C53.5 10.9 55.2 15.3 55.2 20.2C55.2 21.4 55.1 22.7 54.8 24L53.1 20.3H52C51.2 20.3 47.2 20.3 42.6 18.8C38.9 17.6 37.2 16.1 35.8 14.8C34.2 13.4 32.7 12.1 29.6 12.1C28.9 12.1 28.3 12.2 27.5 12.3C22 13.1 19.4 18.5 18.1 22.5C17.9 21.7 17.8 20.7 17.8 19.8C17.9 15.9 19 12.1 20.8 9.8ZM35.3 75.2C37.1 77.5 37.6 77.8 37.6 77.8C37.6 77.8 38.6 77 40.2 74.7C41.8 72.4 42 71.7 42 71.7L38.9 62.3L41 60.2L39.2 55H35.9L34 60.3L36 62.4L33.2 71.8C33.2 71.7 33.6 72.9 35.3 75.2ZM74.9 82.3C74.9 82.1 74.9 78 74.3 72.5V72.4C73.7 67.1 73.2 62.4 67.3 58.3C61.7 54.4 53.2 52.5 52.8 52.4L51 52L51.1 53.8C51.1 53.9 51.4 61.1 46.1 69.9C42.2 76.3 39 79.9 37.5 81.4C36 79.9 32.9 76.3 29 69.9C23.7 61.2 23.9 53.8 23.9 53.7L24 51.9L22.3 52.3C21.9 52.4 13.5 54.3 7.9 58.3C1.8 62.6 1.3 67.4 0.7 72.5C0 78 0 82.2 0 82.4V82.9L0.3 83.3C0.8 84 6.3 89.9 37.5 89.9C68.7 89.9 74.1 84 74.7 83.3L75 82.9L74.9 82.3ZM37.5 87C11.5 87 4.2 82.8 2.8 81.7C2.8 80.4 2.9 76.9 3.4 72.8C4 67.3 4.5 64 9.4 60.5C13.2 57.9 18.5 56.1 21.2 55.4C21.4 58.3 22.4 64.4 26.7 71.3C32.4 80.6 36.5 84.2 36.6 84.3L37.5 85.1L38.4 84.4C38.6 84.3 42.8 80.7 48.5 71.3C52.7 64.4 53.7 58.4 53.9 55.5C56.6 56.2 62 57.9 65.7 60.5C70.6 63.9 71 67.4 71.5 72.7V72.8C72 76.9 72 80.3 72.1 81.7C70.6 82.9 63.3 87 37.5 87Z" fill="#F2641A"/>
</svg>
