<svg width="83" height="84" fill="none" xmlns="http://www.w3.org/2000/svg"><path d="M42.2 19.1c-12.9 0-23.3 10.5-23.3 23.3 0 12.9 10.5 23.3 23.3 23.3 12.9 0 23.3-10.5 23.3-23.3S55 19.1 42.2 19.1zm0 43.9c-11.4 0-20.6-9.2-20.6-20.6 0-11.4 9.2-20.6 20.6-20.6 11.4 0 20.6 9.2 20.6 20.6 0 11.4-9.3 20.6-20.6 20.6zm34.1-20.7c0-1.4-.1-2.9-.3-4.3l6.8-5.5-2.3-7.1-8.9-.4c-1.2-2.1-2.7-4.1-4.4-5.9l2.4-8.9-6.1-4.4-7.8 5.1c-2-.9-4.1-1.6-6.3-2L45.6 0h-7.4l-3.8 8.9c-2 .4-3.9 1.1-5.8 1.9l-8.3-5-6 4.4 2.2 9.4c-1.4 1.6-2.6 3.2-3.7 5l-9.5.8-2.3 7 7 6.1c-.1 1.3-.2 2.5-.2 3.8 0 1 0 1.9.1 2.9l-7 6 2.3 7 8.9.8c1.2 2.1 2.6 4 4.1 5.8l-2 8.6 6 4.4 7.4-4.5c2.4 1.1 4.9 1.9 7.5 2.4l3 7.8h7.5l2.9-7.8c2.7-.5 5.4-1.4 7.9-2.6l7 4.6 6.1-4.4-2.2-8.1c1.8-2 3.4-4.3 4.8-6.6l8.4-.4 2.3-7.1-6.7-5.4c.1-1.1.2-2.2.2-3.4zM42.1 69c-4.3 0-8.3-1-11.9-2.8L27 70.7l-6.4 3.9-3-2.2 1.9-8.2-.5-.5c-1.8-2-3.3-4.1-4.6-6.5l-.4-.7-8.6-.7-1.2-3.6 6.7-5.8-.1-.7c-.1-1.1-.2-2.2-.2-3.3 0-1.3.1-2.7.3-4.1l.1-.7-6.8-5.9L5.3 28l8.1-.7.8.3.6-1c1.2-2.1 2.6-4 4.3-5.7l.8-.8-.6-.8-1.8-7.9 3-2.2 6.9 4.2.6.8 1-.5c2.2-1 4.4-1.7 6.7-2.2l1.1-.2v-1L40 2.8h3.8l3.2 7.5v1l1.1.2c2.5.5 4.9 1.3 7.1 2.3l.7.3 7.5-4.9 3 2.2-1.9 6.9-3.7 5.2c4.9 4.8 7.9 11.5 7.9 18.9C68.7 57 56.8 69 42.1 69zm1.7-28.3c-3.2-1.2-4.5-2.1-4.5-3.8 0-1.4 1.1-2.9 3.9-2.9 2.3 0 3.8.8 4.6 1.2l.9-2.2c-1.1-.6-2.7-1.1-4.8-1.2V29h-2.6v2.9c-3.3.5-5 2.6-5 5.4 0 2.9 2.3 4.5 6 5.9 2.7 1 4.1 2.2 4.1 4 0 1.9-1.7 3.3-4.3 3.3-2 0-3.9-.7-5.2-1.4l-.9 2.3c1.3.8 3 1.4 5.1 1.5V56h2.7v-3.2c3.7-.5 5.7-3 5.7-5.7-.1-3.2-2-4.9-5.7-6.4z" fill="#F2641A"/></svg>