<svg width="71" height="76" viewBox="0 0 71 76" fill="none" xmlns="http://www.w3.org/2000/svg">
<path d="M43.9 66H51.9V58H43.9V66ZM28.9 0H25.9V11H28.9V0ZM21.9 66H29.9V58H21.9V66ZM60.9 0H57.9V11H60.9V0ZM44.9 0H41.9V11H44.9V0ZM32.9 66H40.9V58H32.9V66ZM0 75.9H70.8V27.1H0V75.9ZM2.8 29.9H68V73.2H2.8V29.9ZM54.9 44H62.9V36H54.9V44ZM43.9 55H51.9V47H43.9V55ZM62.9 7.1V11C62.9 12.1 62 13 60.9 13H57.9C56.8 13 55.9 12.1 55.9 11V7.1H46.9V11C46.9 12.1 46 13 44.9 13H41.9C40.8 13 39.9 12.1 39.9 11V7.1H30.9V11C30.9 12.1 30 13 28.9 13H25.9C24.8 13 23.9 12.1 23.9 11V7.1H14.9V11C14.9 12.1 14 13 12.9 13H9.9C8.8 13 7.9 12.1 7.9 11V7.1H0V23.9H70.8V7.1H62.9ZM54.9 55H62.9V47H54.9V55ZM54.9 66H62.9V58H54.9V66ZM12.9 0H9.9V11H12.9V0Z" fill="#F2641A"/>
</svg>
