<svg width="30" height="20" viewBox="0 0 30 20" fill="none" xmlns="http://www.w3.org/2000/svg">
<path d="M29.3986 3.12952C29.0644 1.90578 28.0849 0.941123 26.8427 0.611608C24.5733 0 15.4958 0 15.4958 0C15.4958 0 6.41856 0 4.14921 0.58842C2.93091 0.917586 1.92748 1.90596 1.5933 3.12952C0.996094 5.36465 0.996094 10 0.996094 10C0.996094 10 0.996094 14.6587 1.5933 16.8705C1.92783 18.094 2.90701 19.0587 4.14939 19.3882C6.44245 20 15.4961 20 15.4961 20C15.4961 20 24.5733 20 26.8427 19.4116C28.0851 19.0822 29.0644 18.1176 29.3989 16.894C29.996 14.6587 29.996 10.0235 29.996 10.0235C29.996 10.0235 30.0199 5.36465 29.3986 3.12952ZM12.6057 14.2823V5.7177L20.1541 10L12.6057 14.2823Z" fill="#9D9EBF"/>
</svg>
