<svg width="26" height="22" viewBox="0 0 26 22" fill="none" xmlns="http://www.w3.org/2000/svg">
<path d="M23 18.9C23 19.5 22.5 20 21.9 20H2.9C2.3 20 1.8 19.5 1.8 18.9V2.9C1.8 2.3 2.3 1.8 2.9 1.8H21.9C22.5 1.8 23 2.3 23 2.9V4.9H24.8V2.9C24.8 1.3 23.5 0 21.9 0H2.9C1.3 0 0 1.3 0 2.9V18.9C0 20.5 1.3 21.8 2.9 21.8H21.9C23.5 21.8 24.8 20.5 24.8 18.9V16.9H23V18.9ZM24.9 7.1H18C15.9 7.1 15.1 8.3 15.1 9.5V12.5C15.1 13.6 15.9 14.9 18 14.9H24.9C25.4 14.9 25.8 14.5 25.8 14V8C25.8 7.5 25.4 7.1 24.9 7.1ZM24 13.1H18C16.9 13.1 16.9 12.7 16.9 12.5V9.5C16.9 9.3 16.9 8.9 18 8.9H24V13.1ZM17.9 11.9H19.9V9.9H17.9V11.9Z" fill="#9D9EBF"/>
</svg>
