<svg width="34" height="23" viewBox="0 0 34 23" fill="none" xmlns="http://www.w3.org/2000/svg">
<path d="M5.9667 23C12.1952 21.2479 18.2337 14.1794 16.1721 6.36209C15.0463 2.13896 11.3765 -0.42187 7.26797 0.0573499C3.39341 0.506618 0.249904 3.92106 0.0159688 7.8896C-0.232588 12.0977 2.44305 15.7818 6.46382 16.6953C7.34108 16.8899 8.2622 16.875 9.30029 16.9648C9.21256 19.4807 7.86743 21.3377 5.9667 23Z" fill="#C7C7D5"/>
<path d="M23.5411 22.9401C29.9159 21.1131 34.3314 14.9132 33.9805 8.41374C33.7465 4.14569 30.7493 0.641399 26.8455 0.0873011C22.9855 -0.466797 19.2279 1.88438 17.9267 5.67321C15.9674 11.3789 20.2806 17.2643 26.1875 16.9199C26.3483 16.9049 26.5238 16.9199 26.8016 16.9199C26.5823 19.4358 25.3687 21.3527 23.5411 22.9401Z" fill="#C7C7D5"/>
</svg>
