<svg width="83" height="84" viewBox="0 0 83 84" fill="none" xmlns="http://www.w3.org/2000/svg">
<path d="M42.2 19.1C29.3 19.1 18.9 29.6 18.9 42.4C18.9 55.3 29.4 65.7 42.2 65.7C55.1 65.7 65.5 55.2 65.5 42.4C65.5 29.6 55 19.1 42.2 19.1ZM42.2 63C30.8 63 21.6 53.8 21.6 42.4C21.6 31 30.8 21.8 42.2 21.8C53.6 21.8 62.8 31 62.8 42.4C62.8 53.8 53.5 63 42.2 63ZM76.3 42.3C76.3 40.9 76.2 39.4 76 38L82.8 32.5L80.5 25.4L71.6 25C70.4 22.9 68.9 20.9 67.2 19.1L69.6 10.2L63.5 5.8L55.7 10.9C53.7 10 51.6 9.3 49.4 8.9L45.6 0H38.2L34.4 8.9C32.4 9.3 30.5 10 28.6 10.8L20.3 5.8L14.3 10.2L16.5 19.6C15.1 21.2 13.9 22.8 12.8 24.6L3.30002 25.4L1.00002 32.4L8.00002 38.5C7.90002 39.8 7.80002 41 7.80002 42.3C7.80002 43.3 7.80002 44.2 7.90002 45.2L0.900024 51.2L3.20002 58.2L12.1 59C13.3 61.1 14.7 63 16.2 64.8L14.2 73.4L20.2 77.8L27.6 73.3C30 74.4 32.5 75.2 35.1 75.7L38.1 83.5H45.6L48.5 75.7C51.2 75.2 53.9 74.3 56.4 73.1L63.4 77.7L69.5 73.3L67.3 65.2C69.1 63.2 70.7 60.9 72.1 58.6L80.5 58.2L82.8 51.1L76.1 45.7C76.2 44.6 76.3 43.5 76.3 42.3ZM42.1 69C37.8 69 33.8 68 30.2 66.2L27 70.7L20.6 74.6L17.6 72.4L19.5 64.2L19 63.7C17.2 61.7 15.7 59.6 14.4 57.2L14 56.5L5.40002 55.8L4.20002 52.2L10.9 46.4L10.8 45.7C10.7 44.6 10.6 43.5 10.6 42.4C10.6 41.1 10.7 39.7 10.9 38.3L11 37.6L4.20002 31.7L5.30002 28L13.4 27.3L14.2 27.6L14.8 26.6C16 24.5 17.4 22.6 19.1 20.9L19.9 20.1L19.3 19.3L17.5 11.4L20.5 9.2L27.4 13.4L28 14.2L29 13.7C31.2 12.7 33.4 12 35.7 11.5L36.8 11.3V10.3L40 2.8H43.8L47 10.3V11.3L48.1 11.5C50.6 12 53 12.8 55.2 13.8L55.9 14.1L63.4 9.2L66.4 11.4L64.5 18.3L60.8 23.5C65.7 28.3 68.7 35 68.7 42.4C68.7 57 56.8 69 42.1 69ZM43.8 40.7C40.6 39.5 39.3 38.6 39.3 36.9C39.3 35.5 40.4 34 43.2 34C45.5 34 47 34.8 47.8 35.2L48.7 33C47.6 32.4 46 31.9 43.9 31.8V29H41.3V31.9C38 32.4 36.3 34.5 36.3 37.3C36.3 40.2 38.6 41.8 42.3 43.2C45 44.2 46.4 45.4 46.4 47.2C46.4 49.1 44.7 50.5 42.1 50.5C40.1 50.5 38.2 49.8 36.9 49.1L36 51.4C37.3 52.2 39 52.8 41.1 52.9V56H43.8V52.8C47.5 52.3 49.5 49.8 49.5 47.1C49.4 43.9 47.5 42.2 43.8 40.7Z" fill="#ffe81b"/>
</svg>
