<svg width="80" height="74" viewBox="0 0 80 74" fill="none" xmlns="http://www.w3.org/2000/svg">
<path d="M57.7 19.7V10.2H53.7V0H0V12.9H3.9V21.1H0.9V34.7L9.9 34.8V44H0.9V57.8H5.9V67.8H34.8V67.5C39.5 71.5 45.6 73.8 52.3 73.8C67.4 73.8 79.7 61.5 79.7 46.4C79.5 33.3 70.1 22.2 57.7 19.7ZM55 12.9V19.3C54.1 19.2 53.1 19.2 52.2 19.2C48.5 19.2 44.9 20 41.6 21.3V21H6.7V12.8H55V12.9ZM2.8 9.9V2.8H51V10.2H6.7V9.9H2.8ZM3.6 32.1V23.9H6.7V23.8H36.9C33.7 26 30.9 28.8 28.9 32.2H3.6V32.1ZM27.4 34.8C26 37.7 25.2 40.8 24.9 44.1H12.5V34.8H27.4ZM3.7 55V46.7H10.4V46.8H24.8C24.8 49.7 25.3 52.4 26.2 55H8.6H3.7ZM8.6 65V57.7H27.3C28.5 60.4 30.2 62.8 32.1 65H8.6ZM34.8 63.8C30.3 59.3 27.6 53.2 27.6 46.4C27.6 32.8 38.6 21.8 52.2 21.8C59 21.8 65.1 24.6 69.6 29L67.4 31.2C63.5 27.3 58.2 24.9 52.3 24.9C40.5 24.9 30.9 34.5 30.9 46.3C30.9 52.2 33.3 57.5 37.2 61.4L34.8 63.8ZM52.2 65C42 65 33.6 56.6 33.6 46.3C33.6 36 42 27.7 52.2 27.7C62.5 27.7 70.8 36.1 70.8 46.3C70.9 56.6 62.5 65 52.2 65ZM53.3 44.2C50.2 43 48.9 42.2 48.9 40.6C48.9 39.3 49.9 37.8 52.6 37.8C54.8 37.8 56.3 38.5 57 38.9L57.9 36.8C56.8 36.3 55.6 35.7 53.5 35.7V32.2H51V35.8C47.8 36.3 45.9 38.3 45.9 40.9C45.9 43.7 48.1 45.2 51.7 46.5C54.3 47.5 55.7 48.5 55.7 50.3C55.7 52.1 54 53.2 51.5 53.2C49.5 53.2 47.8 52.7 46.6 51.9L45.8 54.1C47 54.9 49 55.5 51 55.5V58.7H53.4V55.4C57 54.9 58.8 52.5 58.8 50C58.7 47.1 56.9 45.5 53.3 44.2Z" fill="#ffe81b"/>
</svg>
