<svg width="32" height="32" viewBox="0 0 32 32" fill="none" xmlns="http://www.w3.org/2000/svg">
<g clip-path="url(#clip0)">
<path d="M7.99992 2.66675C6.54091 2.66675 5.33325 3.87441 5.33325 5.33341V26.6667C5.33325 28.1258 6.54091 29.3334 7.99992 29.3334H15.9999V26.6667H7.99992V5.33341H17.3333V12.0001H24.6666H26.6666V10.6667L18.6666 2.66675H7.99992ZM19.9999 14.6667C19.2639 14.6667 18.6666 15.2641 18.6666 16.0001V30.6667C18.6666 31.4027 19.2639 32.0001 19.9999 32.0001H30.6666C31.4026 32.0001 31.9999 31.4027 31.9999 30.6667V16.0001C31.9999 15.2641 31.4026 14.6667 30.6666 14.6667H19.9999ZM21.3333 17.3334H29.3333V20.0001H21.3333V17.3334ZM22.6666 22.6667C23.4026 22.6667 23.9999 23.2641 23.9999 24.0001C23.9999 24.7361 23.4026 25.3334 22.6666 25.3334C21.9306 25.3334 21.3333 24.7361 21.3333 24.0001C21.3333 23.2641 21.9306 22.6667 22.6666 22.6667ZM27.9999 22.6667C28.7359 22.6667 29.3333 23.2641 29.3333 24.0001C29.3333 24.7361 28.7359 25.3334 27.9999 25.3334C27.2639 25.3334 26.6666 24.7361 26.6666 24.0001C26.6666 23.2641 27.2639 22.6667 27.9999 22.6667ZM22.6666 26.6667C23.4026 26.6667 23.9999 27.2641 23.9999 28.0001C23.9999 28.7361 23.4026 29.3334 22.6666 29.3334C21.9306 29.3334 21.3333 28.7361 21.3333 28.0001C21.3333 27.2641 21.9306 26.6667 22.6666 26.6667ZM27.9999 26.6667C28.7359 26.6667 29.3333 27.2641 29.3333 28.0001C29.3333 28.7361 28.7359 29.3334 27.9999 29.3334C27.2639 29.3334 26.6666 28.7361 26.6666 28.0001C26.6666 27.2641 27.2639 26.6667 27.9999 26.6667Z" fill="#232323"/>
</g>
<defs>
<clipPath id="clip0">
<rect width="32" height="32" fill="white"/>
</clipPath>
</defs>
</svg>
