<svg width="126" height="66" fill="none" xmlns="http://www.w3.org/2000/svg"><path fill-rule="evenodd" clip-rule="evenodd" d="M68.345 56.707c-6.561 0-10.011-3.877-8.596-9.895 2.277-9.818 8.412-16.592 17.91-20.13a10.399 10.399 0 0 1 7.423.107c.436.165.97.426 1.338.3 2.141-.756 2.733.737 3.237 2.22a7.24 7.24 0 0 1-2.433 7.598c-2.026 1.54-4.07.891-4.768-1.522-1.086-3.712-2.801-4.119-5.573-1.357a21.186 21.186 0 0 0-5.931 11.543c-.552 3.034 1.27 4.477 4.167 3.412a14.258 14.258 0 0 0 4.43-2.811 8.093 8.093 0 0 1 2.558-1.832c1.28-.436 2.113.116 2.19 1.435.165 2.907-3.46 7.326-6.406 7.966-1.715.368-3.101 1.6-4.846 2.103-1.516.514-3.1.805-4.7.863zm-48.497-11.02c-.087-3.062.64-7.249.747-11.474a3.062 3.062 0 0 0-1.037-2.811c-1.057-.863-.805-2.152.378-3.344 1.182-1.192 3.062-1.376 4.72-1.618a20.845 20.845 0 0 1 7.51.136c.805.174 1.59.465 1.716 1.502a1.996 1.996 0 0 1-.97 2.268c-2.49 1.037-2.645 3.207-2.83 5.388a357.39 357.39 0 0 0-.406 5.621c0 .33-.097.756.28.97.379.213.65-.195.854-.447a72.987 72.987 0 0 0 6.473-8.983 1.88 1.88 0 0 0 .068-1.861c-.794-1.793-.368-3.082 1.338-3.877a11.232 11.232 0 0 1 7.753-.436c1.745.485 2.248 2.132.814 3.16-8.18 5.94-12.366 15.215-19.063 22.377A17.665 17.665 0 0 1 24.025 56c-1.938 1.047-3.14.504-3.663-1.609-.62-2.48-.543-5-.514-8.703z" fill="#E91B27"/><path fill-rule="evenodd" clip-rule="evenodd" d="M59.254 5.72A25.634 25.634 0 0 1 70.642.427c3.08-.735 6.31-.52 9.265.62a12.715 12.715 0 0 1 5.379 3.818c.688.892 1.085 1.057 1.996.185 3.673-3.605 8.18-4.322 13.219-4.06 4.846.271 9.275 1.938 13.85 3.082 1.483.378 2.965.65 4.468.901.591.097 1.57.068 1.521.824-.058.969-1.066.669-1.715.678-5.389.097-10.787.146-16.156.62-7.908.737-13.636 4.614-17.183 11.727a3.275 3.275 0 0 1-.272.456c-.12.129-.25.249-.387.358C83.774 13.715 80.75 9.46 75.37 6.94a23.318 23.318 0 0 0-16.117-1.22z" fill="#1C3791"/><path fill-rule="evenodd" clip-rule="evenodd" d="M46.093 56.232a25.475 25.475 0 0 1-5.156-.504c-.91-.233-1.938-.369-2.113-1.541a2.336 2.336 0 0 1 1.115-2.598c3.421-1.22 4.11-4.41 5.447-7.133a119.328 119.328 0 0 0 4.845-11.503c.233-.64.436-1.163-.261-1.697-1.26-.969-1.309-1.938-.262-3.14a4.216 4.216 0 0 1 2.442-1.298 27.235 27.235 0 0 1 9.973 0c.97.174 2.151.33 2.268 1.58a2.413 2.413 0 0 1-1.793 2.636 4.264 4.264 0 0 0-2.791 2.675c-2.074 4.273-4.051 8.596-5.815 13.035-.61 1.57-1.502 3.14.242 4.787.97.97-.33 3.15-2.035 3.877-1.97.635-4.038.913-6.106.824zm56.502-29.492a19.304 19.304 0 0 1 4.39.35c.882.241 1.938.397 2.045 1.608a2.202 2.202 0 0 1-1.415 2.423c-2.307.717-2.966 2.675-3.877 4.497a137.943 137.943 0 0 0-5.475 12.764c-.427 1.172-.64 2.122.484 3.16 1.124 1.036.378 3.052-1.27 3.876a7.909 7.909 0 0 1-2.49.814 24.66 24.66 0 0 1-9.265-.204c-.97-.232-1.938-.581-2.18-1.744a2.22 2.22 0 0 1 1.346-2.627c2.695-.843 3.46-3.169 4.497-5.281a129.6 129.6 0 0 0 5.476-12.764c.33-.892.736-1.793-.582-2.326-.59-.243-.581-.834-.484-1.377a3.362 3.362 0 0 1 2.655-2.742 20.507 20.507 0 0 1 6.145-.427z" fill="#E91B27"/><path d="M100.676 15.692h-11.31a22.131 22.131 0 0 0-2.384 3.78h13.694c11.872 0 21.535 9.44 21.535 21.03 0 11.591-9.692 21.031-21.535 21.031H25.314c-11.872 0-21.534-9.44-21.534-21.03 0-11.592 9.691-21.031 21.534-21.031h57.5a16.602 16.602 0 0 0-1.066-3.78H25.314C11.358 15.692 0 26.818 0 40.502c0 13.685 11.358 24.81 25.314 24.81h75.372c13.955 0 25.314-11.125 25.314-24.81 0-13.684-11.368-24.81-25.324-24.81z" fill="#E91B27"/></svg>