<svg width="184" height="31" fill="none" xmlns="http://www.w3.org/2000/svg"><path d="M76.95 0h-31v31h31V0z" fill="#067F47"/><path d="M57.186 9.416l8.47-8.47h10.348v10.347l-8.47 8.47L57.186 9.416z" fill="#000"/><path d="M55.365 19.763l-8.47-8.47V.89h10.348l8.47 8.47-10.348 10.404z" fill="#fff"/><path d="M46.839 19.763v10.348h10.347l8.47-8.47-10.29-10.348-8.527 8.47zm9.881 9.063h-8.47v-8.47l7.228-7.228 8.47 8.47-7.228 7.228z" fill="#000"/><path d="M71.783 15.514l-.904.904 3.896 3.896v8.526H66.25l-7.228-7.227 5.181-5.195-.917-.904-6.099 6.099 8.527 8.526H76.06V19.79l-4.277-4.277z" fill="#fff"/><path d="M1.61 8.71h3.726v4.235h4.066V8.71h3.755v12.07H9.402v-4.885H5.336v4.885H1.61V8.71zm21.442 10.08h-4.235l-.593 1.99h-3.811l4.531-12.07h4.066l4.531 12.07H23.66l-.607-1.99zm-.776-2.612l-1.327-4.334-1.313 4.334h2.64zm19.326 7.227h-2.993V20.78h-9.882V8.71h3.741v9.105h4.094V8.71h3.727v9.289h1.298l.015 5.406zm50.65-2.414h-4.235l-1.412-3.12a5.491 5.491 0 0 0-.804-1.411 1.101 1.101 0 0 0-.791-.283v4.772h-3.727V8.922h3.727v4.63a1.014 1.014 0 0 0 .762-.339c.357-.58.641-1.2.847-1.85a5.406 5.406 0 0 1 .904-1.609c.383-.38.878-.627 1.411-.705.998-.17 2.01-.241 3.021-.212v2.54h-.183a2.273 2.273 0 0 0-1.412.368 2.57 2.57 0 0 0-.762 1.172 4 4 0 0 1-.664 1.2 2.357 2.357 0 0 1-.931.635c.54.175 1.026.486 1.411.903.515.611.942 1.29 1.27 2.019l1.568 3.317zm.918-6.028a6.227 6.227 0 0 1 1.651-4.601 6.198 6.198 0 0 1 4.588-1.652 6.312 6.312 0 0 1 4.644 1.623 6.096 6.096 0 0 1 1.624 4.532 7.432 7.432 0 0 1-.706 3.472 5.07 5.07 0 0 1-2.061 2.104 6.789 6.789 0 0 1-3.36.748 7.721 7.721 0 0 1-3.374-.65 5.083 5.083 0 0 1-2.174-2.06 6.832 6.832 0 0 1-.833-3.515zm3.726 0a4.037 4.037 0 0 0 .678 2.626 2.568 2.568 0 0 0 3.712 0 4.46 4.46 0 0 0 .664-2.823 3.729 3.729 0 0 0-.692-2.485 2.354 2.354 0 0 0-1.863-.79 2.274 2.274 0 0 0-1.807.805 4.065 4.065 0 0 0-.748 2.682l.056-.014zm10.743-6.041h3.741v4.235h4.08V8.922h3.74v12.07h-3.755v-4.885h-4.065v4.884h-3.741V8.921zm13.185 0h11.293V11.9h-3.755v9.091h-3.741v-9.09h-3.797V8.92zm13.001 0h6.197a4.234 4.234 0 0 1 3.035.96 3.609 3.609 0 0 1 1.003 2.738 3.729 3.729 0 0 1-1.101 2.824 4.76 4.76 0 0 1-3.36 1.03h-2.019v4.475h-3.755V8.922zm3.755 5.195h.918a2.342 2.342 0 0 0 1.51-.382 1.207 1.207 0 0 0 .438-1.03 1.414 1.414 0 0 0-.381-.96 1.963 1.963 0 0 0-1.412-.395h-1.059l-.014 2.767zM153.433 19h-4.235l-.593 1.991h-3.811l4.531-12.07h4.066l4.531 12.07h-3.91l-.579-1.99zm-.776-2.61l-1.327-4.335-1.313 4.334h2.64zm17.448 4.601h-4.235l-1.412-3.12a5.495 5.495 0 0 0-.805-1.411 1.099 1.099 0 0 0-.79-.283v4.772h-3.727V8.922h3.727v4.63a1.012 1.012 0 0 0 .762-.339c.357-.58.641-1.2.847-1.85a5.394 5.394 0 0 1 .847-1.623c.383-.38.878-.627 1.412-.705a15.28 15.28 0 0 1 3.021-.212v2.555h-.184a2.27 2.27 0 0 0-1.411.367 2.567 2.567 0 0 0-.763 1.172c-.14.438-.355.848-.635 1.214a2.35 2.35 0 0 1-.932.635 3.3 3.3 0 0 1 1.412.903c.515.611.942 1.29 1.271 2.019l1.595 3.303zm.48-12.069h11.293V11.9h-3.797v9.091h-3.727v-9.09h-3.797l.028-2.98z" fill="#000"/><path d="M42.688 24.746H0v1.356h42.688v-1.356zm0-19.848H0v1.356h42.688V4.898zm140.828 19.848H80.196v1.356h103.32v-1.356zm0-19.848H80.196v1.356h103.32V4.898z" fill="#067F47"/></svg>