<svg width="68" height="90" viewBox="0 0 68 90" fill="none" xmlns="http://www.w3.org/2000/svg">
<path d="M57.1776 74.9902V77.2886L60.7031 77.2573L57.1776 89H67.6496V86.9575H64.3437L67.8483 74.9902H57.1776Z" fill="#0D53A0"/>
<path d="M51.7532 74.9066H49.8597L43.8286 89.0104H45.5705L46.3446 87.2187H51.1935L51.8788 89.0104H57.1095L51.7532 74.9066ZM47.0455 85.4427L48.8449 81.1384L50.4612 85.4427H47.0455Z" fill="#0D53A0"/>
<path d="M35.7471 82.0316L32.9172 74.9066H27.9427V88.9895H29.6532V80.522L33.2624 88.9895H34.8735L38.6397 80.522V85.1345V88.9895H43.7658V74.9066H39.0738L35.7471 82.0316Z" fill="#0D53A0"/>
<path d="M22.3197 74.9066H20.2274L14.0394 89.0104H15.8754L16.6024 87.2344H21.6031L22.2883 88.9895H27.7231L22.3197 74.9066ZM17.2615 85.4427L19.1864 81.0026L20.9911 85.4427H17.2615Z" fill="#0D53A0"/>
<path d="M14.144 74.9066H11.4397L5.37723 79.7594V74.9066H0.219696V88.9895H5.31447V82.2771L5.69108 82.0682L8.45293 88.9895H13.8929L9.85477 78.5945L14.144 74.9066Z" fill="#0D53A0"/>
<path d="M68 70.0487H0V72.2478H68V70.0487Z" fill="#0D53A0"/>
<path d="M61.2418 21.4168C60.5775 21.4795 59.8609 21.5108 59.1495 21.5422C55.488 21.6675 51.6852 21.328 48.0394 21.1713C46.3584 21.0881 44.6756 21.2948 43.0649 21.7825C42.0482 22.1363 41.0601 22.5677 40.1095 23.0727C39.915 23.2117 39.6868 23.2962 39.4486 23.3173C39.2103 23.3384 38.9707 23.2955 38.7548 23.1928C38.2923 23.0241 37.8208 22.8811 37.3425 22.7645C36.2388 22.7645 34.8003 23.313 33.5554 23.2555C32.9748 23.2242 33.1421 23.0727 33.1683 22.4563C33.2258 19.949 33.4455 17.3998 33.6129 14.8925C33.6129 14.647 33.6129 14.4955 33.9738 14.4642C34.593 14.4669 35.2089 14.3735 35.7994 14.1873C36.4637 14.0045 37.1018 13.4247 37.7086 13.0851C38.8832 12.9615 40.0635 12.9004 41.2446 12.9023C41.6578 13.1792 41.8514 13.4247 42.3797 13.456C42.7036 13.4625 43.0178 13.3458 43.2587 13.1295C43.4996 12.9132 43.6491 12.6135 43.6769 12.2911C44.3151 12.2285 44.8957 11.4658 44.1477 11.189C43.5409 11.0323 42.3797 11.2203 42.0188 11.0949C40.7738 10.7867 41.9089 9.65322 42.5418 9.77859C43.0649 9.68979 43.7606 9.65322 44.4772 9.53308C45.3351 9.50173 45.8895 9.10474 45.2514 8.06524C44.9074 7.83451 44.6614 7.4846 44.5609 7.0832C44.3412 6.37801 44.3935 5.73551 43.1486 5.45865C40.8453 5.3047 38.5523 5.02218 36.2806 4.61243C35.0461 4.4296 34 4.33558 33.5188 4.30423C33.1317 4.30423 33.1317 4.45572 33.1578 4.03261C33.184 3.88112 33.184 3.75576 33.2154 3.63561V3.32742C33.2415 2.96177 33.3252 2.96177 32.9381 2.98788C32.7446 3.01922 32.4988 3.05057 32.1901 3.08191C31.8893 3.14046 31.5855 3.18231 31.28 3.20728C31.0314 3.23143 30.7817 3.24189 30.532 3.23862C30.2286 3.23862 30.2548 3.20728 30.2548 2.96177V0.235037C30.2548 -0.313443 30.0874 0.266379 30.0089 0.386522C29.8286 0.641082 29.6236 0.877285 29.3969 1.09171C29.1772 1.30588 28.9523 1.52005 28.7326 1.76556C28.5504 1.88609 28.4069 2.05659 28.3194 2.25658C28.1849 2.43285 28.1081 2.64629 28.0997 2.86774C27.9577 3.62941 27.6349 4.34595 27.1581 4.95719C25.9446 6.26831 24.7258 6.26832 23.6483 7.40184C23.7055 7.96862 23.6098 8.54036 23.3711 9.05773C23.0597 9.76383 22.6512 10.4231 22.1575 11.0166C21.6154 11.777 21.0156 12.4948 20.3634 13.1635C20.0826 13.4096 19.8883 13.7392 19.8089 14.1037C19.9467 14.1298 20.0778 14.1832 20.1944 14.2609C20.3111 14.3385 20.411 14.4388 20.4881 14.5558C20.5652 14.6727 20.6179 14.8039 20.6432 14.9416C20.6685 15.0794 20.6659 15.2207 20.6354 15.3574C20.4879 15.9499 20.1824 16.4915 19.7514 16.9245C19.448 19.4684 19.0034 22.1481 18.4228 24.7338C17.8421 27.3195 17.1255 29.9574 16.3305 32.2976C16.1631 33.7393 16.0532 35.2385 16.0271 36.7377C16.0009 37.8712 16.0009 38.942 16.0532 40.0442C16.0769 40.6902 16.1415 41.334 16.2468 41.9717C16.66 43.7791 17.2929 45.3723 18.7052 46.4432C19.2201 46.9074 19.6752 47.4338 20.06 48.0102C20.4806 48.6667 20.7883 49.3888 20.9701 50.1467C21.0307 50.816 21.2407 51.4633 21.5846 52.0409C21.9286 52.6186 22.3978 53.1119 22.9578 53.4846C23.8157 54.1898 24.8409 54.7696 25.8871 56.4882C26.4101 58.2067 27.2157 59.0007 28.8477 59.7373C30.0665 60.4425 31.4631 60.8708 32.3 61.9103C32.3837 62.2498 32.4674 62.5841 32.5458 62.8558C32.6401 63.136 32.8017 63.3889 33.0166 63.5923C33.2439 63.8722 33.5298 64.0991 33.8542 64.257C34.1786 64.4149 34.5336 64.5 34.8945 64.5064C36.4637 64.5691 37.8498 63.0072 37.2431 60.7402C36.5788 59.0843 35.3077 58.5358 33.9006 59.1731C34.1235 59.5786 34.3175 59.9993 34.4812 60.432C34.5911 60.6775 34.4812 60.735 34.2615 60.5835C33.5135 60.0611 32.3523 57.0001 32.1065 56.5404C31.8996 56.007 31.5904 55.519 31.1963 55.1039C30.9034 54.8638 30.5775 54.6668 30.2286 54.5189C30.0351 54.2107 28.8477 52.372 28.8477 51.9488C30.7132 52.9683 32.7601 53.6142 34.8735 53.8502C35.1684 54.4426 35.5187 55.0058 35.9197 55.5322C36.4162 56.0907 36.9624 56.603 37.5517 57.0628C38.3719 57.6978 39.0179 58.5298 39.4295 59.4813C39.6385 60.0142 39.9239 60.514 40.2769 60.9648C40.7288 61.4183 41.0612 61.9764 41.2446 62.5894C41.5305 63.7096 41.9066 64.8049 42.3692 65.8646C42.9662 65.9025 43.5646 65.8162 44.1264 65.6112C44.6883 65.4062 45.2014 65.0869 45.6332 64.6736C45.5443 65.034 45.5248 65.408 45.5757 65.7758C45.6594 66.1728 47.8145 66.0526 48.5886 65.9272L49.3105 70.033C51.4028 70.033 52.8465 69.7248 54.4523 67.9801C53.8978 66.9354 53.3172 65.9272 52.7628 64.9191C52.3836 64.0345 52.0707 63.1231 51.8265 62.1924C51.6661 61.7546 51.461 61.3345 51.2145 60.9387C50.9111 60.4198 50.6617 59.9915 50.4665 59.6537C50.0158 58.9732 49.7309 58.1968 49.6348 57.3866C49.4674 56.53 49.3575 55.6733 49.1901 54.8427C49.0336 53.9241 48.7167 53.04 48.2538 52.2309C47.2234 50.4449 46.7058 48.4098 46.7578 46.3491C46.5254 44.4872 46.1066 42.6533 45.5077 40.8748C45.3403 40.4151 45.1468 39.9868 44.9846 39.5584C44.7169 38.8639 44.5684 38.1293 44.5452 37.3854C44.9585 33.7289 44.3517 31.4409 43.248 28.103C44.4615 26.818 47.9557 28.7142 51.9834 28.8082C53.0295 28.7508 54.332 28.5314 54.8289 27.4292C54.6277 27.4041 54.4249 27.3936 54.2221 27.3978C53.7514 27.3978 53.6991 27.2464 53.6677 26.9382C53.5578 26.1442 57.4286 26.1442 58.9455 24.948C59.2724 24.7571 59.5166 24.4518 59.6308 24.0913C59.4558 24.0978 59.2806 24.0873 59.1077 24.06C58.5846 24.0913 58.0615 23.6943 58.8305 23.3548C59.5209 23.0518 60.9228 22.7749 61.7335 22.1586C62.0417 21.9128 62.2872 21.5978 62.4501 21.2392C62.0997 21.3071 61.6289 21.3646 61.2418 21.4168ZM43.8861 6.72799C44.0797 7.21901 43.5828 7.49586 43.0858 7.2817C42.783 7.17559 42.4947 7.03167 42.228 6.85336C42.7197 6.20563 43.7188 6.38846 43.8861 6.72799ZM35.3443 5.41164C35.9511 5.62581 36.1446 6.54517 35.0148 6.48248C34.6044 6.37188 34.2387 6.13635 33.9686 5.80864C34.1499 5.63822 34.3693 5.51333 34.6085 5.4443C34.8477 5.37527 35.0999 5.36407 35.3443 5.41164ZM29.2923 54.9942C30.0089 55.9763 29.6532 56.4046 28.6855 56.4934C27.3883 54.5607 25.9237 51.8705 24.208 50.4601C23.6849 50.0266 23.3501 49.7863 23.5437 49.3893C23.6955 49.1409 23.8802 48.9143 24.0929 48.7154C25.3117 47.5819 26.6089 48.6841 27.0483 50.5176C27.3517 51.8392 28.6803 54.5032 29.2923 54.9942ZM29.4858 45.3201C29.0465 45.1634 27.2732 44.6462 26.724 44.5209C25.976 44.4007 25.4791 44.6149 24.7049 44.5522C23.7029 44.0775 22.7572 43.4923 21.8855 42.8075C21.8594 42.9903 20.7505 39.6211 20.808 38.6286C21.0349 38.4374 21.2986 38.2947 21.5829 38.2094C21.8672 38.124 22.1661 38.0978 22.4609 38.1324C23.2926 38.8062 24.6474 39.9711 25.7772 40.9793C25.7197 42.421 26.6612 42.6665 27.4354 42.5725C28.5129 43.1209 29.8677 43.7373 30.532 44.0089C31.1963 44.2806 30.9766 45.1895 29.4806 45.3149L29.4858 45.3201ZM31.9077 15.2686C31.5206 16.6163 31.3009 17.8804 31.0498 19.1863C30.7726 20.7795 30.5268 22.5556 30.3332 24.1488C30.1972 25.0995 30.1135 25.9561 30.056 26.6874C30.0062 27.1141 29.9782 27.543 29.9723 27.9724C29.8886 28.7664 29.8363 29.7798 29.5277 28.1866C29.3989 27.5945 29.334 26.9904 29.3341 26.3845C29.0046 22.5242 29.8572 16.2454 29.9409 13.1844C30.192 12.9389 29.7735 12.7822 30.3541 12.7247C30.6978 12.8167 31.0141 12.9901 31.2764 13.2301C31.5386 13.4702 31.739 13.7699 31.8606 14.1037C31.9492 14.2839 31.9992 14.4806 32.0073 14.6812C32.0154 14.8818 31.9815 15.0819 31.9077 15.2686ZM34.9781 33.0028C34.4377 32.3679 33.9823 31.6656 33.6234 30.9133C33.1788 28.897 32.8231 26.8703 33.1003 24.7599C33.1526 24.3316 33.1526 24.4256 33.5135 24.3943C34.3822 24.3878 35.2444 24.5437 36.0557 24.8539C36.8298 25.0681 37.468 25.345 37.8812 25.4338C38.0748 25.4965 38.1323 25.5278 38.1323 25.2509V25.0681C38.1323 24.9793 38.1061 24.9166 38.1061 24.8539C38.08 24.6398 38.1637 24.6398 38.3258 24.6711C38.5414 24.6814 38.7545 24.7218 38.9588 24.7913C42.2228 26.0763 43.7397 35.2646 41.8357 37.9913C41.1776 38.1898 40.5386 38.4468 39.9265 38.7592C39.9048 38.9923 39.9521 39.2266 40.0625 39.4331C40.4009 39.4523 40.7312 39.545 41.0301 39.7047C41.6198 40.4212 42.0191 41.2746 42.1914 42.1859C42.2489 42.5881 41.4695 42.8023 40.7529 42.8598C40.2416 42.6178 39.8098 42.2355 39.508 41.7576C39.3586 41.5262 39.1545 41.3351 38.9137 41.2012C38.6728 41.0673 38.4027 40.9947 38.1271 40.9897C37.7471 41.1262 37.3398 41.1692 36.9397 41.1151C36.8722 40.9745 36.8421 40.8191 36.8522 40.6635C36.8623 40.508 36.9122 40.3577 36.9972 40.2271C37.2825 39.9979 37.5997 39.8114 37.9388 39.6733C38.1898 39.548 38.1898 39.6734 38.1585 39.3338C37.8864 36.6489 36.5003 34.8415 34.9834 33.0028H34.9781ZM45.5338 61.67C45.5338 61.67 45.4815 61.7013 45.4501 61.7013C44.0431 60.6566 43.0178 59.5283 42.8348 58.3321C40.4548 56.6188 39.9317 55.574 38.9901 52.3615C38.6292 51.5048 37.9126 51.228 37.3058 50.9198C36.6991 50.6116 36.1446 50.3086 36.2283 49.3527C36.3428 48.8298 36.5695 48.338 36.8926 47.911C38.9849 45.0955 39.2988 48.4908 41.1766 50.3295C44.1895 52.7167 43.1381 55.2606 44.9375 58.2015C45.4086 59.2943 45.6147 60.4827 45.5391 61.67H45.5338ZM50.8692 63.843C50.997 64.0869 51.0359 64.3676 50.9791 64.637C50.8117 65.0967 49.9329 65.5877 49.0175 65.7705C48.824 64.146 48.7403 63.0125 48.5781 61.8789C48.2172 61.8476 47.94 62.0304 47.804 61.8789C47.7517 61.2678 47.8615 60.2596 48.2486 60.0716C48.8031 59.8313 50.6548 63.2945 50.8745 63.843H50.8692ZM45.152 47.5349C45.3455 48.1461 45.0997 48.8565 45.2932 49.4049C45.5966 50.2042 45.8738 50.8728 46.1772 51.578C46.4283 52.1578 46.5905 52.769 46.9828 53.5682C47.2025 54.0592 47.5895 54.1219 47.7831 54.5763C47.9819 55.2581 48.1116 55.9581 48.1701 56.6658C48.0881 56.9201 47.9464 57.1511 47.7569 57.3396C47.5366 57.3675 47.3145 57.3779 47.0926 57.371C46.6214 56.8152 46.2305 56.1963 45.9314 55.5322C45.7117 54.9211 45.9889 54.4614 45.8215 53.9077C45.3904 52.6661 44.8053 51.4833 44.0797 50.387C43.7843 50.1379 43.4481 49.9418 43.0858 49.8072C42.2114 48.6416 41.6237 47.2871 41.3701 45.8529C41.4771 45.6358 41.6372 45.4492 41.8356 45.3104C42.0341 45.1716 42.2644 45.0851 42.5052 45.0589C43.6157 45.6012 44.5377 46.4637 45.152 47.5349Z" fill="#0D53A0"/>
</svg>
