<svg width="112" height="86" fill="none" xmlns="http://www.w3.org/2000/svg"><path d="M39.654.326c-1.397 1.037-2.133 2.665-1.894 4.198.052.334.129.634.172.669.103.102 1.028-.866 1.465-1.551.446-.677.745-1.397.848-2.082.095-.532.043-1.449-.077-1.526-.026-.025-.257.112-.514.292zm.326.462c.068.275-.103 1.174-.317 1.706-.189.462-.711 1.328-.763 1.268-.017-.017.094-.369.231-.797.146-.429.275-.9.275-1.046-.009-.23-.043-.18-.292.429-.3.72-.497 1.045-.78 1.294-.154.137-.162.137-.214 0-.06-.172.155-1.02.377-1.5C38.66 1.817 39.748.6 39.877.6c.034.008.077.086.103.188zM42.721.18c-1.208.428-1.996 1.217-2.287 2.322-.129.488-.137.814-.009.814.043 0 .343-.137.643-.309 1.062-.59 1.928-1.585 2.125-2.424.043-.223.077-.446.06-.497-.026-.052-.197-.026-.532.094zm.12.574c-.188.531-.72 1.208-1.233 1.577-.249.17-.232.145.205-.412.274-.351.566-.848.489-.848-.026 0-.257.231-.514.514-.506.531-.909.823-.909.626 0-.18.429-.772.763-1.08.291-.266 1.234-.788 1.294-.72.008.009-.026.172-.094.343zM68.007.326c.094.582.47 1.268.985 1.782.454.445 1.345 1.054 1.748 1.165.154.043.171.026.171-.214 0-.386-.214-1.054-.48-1.465-.428-.669-1.2-1.217-2.065-1.474l-.42-.12.06.326zM69 .694c.18.094.429.24.549.334.283.206.822.96.822 1.14 0 .128-.017.128-.222.034-.12-.068-.429-.351-.694-.634-.257-.283-.472-.463-.472-.403 0 .12.369.669.677 1.003.112.12.18.231.154.265-.034.026-.274-.18-.548-.445-.471-.463-.771-.926-.9-1.388-.06-.197-.051-.197.12-.137.103.034.326.137.514.231zm2.194-.351c-.086.222-.043 1.448.06 1.859.137.523.428 1.157.78 1.688.3.446 1.32 1.585 1.43 1.585.12 0 .258-1.028.206-1.61-.068-1.029-.497-1.954-1.25-2.743-.378-.394-1.003-.9-1.123-.9-.034 0-.086.052-.103.12zm.771.822c.608.583.951 1.071 1.157 1.688.188.557.24 1.071.12 1.071-.163 0-.634-.677-.857-1.225-.386-.943-.377-.925-.377-.711-.009.24.18.942.411 1.55l.197.506-.231-.274c-.291-.343-.66-1.08-.805-1.62-.112-.41-.163-1.387-.069-1.387.017 0 .223.18.454.402zM35.816 3.016c-1.209 1.585-1.466 3.573-.677 5.158.12.232.248.429.291.446.137.043 1.02-1.808 1.191-2.485.18-.686.206-2.04.069-2.553-.12-.412-.386-1.046-.446-1.046-.034 0-.223.223-.428.48zm.505.506c.248.822.137 2.322-.231 3.153l-.137.308.034-1.234c.034-1.26-.06-1.525-.163-.454-.086 1.003-.471 1.962-.668 1.645-.257-.402-.129-1.68.24-2.467.274-.592.677-1.234.77-1.234.027 0 .095.128.155.283zm38.626-.386c-.643 1.525-.317 3.59.848 5.493.18.282.24.274.437-.12.746-1.483.651-3.222-.274-4.748-.291-.497-.694-.976-.797-.976-.026-.01-.128.145-.214.35zm.994 1.37c.428.884.582 1.895.368 2.503-.085.231-.094.24-.231.12-.249-.214-.531-1.371-.531-2.142 0-.197-.035-.274-.086-.24-.069.043-.077.385-.051 1.217l.043 1.165-.155-.334c-.205-.463-.368-1.277-.368-1.868 0-.446.154-1.286.274-1.483.077-.102.394.36.737 1.063zm-36.775-.067c-.317.35-.591.676-.6.72-.043.11.694.239 1.294.239.308 0 .737-.06 1.02-.154.496-.154 1.07-.54 1.07-.728 0-.223-1.593-.771-2.125-.737-.042.008-.342.3-.66.66zm1.636-.198c.275.078.557.198.643.266.146.111.128.12-.334.343-.574.274-1.097.36-1.688.282-.412-.042-.42-.051-.283-.197.103-.111.24-.145.566-.154.24 0 .608-.034.822-.051l.386-.052-.54-.145c-.668-.18-.686-.197-.574-.326.12-.163.42-.154 1.002.034zm29.904-.128c-.455.12-1.26.488-1.26.591 0 .274 1.054.823 1.74.891.505.052 1.542-.077 1.627-.197.026-.043-.222-.368-.548-.728-.66-.737-.72-.754-1.56-.557zm.925.265c.12.129.103.146-.42.283-.3.086-.557.172-.582.197-.018.026.325.069.745.086.574.034.814.069.9.163.12.12.12.128-.009.18-.069.025-.446.034-.84.017-.582-.034-.788-.069-1.114-.24-.214-.12-.42-.24-.437-.274-.068-.112 1.003-.489 1.543-.54.051-.009.145.051.214.128zM44.804 6.443v1.2h1.473v-2.4h-1.473v1.2zm3.247 0v1.2h5.569v-2.4h-5.569v1.2zm9.734 0v1.2h5.569v-2.4h-5.569v1.2zm7.334 0v1.2h1.542v-2.4H65.12v1.2zM32.56 6.46c-1.097 1.697-1.346 4.036-.609 5.647.232.506.806 1.405.891 1.405.086 0 .497-.942.72-1.662.291-.951.386-1.688.351-2.793-.042-1.063-.24-1.843-.65-2.545-.343-.566-.378-.566-.703-.051zm.865 1.646c.18.668.18 1.868 0 2.639-.069.334-.163.6-.197.6s-.086-.438-.111-.986c-.043-.925-.163-1.765-.275-1.885-.025-.034-.042.454-.042 1.08 0 .9-.035 1.216-.138 1.533-.077.223-.18.429-.222.454-.146.095-.292-.17-.412-.702-.248-1.157-.102-2.134.523-3.47l.317-.686.214.454c.112.257.274.686.343.969zm44.958-1.722c-.197.222-.574 1.036-.72 1.568-.111.385-.137.77-.137 1.696.008 1.037.034 1.294.206 1.937.188.71.745 2.159.822 2.159.077 0 .694-.977.883-1.388.36-.806.454-1.337.42-2.434-.035-.874-.07-1.105-.292-1.756-.24-.72-.857-1.92-.994-1.92-.034 0-.12.06-.188.138zm.402 1.002c.472.943.643 1.56.677 2.416.052 1.14-.197 2.16-.488 1.92-.24-.197-.368-.926-.36-2.022 0-.592-.026-1.046-.051-1.003-.103.103-.232 1.063-.283 1.996-.026.497-.077.857-.12.823-.266-.266-.377-2.313-.171-3.179.102-.437.47-1.388.54-1.388.017-.008.136.197.256.437zm-41.573-.72c-.197.052-.377.12-.394.129-.086.103-.737 1.876-.694 1.92.069.076 1.26-.207 1.688-.412.514-.232 1.208-.874 1.422-1.303.154-.3.154-.325.026-.377-.223-.085-1.654-.06-2.048.043zm1.705.249c.043.145-.685.848-1.105 1.054-.403.197-1.2.462-1.251.41-.017-.025-.009-.102.017-.188.043-.111.3-.265.823-.488.428-.18.788-.351.814-.394.042-.06-.523-.034-1.063.051-.223.043-.274-.06-.145-.265.145-.24 1.833-.403 1.91-.18zm33.408-.146c-.343.043-.334.197.043.728.325.454.814.831 1.37 1.089.352.145 1.5.394 1.569.325.043-.043-.617-1.748-.728-1.868-.189-.223-1.44-.377-2.254-.274zm1.662.343c.369.085.48.171.48.351 0 .086-.137.103-.668.06l-.677-.043.505.231c.943.429 1.2.583 1.217.729.077.403-1.474-.274-2.022-.891-.197-.215-.351-.429-.351-.463-.009-.094 1.096-.077 1.516.026zM44.804 9.031v1.156h1.473V7.876h-1.473V9.03zm3.247 0v1.156h2.622V7.876H48.05V9.03zm3.016 0v1.156h2.553V7.876h-2.553V9.03zm6.718 0v1.156h2.622V7.876h-2.622V9.03zm3.007 0v1.156h2.553V7.876h-2.553V9.03zm4.327 0v1.156h1.542V7.876H65.12V9.03zm-20.315 2.433v.969h2.245v-1.937h-2.245v.968zm2.476 0v.969h5.723v-1.937H47.28v.968zm5.946 0v.969h5.021v-1.937h-5.02v.968zm5.253 0v.969h5.638v-1.937h-5.638v.968zm5.946 0v.969h2.245v-1.937h-2.245v.968zm-29.012-.77c-.257.05-.651.18-.866.274l-.385.17-.249 1.046c-.137.574-.222 1.054-.197 1.08.078.077 1.097-.274 1.551-.557.763-.446 1.371-1.217 1.542-1.92l.052-.205-.488.009a4.571 4.571 0 0 0-.96.103zm.84.582c-.12.214-.386.548-.6.745-.386.352-1.465.926-1.56.831-.137-.128.189-.454.866-.865 1.045-.617 1.045-.642-.043-.368-.583.137-.591.137-.557-.077.051-.283 1.02-.643 1.782-.66l.334-.009-.223.403zm38.403-.146c.29.985 1.405 1.928 2.656 2.253.36.103.403.103.403-.017-.01-.248-.438-1.953-.515-2.03-.214-.215-1.174-.48-1.893-.514l-.754-.043.103.351zm1.585.137c.582.171.737.274.814.531.043.137.034.18-.052.146-.197-.077-1.302-.308-1.336-.283-.017.017.35.266.796.54.575.351.832.566.849.677.034.214-.086.206-.66-.069-.703-.325-1.457-1.07-1.67-1.645-.044-.12-.018-.128.35-.094.223.034.635.12.909.197zm-46.595.403c-.274.78-.351 1.063-.437 1.937-.197 1.756.274 3.41 1.354 4.712.437.532.934.96 1.02.874.103-.094.325-1.5.377-2.322.085-1.44-.18-2.853-.746-4.019-.3-.625-.9-1.439-1.208-1.636-.163-.103-.18-.086-.36.454zm.737.66a6.23 6.23 0 0 1 .9 1.893c.197.686.317 1.911.24 2.382l-.052.352-.12-.429c-.068-.231-.214-.745-.325-1.13-.206-.763-.591-1.663-.634-1.526-.026.043.051.437.163.891.248 1.011.317 1.783.197 2.22-.12.436-.283.41-.566-.103-.351-.669-.6-1.671-.6-2.45 0-.85.309-2.46.472-2.46.034-.009.18.154.325.36zm50.733-.634c-1.482 1.61-2.005 4.207-1.43 7.111.068.352.145.652.18.652.12 0 .805-.669 1.13-1.106a6.828 6.828 0 0 0 1.063-2.116c.257-.9.24-2.545-.035-3.573-.222-.84-.411-1.311-.505-1.311-.043-.009-.223.146-.403.343zm.583 1.568c.188.9.171 1.928-.043 2.681-.18.652-.6 1.517-.754 1.56-.334.111-.377-1.14-.077-2.408.111-.471.214-.908.248-.985.035-.069.026-.129-.025-.129-.12 0-.532 1.14-.814 2.177-.12.505-.266.908-.309.908-.12 0-.008-1.902.137-2.468.189-.694.591-1.568.977-2.082l.317-.428.103.291c.068.163.171.557.24.883zm-36.741-.454c0 .042.197.41.428.814l.429.745h4.712l-.145-.223c-.077-.12-.309-.488-.523-.805l-.386-.591H47.22c-1.362-.018-2.262.017-2.262.06zm4.867-.035c0 .026.231.386.514.814l.505.771h9.7l.47-.694c.258-.385.49-.745.506-.814.043-.103-.668-.12-5.835-.12-3.213 0-5.86.018-5.86.043zm11.592.745l-.548.798 2.305.025c1.268.009 2.34 0 2.39-.017.06-.026.592-.882.935-1.533.017-.035-.994-.052-2.245-.052h-2.28l-.556.78zm-15.525 1.689v.54h4.78v-1.08h-4.78v.54zm5.021 0v.54h4.627v-1.08h-4.627v.54zm4.935 0v.54h4.627v-1.08h-4.627v.54zm4.867 0v.54h4.781v-1.08h-4.781v.54zm-26.33-.343c-.489.129-1.551.668-1.757.891-.111.12-.137.343-.171 1.303-.026.634-.009 1.156.025 1.156.035 0 .3-.128.6-.282 1.114-.592 2.014-1.765 2.117-2.75l.042-.438-.222.009c-.112 0-.403.051-.634.111zm.505.394c-.188.78-.848 1.654-1.67 2.21l-.43.284-.033-.206c-.026-.188.085-.317.77-.968.438-.42.78-.754.755-.754-.034 0-.369.137-.763.317-.385.171-.728.291-.745.274-.026-.017-.009-.129.034-.257.094-.266.703-.651 1.465-.917.66-.24.677-.24.617.017zm41.3.06c.11 1.037 1.045 2.245 2.201 2.854.317.17.583.282.592.274.008-.009 0-.566-.026-1.217l-.043-1.2-.428-.282c-.463-.309-1.457-.703-1.997-.789l-.343-.051.043.411zm1.216.231c.257.103.634.292.84.429.325.197.394.283.394.471v.214l-.351-.145-.703-.309c-.608-.274-.574-.205.668.917.274.24.369.394.394.591.018.163 0 .24-.051.215-.445-.275-1.002-.703-1.268-.994-.3-.343-.703-1.072-.823-1.491-.051-.172-.043-.189.197-.137.138.025.455.128.703.24zm-30.897 1.123v.617h2.51c1.663 0 2.51-.026 2.51-.077 0-.043-.162-.326-.36-.617l-.367-.531-2.143-.009h-2.15v.617zm4.635-.574c0 .026.18.3.394.617l.403.574 3.787-.017 3.787-.026.42-.6.429-.59h-4.601c-2.554 0-4.619.025-4.619.042zm9.16.454c-.592.822-.797.745 2.073.745h2.52v-1.233h-4.234l-.36.488zm-31.969 1.148c-.6 2.382-.154 4.781 1.166 6.366.445.523 1.37 1.328 1.533 1.337.206 0 .275-2.52.103-3.667-.24-1.551-.865-2.896-1.816-3.881-.343-.352-.669-.643-.746-.643-.085 0-.163.137-.24.488zm.883.694c.917 1.105 1.448 2.46 1.568 4.036.043.565.043.6-.069.471-.06-.077-.205-.428-.325-.771-.326-.977-.986-2.356-1.088-2.262-.018.026.111.445.274.96.463 1.379.591 2.407.334 2.664-.214.214-1.054-1.268-1.285-2.253-.18-.754-.146-2.09.068-3.067.06-.232.189-.18.523.222zm53.252-.736c-.857.702-1.654 2.055-2.03 3.47-.198.72-.206.865-.215 2.501 0 1.106.034 1.791.086 1.877.068.128.128.103.642-.3 1.063-.823 1.817-1.98 2.177-3.316.257-.917.257-2.793 0-3.805-.094-.385-.197-.71-.24-.71-.034-.01-.223.128-.42.282zm.334 1.233c.12.797.111 2.073-.034 2.613-.257.977-1.028 2.314-1.26 2.168-.265-.163-.137-1.225.3-2.562.171-.531.291-.985.274-1.01-.103-.095-.78 1.344-1.13 2.373-.275.822-.335.822-.283 0a6.643 6.643 0 0 1 1.49-3.822c.497-.6.506-.6.643.24zm-35.601-.205v1.08h1.276l.206-.378c.129-.24.291-.42.437-.48.24-.111.24-.12.24-.702v-.6h-2.16v1.08zm2.467-.472c0 .454.026.617.103.617.137 0 .574.463.669.712.077.205.094.214.702.214h.617v-2.16H49.67v.617zm2.322.472v1.08h2.142l.043-.198c.086-.334.686-.874 1.054-.925l.309-.052v-.985h-3.548v1.08zm3.856-.592v.489l.291.043c.352.06.823.437 1.02.83l.154.3h2.091V17.6h-3.547v.497h-.009zm3.864.592v1.08h1.166l.154-.3c.154-.318.488-.626.668-.626.086 0 .112-.146.112-.617v-.617H59.72v1.08h-.009zm2.323-.48c0 .59 0 .59.24.702.145.06.308.24.436.48l.206.377h1.277v-2.16h-2.16v.6zM34.068 19.99c-.634.197-1.474.668-1.92 1.07l-.402.36.094 1.252c.06.796.12 1.26.18 1.26.145 0 .84-.506 1.234-.9.814-.806 1.31-1.894 1.268-2.751l-.026-.428-.428.137zm.12.642c-.146.866-.66 1.723-1.44 2.4-.223.197-.437.36-.471.36-.043 0-.06-.104-.06-.232 0-.231.343-.703 1.062-1.49.189-.207.317-.395.292-.42-.026-.026-.352.136-.712.35-.505.309-.685.378-.736.3-.146-.222-.052-.385.42-.728.428-.326 1.456-.882 1.619-.882.051.017.051.162.026.342zm13.015.403v.968h1.08v-.497c0-.265.025-.702.042-.968l.052-.471h-1.182v.968h.008zm3.427-.84c.026.069.043.506.043.969v.84h1.08v-1.938h-.592c-.488.009-.565.026-.53.128zm1.362.84v.968h.926v-1.936h-.926v.968zm1.234 0v.968h.702v-.797c0-.428.027-.865.044-.968.043-.162.026-.171-.352-.171h-.394v.968zm4.233 0l.026.968h.694v-1.936h-.729l.009.968zm1.02 0v.968h.925v-1.936h-.925v.968zm1.233 0v.968h1.011v-.84c0-.462.026-.899.043-.967.043-.112-.034-.12-.505-.12h-.549v.96zm3.351-.557c.025.223.042.668.042.968v.566h1.08v-1.936h-1.182l.06.402zm13.795-.043c0 .9.462 1.945 1.2 2.7.428.436 1.319 1.096 1.379 1.027.043-.042.197-1.987.197-2.356 0-.223-.06-.308-.437-.617-.463-.368-1.654-.976-2.082-1.07l-.257-.052v.368zm1.01.317c.24.095.978.583 1.217.814.163.163.249.309.249.454 0 .12-.017.215-.043.215-.017 0-.351-.197-.745-.429-.386-.24-.729-.42-.746-.394-.025.026.197.309.497.643.874.985.951 1.122.891 1.37l-.06.215-.531-.497c-.822-.763-1.182-1.405-1.388-2.45l-.051-.258.3.12c.162.095.342.172.41.197zm-30.665 2.485v1.003h1.08v-2.005h-1.08v1.002zm3.47 0v1.003h1.08v-2.005h-1.08v1.002zm1.319 0v1.003h1.928v-2.005h-1.936v1.002h.008zm5.484 0v1.003h1.928v-2.005h-1.936v1.002h.008zm2.236 0v1.003h1.011v-2.005h-1.011v1.002zm3.402 0v1.003h1.08v-2.005h-1.08v1.002zm-35.404.489c-.086.317-.043 1.473.069 2.21.402 2.468 1.756 4.301 3.846 5.21l.438.197v-.334c0-.429-.198-1.706-.352-2.314-.188-.737-.625-1.8-1.028-2.476-.6-1.045-1.825-2.21-2.665-2.553-.248-.112-.265-.103-.308.06zm1.02.95c1.096.823 2.047 2.306 2.433 3.797.197.728.206.745-.883-.9-.557-.84-1.114-1.534-1.182-1.465-.026.025.12.3.308.617.643 1.045 1.037 1.944 1.08 2.467.051.583-.043.617-.523.189-.66-.591-1.345-1.757-1.568-2.656-.231-.952-.36-2.391-.205-2.391.043-.008.282.154.54.343zm54.502-.736c-1.816.977-3.144 3.016-3.658 5.62-.197 1.003-.283 1.937-.172 1.937.043 0 .352-.128.686-.3 2.356-1.182 3.641-3.487 3.641-6.503.009-1.02.009-1.02-.497-.754zm.017 1.362c-.05.849-.248 1.825-.48 2.382-.342.806-1.516 2.262-1.764 2.176-.369-.12.085-1.482.985-2.938.197-.3.326-.566.3-.592-.12-.111-.763.763-1.877 2.502-.274.429-.3.197-.077-.488.506-1.542 1.303-2.708 2.39-3.505.275-.197.515-.368.532-.368.017 0 .017.377-.008.831zm-36.046.334v1.08h1.08v-2.16h-1.08v1.08zm3.47 0v1.08h1.08v-2.16h-1.08v1.08zm1.319 0v1.08h.926v-2.16h-.926v1.08zm1.234 0v1.08h.702v-2.16h-.702v1.08zm4.25 0v1.08h.702v-2.16h-.702v1.08zm1.003 0v1.08h.925v-2.16h-.925v1.08zm1.233 0v1.08h1.011v-2.16h-1.011v1.08zm3.402 0v1.08h1.08v-2.16h-1.08v1.08zm-29.261.154c-.745.412-1.585 1.166-1.962 1.774-.12.18-.103.274.223 1.465.197.703.36 1.294.386 1.311.025.018.29-.222.59-.556.643-.669 1.14-1.543 1.32-2.314.172-.745.129-1.834-.077-1.902a2.569 2.569 0 0 0-.48.223zm.292 1.183c-.129.891-.634 1.91-1.226 2.476l-.23.223-.087-.206c-.068-.188-.042-.29.249-.814.18-.325.437-.77.583-.993.145-.232.257-.446.24-.489-.018-.034-.318.197-.669.514-.36.317-.677.557-.711.54a.61.61 0 0 1-.094-.24c-.06-.334.728-1.19 1.61-1.748l.309-.197.051.197c.026.112.017.446-.025.737zm42.841-1.071c-.111.283-.128.908-.051 1.43.111.67.308 1.183.745 1.852.351.54 1.148 1.37 1.234 1.293.034-.034.206-.608.394-1.293l.343-1.251-.206-.3c-.334-.471-1.216-1.26-1.756-1.56-.549-.317-.634-.334-.703-.171zm.78.634c.463.308 1.38 1.2 1.448 1.397a.718.718 0 0 1-.017.351l-.06.223-.668-.6c-.369-.334-.694-.591-.712-.566-.025.026.223.489.54 1.037.497.831.583 1.037.531 1.225-.025.12-.06.249-.085.275-.12.12-1.028-1.217-1.268-1.843-.163-.428-.309-1.782-.197-1.782.034 0 .248.129.488.283zm-30.563 1.491v1.002h2.159v-1.08h-1.08v-.925h-1.08v1.003zm3.47-.54v.463h-1.011v1.08h2.091v-2.006h-1.08v.463zm1.319.54v1.002h3.548v-1.08h-1.628v-.925h-1.928v1.003h.008zm5.484-.54v.463h-1.628v1.08h3.547v-2.006h-1.927v.463h.008zm2.236.54v1.002h2.091v-1.08h-1.08v-.925h-1.011v1.003zm3.402-.54v.463h-1.08v1.08h2.16v-2.006h-1.08v.463zm-15.911 2.819v.968h4.559v-1.936h-4.56v.968zm4.789 0v.968h.926v-1.936h-.926v.968zm1.234 0v.968h4.936v-1.936h-4.936v.968zm5.253 0v.968h.925v-1.936h-.925v.968zm1.233 0v.968h4.473v-1.936h-4.473v.968zm-22.346-.291c.052.334.12.762.146.968l.043.369h1.996v-1.937h-2.288l.103.6zm4.43.368v.969h3.325v-1.937h-3.325v.968zm24.557 0v.969h3.324v-1.937h-3.324v.968zm5.492 0v.969h2.091v-.369c0-.343.111-1.105.197-1.431.043-.12-.051-.129-1.123-.129h-1.165v.96zm-44.452-.488c.197 1.13.72 2.425 1.37 3.41.935 1.422 2.186 2.4 3.71 2.896.54.189 1.689.411 1.749.352.068-.06-.249-.892-.669-1.766-1.045-2.159-2.613-3.83-4.36-4.644-.558-.257-1.372-.505-1.672-.505-.145.017-.162.042-.128.257zm1.49.677c1.149.462 2.511 1.636 3.334 2.887.728 1.097.634 1.106-.506.043-.762-.703-2.073-1.688-2.159-1.602-.017.017.377.437.891.942.943.934 1.388 1.517 1.585 2.048.155.446.035.514-.488.274-.977-.445-2.09-1.56-2.656-2.63-.343-.651-.831-1.928-.831-2.16-.009-.11.154-.076.83.198zm6.35-.446a7.095 7.095 0 0 0-1.551 1.688c-.634.968-.634.874.086 2.408.342.745.66 1.37.685 1.405.103.103.728-.771 1.063-1.448.66-1.38.762-3.17.248-4.156l-.111-.214-.42.317zm.437 1.765c-.043.943-.232 1.602-.754 2.52l-.334.582-.137-.274c-.172-.334-.155-.429.402-1.903.215-.565.377-1.036.352-1.053-.017-.018-.317.334-.669.78-.351.445-.668.822-.694.822-.026 0-.103-.12-.163-.266-.12-.248-.12-.274.112-.668a7.63 7.63 0 0 1 1.302-1.654l.411-.385.112.351c.06.223.086.6.06 1.148zm47.151-1.782c-1.928.668-3.736 2.408-4.867 4.678-.41.831-.822 1.885-.754 1.945.078.078 1.14-.12 1.731-.317 1.885-.642 3.29-1.91 4.259-3.813.274-.557.745-1.902.822-2.39l.052-.326h-.3c-.163 0-.591.094-.943.223zm.463.831c-.377 1.225-.986 2.382-1.645 3.076-.703.754-1.765 1.508-2.15 1.508-.232 0-.198-.248.128-.882.231-.429.505-.754 1.293-1.534.549-.54.969-.977.926-.977-.223 0-1.277.797-2.27 1.714-.404.377-.755.677-.798.677-.12 0 .429-.908.917-1.525.883-1.106 1.97-1.92 3.162-2.34.583-.214.583-.214.437.283zm-7.746-.463c-.154.386-.18.592-.18 1.448 0 .926.017 1.054.24 1.688.129.377.403.951.6 1.277.351.574.72 1.063.762 1.011.009-.017.3-.651.66-1.405.506-1.071.626-1.422.591-1.585-.085-.352-.728-1.311-1.216-1.842-.403-.437-1.123-1.037-1.234-1.037-.026.008-.129.205-.223.445zm.968.669c.472.48.977 1.14 1.234 1.653.12.24.12.275-.017.532l-.146.274-.65-.823c-.352-.445-.67-.822-.703-.822-.035 0 .017.188.102.402.095.223.309.814.489 1.303l.317.9-.137.29-.137.284-.155-.223c-.274-.394-.59-1.071-.78-1.62-.128-.41-.17-.71-.18-1.302 0-.823.078-1.354.198-1.354.043.017.291.232.565.506zm-7.908 1.328v.968h3.29l.326-.334.325-.334v-1.269h-3.941v.969zm-29.664-.24v.651l.343.274.343.275h3.187v-1.851h-3.864v.651h-.009zm4.173.274v.926h3.702v-1.851h-3.701v.925zm4.096 0v.926h2.159v-1.851h-2.16v.925zm2.467 0v.926h2.091v-1.851H49.67v.925zm2.322 0v.926h3.548v-1.851h-3.548v.925zm3.933 0v.926h3.48v-1.851h-3.48v.925zm3.787 0v.926h2.091v-1.851h-2.091v.925zm2.323 0v.926h2.159v-1.851h-2.16v.925zm2.545 0v.926h3.787v-1.851h-3.788v.925zm-23.94 1.748c0 .428.042.583.257.968l.248.454h4.438v-1.936h-4.935v.514h-.009zm5.252.454v.968h.925v-1.936h-.925v.968zm1.311 0v.968h4.559v-1.936h-4.56v.968zm4.789 0v.968h.926v-1.936h-.926v.968zm1.234 0v.968h4.936v-1.936h-4.936v.968zm5.253 0v.968h.925v-1.936h-.925v.968zm1.233 0v.968h4.473v-1.936h-4.473v.968zm4.868 0v.968h1.01v-1.936h-1.01v.968zm1.233 0v.968h4.473l.274-.505c.231-.429.274-.591.274-.968v-.463h-5.02v.968zm-28.223-.034c-.55.942-.935 2.09-1.012 3.042l-.043.54 1.217 1.199c1.002.985 1.217 1.174 1.285 1.062.043-.068.146-.428.24-.813.129-.523.172-.909.172-1.723.008-1.148-.12-1.739-.592-2.647-.214-.429-.788-1.14-.916-1.14-.043.009-.198.232-.352.48zm.702.591c.522.866.745 1.68.745 2.768 0 .685-.137 1.705-.257 1.773-.034.017-.154-.068-.274-.197l-.223-.231-.043-1.525c-.025-.831-.06-1.465-.094-1.405-.026.06-.197.565-.368 1.105l-.326.994-.265-.257c-.249-.24-.266-.283-.215-.608a8.208 8.208 0 0 1 .643-2.125c.171-.36.343-.66.377-.66.051.008.18.171.3.368zm34.873-.591c-.412.428-.823 1.225-1.02 1.98-.283 1.053-.197 2.793.189 3.924l.102.282 1.217-1.174 1.217-1.174v-.428c0-.951-.531-2.502-1.191-3.462l-.189-.274-.325.326zm.608 1.02c.3.634.694 1.97.694 2.373 0 .137-.094.3-.257.454l-.257.257-.334-1.062c-.189-.592-.36-1.097-.403-1.14-.043-.043-.068.557-.068 1.448v1.517l-.24.274c-.137.154-.266.257-.283.231-.103-.102-.24-1.148-.249-1.825 0-.84.18-1.67.506-2.322.214-.428.48-.831.54-.831.034-.009.188.274.351.625zm-9.193 1.096v.892h2.399l.54-.352.539-.36v-.96l-.823-.042a27.86 27.86 0 0 0-1.739-.051h-.908v.873h-.009zm-21.164-.291l.008.523.506.325.505.335h2.391v-1.697h-3.393v.514h-.017zm3.787.334v.849h2.159v-1.697h-2.16v.848zm2.467 0v.849h2.091v-1.697H49.67v.848zm2.322 0v.849h3.548v-1.697h-3.548v.848zm3.933 0v.849h3.48v-1.697h-3.48v.848zm3.787 0v.849h2.005v-1.697h-2.005v.848zm2.323 0v.849h2.159v-1.697h-2.16v.848zm-32.843-.025c-.274.042-.274.128.06.685 1.011 1.688 2.785 3.316 4.456 4.087 1.002.462 1.876.668 3.101.71.78.035 1.286.01 1.808-.076.395-.069.737-.137.754-.163.146-.137-2.082-2.433-3.067-3.144-1.551-1.14-3.093-1.825-4.661-2.074-.454-.068-2.023-.085-2.45-.025zm2.374.454c1.388.24 2.673.77 3.984 1.653.865.583 1.62 1.243 1.482 1.294-.103.034-.505-.12-1.61-.617-1.26-.565-3.205-1.157-3.205-.985 0 .034.197.137.445.24.712.282 2.382 1.14 2.785 1.405.823.565 1.44 1.276 1.225 1.43-.274.215-.796.163-1.868-.188-1.465-.48-2.33-1.01-3.436-2.108-.66-.66-1.773-2.03-1.773-2.176 0-.111 1.26-.077 1.97.052zm48.77-.309a95.84 95.84 0 0 0-.736.12c-1.894.3-3.968 1.422-5.681 3.068-.977.934-1.945 2.03-1.86 2.107.035.035.283.095.566.138 2.373.402 4.447-.043 6.452-1.38 1.114-.745 2.682-2.468 3.247-3.564l.18-.36-.206-.043c-.3-.069-1.722-.128-1.962-.086zm1.466.48c0 .129-1.063 1.448-1.646 2.048-1.105 1.13-1.996 1.688-3.495 2.185-1.226.411-1.963.445-1.963.102 0-.214.703-.942 1.329-1.353.462-.309 1.747-.96 2.793-1.414.205-.094.36-.188.334-.206-.069-.068-1.337.275-2.074.549-.36.137-1.062.428-1.542.642-1.44.634-1.568.609-.703-.111 1.414-1.182 3.034-2.005 4.653-2.348.66-.145 2.314-.205 2.314-.094zm-71.366.145c-1.122.19-2.159.858-2.956 1.894-.797 1.037-1.14 2.005-1.14 3.23 0 1.971.96 3.488 3.308 5.278 1.14.866 2.802 1.551 4.216 1.748.942.129 2.664.103 3.795-.06 1.431-.214 2.39-.454 4.439-1.13 4.412-1.44 5.02-1.586 6.914-1.637 3.453-.103 5.895.994 7.72 3.478.446.6.6.694.763.429.06-.095-.017-.266-.334-.729-1.628-2.416-4.413-3.924-7.583-4.104-2.194-.12-4.55.275-9.211 1.577-2.836.788-4.07 1.02-5.484 1.02-3.239 0-6.512-1.98-7.506-4.524-.282-.746-.3-1.902-.034-2.69.317-.909 1.14-1.98 1.91-2.486 1.329-.865 2.863-.728 3.95.352.532.514.746.985.78 1.688.035.488.009.59-.188.95a1.824 1.824 0 0 1-1.234.935c-.6.137-.651.068-.591-.763.043-.617.026-.72-.171-1.174-.12-.274-.232-.625-.249-.78-.034-.256 0-.3.368-.642.215-.197.378-.377.36-.403-.068-.068-.934.103-1.396.275-1.328.505-1.894 1.679-1.448 3.007.12.368.137.514.077.582-.069.06-.18-.008-.411-.282-.18-.197-.352-.36-.377-.36-.035 0-.043.163-.009.36.103.83.703 1.653 1.49 2.022.37.18.515.197 1.2.197.926-.009 1.466-.189 2.074-.677.814-.668 1.217-1.525 1.277-2.682.051-1.216-.275-2.082-1.089-2.81-.934-.857-2.159-1.26-3.23-1.088zm.574 2.554c.026.163.137.488.257.72.189.385.206.505.215 1.294 0 1.096.042 1.139.83 1.139.618-.008.995-.154 1.483-.583l.274-.24-.077.206c-.12.309-.566.9-.823 1.088-.9.669-2.159.814-2.913.343-.368-.223-.805-.694-.642-.694.385 0 .557-.583.334-1.122-.377-.909-.12-1.8.685-2.297.3-.188.317-.188.377.146zm14.6 6.777c-.505.137-1.884.574-3.067.96-3.333 1.088-4.67 1.38-6.632 1.448-1.293.043-2.304-.069-3.298-.377-.523-.163-1.637-.643-1.637-.711 0-.026.197.051.446.163.882.394 1.807.582 3.101.617 1.92.06 2.76-.095 7.223-1.329 1.783-.488 4.19-1.036 4.593-1.036.12.008-.214.12-.728.265zm74.15-9.305c-.873.18-1.85.746-2.339 1.371-1.225 1.56-.96 4.044.566 5.201.617.463 1.174.643 2.048.643.677.008.771-.009 1.251-.249a2.524 2.524 0 0 0 1.414-1.945l.051-.428-.394.385c-.497.48-.608.412-.394-.214.214-.617.205-1.37-.035-1.868-.308-.668-1.062-1.19-2.047-1.396-.84-.18-.874-.155-.429.274.223.206.429.445.446.531.043.103-.043.351-.197.686-.24.505-.249.565-.24 1.353.017.754 0 .831-.137.874-.377.12-1.088-.197-1.491-.668-1.003-1.165-.154-3.085 1.636-3.701.814-.275 1.834-.13 2.639.394.215.137.609.488.883.78 2.63 2.844 1.097 6.605-3.427 8.396-1.063.42-1.671.514-3.17.514-1.612-.008-2.297-.128-5.296-.96-4.738-1.31-6.152-1.567-8.577-1.576-1.13-.008-1.62.035-2.125.129-2.013.428-3.718 1.31-5.02 2.605-.626.616-1.543 1.816-1.543 1.996 0 .086.36.291.411.231.017-.017.223-.291.454-.608 1.723-2.34 4.105-3.479 7.284-3.479 1.867 0 2.938.231 6.597 1.431 3.822 1.251 4.893 1.465 7.309 1.465 1.525 0 1.773-.026 2.433-.188 1.808-.446 3.153-1.217 4.696-2.674 1.542-1.456 2.245-3.093 2.03-4.755-.137-1.088-.428-1.782-1.139-2.708-1.054-1.396-2.708-2.125-4.147-1.842zm1.32 2.596c.54.403.703 1.2.42 2.014-.086.248-.154.514-.154.6 0 .205.205.497.403.574.154.051.137.077-.129.351-.446.437-.891.608-1.585.6a2.831 2.831 0 0 1-2.476-1.448c-.292-.514-.283-.574.06-.232.36.369.865.583 1.456.635.437.034.497.017.686-.172.197-.197.197-.223.18-.994-.026-.745-.009-.822.231-1.345.128-.3.248-.668.248-.797v-.248l.215.128c.12.094.317.232.445.334zM85.949 46.8c1.08.197 2.613.574 4.72 1.157.918.265 2.014.557 2.451.66 2.468.582 4.644.574 6.34-.035.344-.12.686-.24.772-.274.086-.034-.009.034-.206.146-1.482.797-3.761 1.07-6.083.737-1.491-.215-2.57-.506-5.295-1.389-1.311-.428-2.708-.865-3.094-.968-.865-.222-.71-.24.395-.034zm-44.35-8.483c-.308 1.363-.317 2.88-.026 4.147l.095.429 1.807.874c.986.48 1.834.874 1.877.874.043 0 .06-.146.043-.369-.026-.197-.06-.634-.086-.968-.137-1.825-1.01-3.676-2.236-4.738-.437-.377-1.088-.806-1.251-.806-.052 0-.154.257-.223.557zm.985.506c.883.737 1.56 1.79 1.945 3.016.197.651.42 1.92.343 1.996-.026.026-.197-.034-.385-.12-.326-.154-.36-.205-.617-.874a30.131 30.131 0 0 1-.609-1.748l-.342-1.045-.043 1.448-.043 1.448-.386-.206c-.377-.197-.385-.214-.488-.71-.129-.678-.146-2.306-.026-3 .052-.3.12-.556.154-.556.035-.018.257.145.497.35zm3.308-.249c0 .729-.026.703.565.754l.36.043v-1.457h-.925v.66zm1.311.095v.754l.642.197c.575.18.789.197 2.28.214l1.636.026v-1.945h-4.558v.754zm4.789.214v.968h.926v-1.936h-.926v.968zm1.234 0v.968h4.936v-1.936h-4.936v.968zm5.253 0v.968h.925v-1.936h-.925v.968zm1.233 0v.977l1.645-.034c1.466-.026 1.697-.043 2.237-.215l.6-.188v-1.5H59.72v.96h-.009zm4.868-.257v.72l.402-.034c.223-.01.454-.06.505-.103.06-.052.095-.292.095-.686v-.608H64.57v.71h.008zm4.515-.411c-.849.488-1.68 1.413-2.202 2.467-.531 1.063-.891 2.63-.831 3.71l.025.489 1.817-.891 1.816-.891.146-.523c.18-.66.214-2.905.06-3.573-.197-.823-.257-1.002-.351-1.002-.052-.01-.266.094-.48.214zm.454 2.33c.008.686-.026 1.32-.094 1.645-.103.515-.112.523-.48.712-.206.11-.394.197-.42.197-.026 0-.043-.634-.043-1.414l-.008-1.405-.378 1.122a72.076 72.076 0 0 1-.616 1.748c-.215.583-.266.634-.583.788-.197.095-.36.172-.386.172-.077 0 .06-.943.249-1.688.343-1.371 1.148-2.682 2.09-3.436l.446-.351.103.41c.06.206.12.85.12 1.5zm-19.879-.282c0 .05.24.257.523.445a9.1 9.1 0 0 1 .994.788c.257.24.488.429.514.429.026 0 .043-.403.043-.891v-.892h-1.045c-.806.018-1.029.035-1.029.12zm2.322.745v.848h3.548V40.16h-3.548v.848zm3.933 0v.848h3.48V40.16h-3.48v.848zm3.787.042v.9l.48-.437c.266-.24.72-.59 1.003-.788.282-.197.522-.403.522-.462 0-.078-.222-.103-1.002-.103h-1.003v.89zm-13.126-.093c0 .496.18 1.842.317 2.382.343 1.362 1.037 2.887 1.345 2.955.48.112 4.327.729 4.353.694.06-.06-.454-1.448-.771-2.073-1.123-2.236-2.956-3.736-4.979-4.096-.248-.034-.265-.025-.265.138zm1.55.856c1.517.771 2.785 2.22 3.53 4.027l.232.549-.471-.086c-.463-.086-.48-.094-.917-.668a46.883 46.883 0 0 1-1.19-1.645c-.412-.592-.755-1.054-.772-1.046-.017.026.18.703.428 1.525l.446 1.491-.351-.051c-.592-.077-.617-.112-.926-.72a10.483 10.483 0 0 1-.977-3.316l-.05-.488.299.111c.163.069.488.206.72.317zm15.938-.693c-1.791.488-3.453 1.953-4.473 3.975-.36.728-.84 2.005-.771 2.082.034.026 1.028-.12 2.228-.317 2.484-.42 2.279-.317 2.767-1.337a9.806 9.806 0 0 0 .968-3.736l.052-.78-.189.01c-.103 0-.368.042-.582.102zm.197.727c0 .823-.471 2.503-.994 3.548l-.309.617-.445.077c-.249.043-.463.06-.48.043-.017-.017.171-.668.411-1.465.24-.797.429-1.457.403-1.474-.017-.017-.266.308-.557.728-.925 1.345-1.808 2.485-1.945 2.528-.068.017-.283.06-.471.086-.326.051-.334.042-.274-.12.111-.352.65-1.431.96-1.903.428-.668 1.396-1.662 2.03-2.082.463-.3 1.448-.788 1.628-.797.017-.008.043.095.043.214zm-11.045 1.286v.968h4.936v-1.936h-4.936v.968z" fill="#CD9934"/><path d="M28.044 42.627c-.591.112-1.011.291-1.705.771-1.61 1.097-2.802 1.457-3.984 1.208a3.995 3.995 0 0 1-1.663-.754c-.162-.128-.317-.214-.342-.197-.103.095 1.01.874 1.782 1.251 1.217.6 1.61.686 3.05.686 1.14.008 1.243-.009 2.28-.283.59-.163 1.387-.325 1.765-.351 1.508-.146 2.904.223 3.855 1.01.197.164.36.275.36.232 0-.137-.788-1.19-1.294-1.722-.985-1.045-2.073-1.697-3.093-1.842-.565-.095-.531-.095-1.01-.009zm1.782.831c.471.215 1.517.926 1.448.986-.008.017-.334-.017-.702-.06-.84-.103-1.937.008-2.99.291-1.106.3-1.946.428-2.528.411l-.523-.025.686-.334a12.22 12.22 0 0 0 1.379-.806c.934-.634 1.32-.763 2.1-.737.505.034.736.077 1.13.274zm51.89-.66c-.763.275-1.337.652-2.15 1.423-.72.686-1.697 1.92-1.612 2.014.035.025.197-.086.369-.249.18-.154.574-.403.874-.548 1.294-.617 2.707-.652 4.798-.112 1.131.283 1.32.317 2.202.317.78 0 1.114-.034 1.705-.188 1.08-.274 2.382-.977 2.956-1.594.292-.308.189-.308-.163-.008-.342.3-.916.59-1.465.736-1.19.309-2.467-.025-3.941-1.036-1.063-.72-1.457-.883-2.33-.909-.618-.017-.806.009-1.243.154zm2.21.635c.232.111.643.351.9.53.669.472 1.157.746 1.714.96l.471.18-.968-.034c-.669-.026-1.14-.086-1.542-.197-1.243-.351-1.946-.471-2.94-.471-.53 0-1.105.043-1.268.077l-.308.069.231-.197c.635-.532 1.294-.909 1.885-1.08.514-.137 1.32-.069 1.826.163zm-47.905-.574c-1.028.145-2.639.668-2.639.848 0 .103 1.003 1.002 1.628 1.465 3.29 2.442 7.172 2.905 10.47 1.251l.592-.3-.497-.351c-1.937-1.388-4.087-2.356-6.092-2.768-.926-.171-2.682-.257-3.462-.145zm3.299.582c1.294.249 3.599 1.14 3.693 1.414.043.12-.171.12-1.063-.034-1.456-.24-2.527-.343-3.53-.343-.565 0-1.028.026-1.028.051 0 .043.514.137 1.157.24 1.525.232 2.785.557 3.444.891 1.063.54 1.294.9.686 1.123-.429.154-2.031.145-3-.017-.95-.154-1.49-.343-2.441-.814-1.38-.703-3.248-2.048-3.008-2.176.18-.103 1.226-.369 1.731-.455.669-.102 2.596-.034 3.359.12zm33.1-.317c-1.757.292-3.368.891-5.039 1.868-.874.506-1.954 1.251-1.954 1.337 0 .085 1.08.582 1.766.822.942.317 1.799.446 2.939.446 2.099-.009 4.155-.711 6.057-2.065.754-.54 1.825-1.482 1.825-1.602 0-.12-.89-.497-1.619-.686-.831-.214-3.007-.282-3.976-.12zm3.53.506c.428.094.9.214 1.062.274l.274.12-.351.3c-.977.874-3.153 2.125-4.19 2.416-1.577.445-4.07.463-4.344.034-.12-.197.248-.54.985-.9.806-.394 1.448-.574 3.213-.865.788-.128 1.44-.248 1.448-.265.017-.018-.205-.043-.505-.078-.643-.06-2.288.06-3.539.275-1.063.18-1.697.197-1.61.068.17-.274 2.39-1.114 3.546-1.336.343-.06.686-.129.772-.146.085-.026.668-.043 1.293-.043.9-.009 1.354.034 1.945.146zm-22.372 1.405c.145.351.265.685.265.737 0 .077.223.102.848.102h.849v-1.473h-2.22l.257.634zm2.347.103v.736h1.628l.043-.214c.034-.12.154-.428.274-.702.12-.274.223-.505.223-.514 0-.017-.488-.034-1.08-.034h-1.08v.728h-.008zm-28.112 2.013c-1.654.24-4.499 1.131-7.609 2.382-2.04.823-2.707 1.029-3.581 1.097-.669.051-2.657-.137-3.505-.334a5.728 5.728 0 0 0-.994-.137c-.591 0-.83.223-.9.805-.034.386-.025.412.275.694.77.737 2.356.866 4.986.411.806-.137 1.526-.23 1.611-.205.309.103.334.317.077.865l-.24.506.292-.043c.574-.103 1.225-.497 1.653-.985.9-1.037 1.2-1.32 1.748-1.688.926-.626 1.44-.686 1.688-.223.112.205.112.308.026.737-.12.617-.034.968.377 1.413l.283.326.454-.625c1.405-1.92 3.29-3.385 4.875-3.788 1.526-.385 3.676-.025 5.158.866l.626.368.154-.154.154-.154-.265-.274c-.549-.575-1.611-1.192-2.665-1.534-1.217-.429-3.102-.557-4.678-.326zm3.401.48c.197.043 0 .077-.814.111-.822.035-1.208.086-1.585.215-.685.231-1.55.702-2.21 1.208-.6.454-2.117 1.988-2.425 2.45-.112.155-.214.283-.257.283-.137 0-.214-.428-.137-.745.257-.986-.129-1.645-.96-1.645-.326 0-.54.068-1.045.316-.651.326-1.166.789-2.374 2.1-.214.248-.428.437-.471.437-.043 0-.094-.129-.12-.291-.051-.369-.334-.635-.72-.686-.171-.026-.916.06-1.722.197-.788.129-1.705.257-2.056.283-1.405.12-2.794-.411-2.622-.977.085-.257.368-.308.925-.188.823.197 2.022.35 3.128.394 1.49.068 1.996-.052 4.695-1.123 3.256-1.294 5.852-2.108 7.352-2.313.317-.043.685-.103.814-.12.36-.052 2.296.026 2.604.094zm49.508-.565c-.06.017-.377.068-.694.12-1.422.23-3.025 1.01-3.822 1.842l-.222.24.162.171.163.163.497-.309c1.088-.676 2.22-1.01 3.65-1.08 1.088-.05 1.851.104 2.776.558 1.166.574 2.88 2.125 3.796 3.419.214.3.411.548.437.556.026 0 .18-.18.334-.394.343-.445.42-.865.274-1.448-.137-.582.086-.942.575-.942.41 0 1.293.557 1.97 1.225.36.36.763.797.891.968.283.377 1.02.857 1.526.977.205.051.402.077.42.06.017-.017-.052-.197-.155-.411-.111-.197-.197-.472-.197-.591 0-.395.231-.412 1.842-.12 1.902.334 3.316.35 4.139.068.36-.12.634-.274.83-.471.249-.257.284-.343.284-.651 0-.275-.043-.403-.223-.6-.206-.231-.266-.257-.677-.257-.249.008-.694.06-1.002.137-.857.197-2.837.385-3.514.334-.822-.069-1.61-.308-3.65-1.131-2.742-1.097-5.218-1.91-6.889-2.245-.72-.137-3.17-.265-3.521-.188zm2.562.54c1.713.23 4.507 1.096 7.746 2.39 2.176.883 2.759 1.054 3.795 1.105.831.043 2.708-.12 3.633-.334.3-.06.634-.128.746-.154.145-.034.257 0 .377.12.222.223.171.454-.146.668-.771.523-2.03.583-4.293.189-1.619-.275-1.842-.283-2.176-.086-.257.154-.437.591-.351.823.043.102.025.102-.103.034-.274-.154-.549-.429-.943-.934-.428-.566-.916-.994-1.61-1.448-.583-.377-1.063-.514-1.543-.463-.291.034-.411.094-.582.291-.275.335-.335.669-.215 1.226.078.36.078.505 0 .685l-.094.232-.463-.592c-.993-1.268-2.287-2.373-3.461-2.981-.968-.506-1.362-.6-2.588-.66l-1.08-.043.583-.086a10.71 10.71 0 0 1 2.768.017zm-36.758-.335c-2.545.206-4.841 1.097-6.555 2.528-.737.608-.745.66-.171.943.634.325 2.082.805 3.042 1.002 1.088.231 3.333.3 4.404.129 2.236-.352 4.095-1.294 5.758-2.888.42-.411.762-.763.762-.797 0-.069-2.065-.583-2.973-.728-.754-.129-2.58-.283-3.127-.275-.198.017-.703.052-1.14.086zm2.982.54c.274.043.53.103.574.12.154.094-.352.266-1.508.488-.651.129-1.603.343-2.108.472-.986.257-2.468.797-2.553.934-.043.051.008.068.137.042.574-.145 2.596-.514 3.256-.6 1.353-.162 3.093.018 3.376.352.248.3-.318.745-1.526 1.174-2.185.78-3.855.891-6.229.403-.857-.18-2.639-.737-2.707-.84-.052-.094.702-.668 1.465-1.105 1.148-.669 2.63-1.166 4.13-1.397.865-.137 2.999-.163 3.693-.043zm12.269-.308c-1.165.12-3.701.651-4.061.84-.069.042.043.197.428.59 2.794 2.828 6.41 3.84 10.574 2.965 1.285-.265 3.358-1.028 3.358-1.225 0-.137-.822-.874-1.439-1.294-1.508-1.002-3.385-1.653-5.45-1.876-.856-.094-2.518-.094-3.41 0zm4.139.608c1.928.326 3.89 1.183 5.184 2.254l.214.188-.831.283c-2.057.685-4.044.985-5.441.822-1.877-.23-4.156-1.062-4.353-1.593-.145-.386.78-.677 2.16-.677.942 0 1.859.12 3.547.463 1.088.214 1.26.222.9.042-.72-.377-2.597-.916-4.293-1.233-1.474-.275-1.945-.472-1.448-.592.83-.222 2.99-.197 4.36.043zm-9.134-.394c-1.92.454-2.613.771-3.316 1.525-.497.514-.977 1.294-1.242 1.954a5.34 5.34 0 0 0-.154.428c0 .026.12.043.257.043.71 0 1.216.308 1.696 1.054.18.274.343.497.36.497.017 0 .034-.326.017-.72-.077-1.79.72-3.282 2.254-4.224.342-.206.736-.446.856-.54.232-.154.232-.154.043-.146-.111-.008-.454.06-.77.129zm-2.399 1.8c-.197.325-.54 1.387-.54 1.687 0 .12-.008.223-.017.223-.017 0-.223-.086-.463-.18l-.437-.18.232-.411c.231-.411 1.157-1.397 1.302-1.397.043.009.009.129-.077.257z" fill="#CD9934"/><path d="M29.98 48.47c-1.053.18-2.005.823-2.236 1.526-.197.591.035 1.645.489 2.236.111.146.12.138.265-.197.172-.377.634-.83 1.08-1.062 1.208-.608 2.879-.574 4.404.12 1.294.582 2.493.865 3.967.934 1.123.042 1.61 0 1.61-.163 0-.069-.162-.12-.47-.154-.669-.078-1.843-.386-2.657-.703-.685-.274-1.062-.471-2.707-1.456-1.5-.909-2.708-1.252-3.745-1.08zm49.988.07c-.6.128-1.808.702-2.88 1.37-1.584.986-2.81 1.474-4.335 1.731-.505.086-.83.18-.83.232 0 .145.196.188.985.188 1.559 0 2.956-.283 4.352-.882 1.131-.48 1.662-.609 2.57-.617.806 0 1.389.12 2.006.428.428.214 1.02.814 1.13 1.14l.095.274.18-.232c.454-.565.643-1.739.368-2.313-.171-.351-.745-.857-1.216-1.071-.797-.368-1.534-.446-2.425-.248zm-23.7.102a1.934 1.934 0 0 0-.454.428l-.206.275.352.41c.668.755 1.2 2.023 1.216 2.854.009.669.103.694.377.086.369-.806.729-1.097 1.568-1.294.172-.034.206-.077.172-.18-.283-.762-1.56-2.16-2.297-2.51a3.828 3.828 0 0 0-.462-.206c-.017 0-.137.06-.266.137zm1.542 1.56c.326.325.591.617.591.66 0 .094-.754.505-.796.428-.026-.035-.077-.197-.129-.36-.145-.454-.445-1.037-.728-1.388l-.24-.3.351.188c.189.103.617.454.951.772zm-51.89 7.12C4.054 61.777 1.518 67.356 1.2 67.715c-.215.249-.275.275-.72.309l-.48.034.026.308.025.309h4.096v-.591L3.6 68.04c-1.191-.111-1.191-.086-.24-2.322l.48-1.14h5.01l.6 1.491c.325.823.591 1.543.591 1.611 0 .223-.223.308-.891.351l-.668.043.025.317.026.309 2.356-.009 2.357-.017.025-.3.026-.3-.428-.043c-.275-.025-.489-.094-.592-.188-.24-.214-.668-1.157-2.939-6.486-1.14-2.682-2.107-4.97-2.159-5.073-.077-.18-.137-.205-.42-.205h-.317l-.522 1.242zm1.492 3.847c.565 1.371 1.01 2.494.994 2.51-.018.018-.977.026-2.117.018L4.2 63.67l1.053-2.493c.583-1.371 1.071-2.485 1.097-2.485.026 0 .497 1.114 1.063 2.476zm97.121-4.969c-.043.076-.351.813-.702 1.627-.934 2.211-3.256 7.455-3.908 8.8-.377.788-.617 1.2-.745 1.268a2.29 2.29 0 0 1-.608.137l-.429.043v.591h4.096v-.59l-.617-.052c-.805-.077-.934-.197-.771-.746.06-.197.334-.89.608-1.525l.497-1.157 2.502-.025 2.511-.017.565 1.37c.309.755.583 1.5.591 1.654.043.343-.025.377-.899.446l-.583.043v.608l2.373.009h2.382v-.335c0-.317 0-.325-.274-.325-.582 0-.762-.154-1.148-.943-.197-.394-1.345-3.024-2.545-5.852l-2.185-5.133-.317-.025c-.248 0-.342.017-.394.128zm1.011 5.003l1.028 2.468-2.082.026c-1.139.008-2.099 0-2.125-.026-.017-.017.446-1.165 1.037-2.553s1.071-2.494 1.088-2.46l1.054 2.545zM32.86 56.277a.848.848 0 0 0-.01.308c.027.206.044.214.55.274.642.069.805.146.882.429.077.282.077 9.93 0 10.307-.043.232-.12.326-.386.463-.265.146-.325.223-.325.394v.214l3.05.017c3.333.018 3.727-.025 4.824-.42 1.602-.582 2.87-1.756 3.641-3.35.977-1.996.952-4.335-.06-6.049-.385-.668-1.388-1.628-2.03-1.962a7.259 7.259 0 0 0-2.125-.651c-.72-.103-7.977-.086-8.012.026zm7.548.933c1.183.318 2.03.9 2.63 1.825.6.926.892 2.425.746 3.882-.231 2.52-1.474 4.173-3.513 4.695-.848.215-1.98.292-3.033.198-.531-.043-1.003-.12-1.054-.163-.086-.086-.12-10.368-.034-10.454.257-.24 3.341-.222 4.258.017zm8.748-.933a.849.849 0 0 0-.008.308c.025.206.043.214.548.274.643.069.806.146.883.429.077.274.077 9.58 0 10.136-.052.403-.086.437-.412.643-.282.171-.35.248-.325.402l.026.197 4.326.009 4.328.009.05-.986a23.13 23.13 0 0 1 .138-1.5c.043-.273.043-.522.009-.565-.043-.043-.18-.051-.326-.043l-.257.026-.231.925c-.206.815-.266.934-.437 1.02-.377.18-1.26.257-3.128.257h-1.86l-.05-.411c-.06-.523-.06-3.873 0-4.336l.05-.351h1.475c1.405 0 1.996.06 2.142.206.042.042.12.377.171.762l.103.686.283.025.282.026v-4.104h-.617v.403c0 .59-.12.96-.334 1.028-.248.077-2.922.145-3.256.085l-.274-.05v-1.415c0-.78.026-1.833.043-2.347l.051-.926.934-.051c1.054-.06 2.76.06 3.35.231l.378.12.05.403a8.6 8.6 0 0 1 .044.814v.411h.608l.043-.446c.034-.24.103-.856.163-1.37.068-.506.12-.943.12-.969 0-.025-2.04-.042-4.524-.042-3.368-.018-4.533.008-4.559.077zm12.664-.001a.849.849 0 0 0-.008.309c.025.214.034.214.66.274.736.06.925.137 1.002.428.043.12.06 2.434.06 5.15s-.026 5.038-.06 5.15c-.077.291-.291.385-1.02.437l-.617.043v.6h5.176v-.6l-.643-.043c-.514-.043-.677-.086-.814-.214l-.171-.172-.026-4.918c-.017-2.708 0-5.064.026-5.244.042-.308.051-.326.445-.42.6-.154 2.005-.137 2.545.034.634.197 1.063.549 1.337 1.097.197.412.231.54.222 1.097 0 .566-.034.694-.274 1.157-.488.968-1.362 1.405-2.853 1.456-.771.035-.814.043-.831.197-.009.12.171.395.608.909.591.685 1.577 1.988 3.47 4.541l.814 1.097h2.588l-.026-.291c-.025-.258-.043-.283-.257-.309-.437-.043-.565-.094-.84-.377-.334-.334-3.984-5.158-3.984-5.253 0-.042.249-.128.54-.205 1.234-.317 2.125-.977 2.605-1.962.274-.557.291-.626.291-1.32 0-.874-.137-1.25-.668-1.825-.394-.428-.737-.617-1.44-.788-.445-.103-1.08-.12-4.19-.129-2.69 0-3.641.026-3.667.094zm14.146-.06c-.017.018-.034.163-.034.317v.283l.609.043c.848.043.985.154 1.053.771.026.274.043 2.63.026 5.253l-.026 4.764-.17.171c-.138.146-.275.18-.832.206l-.66.043v.634h5.176v-.66h-.515c-.72 0-1.045-.163-1.13-.583-.035-.171-.043-2.519-.043-5.21.017-3.778.042-4.943.12-5.072.12-.206.522-.334 1.122-.334h.437v-.66h-2.553c-1.397 0-2.562.017-2.58.034zm7.849.284v.316l.523.043c.685.052.762.094.874.429.111.342.12 9.125.017 10.016-.06.531-.069.54-.386.72-.282.154-.334.214-.334.428v.249h3.076c2.63-.009 3.17-.026 3.762-.146 2.382-.471 4.292-2.185 5.046-4.524.24-.746.326-1.328.326-2.194-.008-1.688-.531-2.981-1.67-4.104a4.718 4.718 0 0 0-1.86-1.156c-1.028-.352-1.525-.377-5.56-.386h-3.805v.308h-.009zm7.506.71c1.217.326 1.97.823 2.562 1.697 1.105 1.61 1.19 4.387.188 6.41-.933 1.91-2.981 2.758-5.946 2.484a12.257 12.257 0 0 1-1.002-.12c-.103-.06-.078-10.445.017-10.496.377-.232 3.281-.214 4.181.026zm-75.247-.676v.308h.334c.514.009.926.129 1.123.351l.171.198-.009 4.73c0 2.604-.034 4.926-.06 5.174-.077.592-.188.686-.873.746l-.566.043v.591l1.97-.009h1.971v-.582l-.54-.043c-.616-.052-.77-.111-.865-.283-.06-.128-.137-9.425-.077-9.365.026.026 1.457 1.816 3.188 3.976a814.607 814.607 0 0 0 4.12 5.106l.97 1.157.787.197.789.189.025-5.793c.017-4.172.052-5.843.12-5.997.112-.257.232-.3.9-.352l.514-.042v-.592l-1.988.017-1.996.026v.549l.488.05c.643.07.771.12.891.318.069.129.103 1.268.112 4.807l.026 4.635-.36-.385c-.454-.489-4.73-5.844-6.547-8.209l-1.38-1.79h-3.22v.274h-.018zm28.704 16.151c-1.037.154-1.885.78-2.313 1.688-.206.437-.232.591-.232 1.2 0 .47.043.822.129 1.096.437 1.277 1.808 2.048 3.41 1.928.874-.06 1.56-.308 1.713-.608.18-.352.043-.394-.428-.154-.377.188-.506.205-1.234.205-.737 0-.857-.026-1.25-.214a2.58 2.58 0 0 1-1.226-1.362c-.129-.352-.154-.558-.129-1.132.043-1.045.403-1.628 1.217-2.056.283-.146.463-.18 1.045-.18.583 0 .755.034 1.08.189.368.188.386.205.446.59.051.31.102.412.197.412.111 0 .145-.12.222-.634.043-.351.078-.651.052-.668-.017-.017-.257-.103-.531-.18-.643-.155-1.577-.215-2.168-.12zm26.356 0c-1.67.24-2.699 1.37-2.699 2.956 0 1.345.626 2.288 1.842 2.767.634.249 2.1.249 3.008-.008l.634-.18v-.805c0-.72.017-.806.154-.883.086-.043.154-.137.154-.214 0-.12-.111-.129-1.045-.129-1.028-.008-1.046-.008-1.046.172 0 .154.043.171.446.197l.437.025.026.677c.025.669.025.669-.197.754-.12.052-.497.112-.831.12-.814.043-1.38-.154-1.894-.668-.523-.514-.728-1.08-.728-1.97 0-.849.197-1.354.685-1.808.437-.412.806-.558 1.508-.6.471-.035.669-.009 1.08.128.668.223.77.334.77.746 0 .274.027.334.147.334.162 0 .205-.12.282-.823l.043-.48-.368-.12a5.142 5.142 0 0 0-2.408-.188zm13.221 0c-1.697.274-2.733 1.85-2.365 3.616.146.694.351 1.105.754 1.525 1.071 1.105 3.307 1.028 4.438-.146.669-.694.986-1.808.806-2.819-.231-1.26-1.02-1.988-2.365-2.185-.608-.086-.694-.086-1.268.009zm1.508.582c.66.343 1.062.977 1.217 1.928.145.883-.146 2.005-.652 2.468-.488.454-1.37.609-2.09.36-.429-.146-.994-.72-1.217-1.225-.326-.746-.368-1.663-.128-2.468.11-.377.754-1.054 1.14-1.183.41-.128 1.353-.06 1.73.12zm-56.423.746c-.993 2.296-1.687 3.796-1.85 3.967a.521.521 0 0 1-.351.18c-.146 0-.198.043-.198.154 0 .146.052.155.969.155.916 0 .968-.01.968-.155 0-.111-.052-.154-.189-.154-.274 0-.428-.077-.428-.223 0-.068.111-.394.248-.728l.249-.591h2.271l.257.66c.137.35.231.702.205.77-.034.078-.154.12-.36.12-.257 0-.308.026-.308.155 0 .146.051.154 1.122.154 1.071 0 1.123-.008 1.123-.154 0-.103-.052-.154-.154-.154a.492.492 0 0 1-.3-.146c-.077-.077-.643-1.302-1.243-2.742-.95-2.228-1.13-2.596-1.268-2.596-.163-.009-.282.206-.762 1.328zm1.029 1.114l.428 1.028h-.925c-.514 0-.917-.034-.9-.06.446-1.122.891-2.073.926-2.04.025.026.24.515.47 1.072zm24.685-1.86c-.368.892-1.756 4.002-1.97 4.43-.19.369-.31.463-.592.463-.094 0-.145.051-.145.154 0 .146.05.155.968.155.917 0 .968-.01.968-.155 0-.12-.051-.154-.214-.154a.654.654 0 0 1-.351-.103c-.13-.103-.12-.137.145-.771l.283-.668h2.27l.258.642c.128.352.248.677.248.729 0 .111-.188.18-.471.18-.172 0-.223.042-.223.154 0 .146.051.154 1.122.154 1.046 0 1.123-.008 1.123-.146 0-.103-.069-.154-.231-.188-.283-.06-.42-.326-1.671-3.273-1.097-2.58-1.106-2.588-1.517-1.603zm.686 1.791c.222.523.402.977.402 1.02 0 .043-.402.068-.9.068-.685 0-.89-.025-.856-.103.411-1.036.865-2.047.9-2.005.034.043.23.498.454 1.02zM10.205 72.9c0 .11.077.153.317.188.18.025.36.085.411.128.06.06.086.797.086 2.442 0 2.614.025 2.502-.514 2.502-.24 0-.292.035-.292.154 0 .146.052.155 1.234.155 1.183 0 1.234-.009 1.234-.155 0-.12-.051-.154-.24-.154-.514 0-.531-.043-.531-1.276V75.76h.643c.753 0 .9.077.96.523.033.248.076.325.188.325.137 0 .145-.077.145-.968 0-.9-.008-.968-.145-.968-.112 0-.163.077-.215.283-.077.342-.197.385-1.045.402l-.523.009v-2.134l.36-.051c.394-.052 1.26.017 1.414.111.051.034.12.214.129.42.042.283.068.351.197.351.18 0 .197-.042.248-.754l.043-.557h-2.048c-1.953 0-2.056.009-2.056.146zm5.561 0c0 .11.077.153.308.196.249.043.334.094.394.257.043.12.069 1.063.052 2.434-.026 2.45-.009 2.382-.506 2.382-.197 0-.257.034-.257.154 0 .146.052.154 1.2.154 1.14 0 1.2-.008 1.2-.154 0-.12-.052-.154-.24-.154-.13 0-.3-.043-.386-.078-.137-.077-.146-.188-.146-2.476v-2.39l.197-.077c.112-.043.274-.077.386-.077.128 0 .188-.043.188-.155 0-.145-.051-.154-1.2-.154-1.113-.008-1.19 0-1.19.137zm3.633-.001c0 .12.077.163.317.197.24.043.334.103.394.257.12.317.043 4.524-.086 4.679-.06.068-.223.12-.36.12-.205 0-.265.034-.265.154 0 .145.051.154.925.154s.925-.008.925-.154c0-.12-.051-.154-.222-.154-.412 0-.429-.069-.454-2.314-.026-1.8-.018-2.04.085-1.937.06.06.609.746 1.217 1.509 2.236 2.802 2.433 3.016 2.81 3.119.197.042.36.085.386.085.026 0 .043-1.19.043-2.648 0-1.448.034-2.681.06-2.733.034-.043.188-.111.351-.137.206-.043.283-.094.283-.197 0-.137-.069-.146-.926-.146s-.925.009-.925.146c0 .12.077.163.3.197.223.043.317.094.351.214.026.094.043 1.063.043 2.16v1.987l-.266-.282c-.3-.343-2.887-3.616-3.238-4.096l-.232-.334h-.762c-.694.008-.754.025-.754.154zm14.977.001c0 .11.077.153.308.196.198.034.335.111.386.206.06.111.086.874.06 2.433-.026 2.477-.017 2.425-.463 2.425-.163 0-.214.043-.214.154 0 .146.051.155.925.155s.926-.009.926-.155c0-.12-.052-.154-.266-.154-.137 0-.3-.043-.351-.111-.06-.069-.086-.703-.069-2.134l.026-2.022.728.917a186.32 186.32 0 0 0 1.843 2.27c1.028 1.277 1.13 1.371 1.448 1.449.197.042.36.085.385.085.026 0 .043-1.13.043-2.502 0-1.37.026-2.605.043-2.733.043-.197.094-.249.351-.283.223-.043.3-.086.3-.197 0-.137-.068-.146-.925-.146s-.926.009-.926.146c0 .111.078.163.283.197.163.034.317.094.351.137.035.052.06 1.011.06 2.134 0 1.834-.017 2.022-.12 1.936-.12-.102-2.613-3.239-3.264-4.113l-.334-.437h-.763c-.694 0-.771.018-.771.146zm14.446 0c0 .11.077.153.317.188.18.025.351.077.411.128.052.052.086.806.086 2.4 0 2.21-.008 2.322-.146 2.433a.86.86 0 0 1-.41.111c-.198 0-.258.035-.258.154 0 .146.052.155 1.234.155s1.234-.009 1.234-.155c0-.12-.052-.154-.257-.154-.137 0-.326-.043-.412-.111-.137-.112-.145-.223-.145-2.434 0-1.61.026-2.339.086-2.399.042-.043.23-.111.41-.128.24-.035.318-.078.318-.189 0-.137-.077-.146-1.234-.146s-1.234.009-1.234.146zm10.89 0c0 .11.077.153.317.188.18.025.36.085.412.128.06.06.085.797.085 2.45v2.365l-.171.12c-.103.06-.18.163-.18.215 0 .094.351.111 2.04.111h2.03l.043-.523c.086-.84.068-.942-.094-.942-.12 0-.172.094-.24.403-.052.222-.146.454-.215.505-.085.069-.462.103-1.225.103H61.41v-4.781l.197-.077c.111-.043.274-.077.386-.077.128 0 .188-.043.188-.155 0-.145-.051-.154-1.234-.154-1.157-.026-1.234-.017-1.234.12zm15.758 0c0 .11.077.153.317.188.18.025.36.085.41.128.06.06.087.797.087 2.442 0 2.614.025 2.502-.515 2.502-.24 0-.29.034-.29.154 0 .146.05.155 1.233.155 1.182 0 1.234-.009 1.234-.155 0-.12-.052-.154-.24-.154-.129 0-.3-.043-.386-.077-.137-.077-.145-.189-.145-2.468v-2.39l.18-.043c.308-.077.976-.043 1.242.06.411.171.591.462.591.96 0 .385-.026.445-.291.71-.3.31-.703.463-1.191.463-.163 0-.291.043-.291.086s.222.36.505.711c.274.352.763.994 1.097 1.448l.6.814.642.026c.591.026.634.017.634-.137 0-.094-.051-.154-.137-.154a.613.613 0 0 1-.3-.12c-.18-.12-1.773-2.202-1.816-2.357-.017-.042.128-.137.326-.205.488-.163.805-.429.993-.823.386-.797.06-1.61-.728-1.825-.18-.043-1.028-.086-2.022-.086-1.645 0-1.74.009-1.74.146zm13.752 0c0 .11.077.153.308.196.189.034.334.112.386.197.043.095.077.891.077 2.031 0 1.988.043 2.314.351 2.673.343.412.9.591 1.817.591.985.01 1.465-.128 1.867-.556.48-.506.48-.497.523-2.708.043-1.902.043-2.048.189-2.15a.858.858 0 0 1 .41-.112c.198 0 .258-.034.258-.154 0-.146-.051-.154-1.045-.154-.986 0-1.046.008-1.046.154 0 .12.052.154.189.154.111 0 .274.034.385.077l.197.077v1.877c0 1.79-.008 1.893-.17 2.219-.267.505-.61.66-1.492.66-.874 0-1.2-.137-1.43-.609-.138-.3-.155-.471-.155-2.176 0-1.011.034-1.894.069-1.945.034-.06.205-.12.385-.146.24-.034.317-.077.317-.188 0-.137-.077-.146-1.2-.146-1.113-.008-1.19 0-1.19.137zm7.334-.001c0 .12.043.163.189.163.111 0 .274.034.385.077l.197.077v2.39c0 2.297-.008 2.4-.145 2.477a1.028 1.028 0 0 1-.386.077c-.188 0-.24.035-.24.154 0 .146.052.155 1.234.155s1.234-.009 1.234-.155c0-.12-.052-.154-.283-.154-.548 0-.523.103-.548-2.45-.009-1.371.017-2.348.051-2.417.12-.188 1.14-.197 1.465-.017.694.377.729 1.491.06 1.98-.163.12-.343.162-.694.162-.428.009-.48.026-.454.154.043.215.026.206.626.206.668 0 1.122-.197 1.508-.643.634-.745.514-1.825-.249-2.202-.248-.128-.514-.145-2.116-.171-1.8-.017-1.834-.017-1.834.137zm-38.6 9.314c-.617.171-1.31.548-2.759 1.482-1.534.994-1.808 1.14-2.433 1.303-1.303.334-2.348-.549-1.903-1.611.138-.343.549-.668.823-.668.206 0 .214.017.18.274-.051.334.129.582.437.582.377 0 .583-.411.386-.78-.24-.428-1.191-.505-1.766-.128-.78.523-.865 1.842-.162 2.639.428.497.95.694 1.765.694 1.062 0 1.593-.214 3.59-1.525.728-.471 1.508-.96 1.756-1.071 1.097-.557 2.108-.454 2.63.266.198.274.198.822 0 1.156-.17.3-.59.6-.822.6-.145 0-.163-.043-.137-.291.043-.377-.137-.574-.48-.54-.505.043-.522.685-.034.985.574.352 1.517.043 1.894-.6.171-.29.205-.437.197-.856-.009-.857-.394-1.466-1.123-1.783-.505-.24-1.456-.29-2.039-.128z" fill="#CD9934"/><path d="M55.343 82.333c-.223.06-.515.231-2.237 1.293-1.148.712-1.396.746-1.885.223-.257-.274-.291-.214-.162.266.145.523.728.763 1.482.608.557-.12 1.276-.497 2.587-1.362.6-.403 1.217-.788 1.354-.857.232-.12.24-.137.103-.197-.206-.06-.951-.052-1.242.026zm2.964 1.182c-.548.223-.9.429-2.322 1.371-.634.428-1.19.763-1.216.763-.043 0-.069.043-.069.085 0 .052.231.078.728.052l.72-.026.763-.471c.42-.266 1.088-.668 1.482-.917.505-.308.822-.454 1.062-.488.318-.035.369-.009.617.24l.275.274v-.274c0-.197-.06-.335-.266-.532-.248-.248-.291-.265-.788-.265-.386.008-.677.06-.986.188zm-42.053.171l-.197.197-4.712.07c-2.588.033-4.722.076-4.739.093-.043.043 5.664.129 7.849.129h1.61l.12.197c.223.343.832.326 1.097-.034.077-.103 1.56-.103 14.446.051 7.9.094 15.166.197 16.16.214l1.791.052v-1.183h-.557c-.308 0-7.566.086-16.134.197l-15.577.197-.197-.197a.685.685 0 0 0-.96.017zm45.472.386v.592l1.842-.052c1.003-.026 8.269-.12 16.126-.214l14.309-.171.248.205c.334.274.643.274.943-.026l.231-.23h1.56c2.159 0 7.857-.095 7.814-.13-.017-.017-2.142-.06-4.713-.094l-4.687-.068-.214-.197c-.283-.275-.72-.275-.977 0l-.18.197-15.594-.197c-8.577-.12-15.843-.197-16.142-.197h-.566v.582z" fill="#CD9934"/></svg>