<svg width="181" height="38" fill="none" xmlns="http://www.w3.org/2000/svg"><path d="M101.136 9.123c-1.459 0-1.56.06-2.715 1.572-.836 1.089-7.608 9.912-7.895 10.29-.167.216-.318.431-.415.576l.06-.934V11.17c0-1.348-.065-2.048-1.467-2.048h-.056v14.613h.056c1.444 0 1.57-.024 2.39-1.099l8.227-10.764c.16-.21.308-.412.403-.546l-.061 1.111.003 11.297h1.521V9.122h-.051zm45.185 0c-1.46 0-1.561.06-2.716 1.572-.85 1.114-7.823 10.197-7.894 10.29-.169.216-.318.431-.418.576l.062-.934V11.17c0-1.348-.066-2.048-1.465-2.048h-.056v14.613h.056c1.44 0 1.57-.024 2.389-1.099l8.227-10.764c.16-.21.308-.412.401-.546l-.059 1.111.003 11.297h1.523V9.122h-.053zm-35.587 0h-3.736v14.613h1.543V10.653h2.574c2.396 0 3.464.928 3.464 3.011 0 2.35-2.09 2.943-3.336 3.088-.325.037-1.396.242-1.396 1.296v.053h.054c1.182 0 2.859-.194 3.743-.62 1.567-.758 2.431-2.11 2.431-3.819 0-2.842-1.996-4.54-5.341-4.54zm17.253 1.073c-.927-.7-2.228-1.073-3.763-1.073h-3.737v14.613h1.545V10.653h2.574c2.396 0 3.465.928 3.465 3.011 0 2.35-2.09 2.943-3.335 3.088-.328.037-1.4.242-1.4 1.296v.053h.057c1.18 0 2.858-.194 3.742-.62 1.567-.758 2.431-2.11 2.431-3.819-.001-1.505-.531-2.67-1.579-3.466zm51.074.687c-1.287-1.314-3.198-2.01-5.531-2.01-4.838 0-7.84 2.88-7.84 7.512 0 4.83 2.721 7.603 7.466 7.603 2.393 0 4.371-.674 5.726-1.949 1.388-1.3 2.118-3.244 2.118-5.609 0-2.329-.671-4.245-1.939-5.547zm-5.836 12.17c-1.683 0-3.225-.738-4.341-2.076-1.037-1.248-1.63-2.93-1.63-4.614 0-1.742.598-3.374 1.689-4.592 1.13-1.268 2.706-1.966 4.436-1.966 1.692 0 3.246.715 4.37 2.014 1.057 1.224 1.667 2.895 1.667 4.587 0 1.78-.603 3.437-1.692 4.663-1.135 1.282-2.732 1.985-4.499 1.985zm-21.116-13.93h-.054v14.613h1.52V11.17c0-1.348-.068-2.048-1.466-2.048zm3.999 6.774l7.237-6.778h-.133c-1.498 0-1.994.188-2.941 1.14l-5.793 5.577-.034.037 6.265 6.688c.945 1.04 1.422 1.318 2.975 1.318h.122l-7.698-7.982zM82.587 9.123c-1.473 0-2.025 0-2.484 1.107-.156.377-2.686 6.511-4.103 9.94l-.877 2.13-.85-2.05-4.132-10.02c-.457-1.107-1.01-1.107-2.486-1.107h-.05v14.613h1.52V11.948l-.03-.523.225.543 5.045 11.768h1.513l.025-.064 5.022-11.704.222-.527-.029.51v11.785h1.518V9.123h-.05z" fill="#231F20"/><path d="M56.505 0L29.53.004c.21.01.376.18.376.391v2.09a.396.396 0 0 1-.395.395h-2.09a.396.396 0 0 1-.395-.395V.395c0-.21.167-.38.375-.39h-3.28a.422.422 0 0 0-.421.421v3.135a.39.39 0 0 1 .377-.306h2.09c.218 0 .395.177.395.395v2.09a.396.396 0 0 1-.395.395h-2.09a.39.39 0 0 1-.378-.306v11.108a.39.39 0 0 1 .377-.305h2.09c.219 0 .396.177.396.394v2.09a.396.396 0 0 1-.395.396h-2.09a.39.39 0 0 1-.378-.306v13.231c0 .233.19.422.422.422h3.3a.396.396 0 0 1-.395-.395v-2.09c0-.218.177-.396.395-.396h2.09c.218 0 .395.178.395.396v2.09a.396.396 0 0 1-.395.395h26.993c1.873 0 3.39-1.45 3.39-3.24V3.24C59.895 1.45 58.377 0 56.504 0zM29.906 15.773a.396.396 0 0 1-.395.395h-2.09a.396.396 0 0 1-.395-.395v-2.09c0-.218.177-.395.395-.395h2.09c.218 0 .395.177.395.395v2.09zM5.83 3.255H3.74a.396.396 0 0 0-.396.395v2.09c0 .218.178.395.396.395h2.09a.396.396 0 0 0 .395-.395V3.65a.396.396 0 0 0-.395-.395zm3.344 16.72h-2.09a.396.396 0 0 0-.396.396v2.09c0 .218.178.395.396.395h2.09a.396.396 0 0 0 .395-.395v-2.09a.396.396 0 0 0-.395-.395zm3.344 0h-2.09a.396.396 0 0 0-.395.396v2.09c0 .218.177.395.395.395h2.09a.396.396 0 0 0 .396-.395v-2.09a.396.396 0 0 0-.396-.395zM9.174 0h-2.09a.396.396 0 0 0-.396.395v2.09c0 .218.178.395.396.395h2.09a.396.396 0 0 0 .395-.395V.395A.396.396 0 0 0 9.174 0zm3.344 29.979h-2.09a.396.396 0 0 0-.395.395v2.09c0 .218.177.395.395.395h2.09a.396.396 0 0 0 .396-.395v-2.09a.396.396 0 0 0-.396-.395zm-3.344-3.344h-2.09a.396.396 0 0 0-.396.395v2.09c0 .218.178.395.396.395h2.09a.396.396 0 0 0 .395-.395v-2.09a.396.396 0 0 0-.395-.395zm-6.688 0H.396A.396.396 0 0 0 0 27.03v2.09c0 .218.177.395.395.395h2.09a.396.396 0 0 0 .395-.395v-2.09a.395.395 0 0 0-.394-.395zm0 3.344H.396a.396.396 0 0 0-.396.395v2.09c0 .218.177.395.395.395h2.09a.396.396 0 0 0 .395-.395v-2.09a.395.395 0 0 0-.394-.395zm0-23.38H.396A.396.396 0 0 0 0 6.995v2.09c0 .218.177.394.395.394h2.09a.395.395 0 0 0 .395-.394v-2.09a.395.395 0 0 0-.394-.396zM5.83 23.32H3.74a.396.396 0 0 0-.396.396v2.09c0 .218.178.395.396.395h2.09a.396.396 0 0 0 .395-.395v-2.09a.396.396 0 0 0-.395-.396zm0 6.659H3.74a.396.396 0 0 0-.396.395v2.09c0 .218.178.395.396.395h2.09a.396.396 0 0 0 .395-.395v-2.09a.396.396 0 0 0-.395-.395zM12.518 0h-2.09a.396.396 0 0 0-.395.395v2.09c0 .218.177.395.395.395h2.09a.396.396 0 0 0 .396-.395V.395A.396.396 0 0 0 12.518 0zm6.689 6.599h-2.09a.396.396 0 0 0-.396.395v2.09c0 .218.177.395.395.395h2.09a.395.395 0 0 0 .396-.395v-2.09a.396.396 0 0 0-.395-.395zm0-6.599h-2.09a.396.396 0 0 0-.396.395v2.09c0 .218.177.395.395.395h2.09a.396.396 0 0 0 .396-.395V.395A.396.396 0 0 0 19.207 0zm3.344 9.943h-2.09a.396.396 0 0 0-.396.395v2.09c0 .218.178.395.396.395h2.09a.396.396 0 0 0 .395-.395v-2.09a.396.396 0 0 0-.395-.395zm-3.344 3.344h-2.09a.396.396 0 0 0-.396.396v2.09c0 .218.177.395.395.395h2.09a.396.396 0 0 0 .396-.395v-2.09a.396.396 0 0 0-.395-.396zm-6.689 3.345h-2.09a.396.396 0 0 0-.395.395v2.09c0 .218.177.395.395.395h2.09a.396.396 0 0 0 .396-.395v-2.09a.396.396 0 0 0-.396-.395zm10.033 13.347h-2.09a.396.396 0 0 0-.396.395v2.09c0 .218.178.395.396.395h2.09a.396.396 0 0 0 .395-.395v-2.09a.396.396 0 0 0-.395-.395zm-6.688 0h-2.09a.396.396 0 0 0-.396.395v2.09c0 .218.178.395.396.395h2.09a.396.396 0 0 0 .395-.395v-2.09a.396.396 0 0 0-.395-.395zm0-13.347h-2.09a.396.396 0 0 0-.396.395v2.09c0 .218.178.395.396.395h2.09a.396.396 0 0 0 .395-.395v-2.09a.396.396 0 0 0-.395-.395zm3.344 10.003h-2.09a.396.396 0 0 0-.396.395v2.09c0 .218.177.395.395.395h2.09a.396.396 0 0 0 .396-.395v-2.09a.396.396 0 0 0-.395-.395zm-3.344-13.348h-2.09a.396.396 0 0 0-.396.396v2.09c0 .218.178.395.396.395h2.09a.396.396 0 0 0 .395-.395v-2.09a.396.396 0 0 0-.395-.396zm0-10.032h-2.09a.396.396 0 0 0-.396.395v2.09c0 .218.178.395.396.395h2.09a.396.396 0 0 0 .395-.395V3.65a.396.396 0 0 0-.395-.395z" fill="#EB2227"/><path fill-rule="evenodd" clip-rule="evenodd" d="M43.747 13.89a2.4 2.4 0 1 1 0 4.799 2.4 2.4 0 0 1-2.398-2.4 2.401 2.401 0 0 1 2.398-2.398z" fill="#fff"/><path fill-rule="evenodd" clip-rule="evenodd" d="M47.943 11.79a1.953 1.953 0 1 1 0 3.903 1.952 1.952 0 1 1 0-3.903zm-9.228 4.006a1.954 1.954 0 1 1 0 3.91 1.955 1.955 0 0 1 0-3.91zm1.686-5.164a2.05 2.05 0 0 1 0 4.098 2.05 2.05 0 0 1-2.048-2.053c0-1.13.916-2.045 2.048-2.045zm2.303 8.743a1.95 1.95 0 0 1 1.952 1.949 1.954 1.954 0 1 1-3.908 0 1.95 1.95 0 0 1 1.956-1.95zm-4.208 2.758a2.581 2.581 0 0 1 0 5.162 2.582 2.582 0 1 1 0-5.162zm12.824-1.029a2.585 2.585 0 0 1 2.584 2.582 2.584 2.584 0 1 1-2.583-2.582zm-3.552-4.043a2.39 2.39 0 1 1-2.393 2.391c0-1.32 1.07-2.391 2.393-2.391zm-12.803.857c.882 0 1.598.713 1.598 1.598a1.6 1.6 0 0 1-1.598 1.599 1.6 1.6 0 0 1-1.6-1.599c0-.885.715-1.598 1.6-1.598zm-2.067 3.225c.737 0 1.339.6 1.339 1.337a1.34 1.34 0 1 1-1.34-1.338zm-.163 3.404a.971.971 0 1 1 0 1.942.971.971 0 0 1 0-1.942zm17.56-16.385c1.006 0 1.817.813 1.817 1.82a1.82 1.82 0 1 1-1.817-1.82zm-13.802.364c.962 0 1.74.784 1.74 1.742a1.737 1.737 0 1 1-3.478 0c0-.958.78-1.742 1.738-1.742zm-3.581-.421a1.121 1.121 0 1 1 0 2.242 1.121 1.121 0 0 1 0-2.242zm16.876-3.187a1.338 1.338 0 1 1 0 2.676 1.338 1.338 0 0 1 0-2.676z" fill="#fff"/><path d="M180.126 34.903h-2.09a.395.395 0 0 0-.395.395v2.09c0 .218.177.395.395.395h2.09a.395.395 0 0 0 .395-.395v-2.09a.395.395 0 0 0-.395-.395zm-87.695 0h-2.09a.396.396 0 0 0-.395.395v2.09c0 .218.177.395.395.395h2.09a.396.396 0 0 0 .395-.395v-2.09a.395.395 0 0 0-.395-.395zm3.345-5.046h-2.09a.396.396 0 0 0-.396.396v2.09c0 .218.177.395.395.395h2.09a.396.396 0 0 0 .396-.395v-2.09a.396.396 0 0 0-.395-.396zm74.796 5.046h-2.09a.396.396 0 0 0-.396.395v2.09c0 .218.178.395.396.395h2.09a.395.395 0 0 0 .395-.395v-2.09a.395.395 0 0 0-.395-.395zm3.344-5.046h-2.09a.395.395 0 0 0-.395.396v2.09c0 .218.177.395.395.395h2.09a.396.396 0 0 0 .396-.395v-2.09a.396.396 0 0 0-.396-.396zm-9.835 0h-62.377a.502.502 0 0 0-.502.503v6.92c0 .278.224.503.502.503h62.377a.502.502 0 0 0 .502-.502V30.36a.502.502 0 0 0-.502-.503z" fill="#EB2227"/><path d="M102.14 33.903h.812l.203-1.081h-.725v-.5h.819l.276-1.509h.587l-.283 1.509h.885l.276-1.509h.587l-.283 1.509h.726v.5h-.82l-.195 1.08h.718v.502h-.812l-.269 1.428h-.58l.261-1.428h-.878l-.268 1.428h-.58l.261-1.428h-.725l.007-.501zm2.277 0l.203-1.081h-.885l-.196 1.08h.878zm5.722 1.929v-2.937h-.015l-1.058 2.937h-.574l-1.058-2.937h-.015v2.937h-.659V32.19h1.037l.979 2.8h.007l.979-2.8h1.037v3.64h-.66zm1.921 0V32.19h.668v2.727h.021l1.719-2.727h.761v3.64h-.667v-2.733h-.022l-1.718 2.734h-.762zm4.417-3.046a8.45 8.45 0 0 0-.022-.595h.689l.014.588c.247-.42.696-.66 1.24-.66.943-.007 1.531.718 1.531 1.886 0 1.196-.639 1.95-1.661 1.95-.493 0-.899-.195-1.117-.543v1.82h-.674v-4.446zm1.675 2.669c.682 0 1.066-.53 1.066-1.494 0-.878-.341-1.334-1.001-1.334-.71 0-1.088.5-1.088 1.457.001.703.204 1.37 1.023 1.37zm2.755-2.669c0-.196-.007-.399-.021-.595h.689l.014.588c.247-.42.696-.66 1.24-.66.943-.007 1.53.718 1.53 1.886 0 1.196-.638 1.95-1.66 1.95-.493 0-.9-.195-1.117-.543v1.82h-.675v-4.446zm1.676 2.669c.682 0 1.066-.53 1.066-1.494 0-.878-.341-1.334-1.001-1.334-.711 0-1.088.5-1.088 1.457 0 .703.203 1.37 1.023 1.37zm2.77.377V32.19h.668v2.727h.021l1.719-2.727h.761v3.64h-.667v-2.733h-.022l-1.719 2.734h-.761zm4.373 0V32.19h.689v1.668h.014l1.349-1.668h.892l-1.559 1.719 1.654 1.922h-.893l-1.443-1.799h-.014v1.799h-.689zm5.171-3.735c1.167 0 1.784.769 1.784 1.907 0 1.196-.718 1.95-1.842 1.95-1.11 0-1.792-.725-1.792-1.9 0-1.166.646-1.957 1.85-1.957zm-.044 3.35c.769 0 1.102-.718 1.102-1.465 0-.87-.391-1.385-1.058-1.385-.689 0-1.139.55-1.139 1.378 0 .922.414 1.473 1.095 1.473zm3.554-2.727c.094-.167.362-.624 1.189-.624.362 0 .819.088 1.153.465.181.21.428.573.428 1.37 0 .704-.167 1.088-.348 1.328-.29.413-.777.624-1.277.624-.174 0-.5-.022-.812-.232-.203-.138-.283-.261-.355-.37l-.015.551h-.66l.015-.653v-4.583h.682v2.125zm1.029-.16c-1.044 0-1.044 1.219-1.044 1.45 0 .24 0 1.38 1.015 1.38.841 0 1.052-.82 1.052-1.415 0-.363-.073-1.414-1.023-1.414zm2.655-1.95h.819v.748h-.819v-.748zm.072 1.581h.682v3.64h-.682v-3.64zm2.661 3.924c.03.406.204.71.849.71.95 0 .964-.689.964-1.675-.289.602-.978.617-1.196.617-.334 0-.813-.073-1.117-.45-.312-.37-.414-.855-.414-1.342 0-1.233.726-1.834 1.617-1.834.733 0 1.001.362 1.146.55l.008-.5h.659l-.014.66-.007 2.277c0 .878-.03 1.233-.174 1.509-.305.58-1.015.652-1.516.652-1.458 0-1.501-.682-1.53-1.175h.725zm1.589-1.218c.145-.19.246-.385.246-1.045 0-.457-.101-.718-.282-.907a1.078 1.078 0 0 0-.784-.319c-.862 0-.978.87-.978 1.334 0 .559.166 1.298 1 1.298.399 0 .631-.145.798-.361zm5.134 1.957v-1.022h-2.785v1.022h-.653v-1.551h.37c.196-.269.261-.385.348-.617.167-.471.225-.986.225-1.936v-.559h2.684v3.112h.464v1.551h-.653zm-.5-4.148h-1.327c-.015.965-.051 1.313-.16 1.806-.065.29-.145.559-.326.79h1.813v-2.596zm4.206 3.133c-.051-.123-.065-.326-.065-.457v-.087c-.247.45-.609.66-1.132.66-.768 0-1.276-.428-1.276-1.073 0-.349.138-.66.399-.892.319-.283.783-.413 1.501-.413.145 0 .225-.014.435.014l.058.008v-.16c0-.385-.029-.514-.13-.646-.102-.145-.356-.239-.631-.239-.428 0-.703.167-.733.616h-.681c.021-.253.043-.34.13-.507.181-.363.652-.573 1.291-.573.442 0 1.051.123 1.298.536.108.19.123.349.123.56l-.03 1.74a6.51 6.51 0 0 0 .058.913h-.615zm-.131-1.777c-.123-.014-.225-.014-.341-.014a3.29 3.29 0 0 0-.544.044c-.478.072-.768.333-.768.696 0 .384.305.63.754.63.37 0 .726-.188.856-.544.065-.167.072-.311.087-.616l.007-.189-.051-.007zm4.562-1.356h-1.32v3.126h-.689v-3.126h-1.32v-.515h3.329v.515zm2.719 3.133c-.051-.123-.065-.326-.065-.457v-.087c-.247.45-.609.66-1.131.66-.769 0-1.277-.428-1.277-1.073 0-.349.138-.66.4-.892.319-.283.783-.413 1.501-.413.145 0 .224-.014.435.014l.058.008v-.16c0-.385-.03-.514-.131-.646-.101-.145-.355-.239-.631-.239-.428 0-.703.167-.732.616h-.682c.021-.253.044-.34.13-.507.181-.363.653-.573 1.291-.573.442 0 1.052.123 1.298.536.109.19.123.349.123.56l-.029 1.74c-.007.304.021.609.058.913h-.616zm-.13-1.777c-.123-.014-.225-.014-.341-.014a3.28 3.28 0 0 0-.544.044c-.478.072-.768.333-.768.696 0 .384.305.63.754.63.37 0 .725-.188.856-.544.065-.167.072-.311.087-.616l.007-.189-.051-.007z" fill="#fff"/></svg>