<svg width="187" height="53" fill="none" xmlns="http://www.w3.org/2000/svg"><path d="M27.504 33.737l1.35-2.378 2.891.643v.064l.064-.064.643-1.414-.707-2.634 2.506-1.607h.065l-.579-1.542-2.378-1.35.643-2.891h.064l-.064-.065-1.414-.642-2.634.707-1.607-2.507v-.064l-1.542.579-1.35 2.377-2.891-.643h-.065l-.642 1.414.707 2.635-2.507 1.607-.064.064.579 1.478 2.377 1.35-.642 2.891v.064l1.413.643 2.635-.707 1.607 2.506.064.064 1.478-.578z" fill="#000"/><path fill-rule="evenodd" clip-rule="evenodd" d="M6.94 15.101l-.064 2.25v2.184l-2.12.707-2.186.643-1.285-1.8L0 17.287l1.35-1.8 1.349-1.798 2.12.707 2.121.706zm19.6-1.927l-1.414.45-1.35.513-.9-1.156-.899-1.157.836-1.22.835-1.222 1.414.386 1.414.45v1.477l.064 1.479z" fill="#000"/><path d="M3.534 16.9l7.005-4.562.064-.064h.064l6.812-1.35h.193l6.683 1.029h.064l.064.064 5.655 2.763.129.064v.065l-.064.064-5.848-2.763-6.747-.964-6.812 1.542-6.812 4.755-.45-.642z" fill="#000"/><path fill-rule="evenodd" clip-rule="evenodd" d="M20.37 4.691l-1.606 1.607-1.606 1.542-1.992-1.028-1.928-1.028.321-2.185.386-2.25 2.249-.32 2.185-.322 1.028 1.992.964 1.992zm12.018 7.133l-1.607-.193-1.67-.257-.258-1.67-.321-1.607 1.478-.771 1.478-.771 1.157 1.156 1.22 1.157-.706 1.478-.771 1.478z" fill="#000"/><path d="M16.708 3.663l8.161 1.67h.064l.065.065 5.783 3.856.064.064.065.064 4.048 5.462v.065l.064.064 1.992 5.976.065.064-.065.129h-.064l-2.185-6.105-4.112-5.462-5.912-3.727-8.162-1.414.129-.771z" fill="#000"/><path fill-rule="evenodd" clip-rule="evenodd" d="M37.207 6.94l-2.185-.064h-2.249l-.707-2.12-.642-2.186 1.799-1.285L35.087 0l1.799 1.35 1.8 1.349-.772 2.12-.707 2.121zm3.47 13.495l-.964-1.285-1.028-1.35.964-1.35.964-1.413 1.606.514 1.607.514v3.278l-1.542.578-1.607.514zM39.2 26.54l-.515-1.414-.514-1.35 1.157-.899 1.156-.9 1.221.836 1.221.835-.385 1.414-.45 1.414h-1.478l-1.414.064z" fill="#000"/><path d="M35.408 3.534l4.562 7.005.065.064v.064l1.35 6.812v.193l-1.029 6.683v.064l-.064.064-2.764 5.655-.064.129H37.4l-.064-.064 2.763-5.848.964-6.747-1.542-6.812-4.756-6.812.643-.45z" fill="#000"/><path fill-rule="evenodd" clip-rule="evenodd" d="M47.617 20.37l-1.606-1.606-1.542-1.606 1.028-1.992 1.028-1.928 2.25.321 2.184.386.321 2.249.322 2.185-1.992 1.028-1.992.964zm-2.827 7.327l-.514-1.992-.514-1.928 1.67-1.093 1.736-1.092 1.542 1.285 1.542 1.285-.707 1.864-.706 1.863-1.993-.128-2.056-.064zM35.087 35.6l.642-1.285.643-1.35 1.413.194 1.479.193.257 1.413.32 1.478-1.284.707-1.35.707-1.028-1.028-1.093-1.028zm-4.435-.642l1.221.321 1.286.257.128 1.286.129 1.285-1.157.514-1.157.514-.9-.964-.835-.964.643-1.092.642-1.157z" fill="#000"/><path d="M48.646 16.708l-1.671 8.161v.064l-.064.065-3.856 5.783-.064.064-.065.065-5.462 4.048H37.4l-.064.064-5.976 1.992-.065.065-.064-.065v-.064l6.04-2.185 5.463-4.113 3.727-5.912 1.478-8.16.707.128z" fill="#000"/><path fill-rule="evenodd" clip-rule="evenodd" d="M45.433 37.207v-4.434l2.184-.707 2.121-.642 1.285 1.799 1.286 1.864-1.35 1.799-1.285 1.8-2.12-.772-2.121-.707zM38.3 40.42l.964-1.735 1.028-1.735 1.992.386 1.928.45.257 1.992.192 1.992-1.863.835-1.864.836-1.35-1.543L38.3 40.42zM25.769 39.2l1.414-.515 1.349-.514.9 1.157.9 1.156-.836 1.221-.771 1.221-1.414-.385-1.478-.45v-1.478l-.064-1.414z" fill="#000"/><path d="M48.774 35.408l-6.94 4.563-.064.064h-.129l-6.811 1.35h-.13l-6.747-1.029h-.065l-.064-.064-5.655-2.764-.064-.064-.064-.064.064-.064 5.848 2.763 6.811.964 6.748-1.542 6.811-4.756.45.643z" fill="#000"/><path fill-rule="evenodd" clip-rule="evenodd" d="M31.938 47.617l1.606-1.606 1.607-1.542 1.992 1.028 1.992 1.028-.386 2.25-.385 2.184-2.25.321-2.184.322-.964-1.992-1.028-1.992zM19.92 40.485l1.607.192 1.671.257.322 1.671.257 1.607-1.478.77-1.478.772-1.157-1.157-1.221-1.156.707-1.478.77-1.478zm-3.212-5.398l1.285.642 1.35.643-.193 1.414-.193 1.478-1.414.257-1.478.32-.707-1.284-.706-1.35 1.028-1.028 1.028-1.092z" fill="#000"/><path d="M35.6 48.646l-8.16-1.671h-.065l-.064-.064-5.784-3.856-.064-.064-.064-.065-4.049-5.462V37.4l-.064-.064-1.992-5.976v-.129h.064l2.185 6.04 4.113 5.463 5.912 3.727 8.226 1.478-.193.707z" fill="#000"/><path fill-rule="evenodd" clip-rule="evenodd" d="M11.888 38.3l1.735.964 1.735 1.028-.385 1.992-.45 1.928-1.992.257-1.992.192-.836-1.863-.835-1.864 1.542-1.35 1.478-1.284zm1.286-12.531l.45 1.414.513 1.349-1.156.9-1.157.9-1.22-.836-1.222-.771.386-1.414.45-1.478h1.477l1.479-.064zm3.598-2.699l-1.092.707-1.093.706-1.028-.835-.964-.771.45-1.221.45-1.22 1.285.128 1.285.064.322 1.22.385 1.222z" fill="#000"/><path d="M16.9 48.774l-4.562-6.94-.064-.064v-.129l-1.35-6.811v-.13l1.029-6.747v-.065l.064-.064 2.763-5.655.064-.064.065-.064.064.064-2.763 5.848-.964 6.811 1.542 6.748 4.755 6.811-.642.45z" fill="#000"/><path fill-rule="evenodd" clip-rule="evenodd" d="M7.519 24.612l.514 1.992.514 1.928-1.671 1.092-1.735 1.093-1.542-1.285-1.543-1.221.707-1.928.707-1.864 2.056.129 1.993.064zm9.703-7.904l-.643 1.285-.642 1.35-1.414-.193-1.478-.193-.257-1.414-.321-1.478 1.35-.707 1.284-.706 1.029 1.028 1.092 1.028zm4.434.642l-1.22-.257-1.286-.32-.129-1.286-.128-1.221 1.156-.578 1.221-.514.836.963.835.964-.642 1.093-.643 1.157z" fill="#000"/><path d="M3.663 35.6l1.67-8.16v-.065l.065-.064 3.856-5.784.064-.064.064-.064 5.462-4.049h.065l.064-.064 5.976-1.992h.193v.064l-6.105 2.185-5.462 4.113-3.727 5.912-1.414 8.225-.771-.192z" fill="#000"/><path fill-rule="evenodd" clip-rule="evenodd" d="M20.435 11.631l-1.285.964-1.35 1.028-1.35-.963-1.413-.965.514-1.606.514-1.542 1.671-.065h1.607l.578 1.543.514 1.606z" fill="#00A339"/><path fill-rule="evenodd" clip-rule="evenodd" d="M34.958 21.656l.321-1.22.257-1.286 1.286-.129 1.285-.128.514 1.156.514 1.221-.964.836-.964.835-1.092-.642-1.157-.643zm5.462-7.583l-1.735-1.028-1.735-1.028.386-1.992.45-1.928 1.992-.193 1.992-.257.835 1.864.836 1.863-1.543 1.35-1.478 1.35z" fill="#000"/><path fill-rule="evenodd" clip-rule="evenodd" d="M40.485 32.388l.257-1.607.192-1.67 1.671-.258 1.607-.321.77 1.478.772 1.478-1.157 1.157-1.156 1.22-1.478-.706-1.478-.771zm-8.612 8.289l1.35-.964 1.285-1.028 1.35.964 1.414.964-.515 1.607-.514 1.606h-3.277l-.578-1.542-.514-1.607zM23.07 35.6l.707 1.029.706 1.092-.835 1.029-.771.963-1.221-.45-1.157-.45.065-1.285.064-1.285 1.22-.321 1.222-.321zm-11.439-3.727l.964 1.35 1.028 1.285-.964 1.35-.964 1.414-1.606-.515-1.542-.514-.065-1.606v-1.671l1.543-.578 1.606-.514zm-6.94.065l1.607 1.606 1.542 1.607-1.028 1.992-1.029 1.992L3.6 38.75l-2.25-.385-.32-2.25-.322-2.184 1.992-.964 1.992-1.028zm7.133-12.018l-.193 1.607-.257 1.671-1.67.322-1.607.257-.771-1.478-.771-1.478 1.156-1.157 1.157-1.221 1.478.707 1.478.77z" fill="#00A339"/><path d="M14.073 11.888l-1.028 1.735-1.028 1.735-1.992-.385-1.928-.45-.193-1.992-.257-1.992 1.864-.836 1.863-.835 1.35 1.542 1.35 1.478zM35.6 29.239l1.029-.707 1.092-.707 1.029.835.963.772-.45 1.22-.45 1.221-1.285-.064-1.285-.064-.321-1.285-.321-1.221zM24.612 44.79l1.992-.514 1.928-.514 1.092 1.67 1.093 1.736-1.285 1.542-1.221 1.542-1.928-.707-1.864-.706.129-1.993.064-2.056z" fill="#000"/><path fill-rule="evenodd" clip-rule="evenodd" d="M29.239 16.772l-.707-1.092-.707-1.093.835-1.028.772-.964 1.22.45 1.222.45-.065 1.285-.064 1.285-1.285.322-1.221.385zm-1.542-9.253l-1.992.514-1.928.514-1.093-1.671-1.092-1.735 1.285-1.542 1.285-1.543 1.864.707 1.863.707-.128 2.056-.064 1.993z" fill="#000"/><path fill-rule="evenodd" clip-rule="evenodd" d="M17.35 30.653l-.257 1.22-.32 1.286-1.286.128-1.221.129-.578-1.157-.514-1.157.963-.9.964-.835 1.093.643 1.157.643zm-2.249 14.78h4.434l.707 2.185.643 2.12-1.8 1.285-1.799 1.286-1.799-1.35-1.8-1.285.708-2.12.706-2.121zM35.6 17.222l-1.285-.643-1.349-.642.193-1.414.193-1.478 1.413-.257 1.478-.321.707 1.35.707 1.284-1.028 1.029-1.028 1.092z" fill="#00A339"/><path d="M74.029 28.34h-7.133v-4.306h7.133v-5.848c0-.514-.129-.964-.321-1.414a2.75 2.75 0 0 0-.9-1.028c-.386-.321-.836-.514-1.285-.643a6.334 6.334 0 0 0-1.543-.192 3.98 3.98 0 0 0-1.478.257c-.45.192-.9.45-1.22.835-.386.386-.707.835-.9 1.35-.257.642-.322 1.285-.322 1.927v.45h-4.37v-.45c0-1.285.258-2.57.772-3.791.45-1.028 1.092-1.992 1.928-2.763a8.297 8.297 0 0 1 2.699-1.671 8.139 8.139 0 0 1 3.02-.579c1.028 0 2.056.13 3.02.45.964.322 1.864.771 2.635 1.414a7.469 7.469 0 0 1 1.864 2.378c.514 1.028.706 2.185.706 3.341V33.61c0 1.156-.192 2.249-.707 3.341a7.469 7.469 0 0 1-1.863 2.378c-.771.642-1.67 1.092-2.635 1.414-.964.32-1.992.45-3.02.45a8.139 8.139 0 0 1-3.02-.579c-.964-.386-1.864-.964-2.7-1.67a7.659 7.659 0 0 1-1.927-2.764c-.514-1.157-.707-2.506-.771-3.791v-.45h4.434v.45c0 .642.064 1.285.321 1.927.193.515.514.964.9 1.35.385.386.77.642 1.22.835.45.193.965.257 1.479.257a5.5 5.5 0 0 0 1.478-.192c.45-.129.9-.322 1.285-.643.385-.257.642-.643.9-1.028.257-.45.32-.9.32-1.35V28.34zm35.665-10.861v6.105h1.414c.642 0 1.221-.129 1.799-.386a4.234 4.234 0 0 0 1.478-1.092c.45-.514.771-1.093.964-1.735l.578-2.12c.193-.772.386-1.479.579-2.25.128-.514.321-1.028.449-1.607.129-.514.322-1.092.45-1.606.129-.514.257-.964.386-1.478l.064-.321h4.627l-.129.514-.193.77c-.064.322-.192.643-.257.965-.064.257-.128.578-.257.835l-.385 1.542c-.129.45-.257.9-.386 1.414a97.585 97.585 0 0 0-1.092 4.113v.386a5.23 5.23 0 0 1-.643 1.349c-.321.514-.642 1.028-1.092 1.478-.45.45-.9.9-1.478 1.22l-.386.194.386.193c.578.32 1.028.706 1.478 1.22.385.45.771.9 1.092 1.414.257.45.514.964.643 1.478.193.771.385 1.478.578 2.25l.579 2.313c.128.45.192.835.321 1.285.128.45.193.835.321 1.285.064.386.193.771.257 1.157.064.257.129.514.193.707.064.257.128.578.257.835.064.193.129.45.193.643l.128.514h-4.562l-.064-.321c-.129-.514-.258-1.093-.386-1.607-.129-.578-.321-1.22-.45-1.8-.128-.578-.321-1.092-.45-1.67-.192-.643-.321-1.221-.514-1.864-.128-.45-.257-.9-.321-1.35l-.129-.449c-.064-.193-.064-.321-.128-.514 0-.129-.064-.193-.064-.321-.193-.643-.514-1.286-.964-1.8-.386-.45-.9-.835-1.478-1.092a4.315 4.315 0 0 0-1.8-.386h-1.413v13.174h-4.499V10.924h4.306v6.555zm70.43-2.185v25.769h-4.305V15.294h-6.684V10.99H187v4.305h-6.876zm-22.106 21.463c.45-.192.9-.45 1.221-.835.386-.386.707-.835.9-1.35.257-.578.321-1.285.321-1.927v-.45h4.434v.45c0 1.285-.257 2.57-.771 3.791-.45 1.028-1.092 1.992-1.928 2.763a8.73 8.73 0 0 1-2.635 1.671 8.137 8.137 0 0 1-3.02.578c-1.028 0-2.056-.128-3.02-.45-.964-.32-1.864-.77-2.635-1.413-.835-.643-1.414-1.478-1.863-2.378-.514-1.028-.707-2.185-.707-3.341v-15.68c0-1.157.193-2.25.707-3.342a7.46 7.46 0 0 1 1.863-2.377c.771-.643 1.671-1.093 2.635-1.414.964-.321 1.992-.45 3.02-.45s2.057.193 3.02.578c.964.386 1.864.964 2.699 1.671.836.771 1.478 1.735 1.928 2.763a9.757 9.757 0 0 1 .771 3.792v.45h-4.434v-.45c0-.643-.064-1.35-.321-1.928a3.826 3.826 0 0 0-.9-1.35 3.761 3.761 0 0 0-1.221-.835c-.449-.193-.963-.257-1.478-.257-.514 0-1.028.064-1.542.193-.45.128-.899.321-1.285.643-.386.257-.643.578-.9 1.028-.257.45-.321.9-.321 1.35V33.8c0 .514.129.964.321 1.414.193.386.514.707.9 1.028.386.322.835.514 1.285.643.514.128.964.193 1.478.193.514-.065.964-.193 1.478-.322zm-29.303-24.162c.771-.642 1.671-1.092 2.635-1.414.964-.32 1.992-.45 3.02-.45s2.056.13 3.02.45c.964.322 1.864.772 2.635 1.414.835.643 1.414 1.414 1.928 2.378.514 1.028.707 2.12.707 3.277v15.616c0 1.156-.193 2.249-.707 3.277a6.862 6.862 0 0 1-1.928 2.378c-.771.642-1.671 1.092-2.635 1.413-.964.322-1.992.45-3.02.45s-2.056-.128-3.02-.45c-.964-.321-1.864-.77-2.635-1.413-.835-.643-1.414-1.414-1.863-2.378-.515-1.028-.707-2.12-.707-3.277v-15.68c0-1.157.192-2.25.707-3.277.449-.9 1.092-1.671 1.863-2.314zM95.171 28.34h-7.069v12.788h-4.305V10.924h4.305v13.11h7.069v-13.11h4.305v30.139h-4.305V28.339zm36.436 7.84c.385.257.835.514 1.285.643a6.337 6.337 0 0 0 1.542.192c.514 0 1.029-.064 1.543-.192.449-.129.899-.322 1.285-.643.385-.257.642-.578.835-.964.257-.45.322-.9.322-1.35v-15.68c0-.449-.129-.963-.322-1.349-.193-.385-.514-.706-.835-.963-.386-.258-.836-.515-1.285-.643a6.345 6.345 0 0 0-1.543-.193c-.514 0-1.028.064-1.542.193-.45.128-.9.321-1.285.643-.386.257-.643.578-.9.963-.257.386-.321.9-.321 1.35V33.8c0 .45.064.964.321 1.35.193.45.514.771.9 1.028z" fill="#000"/></svg>