<svg width="72" height="88" fill="none" xmlns="http://www.w3.org/2000/svg"><path d="M44.79 82.642a71.718 71.718 0 0 0-8.236 4.917L35.96 88l-.598-.44a74.696 74.696 0 0 0-8.225-4.852C18.62 78.138 9.36 73.164 9.36 63.665V23.971l-2.215-3.194-1.053-1.564h59.816l-1.18 1.592-2.365 3.189v39.649c0 9.45-9.177 14.423-17.59 18.977l.016.022z" fill="#000"/><path d="M35.956 85.527a81.596 81.596 0 0 1 7.875-4.63c7.91-4.285 16.538-8.96 16.538-17.232V23.344l.194-.265 1.38-1.867H9.88l1.307 1.917.177.259v40.305c0 8.31 8.712 12.985 16.72 17.286a85.006 85.006 0 0 1 7.87 4.548z" fill="#F90"/><path d="M39.423 47.227a26.313 26.313 0 0 1-.072-4.956c.028-.65.06-1.294.072-1.955a.774.774 0 0 0 .376-.666v-4.164a.828.828 0 0 0-.179-.602.837.837 0 0 0-.552-.306h-4.94a.868.868 0 0 0-.844.556.853.853 0 0 0-.053.352v4.164a.707.707 0 0 0 .37.589c0 .672.045 1.327.073 1.982a26.279 26.279 0 0 1-.078 4.99 3.22 3.22 0 0 1-.553 1.239 6.38 6.38 0 0 1-1.258 1.321 11.937 11.937 0 0 1-2.608 1.57 12.01 12.01 0 0 0-3.268 2.087c-.554.55-.487 1.294-.393 1.988.028.191.045.384.05.578v.55h21.91v-.55a4.41 4.41 0 0 1 .038-.501c.083-.721.172-1.482-.553-2.076a10.493 10.493 0 0 0-3.207-2.082 11.752 11.752 0 0 1-2.503-1.53 6.372 6.372 0 0 1-1.269-1.344 3.23 3.23 0 0 1-.56-1.234z" fill="#000"/><path d="M14.012 23.129c14.627 0 29.437-.182 44.07-.182 0 11.273.365 22.182 0 33.454 0 .551-.554-1.1-.554-1.272-.731-1.652-2.376-1.817-2.01-4.18.182-1.651-.183-2.753-1.28-3.452a6.451 6.451 0 0 1-2.165-1.898 6.406 6.406 0 0 1-1.12-2.645c-.182-1.818.732-2.908 1.662-4.362 1.108-1.817.366-3.816-.913-5.452-2.56-3.634-2.77-6.547 1.279-6.91.183 0 .914.181 1.462.181a7.149 7.149 0 0 0 2.559-.727 9.925 9.925 0 0 0-2.925-1.101c-.553-.182-1.107.363-1.279.363-3.655.182-6.402 3.816-3.655 7.093 3.29 3.998 1.661 4.907.365 6.548a9.46 9.46 0 0 1-2.01-.364c-5.483-1.272-8.23-7.456-12.251-9.273-6.214-5.089-10.24-1.272-13.165 3.998a11.322 11.322 0 0 1-2.559 3.453c-1.108.726-2.215 1.271-2.376 1.651-.16.38.554.91 1.28 1.653 1.107 1.272 1.462 3.27 1.661 4.724.183 1.102 1.108 1.102 2.01.91.554 0 1.28-.183 1.28-.728.73-2.753 2.01-2.907 2.01-1.101.183.727.366 1.652 1.108 1.999 1.462.908 4.204 2.362 5.118 5.088.182.909 1.462-.363 4.94-3.27.73-.552 2.215-.364 3.655-.183 2.216.364 5.483.364 6.763 2a8.972 8.972 0 0 1 3.107.181c2.01.727 4.569 2.363 5.3 5.452 0 .55.366 1.817-.183 1.817l-8.23-.181-1.108 21.273H28.274c-.914-6.912-1.28-13.999-2.216-21.092-3.655 0-8.412.182-12.068.182-.144-11.29.205-22.562.022-33.647z" fill="#000"/><path d="M36.504 71.304c-2.376-.182-4.386-1.102-5.489-3.272v-8.365H41.81v8.365c-1.108 2.203-3.107 3.09-5.3 3.272h-.006zm-9.919-15.821h19.827v-.077c.05-.44.105-.904-.194-1.102l-.05-.038-.027-.033a9.599 9.599 0 0 0-2.874-1.917c-.975-.435-1.89-.99-2.726-1.652a7.504 7.504 0 0 1-1.467-1.548 4.3 4.3 0 0 1-.731-1.69 26.983 26.983 0 0 1-.089-5.194c.028-.6.061-1.2.072-1.79h-3.639c0 .59.045 1.19.072 1.79a27.102 27.102 0 0 1-.088 5.128 4.268 4.268 0 0 1-.731 1.69 7.46 7.46 0 0 1-1.468 1.553 12.75 12.75 0 0 1-2.836 1.719 11.174 11.174 0 0 0-2.98 1.883c-.204.204-.143.644-.088 1.102v.176h.017z" fill="#F90"/><path d="M9.498 16.07H5.184v-.308c.402 0 .604-.147.604-.44a3.328 3.328 0 0 0-.25-1.003 9.275 9.275 0 0 0-.46-1.102 9.03 9.03 0 0 0-1.25-1.828l-.455.413v2.655c-.016.334.056.666.21.963a.657.657 0 0 0 .599.314v.325H0v-.325a.556.556 0 0 0 .554-.303c.128-.316.183-.656.16-.996V9.148a2.257 2.257 0 0 0-.16-.97A.552.552 0 0 0 0 7.875V7.55h4.087v.325a.59.59 0 0 0-.553.325c-.128.328-.183.68-.161 1.03v1.487l1.396-1.245.365-.357c.13-.129.248-.267.355-.414a.651.651 0 0 0 .155-.352.39.39 0 0 0-.194-.347.817.817 0 0 0-.421-.138V7.54h3.777v.325a5.177 5.177 0 0 0-2.448 1.273l-.664.55c.343.343.66.712.947 1.102.286.391.545.802.775 1.228.227.417.432.845.615 1.283.18.43.365.9.554 1.41.09.268.22.522.382.754a.641.641 0 0 0 .554.26l-.023.346zm.859-6.895c.022-.34-.033-.68-.16-.997a.552.552 0 0 0-.555-.303V7.55h5.384a7.368 7.368 0 0 1 1.889.155c.29.079.55.246.742.479.185.23.283.52.276.815a1.75 1.75 0 0 1-.509 1.244 4.208 4.208 0 0 1-1.274.904 9.97 9.97 0 0 1-1.462.55 40.55 40.55 0 0 1-1.662.44v2.292a1.9 1.9 0 0 0 .2.991.658.658 0 0 0 .598.314v.325H9.642v-.325a.557.557 0 0 0 .554-.303 2.22 2.22 0 0 0 .16-.996v-5.26zm2.67 2.049a4.244 4.244 0 0 0 1.49-.628 1.352 1.352 0 0 0 .647-1.157.86.86 0 0 0-.376-.776 1.669 1.669 0 0 0-.942-.248 1.336 1.336 0 0 0-.554.083.4.4 0 0 0-.221.247 1.793 1.793 0 0 0-.05.485v1.994h.005zm8.573 3.172c-.026.357.03.715.166 1.046a.641.641 0 0 0 .604.314v.325h-4.132v-.325a.556.556 0 0 0 .554-.303c.128-.316.183-.656.16-.996V9.17a2.252 2.252 0 0 0-.16-.997.552.552 0 0 0-.554-.303v-.325h4.16v.325a.634.634 0 0 0-.582.314 1.99 1.99 0 0 0-.216.991v2.462l2.592-2.462a2.017 2.017 0 0 0-.183-.991.63.63 0 0 0-.587-.309V7.55h4.16v.325a.556.556 0 0 0-.554.303 2.235 2.235 0 0 0-.16.997v5.287c-.024.34.03.681.16.997a.552.552 0 0 0 .553.303v.325h-4.137v-.325a.646.646 0 0 0 .604-.342c.135-.331.192-.69.166-1.046v-3.982L21.6 12.854v1.542zm14.577 1.971a.42.42 0 0 0-.238-.17 1.725 1.725 0 0 0-.382-.033l-1.867.132a7.282 7.282 0 0 1-2.088-.325 5.458 5.458 0 0 1-1.766-.887 4.163 4.163 0 0 1-1.219-1.47 4.439 4.439 0 0 1-.443-2.016 4.102 4.102 0 0 1 .626-2.28 4.026 4.026 0 0 1 1.733-1.47 5.782 5.782 0 0 1 2.426-.496c.63.009 1.256.075 1.872.198.16.028.32.045.482.05A.701.701 0 0 0 36 7.247l.742 3.68-.271.076a4.877 4.877 0 0 0-.66-1.26 3.405 3.405 0 0 0-1.03-.932 2.459 2.459 0 0 0-1.29-.352 2.185 2.185 0 0 0-1.33.408 2.507 2.507 0 0 0-.835 1.101c-.195.442-.3.917-.31 1.399.002.455.069.907.199 1.344.114.427.301.83.554 1.195.291.39.67.71 1.107.93.432.229.913.348 1.402.347.38.004.757-.069 1.107-.214.338-.141.644-.35.897-.612.262-.27.467-.587.604-.936l.3.105-1.009 2.841zm6.331-1.971c-.008.263.02.526.083.782a.738.738 0 0 0 .304.43c.194.108.415.16.637.148v.325h-4.73v-.325a.952.952 0 0 0 .826-.336 1.94 1.94 0 0 0 .21-1.04V8.502A2.663 2.663 0 0 0 38.265 9a2.366 2.366 0 0 0-.88 1.355l-.272-.055.637-2.952c.081.147.297.22.648.22h5.422c.425 0 .69-.073.798-.22l.604 2.952-.26.055c-.18-.522-.5-.985-.926-1.339a2.685 2.685 0 0 0-1.523-.512l-.005 5.893zm4.159-.259a3.835 3.835 0 0 0-.25 1.046c0 .335.2.518.599.551v.325h-2.863v-.325c.21-.044.402-.147.553-.297.143-.139.262-.298.355-.474.085-.169.192-.404.321-.705l2.044-5.375a2.27 2.27 0 0 0 .205-.677.296.296 0 0 0-.288-.325v-.325h3.805v.325a.301.301 0 0 0-.285.202.295.295 0 0 0-.014.123c.054.233.122.463.205.688.136.415.308.93.515 1.542l.77 2.27.553 1.585.172.496c.053.152.12.3.2.44.075.135.174.255.293.353a.806.806 0 0 0 .415.176v.325h-4.491v-.325a.783.783 0 0 0 .52-.226.722.722 0 0 0 .2-.55 1.488 1.488 0 0 0-.333-.887 3.008 3.008 0 0 0-.764-.732 3.382 3.382 0 0 0-1.966-.551l-.47 1.327zm1.69-4.857l-.82 2.434a3.18 3.18 0 0 1 1.81.633l-.99-3.067zm9.183-.232c-.359.436-.665.91-.915 1.416a9.496 9.496 0 0 0-.725 1.878 7.626 7.626 0 0 0-.283 2.037c-.005.329.093.65.283.92a1.172 1.172 0 0 0 .92.452h.115v.336H54.09v-.116c.016-.659.088-1.314.216-1.96.174-.908.439-1.795.792-2.65a9.95 9.95 0 0 1 1.556-2.632.801.801 0 0 0 .172-.48.312.312 0 0 0-.209-.349.317.317 0 0 0-.146-.014h-.116v-.325h6.524v.325a.557.557 0 0 0-.482.199.983.983 0 0 0-.194.484c-.028.25-.041.503-.038.755V14.4c-.016.348.023.695.116 1.03.078.22.277.33.598.33v.326h-4.115v-.309a.618.618 0 0 0 .498-.187c.11-.136.178-.3.194-.474a6.49 6.49 0 0 0 .034-.776V9.362a1.321 1.321 0 0 0-.166-.754.604.604 0 0 0-.527-.232 1.668 1.668 0 0 0-1.257.672zm9.12 0a7.4 7.4 0 0 0-.918 1.416 9.496 9.496 0 0 0-.726 1.878 7.626 7.626 0 0 0-.282 2.037c-.006.329.093.65.282.92a1.172 1.172 0 0 0 .92.452h.116v.336H63.21v-.116c.017-.659.09-1.314.216-1.96.174-.908.44-1.795.792-2.65.38-.951.905-1.84 1.557-2.632a.802.802 0 0 0 .171-.48.314.314 0 0 0-.354-.363h-.116v-.325H72v.325a.557.557 0 0 0-.482.199.983.983 0 0 0-.194.484c-.029.25-.041.503-.038.755V14.4c-.016.348.023.695.116 1.03.077.22.277.33.598.33v.326h-4.115v-.309a.618.618 0 0 0 .498-.187c.11-.136.178-.3.194-.474.026-.258.038-.517.034-.776V9.362a1.321 1.321 0 0 0-.167-.754.603.603 0 0 0-.526-.232 1.669 1.669 0 0 0-1.257.672zM.482 5.359v-4.29h1.301l.787 2.93.753-2.93h1.324v4.29h-.809V1.983l-.853 3.376h-.842l-.852-3.376v3.376H.48zM5.7 3.244a2.74 2.74 0 0 1 .198-1.102c.099-.218.236-.418.405-.589.156-.165.344-.296.554-.385.295-.119.612-.177.93-.171a2.037 2.037 0 0 1 1.529.59 2.255 2.255 0 0 1 .554 1.651 2.235 2.235 0 0 1-.554 1.652 2.012 2.012 0 0 1-1.518.59 2.043 2.043 0 0 1-1.528-.584 2.2 2.2 0 0 1-.57-1.652zm.896-.028c-.028.396.093.789.338 1.102a1.163 1.163 0 0 0 1.328.278c.147-.065.28-.16.39-.278.239-.316.357-.707.331-1.102a1.607 1.607 0 0 0-.326-1.101 1.108 1.108 0 0 0-.864-.364 1.113 1.113 0 0 0-.87.37 1.611 1.611 0 0 0-.327 1.09v.005zm7.095.567l.848.265c-.093.41-.32.78-.649 1.046-.334.239-.74.359-1.152.342a1.865 1.865 0 0 1-1.412-.584 2.228 2.228 0 0 1-.554-1.597 2.337 2.337 0 0 1 .554-1.652 1.911 1.911 0 0 1 1.468-.606 1.8 1.8 0 0 1 1.285.468c.217.22.37.493.443.793l-.864.204a.886.886 0 0 0-.92-.727.986.986 0 0 0-.78.341 1.677 1.677 0 0 0-.3 1.102c-.038.409.066.819.294 1.162a.958.958 0 0 0 .787.352.878.878 0 0 0 .598-.22c.187-.188.31-.428.354-.689zm1.972-2.715h.87v1.829a.589.589 0 0 0 .393-.143c.132-.209.238-.433.315-.667a1.8 1.8 0 0 1 .554-.864c.271-.134.573-.193.875-.171h.128v.628h-.133a.874.874 0 0 0-.393.066.497.497 0 0 0-.2.198 4.268 4.268 0 0 0-.227.55 1.958 1.958 0 0 1-.172.375.885.885 0 0 1-.326.281c.193.054.362.17.481.33.16.223.299.459.416.706l.587 1.173h-1.02l-.514-1.102-.05-.088-.11-.204a1.278 1.278 0 0 0-.278-.396.556.556 0 0 0-.327-.083V5.36h-.87V1.07zm3.849 2.176c-.01-.377.058-.752.2-1.102.098-.218.235-.418.404-.589a1.65 1.65 0 0 1 .553-.385c.296-.119.612-.177.931-.171a2.038 2.038 0 0 1 1.529.59 2.254 2.254 0 0 1 .553 1.651 2.235 2.235 0 0 1-.553 1.652 2.278 2.278 0 0 1-3.052 0 2.2 2.2 0 0 1-.565-1.646zm.897-.028c-.028.396.093.789.338 1.102a1.163 1.163 0 0 0 1.328.278c.147-.065.28-.16.389-.278.24-.316.358-.707.332-1.102a1.607 1.607 0 0 0-.326-1.101 1.207 1.207 0 0 0-1.338-.27 1.207 1.207 0 0 0-.396.27c-.24.313-.355.703-.327 1.096v.005zm4.337-2.148h1.728c.253-.008.507.003.759.033a1.103 1.103 0 0 1 .78.534 1.016 1.016 0 0 1-.476 1.432c.24.061.455.198.61.392.14.185.214.412.21.644-.004.192-.051.38-.139.55a1.148 1.148 0 0 1-.37.441 1.24 1.24 0 0 1-.588.204c-.144 0-.495.01-1.052.027h-1.462V1.069zm.87.716v.97H26.8a.555.555 0 0 0 .354-.155.457.457 0 0 0 .127-.336.472.472 0 0 0-.11-.324.505.505 0 0 0-.327-.15h-.748l-.482-.005zm0 1.708v1.145h.808c.2.015.4.015.598 0a.555.555 0 0 0 .316-.17.55.55 0 0 0 .122-.364.549.549 0 0 0-.095-.33.553.553 0 0 0-.27-.199 2.974 2.974 0 0 0-.776-.06l-.704-.022zm6.374.291l.848.265c-.093.41-.32.78-.648 1.046a2.041 2.041 0 0 1-2.56-.242 2.228 2.228 0 0 1-.553-1.597 2.337 2.337 0 0 1 .554-1.652 1.91 1.91 0 0 1 1.462-.595 1.8 1.8 0 0 1 1.285.468c.217.22.37.493.443.793l-.864.204a.886.886 0 0 0-.908-.722.986.986 0 0 0-.781.342c-.226.32-.332.71-.3 1.101-.038.41.066.82.294 1.162a.959.959 0 0 0 .753.336.878.878 0 0 0 .598-.22 1.28 1.28 0 0 0 .377-.689zm1.966-2.715h.87v1.829a.589.589 0 0 0 .399-.143c.131-.209.237-.433.315-.667a1.8 1.8 0 0 1 .554-.864c.271-.134.573-.193.875-.171h.139v.628h-.122a.874.874 0 0 0-.393.066.497.497 0 0 0-.2.198 4.283 4.283 0 0 0-.227.55 1.9 1.9 0 0 1-.172.375.885.885 0 0 1-.326.281c.193.054.362.17.482.33.155.223.29.46.404.706l.554 1.173h-1.003l-.515-1.102-.05-.088-.094-.21a1.277 1.277 0 0 0-.277-.396.556.556 0 0 0-.326-.082v1.878h-.887v-4.29zm4.044 0h.813v2.859l1.75-2.859h.87v4.29h-.82V2.562L38.87 5.359H38v-4.29zm4.696 0h.814v2.859l1.75-2.859h.87v4.29h-.82V2.562L43.566 5.36h-.87V1.07zM44.911 0h.405a.928.928 0 0 1-.283.628.906.906 0 0 1-.637.226.906.906 0 0 1-.642-.226.928.928 0 0 1-.255-.628h.404a.452.452 0 0 0 .15.314.556.556 0 0 0 .366.105c.13.009.26-.028.365-.105a.451.451 0 0 0 .15-.314h-.023zm5.118 2.241l-.848-.198A1.41 1.41 0 0 1 50.738.997c.41-.03.816.087 1.146.33a1.003 1.003 0 0 1 .388.782.94.94 0 0 1-.177.551 1.495 1.495 0 0 1-.554.435c.25.074.472.217.642.413.148.189.224.422.216.661a1.129 1.129 0 0 1-.415.914c-.362.257-.803.38-1.246.347-.37.018-.738-.06-1.07-.226a1.404 1.404 0 0 1-.586-.837l.797-.259c.043.202.16.38.327.502.155.08.329.12.504.115a.856.856 0 0 0 .598-.176.55.55 0 0 0 .2-.408.503.503 0 0 0-.216-.424 1.062 1.062 0 0 0-.643-.16h-.2v-.65h.1a.93.93 0 0 0 .637-.153.589.589 0 0 0 .21-.474.517.517 0 0 0-.17-.397.695.695 0 0 0-.494-.16.673.673 0 0 0-.703.518zm7.416 3.118h-.953l-.37-.953h-1.723l-.355.975h-.93l1.661-4.29h.92l1.75 4.268zm-1.606-1.697l-.593-1.591-.582 1.591h1.175zm2.437-2.594h1.728c.255-.004.51.01.764.044a1.105 1.105 0 0 1 .781.534 1.015 1.015 0 0 1-.476 1.432c.24.061.454.198.609.392.14.185.215.412.21.644a1.25 1.25 0 0 1-.138.55 1.148 1.148 0 0 1-.371.441 1.24 1.24 0 0 1-.587.204c-.144 0-.495.01-1.053.027h-1.467V1.069zm.87.716v.97h1.184a.555.555 0 0 0 .355-.155.457.457 0 0 0 .127-.336.472.472 0 0 0-.11-.324.505.505 0 0 0-.327-.15h-.748l-.482-.005zm0 1.708v1.145h.808c.199.015.399.015.598 0a.555.555 0 0 0 .316-.17.549.549 0 0 0 .121-.364.549.549 0 0 0-.094-.33.554.554 0 0 0-.271-.199 2.973 2.973 0 0 0-.775-.06l-.704-.022zm3.516-.248a2.74 2.74 0 0 1 .2-1.102c.098-.218.235-.418.404-.589.156-.165.344-.296.554-.385.295-.119.612-.177.93-.171a2.037 2.037 0 0 1 1.529.59 2.256 2.256 0 0 1 .554 1.651 2.235 2.235 0 0 1-.554 1.652 2.278 2.278 0 0 1-3.052 0 2.2 2.2 0 0 1-.565-1.646zm.897-.028c-.028.396.093.789.338 1.102a1.163 1.163 0 0 0 1.328.278c.148-.065.28-.16.39-.278.239-.316.357-.707.331-1.102a1.607 1.607 0 0 0-.326-1.101 1.208 1.208 0 0 0-1.338-.27 1.208 1.208 0 0 0-.396.27c-.24.313-.355.703-.327 1.096v.005zm4.597-2.148h2.986v3.575h.382v1.652h-.726v-.936h-2.72v.936h-.725V4.643h.366c.19-.403.309-.835.354-1.278.063-.611.09-1.225.083-1.84v-.457zm.831.722a8.315 8.315 0 0 1-.354 2.853h1.661V1.79h-1.307z" fill="#000"/></svg>