<svg width="152" height="66" fill="none" xmlns="http://www.w3.org/2000/svg"><path fill-rule="evenodd" clip-rule="evenodd" d="M152 51.513h-5.411V29.686h-2.067v-4.332a2.371 2.371 0 0 0 1.991-1.232 4.32 4.32 0 0 0 .821-2.386H152v29.777z" fill="url(#paint0_linear)"/><path fill-rule="evenodd" clip-rule="evenodd" d="M131.313 39.034h4.955v7.068c0 .73.319 1.11.973 1.11.653 0 .973-.365.973-1.11V39.2a2.088 2.088 0 0 0-.487-1.611 2.857 2.857 0 0 0-1.824-.426v-3.359c1.551 0 2.326-.583 2.326-1.748v-5.274c0-.593-.335-.897-.973-.897-.638 0-1.018.304-1.018.897v5.472h-4.788v-5.518c0-3.516 2.026-5.274 6.08-5.274a7.13 7.13 0 0 1 4.21 1.261c2.371 1.672 1.809 5.305 1.809 8.102a4.734 4.734 0 0 1-.624 2.86 4.734 4.734 0 0 1-2.188 1.943c1.925.669 2.888 2.508 2.888 5.518V45.6c0 4.135-2.027 6.207-6.08 6.217-4.054.01-6.111-1.875-6.171-5.654l-.061-7.13z" fill="url(#paint1_linear)"/><path fill-rule="evenodd" clip-rule="evenodd" d="M129.762 41.48l-6.186-.045v-4.894l6.232-.03-.046 4.97z" fill="url(#paint2_linear)"/><path fill-rule="evenodd" clip-rule="evenodd" d="M120.43 30.08c-.274 2.028-1.926 3.04-4.956 3.04-3.029 0-4.681-1.012-4.955-3.04h2.675c.228.867.973 1.293 2.28 1.293 1.308 0 2.083-.426 2.28-1.292h2.676z" fill="url(#paint3_linear)"/><path fill-rule="evenodd" clip-rule="evenodd" d="M108.65 51.62V33.667h4.499v8.193l3.42-8.193h5.821V51.62h-4.514v-9.56l-3.678 9.56h-5.548z" fill="url(#paint4_linear)"/><path fill-rule="evenodd" clip-rule="evenodd" d="M101.354 33.44c-4.145 0-6.212 1.165-6.202 3.496v11.552c0 2.158 2.057 3.237 6.171 3.237 1.53.059 3.053-.232 4.454-.85a2.633 2.633 0 0 0 1.702-2.417V36.906c0-2.31-2.042-3.466-6.125-3.466zm.836 15.2c0 .355-.294.532-.882.532-.608 0-.912-.182-.912-.532V36.48c0-.365.304-.532.912-.532.608 0 .882.182.882.532v12.16z" fill="url(#paint5_linear)"/><path fill-rule="evenodd" clip-rule="evenodd" d="M92.583 34.291c-1.625-.489-3.32-.7-5.016-.623h-5.67V51.68h5.26v-6.673a13.68 13.68 0 0 0 5.73-.684 2.6 2.6 0 0 0 1.353-2.493v-4.985a2.478 2.478 0 0 0-1.657-2.554zm-3.617 7.205c0 .638-.608.958-1.81.958v-6.217c1.202 0 1.81.319 1.81.957v4.302z" fill="url(#paint6_linear)"/><path fill-rule="evenodd" clip-rule="evenodd" d="M80.849 36.009h-3.01v15.61h-5.396V36.01h-3.025v-2.34h11.43v2.34z" fill="url(#paint7_linear)"/><path fill-rule="evenodd" clip-rule="evenodd" d="M68.4 39.946h-4.925v-3.557c0-.29-.243-.441-.745-.441-.501 0-.775.152-.775.44v12.465c0 .294.259.44.775.44.517 0 .766-.146.745-.44v-4.439H68.4v4.56c0 .852-.578 1.52-1.718 2.052a9.362 9.362 0 0 1-3.876.775c-4.164 0-6.247-1.079-6.247-3.237V37.012c0-2.33 2.083-3.496 6.247-3.496 3.73-.05 5.594 1.003 5.594 3.162v3.268z" fill="url(#paint8_linear)"/><path fill-rule="evenodd" clip-rule="evenodd" d="M55.404 39.946h-4.925v-3.557c0-.289-.243-.44-.745-.44-.501 0-.775.151-.775.44v12.464c0 .294.259.44.775.44.517 0 .765-.146.745-.44v-4.439h4.925v4.56c0 .852-.578 1.52-1.718 2.053a9.362 9.362 0 0 1-3.876.775c-4.164 0-6.247-1.08-6.247-3.238V37.012c0-2.33 2.083-3.496 6.247-3.496 3.73 0 5.594 1.059 5.594 3.177v3.253z" fill="url(#paint9_linear)"/><path fill-rule="evenodd" clip-rule="evenodd" d="M36.313 33.44c-4.145 0-6.212 1.165-6.202 3.496v11.552c0 2.158 2.057 3.237 6.171 3.237 1.53.059 3.053-.232 4.454-.85a2.629 2.629 0 0 0 1.702-2.417V36.906c0-2.31-2.041-3.466-6.125-3.466zm.836 15.2c0 .355-.294.532-.882.532-.608 0-.912-.182-.912-.532V36.48c0-.365.304-.532.912-.532.608 0 .882.182.882.532v12.16z" fill="url(#paint10_linear)"/><path fill-rule="evenodd" clip-rule="evenodd" d="M28.956 51.62h-4.818V41.541l-2.812 10.077h-3.724l-3.223-10.077v10.077h-4.225V18.833h4.681l4.743 24.153 4.803-24.153h4.575v32.786z" fill="url(#paint11_linear)"/><path d="M39.049 12.069a6.034 6.034 0 1 0 0-12.069 6.034 6.034 0 0 0 0 12.069z" fill="red"/><path fill-rule="evenodd" clip-rule="evenodd" d="M19.608 1.034a5 5 0 1 1 .03 10 5 5 0 0 1-.03-10z" fill="red"/><path d="M3.116 9.15a3.116 3.116 0 1 0 0-6.232 3.116 3.116 0 0 0 0 6.232z" fill="red"/><path d="M10.154 62.806v-4.955h3.617v.79h-2.553v4.18l-1.064-.014zm8.679-.684v3.496h-1.064v-7.767h1.064v.7a2.812 2.812 0 0 1 2.082-.791 3.04 3.04 0 0 1 2.174.79 2.491 2.491 0 0 1 .805 1.855 2.448 2.448 0 0 1-.79 1.839 2.95 2.95 0 0 1-2.128.76 2.797 2.797 0 0 1-2.143-.882zm1.991 0a1.976 1.976 0 0 0 1.444-.532 1.748 1.748 0 0 0 .547-1.292 1.686 1.686 0 0 0-.608-1.368 2.113 2.113 0 0 0-1.398-.501 2.173 2.173 0 0 0-1.414.501 1.656 1.656 0 0 0-.623 1.353 1.734 1.734 0 0 0 .562 1.307 2.066 2.066 0 0 0 1.475.593l.015-.06zm7.57 3.481L30.4 62.32l-2.812-4.56h1.2l2.16 3.557 1.99-3.557h1.17l-4.56 7.767-1.154.076zm9.758-7.752h4.91v4.956h-1.064v-4.165H39.2v4.18h-1.064l.015-4.97zm9.85 0h4.91v4.956h-1.065v-4.165H49.05v4.18h-1.063l.015-4.97zm14.516.699v-.699h1.064v4.955h-1.064v-.699a2.751 2.751 0 0 1-2.083.836 3.268 3.268 0 0 1-2.113-.623 2.34 2.34 0 0 1-.866-1.93 2.31 2.31 0 0 1 .866-1.9 3.268 3.268 0 0 1 2.113-.73 2.707 2.707 0 0 1 2.083.79zm-1.976 0a2.143 2.143 0 0 0-1.414.487 1.656 1.656 0 0 0-.578 1.352 1.793 1.793 0 0 0 .532 1.338 2.31 2.31 0 0 0 2.934 0 1.766 1.766 0 0 0 .547-1.322 1.627 1.627 0 0 0-.623-1.368 2.25 2.25 0 0 0-1.383-.547l-.015.06zm14.348-.699H76v2.037l2.462-2.037h1.292l-2.69 2.204 3.04 2.752h-1.383l-2.387-2.174-.319.258v1.93h-1.064l-.06-4.97zm14.304 4.363a3.982 3.982 0 0 1-4.56 0 2.371 2.371 0 0 1 0-3.74 3.983 3.983 0 0 1 4.56 0 2.371 2.371 0 0 1 0 3.74zm-.79-3.223a2.599 2.599 0 0 0-3.04 0 1.642 1.642 0 0 0-.624 1.353 1.61 1.61 0 0 0 .638 1.353 2.585 2.585 0 0 0 3.04 0 1.61 1.61 0 0 0 .639-1.353 1.64 1.64 0 0 0-.654-1.368v.015zm5.562 3.816l1.52-5.35 2.524 4.042 2.462-4.043 1.52 5.35h-1.094l-.806-3.04-2.067 3.42-2.265-3.45-.775 3.04-1.019.03zm12.176-4.956h4.909v4.956h-1.064v-4.165h-2.797v4.18h-1.064l.016-4.97zm14.516.699v-.699h1.064v4.956h-1.064v-.7a2.754 2.754 0 0 1-2.083.836 3.27 3.27 0 0 1-2.113-.623 2.343 2.343 0 0 1-.866-1.93 2.316 2.316 0 0 1 .866-1.9 3.269 3.269 0 0 1 2.098-.73 2.701 2.701 0 0 1 2.098.79zm-1.976 0a2.143 2.143 0 0 0-1.414.487 1.653 1.653 0 0 0-.578 1.353 1.804 1.804 0 0 0 .532 1.338 2.313 2.313 0 0 0 2.934 0 1.756 1.756 0 0 0 .547-1.323 1.618 1.618 0 0 0-.623-1.368 2.249 2.249 0 0 0-1.398-.547v.06zm7.98 4.256v-4.955h1.018v2.037h2.888v-2.037h1.064v4.956h-1.064v-2.144h-2.888v2.144h-1.018zm9.925-4.955h1.064v3.284l4.18-3.664v5.35h-1.064v-3.328l-4.18 3.663v-5.305zm10.184 0h1.064v3.283L152 57.456v5.35h-1.064v-3.313l-4.18 3.663.015-5.305zm.532-2.143l.882-.274a1.518 1.518 0 0 0 2.493 0l.881.274a1.763 1.763 0 0 1-.805.851 3.045 3.045 0 0 1-2.66 0 1.766 1.766 0 0 1-.791-.851z" fill="#C10000"/><defs><linearGradient id="paint0_linear" x1="148.261" y1="51.513" x2="148.261" y2="21.736" gradientUnits="userSpaceOnUse"><stop stop-color="#C10000"/><stop offset="1" stop-color="red"/></linearGradient><linearGradient id="paint1_linear" x1="1244.56" y1="1055.7" x2="1244.56" y2="450.394" gradientUnits="userSpaceOnUse"><stop stop-color="#C10000"/><stop offset="1" stop-color="red"/></linearGradient><linearGradient id="paint2_linear" x1="643.013" y1="172.153" x2="643.013" y2="155.899" gradientUnits="userSpaceOnUse"><stop stop-color="#C10000"/><stop offset="1" stop-color="red"/></linearGradient><linearGradient id="paint3_linear" x1="863.413" y1="96.201" x2="863.413" y2="90.242" gradientUnits="userSpaceOnUse"><stop stop-color="#C10000"/><stop offset="1" stop-color="red"/></linearGradient><linearGradient id="paint4_linear" x1="1152.95" y1="643.291" x2="1152.95" y2="431.287" gradientUnits="userSpaceOnUse"><stop stop-color="#C10000"/><stop offset="1" stop-color="red"/></linearGradient><linearGradient id="paint5_linear" x1="916.762" y1="656.679" x2="916.762" y2="436.615" gradientUnits="userSpaceOnUse"><stop stop-color="#C10000"/><stop offset="1" stop-color="red"/></linearGradient><linearGradient id="paint6_linear" x1="797.423" y1="645.861" x2="797.423" y2="432.958" gradientUnits="userSpaceOnUse"><stop stop-color="#C10000"/><stop offset="1" stop-color="red"/></linearGradient><linearGradient id="paint7_linear" x1="634.423" y1="643.291" x2="634.423" y2="431.287" gradientUnits="userSpaceOnUse"><stop stop-color="#C10000"/><stop offset="1" stop-color="red"/></linearGradient><linearGradient id="paint8_linear" x1="543.335" y1="656.601" x2="543.335" y2="436.591" gradientUnits="userSpaceOnUse"><stop stop-color="#C10000"/><stop offset="1" stop-color="red"/></linearGradient><linearGradient id="paint9_linear" x1="428.981" y1="656.544" x2="428.981" y2="436.555" gradientUnits="userSpaceOnUse"><stop stop-color="#C10000"/><stop offset="1" stop-color="red"/></linearGradient><linearGradient id="paint10_linear" x1="324.362" y1="656.679" x2="324.362" y2="436.615" gradientUnits="userSpaceOnUse"><stop stop-color="#C10000"/><stop offset="1" stop-color="red"/></linearGradient><linearGradient id="paint11_linear" x1="252.14" y1="1132.26" x2="252.14" y2="425.056" gradientUnits="userSpaceOnUse"><stop stop-color="#C10000"/><stop offset="1" stop-color="red"/></linearGradient></defs></svg>