<svg width="205" height="44" fill="none" xmlns="http://www.w3.org/2000/svg"><path d="M9.72 22.084c0-7.247 5.526-13.046 12.342-13.046a10.12 10.12 0 0 1 2.802.343V7.92a12.698 12.698 0 0 0-3.599-.511c-7.647 0-13.82 6.565-13.82 14.665 0 8.017 6.16 14.582 13.82 14.582a12.7 12.7 0 0 0 3.6-.51v-1.453c-.914.245-1.858.36-2.803.343-6.803.01-12.342-5.79-12.342-12.953z" fill="#006BAC"/><path d="M6.2 22.084C6.2 12.79 13.332 5.28 22.08 5.28a14.96 14.96 0 0 1 2.802.255V4.092a14.96 14.96 0 0 0-2.803-.255 18.207 18.207 0 0 0 0 36.41c.94.003 1.879-.082 2.803-.255v-1.448c-.924.173-1.863.259-2.803.255-8.747 0-15.88-7.506-15.88-16.715z" fill="#006BAC"/><path d="M12.65 22c0-5.456 4.242-9.891 9.43-9.891.95.015 1.893.163 2.802.44v-1.452a10.693 10.693 0 0 0-3.282-.537c-6.037 0-10.921 5.13-10.921 11.44 0 6.398 4.884 11.51 10.903 11.51 1.119.004 2.23-.168 3.296-.51v-1.448c-.91.277-1.853.425-2.803.44-5.183-.017-9.425-4.448-9.425-9.992z" fill="#006BAC"/><path d="M22 0a22 22 0 1 0 22 22A21.96 21.96 0 0 0 22 0zm0 41.527a19.527 19.527 0 1 1 19.272-22.51 7.427 7.427 0 0 0-6.736-4.352 7.377 7.377 0 0 0 0 14.753 7.506 7.506 0 0 0 6.74-4.435 19.496 19.496 0 0 1-19.272 16.544" fill="#006BAC"/><path d="M16.056 22c0-3.498 2.688-6.31 6.019-6.31a6.132 6.132 0 0 1 2.803.683v-1.62a8.222 8.222 0 0 0-3.256-.765c-4.167 0-7.573 3.581-7.573 8.017 0 4.518 3.406 8.1 7.573 8.1a6.991 6.991 0 0 0 3.256-.766V27.72a6.126 6.126 0 0 1-2.803.682c-3.331 0-6.02-2.816-6.02-6.397" fill="#006BAC"/><path d="M22.08 25.665c-1.59 0-2.918-1.62-2.918-3.665 0-1.962 1.32-3.582 2.917-3.582a2.64 2.64 0 0 1 2.007.942l.985-.51a4.555 4.555 0 0 0-3.52-1.875c-2.503-.004-4.51 2.297-4.51 5.025 0 2.816 2.007 5.117 4.506 5.117a4.364 4.364 0 0 0 3.573-1.962l-.96-.515a2.81 2.81 0 0 1-2.08 1.025zm40.136-6.138c-.19 1.963-1.25 4.84-5.755 4.84-3.256 0-6.209-1.447-6.209-6.481 0-6.653 4.884-6.908 6.099-6.908 4.505 0 5.64 2.816 5.72 4.69h-2.917c-.265-2.13-1.967-2.2-2.64-2.2-.674 0-3.028.084-3.028 4.348 0 2.389 1.1 4.092 3.142 4.092a2.539 2.539 0 0 0 2.64-2.39h2.952m5.483.009l1.667-4.84 1.628 4.84h-3.295zm.15-8.184l-4.73 12.703h3.14l.797-2.39h4.58l.832 2.39h3.181L70.88 11.343h-3.027zm15.413 8.95h-.23c-2.837 0-3.37-1.452-3.37-2.728 0-2.816 2.764-2.728 3.37-2.728h.23v5.456zM83 24.556h2.992v-1.79h.493c4.884 0 5.984-3.155 5.984-5.201 0-1.963-1.1-5.117-5.984-5.117h-.493V10.56H83v1.874h-.492c-4.884 0-5.945 3.155-5.945 5.118 0 2.046 1.06 5.2 5.945 5.2H83v1.804zm2.728-4.276v-5.443h.23c.606 0 3.37-.084 3.37 2.728 0 1.962-1.25 2.728-3.37 2.728h-.23m14.997 1.623c-1.668 0-3.181-.937-3.181-4.18 0-2.983 1.135-4.263 3.181-4.263 3.08 0 3.221 3.08 3.221 4.263 0 1.026-.15 4.18-3.221 4.18zm0 2.473c4.4 0 6.437-2.816 6.437-6.653 0-3.92-2.046-6.736-6.437-6.736-4.999 0-6.398 3.753-6.398 6.736-.004 2.9 1.4 6.653 6.398 6.653zm12.153-.343h-2.993V11.34h2.993v4.778h4.58V11.34h2.992v12.707h-2.992V18.59h-4.58v5.456zm16.698-2.13c-1.668 0-3.182-.937-3.182-4.263 0-2.9 1.175-4.18 3.182-4.18 3.08 0 3.216 3.08 3.216 4.18 0 1.1-.15 4.263-3.216 4.263zm0 2.473c4.4 0 6.437-2.816 6.437-6.736C136 13.816 133.967 11 129.576 11c-4.959 0-6.398 3.753-6.398 6.653 0 2.983 1.439 6.736 6.398 6.736zm12.143-10.573h2.64c1.32 0 1.628.682 1.628 1.192 0 .51-.303 1.364-1.513 1.364h-2.755v-2.556zm-2.992-2.473v12.703h6.02c2.27 0 4.84-.51 4.84-3.581 0-2.302-1.703-2.984-2.689-3.239 1.21-.44 2.081-1.192 2.081-2.64 0-1.364-.607-3.238-3.898-3.238h-6.34l-.014-.005zm2.992 7.33h2.689c1.1 0 2.046.256 2.046 1.448 0 1.193-1.127 1.44-1.655 1.44h-3.08v-2.887zm22.088.854c-.189 1.963-1.249 4.84-5.755 4.84-3.256 0-6.208-1.447-6.208-6.481-.005-6.63 4.879-6.886 6.094-6.886 4.505 0 5.641 2.816 5.755 4.69h-2.952c-.264-2.13-1.967-2.2-2.64-2.2-.674 0-3.028.084-3.028 4.348 0 2.389 1.1 4.092 3.107 4.092a2.497 2.497 0 0 0 2.688-2.39h2.953m9.754-8.201h3.52l-5.073 5.8 5.377 6.907h-3.674l-4.466-6.226h-.04v6.226h-2.992V11.34h2.992v5.372h.04l4.316-5.372zm13.596 0h2.988v12.707h-2.988v-8.272l-5.077 8.272h-2.953V11.34h2.953v8.188l5.077-8.188zm14.349.004h2.992v12.703h-2.992v-8.272l-5.038 8.272h-2.992V11.343h2.992v8.184l5.038-8.184zm-4.088-3.155c0 .682.44 1.28 1.553 1.28 1.114 0 1.554-.598 1.589-1.28h2.006c-.149 2.39-2.952 2.557-3.599 2.557-.911 0-3.445-.255-3.56-2.557h2.011z" fill="#006BAC"/><path d="M52.14 33.084v-.937h2.16c-.14-1.347-1.02-1.347-1.399-1.347-.985 0-1.25.51-1.289.937h-1.32c.04-.937.682-2.046 2.539-2.046 2.31 0 2.877 1.536 2.877 2.9 0 2.9-2.046 2.983-2.802 2.983-1.703 0-2.614-.937-2.689-2.134h1.32a1.245 1.245 0 0 0 1.364 1.109 1.321 1.321 0 0 0 1.4-1.448H52.14m4.017 1.519h.203c.528 0 .721-.256.721-1.536l.075-1.708h3.41v4.009h-1.21v-3.15h-1.06v.853c-.04 2.13-.682 2.39-1.668 2.39h-.44v-.859M62.63 33a.932.932 0 0 1 .985-.937c.304 0 .832.083.88.937H62.63zm1.768 1.28a.774.774 0 0 1-.796.51.994.994 0 0 1-.986-1.108h3.107v-.172c-.04-.51-.115-2.301-2.081-2.301-1.32 0-2.27.766-2.27 2.2 0 2.046 1.627 2.134 2.16 2.134.756 0 1.76-.172 2.12-1.28l-1.254.017zm4.669-2.9h1.329l-1.668 1.875 1.742 2.134h-1.403l-1.285-1.707h-.04v1.707h-1.21v-4.008h1.21V33h.04l1.285-1.62zm1.439.854v-.853h3.902v.853h-1.364v3.155H71.83v-3.155h-1.324zm5.654 1.206c0-1.193.567-1.364.946-1.364.378 0 .946.171.946 1.364 0 .682-.265 1.364-.947 1.364-.681 0-.946-.695-.946-1.364zm-1.175-2.046v5.544h1.21v-1.892a1.572 1.572 0 0 0 1.25.51c1.135 0 1.856-.853 1.856-2.134 0-1.364-.722-2.2-1.857-2.2a1.618 1.618 0 0 0-1.285.669h-.04v-.51l-1.134.013zm7.11 3.396c-.88 0-.946-.853-.946-1.363 0-1.364.682-1.364.946-1.364.264 0 .946 0 .946 1.364 0 .51-.075 1.364-.946 1.364zm0 .766c1.25 0 2.235-.682 2.235-2.134 0-1.535-.946-2.2-2.235-2.2-1.135 0-2.2.599-2.2 2.2 0 1.452.95 2.134 2.2 2.134zm4.242-2.899h-.04l.04.172v2.56h-1.215v-4.008h1.593l1.096 2.812 1.1-2.812h1.628v4.008h-1.215v-2.732l-1.095 2.732h-.797l-1.095-2.732zm7.836 1.108a.959.959 0 0 1-.88 1.026c-.229 0-.642-.084-.642-.51 0-.428.44-.511.717-.6.44-.083.418 0 .796-.17v.254h.01zm-1.408-1.108c0-.599.528-.599.722-.599.193 0 .642 0 .682.51v.084c-.04.44-.379.343-1.25.51-.721.084-1.513.34-1.513 1.193 0 .339.15 1.192 1.438 1.192.49.01.964-.174 1.32-.51h.035l.115.343h1.25c-.23-.083-.264-.343-.23-.765v-1.87c0-.51-.039-1.536-1.856-1.536-.418 0-1.817.084-1.892 1.448h1.175m6.107 1.963v-3.24h1.21v3.24h1.329v-3.24h1.21v4.01h-6.248v-4.01h1.21v3.24h1.289zm7.612-3.24h1.285v4.01h-1.21v-2.562l-1.668 2.561h-1.285v-4.008h1.21v2.644l1.668-2.644zm3.48 4.01h-1.21v-4.01h1.21v1.537h1.479V31.38h1.175v4.008h-1.175v-1.707h-1.479v1.707zm5.681-.6c-.832 0-.946-.853-.946-1.363 0-1.364.682-1.364.946-1.364.264 0 .946 0 .946 1.364 0 .51-.04 1.364-.946 1.364zm0 .766c1.289 0 2.235-.682 2.235-2.134 0-1.535-.946-2.2-2.235-2.2-1.136 0-2.2.599-2.2 2.2.004 1.452.95 2.134 2.2 2.134zm6.969-1.619c-.039.598-.44 1.62-1.967 1.62-1.32 0-2.16-.766-2.16-2.135 0-1.025.418-2.2 2.235-2.2 1.364 0 1.76.854 1.857 1.62h-1.14c-.114-.683-.418-.766-.796-.766-.264 0-.911.083-.911 1.28 0 1.364.643 1.448.911 1.448a.808.808 0 0 0 .796-.854h1.175m.414-1.716v-.853h3.863v.853h-1.324v3.155h-1.21v-3.155h-1.329zm5.605 1.206c0-1.193.608-1.364.946-1.364.339 0 .946.171.946 1.364 0 .682-.228 1.364-.946 1.364-.717 0-.946-.682-.946-1.364zm-1.135-2.046v5.544h1.21v-1.892a1.548 1.548 0 0 0 1.21.51c1.175 0 1.857-.853 1.857-2.134 0-1.364-.682-2.2-1.817-2.2a1.678 1.678 0 0 0-1.32.682v-.523l-1.14.013zm7.119 3.396c-.88 0-.985-.853-.985-1.363 0-1.364.721-1.364.985-1.364s.946 0 .946 1.364c0 .51-.074 1.364-.946 1.364zm0 .766c1.25 0 2.2-.682 2.2-2.134 0-1.535-.946-2.2-2.2-2.2-1.135 0-2.2.599-2.2 2.2 0 1.448.946 2.134 2.2 2.134zm5.87-4.176h1.285v4.01h-1.21v-2.562l-1.668 2.561h-1.285v-4.008h1.21v2.644l1.668-2.644zm1.892.854v-.853h3.898v.853h-1.364v3.155h-1.21v-3.155h-1.324zm5.566.766a.94.94 0 0 1 .611-.882.936.936 0 0 1 .375-.055c.264 0 .831.083.831.937h-1.817zm1.76 1.28a.853.853 0 0 1-.832.51c-.796 0-.946-.681-.946-1.108h3.08v-.172c0-.51-.114-2.301-2.081-2.301-1.32 0-2.27.766-2.27 2.2 0 2.046 1.667 2.134 2.2 2.134.717 0 1.76-.172 2.081-1.28l-1.232.017zm1.725.34h.229c.492 0 .682-.256.717-1.536l.039-1.708h3.446v4.009h-1.21v-3.15h-1.1v.853c-.04 2.13-.682 2.39-1.628 2.39h-.493v-.859zm6.626-1.021h.528c.229 0 .718.083.718.51s-.265.51-.683.51h-.567V33.6h.004zm-1.214-2.2v4.008h2.235c.796 0 1.514-.255 1.514-1.192 0-1.448-1.364-1.365-1.76-1.365h-.757v-1.47l-1.232.018zm5.645 3.991h-1.214v-4.01h1.214v1.537h1.474V31.38h1.214v4.008h-1.214v-1.707h-1.474v1.707zm4.884-1.791h.528c.189 0 .722.083.722.51s-.418.51-.682.51h-.568V33.6zm-1.21-2.2v4.008h2.235c.607 0 1.479-.084 1.479-1.192 0-1.448-1.364-1.365-1.76-1.365h-.757v-1.47h-1.21l.013.018zm5.364-.018h-1.202v4.052h1.21l-.008-4.052zm3.872-.001h1.249v4.01h-1.175v-2.562l-1.667 2.557h-1.281V31.38h1.21v2.64l1.668-2.64h-.004zm-1.474-1.535c0 .51.567.51.682.51.338 0 .717-.083.682-.51h.88c-.04.51-.379 1.109-1.554 1.109-1.174 0-1.553-.598-1.588-1.109h.911m6.648 3.665c.04.599.379 1.026 1.32 1.026.942 0 1.135-.44 1.135-.766 0-.598-.642-.682-.985-.682h-.731v-1.025h.643c.378 0 .911-.084.911-.598 0-.682-.911-.682-1.1-.682a.842.842 0 0 0-.986.853h-1.289c.075-1.535 1.021-1.962 2.424-1.962 1.25 0 2.385.44 2.385 1.619a1.203 1.203 0 0 1-1.1 1.192c.796.172 1.25.599 1.25 1.452 0 1.364-1.364 1.62-2.574 1.62-1.136 0-2.46-.256-2.539-2.046h1.249m7.37.254a.94.94 0 0 1-.517.93.94.94 0 0 1-.363.096c-.228 0-.642-.084-.642-.51 0-.428.44-.511.722-.6.44-.083.418 0 .796-.17v.254h.004zm-1.403-1.108c0-.599.528-.599.757-.599.114 0 .642 0 .642.51v.084c-.04.44-.343.343-1.25.51-.717.084-1.478.34-1.478 1.281 0 .255.114 1.109 1.399 1.109a1.97 1.97 0 0 0 1.364-.51l.115.343h1.249c-.229-.084-.229-.344-.229-.766l.04-1.874c0-.51-.04-1.536-1.857-1.536-.44 0-1.857.084-1.892 1.448h1.14zm4.813-.423h.643c.339 0 .642 0 .642.344 0 .343-.44.44-.642.44h-.643v-.784zm-1.21-.853v4.008h2.425c.88 0 1.478-.171 1.478-1.025 0-.598-.303-.853-.985-1.025a.982.982 0 0 0 .831-1.025c0-.938-.946-.938-1.32-.938h-2.424l-.005.005zm1.215 2.297h.757c.567 0 .682.255.682.51 0 .172-.075.44-.682.44h-.757v-.95zm5.447 1.112c-.832 0-.946-.853-.946-1.363 0-1.364.682-1.364.946-1.364.264 0 .986 0 .986 1.364 0 .51-.115 1.364-.986 1.364zm0 .767c1.289 0 2.235-.683 2.235-2.135 0-1.535-.946-2.2-2.235-2.2a2.039 2.039 0 0 0-2.081 1.331 2.042 2.042 0 0 0-.119.87c.004 1.451.95 2.133 2.2 2.133zm5.944-3.323v2.39h-1.65c.354-.63.532-1.342.515-2.064v-.343h1.135v.017zm-3.41 2.385l.075 1.875h1.021v-1.105h3.106v1.11h1.021l.075-1.875h-.678V31.38h-3.445v.766a4.525 4.525 0 0 1-.642 2.472h-.533z" fill="#303030"/></svg>