<svg width="188" height="44" fill="none" xmlns="http://www.w3.org/2000/svg"><path fill-rule="evenodd" clip-rule="evenodd" d="M165 32v-5.68s4.71 1.16 4.71-3.35V8.41h17.33v23.52h-6.28v-18h-4.66v9s1.26 11.71-11.05 9L165 32zM146.33 3.2L150 1.76s.12 2 2.69 2 2.75-2 2.75-2l3.72 1.45s-1 3.86-6.47 3.86-6.36-3.86-6.36-3.86V3.2zm-4.26 28.69h6.32l8.68-14.11v14.11h6.09V8.37h-6.36l-8.63 14.23V8.37h-6.07V31.9l-.03-.01zm-46.33 0V8.37h6.32v9.93l6.55-9.93h7.5l-8.43 11.36 8.92 12.16h-7.97l-6.57-10.01v10.01h-6.32zm-18.53 0l3.29-6.57-8.37-16.95h7.48l4.15 9.89 3.53-9.89h7.01L84.01 31.89h-6.8zm-28.63.02v-5.64s4.71 1.16 4.71-3.35V8.37h17.33v23.52h-6.28v-18h-4.71v9s1.26 11.71-11.05 9v.02z" fill="#1D1D1B"/><path fill-rule="evenodd" clip-rule="evenodd" d="M131.56 8.37c-4.07-4.28-4.42-6.78-4.42-6.78s-.51 3-4.19 6.78c-3.68 3.78-9 8.35-9 12.93s3.43 12.31 13.19 12.31 13.2-7.85 13.2-12.31c0-4.46-4.71-8.65-8.78-12.93zM121.29 14a18.716 18.716 0 0 0-1.18 4.23c-.17 1.69-.1 4.26-.1 4.65 0 .39-.06.64-.48.37a4.138 4.138 0 0 1-1.74-4.32 8.678 8.678 0 0 1 3.29-5.3s.15-.14.25-.09c.1.05.06.17-.05.45l.01.01z" fill="#1D1D1B"/><path fill-rule="evenodd" clip-rule="evenodd" d="M0 0v43.19h43.67V0H0zm13.65 7.11a2.5 2.5 0 0 1 2.5-2.42 2.48 2.48 0 0 1 2.48 2.42V24a1.592 1.592 0 0 0 1.71 1.53 1.44 1.44 0 0 0 1.6-1.53V7.11a2.62 2.62 0 0 1 2.54-2.42A2.56 2.56 0 0 1 27 7.11V24a6.66 6.66 0 0 1-6.63 6.53C13.78 30.3 13.63 24 13.63 24V7.14l.02-.03zM10.31 37s-5 0-5-4.94v-25a2.4 2.4 0 0 1 2.48-2.37 2.38 2.38 0 0 1 2.5 2.42v23.38s-.19 1.57 1.71 1.57h22.47l-5.41-13.22s-.87-2.29 0-3.86c.87-1.57 4.54-7.87 4.54-7.87s1-2.42 2.91-2.42a2.43 2.43 0 0 1 2.21 3.47c-.78 1.43-4.34 7.52-4.34 7.52a2.88 2.88 0 0 0 0 3C35.88 22.21 41.91 37 41.91 37h-31.6z" fill="#E30613"/><path fill-rule="evenodd" clip-rule="evenodd" d="M49.39 38.05h4.39v-3.48h.95v8.56h-.95v-4.18h-4.39v4.18h-.95v-8.56h.95v3.48zm12.51-2.58h-3.5v2.54h3.4v.9h-3.4v3.33h3.5v.89h-4.45v-8.56h4.45v.9zm5.96 6.46h-.23c-3.18 0-3.93-2-3.93-3.34 0-1.34.74-3.34 3.93-3.34h.23v-1h1v1H69c3.18 0 3.93 2 3.93 3.34 0 1.34-.74 3.34-3.93 3.34h-.23v1.21h-1v-1.21h.09zm0-5.78h-.26c-2.34 0-2.93 1.35-2.93 2.44 0 1.09.59 2.41 2.93 2.41h.26v-4.85zm1 4.88h.26C71.4 41 72 39.68 72 38.59c0-1.09-.59-2.44-2.93-2.44h-.26V41l.05.03zm8.47-5.56v7.66h-.95v-7.66H74.3v-.9h5.11v.9h-2.08zM83 39.33a2.78 2.78 0 0 1-1.44-.54 2.119 2.119 0 0 1-.73-1.79 2.46 2.46 0 0 1 .59-1.71 2.72 2.72 0 0 1 2.13-.77h2v8.56h-1v-3.69h-.51l-2.44 3.75h-1.11L83 39.33zm.67-3.87a2 2 0 0 0-1.46.45A1.6 1.6 0 0 0 81.8 37a1.4 1.4 0 0 0 .49 1.16 2.2 2.2 0 0 0 1.31.36h1v-3.05l-.93-.01zm5.56 2.59h4.39v-3.48h.95v8.56h-.95v-4.18h-4.39v4.18h-.95v-8.56h.95v3.48zM102 40.72h-3.63l-1 2.41h-1.08l3.94-9 3.84 9H103l-1-2.41zm-.37-.9l-1.44-3.43-1.46 3.43h2.9zm5.96-.49a2.781 2.781 0 0 1-1.44-.54 2.114 2.114 0 0 1-.74-1.75 2.457 2.457 0 0 1 .59-1.71 2.718 2.718 0 0 1 2.13-.77h2v8.56h-1v-3.73h-.51l-2.44 3.75h-1.16l2.52-3.8.05-.01zm.67-3.87a2 2 0 0 0-1.46.45 1.599 1.599 0 0 0-.41 1.1 1.396 1.396 0 0 0 .49 1.16 2.2 2.2 0 0 0 1.31.36h1v-3.06l-.93-.01zm9.05 2.78l3.65-3.67h1.28l-4 3.99 4.13 4.57h-1.31l-3.5-3.93-.25.25v3.68h-.95v-8.56h.95v3.67zm6.4.62a4.463 4.463 0 0 1 2.732-4.142 4.462 4.462 0 0 1 6.1 3.23 4.455 4.455 0 0 1-4.372 5.341 4.37 4.37 0 0 1-4.46-4.429zm1 0a3.476 3.476 0 0 0 2.183 3.18 3.477 3.477 0 0 0 4.713-2.57 3.472 3.472 0 0 0-1.488-3.557 3.48 3.48 0 0 0-1.928-.583 3.49 3.49 0 0 0-3.48 3.53zm9.88 4.27l1.42-9.04 3.29 7.23 3.35-7.24 1.34 9.05h-.98l-.81-5.95-2.91 6.31-2.88-6.31-.85 5.95h-.97zm18.18-8.56v8.56h-.95v-7.66h-4.39v7.66h-.95v-8.56h6.29zm7.45 6.15h-3.65l-1 2.41h-1.05l3.94-9 3.84 9h-1.05l-1-2.41h-.03zm-.37-.9l-1.44-3.43-1.46 3.43h2.9zm5.1-1.77h4.39v-3.48h.95v8.56h-.95v-4.18h-4.39v4.18H164v-8.56h.95v3.48zm14.02-1.45l-5.96 6.92v-8.95h.96v6.56l5.95-6.92v8.92h-.95V36.6zm5.47 2.73a2.79 2.79 0 0 1-1.44-.54 2.114 2.114 0 0 1-.74-1.75 2.457 2.457 0 0 1 .59-1.71 2.718 2.718 0 0 1 2.13-.77h2v8.56h-1v-3.73h-.51l-2.44 3.75h-1.16l2.52-3.8.05-.01zm.67-3.87a2 2 0 0 0-1.46.45 1.599 1.599 0 0 0-.41 1.1 1.396 1.396 0 0 0 .49 1.16 2.2 2.2 0 0 0 1.31.36h1v-3.06l-.93-.01z" fill="#1D1D1B"/></svg>